G04*
G04 #@! TF.GenerationSoftware,Altium Limited,Altium Designer,19.1.5 (86)*
G04*
G04 Layer_Color=255*
%FSLAX25Y25*%
%MOIN*%
G70*
G01*
G75*
%ADD104C,0.09843*%
%ADD105C,0.05906*%
%ADD106C,0.04724*%
%ADD107C,0.05118*%
%ADD108C,0.06319*%
%ADD109C,0.06004*%
%ADD110C,0.11811*%
%ADD111C,0.05984*%
%ADD112R,0.05984X0.05984*%
%ADD113R,0.05984X0.05984*%
%ADD114R,0.04724X0.04724*%
D104*
X302900Y324500D02*
D03*
X382800Y496600D02*
D03*
X305700Y374600D02*
D03*
X633100Y375900D02*
D03*
X617500Y269500D02*
D03*
D105*
X411252Y490000D02*
D03*
X442748D02*
D03*
D106*
X419126D02*
D03*
X320428Y478000D02*
D03*
Y468000D02*
D03*
Y458000D02*
D03*
Y448000D02*
D03*
Y438000D02*
D03*
Y428000D02*
D03*
Y418000D02*
D03*
Y408000D02*
D03*
Y398000D02*
D03*
Y388000D02*
D03*
Y378000D02*
D03*
Y368000D02*
D03*
Y358000D02*
D03*
Y348000D02*
D03*
Y338000D02*
D03*
Y328000D02*
D03*
Y318000D02*
D03*
Y308000D02*
D03*
Y298000D02*
D03*
X620428Y488000D02*
D03*
Y478000D02*
D03*
Y468000D02*
D03*
Y458000D02*
D03*
Y448000D02*
D03*
Y438000D02*
D03*
Y428000D02*
D03*
Y418000D02*
D03*
Y408000D02*
D03*
Y398000D02*
D03*
Y388000D02*
D03*
Y378000D02*
D03*
Y368000D02*
D03*
Y358000D02*
D03*
Y348000D02*
D03*
Y338000D02*
D03*
Y328000D02*
D03*
Y318000D02*
D03*
Y308000D02*
D03*
D107*
X427000Y490000D02*
D03*
X434874D02*
D03*
D108*
X640500Y487932D02*
D03*
Y476121D02*
D03*
Y464310D02*
D03*
Y452499D02*
D03*
Y440688D02*
D03*
Y428877D02*
D03*
Y417066D02*
D03*
Y405255D02*
D03*
Y393444D02*
D03*
X300000Y393445D02*
D03*
X300000Y405256D02*
D03*
X300000Y417067D02*
D03*
X300000Y428878D02*
D03*
X300000Y440689D02*
D03*
X300000Y452500D02*
D03*
X300000Y464311D02*
D03*
Y476122D02*
D03*
Y487933D02*
D03*
X640500Y358073D02*
D03*
Y346262D02*
D03*
Y334451D02*
D03*
Y322640D02*
D03*
Y310829D02*
D03*
Y299018D02*
D03*
Y287207D02*
D03*
Y275395D02*
D03*
Y263584D02*
D03*
D109*
X657508Y479467D02*
D03*
Y401908D02*
D03*
X282992Y401909D02*
D03*
X282992Y479468D02*
D03*
X657508Y349608D02*
D03*
Y272049D02*
D03*
D110*
X620595Y220492D02*
D03*
X284000Y350500D02*
D03*
X285500Y298000D02*
D03*
D111*
X614689Y237500D02*
D03*
X301008Y356405D02*
D03*
X279594Y315008D02*
D03*
D112*
X626500Y237500D02*
D03*
X291406Y315008D02*
D03*
D113*
X301008Y344595D02*
D03*
D114*
X320428Y488000D02*
D03*
X620428Y298000D02*
D03*
M02*
