G04*
G04 #@! TF.GenerationSoftware,Altium Limited,Altium Designer,19.1.5 (86)*
G04*
G04 Layer_Color=32768*
%FSLAX25Y25*%
%MOIN*%
G70*
G01*
G75*
%ADD13C,0.00394*%
%ADD118C,0.00197*%
D13*
X407799Y358437D02*
X442839D01*
X407799Y325563D02*
Y358437D01*
Y325563D02*
X442839D01*
Y358437D01*
X449638Y477598D02*
Y502402D01*
X404362D02*
X449638D01*
X404362Y477598D02*
Y502402D01*
Y477598D02*
X449638D01*
X490382Y476721D02*
Y504083D01*
X526307D01*
Y476721D02*
Y504083D01*
X490382Y476721D02*
X526307D01*
X627902Y504920D02*
X627902Y376455D01*
X627902Y504920D02*
X679555D01*
Y376455D02*
Y504920D01*
X627902Y376455D02*
X679555D01*
X312598Y504921D02*
X312598Y376457D01*
X260945Y376457D02*
X312598Y376457D01*
X260945Y376457D02*
Y504921D01*
X312598Y504921D01*
X627902Y246596D02*
Y375061D01*
X679555D01*
Y246596D02*
Y375061D01*
X627902Y246596D02*
X679555D01*
D118*
X564284Y483638D02*
Y498362D01*
X534717D02*
X564284D01*
X534717Y483638D02*
Y498362D01*
Y483638D02*
X564284D01*
X594732Y320587D02*
X611268D01*
Y306413D02*
Y320587D01*
X594732Y306413D02*
X611268D01*
X594732D02*
Y320587D01*
X407575Y454169D02*
X414425D01*
X407575Y442831D02*
Y454169D01*
Y442831D02*
X414425D01*
Y454169D01*
X446575Y449669D02*
X453425D01*
X446575Y438331D02*
Y449669D01*
Y438331D02*
X453425D01*
Y449669D01*
X344284Y292740D02*
X379716D01*
X344284D02*
Y312425D01*
X379716D01*
Y292740D02*
Y312425D01*
X342569Y299665D02*
Y320335D01*
X328789Y299665D02*
X342569D01*
X328789D02*
Y320335D01*
X342569D01*
X331972Y321533D02*
Y340824D01*
X341028D01*
Y321533D02*
Y340824D01*
X331972Y321533D02*
X341028D01*
X342102Y353012D02*
Y361988D01*
Y353012D02*
X359898D01*
Y361988D01*
X342102D02*
X359898D01*
X476575Y355669D02*
X483425D01*
X476575Y344331D02*
Y355669D01*
Y344331D02*
X483425D01*
Y355669D01*
X342725Y349301D02*
X357883D01*
Y335364D02*
Y349301D01*
X342725Y335364D02*
X357883D01*
X342725D02*
Y349301D01*
X361768Y353250D02*
Y372935D01*
Y353250D02*
X370232D01*
Y372935D01*
X361768D02*
X370232D01*
X346807Y326686D02*
X360193D01*
X346807D02*
Y334166D01*
X360193D01*
Y326686D02*
Y334166D01*
X361898Y316512D02*
Y325488D01*
X344102D02*
X361898D01*
X344102Y316512D02*
Y325488D01*
Y316512D02*
X361898D01*
X363095Y316307D02*
Y329693D01*
X370576D01*
Y316307D02*
Y329693D01*
X363095Y316307D02*
X370576D01*
X371774Y341969D02*
X405238D01*
Y313622D02*
Y341969D01*
X371774Y313622D02*
X405238D01*
X371774D02*
Y341969D01*
X385169Y353341D02*
Y360191D01*
X373831D02*
X385169D01*
X373831Y353341D02*
Y360191D01*
Y353341D02*
X385169D01*
X389898Y343167D02*
Y352143D01*
X372102D02*
X389898D01*
X372102Y343167D02*
Y352143D01*
Y343167D02*
X389898D01*
X361605Y330891D02*
Y350576D01*
Y330891D02*
X370070D01*
Y350576D01*
X361605D02*
X370070D01*
X431623Y369831D02*
Y381169D01*
X438473D01*
Y369831D02*
Y381169D01*
X431623Y369831D02*
X438473D01*
X423575D02*
Y381169D01*
X430425D01*
Y369831D02*
Y381169D01*
X423575Y369831D02*
X430425D01*
X520807Y351240D02*
X534193D01*
Y343760D02*
Y351240D01*
X520807Y343760D02*
X534193D01*
X520807D02*
Y351240D01*
X501696Y340602D02*
Y353398D01*
Y340602D02*
X519609D01*
Y353398D01*
X501696D02*
X519609D01*
X484307Y336240D02*
X497693D01*
Y328760D02*
Y336240D01*
X484307Y328760D02*
X497693D01*
X484307D02*
Y336240D01*
Y327240D02*
X497693D01*
Y319760D02*
Y327240D01*
X484307Y319760D02*
X497693D01*
X484307D02*
Y327240D01*
Y316240D02*
X497693D01*
Y308760D02*
Y316240D01*
X484307Y308760D02*
X497693D01*
X484307D02*
Y316240D01*
X480594Y328858D02*
Y336142D01*
X467406D02*
X480594D01*
X467406Y328858D02*
Y336142D01*
Y328858D02*
X480594D01*
X465196Y306102D02*
Y318898D01*
Y306102D02*
X483109D01*
Y318898D01*
X465196D02*
X483109D01*
X480594Y320095D02*
Y327379D01*
X467406D02*
X480594D01*
X467406Y320095D02*
Y327379D01*
Y320095D02*
X480594D01*
X594232Y392996D02*
Y400004D01*
Y392996D02*
X605768D01*
Y400004D01*
X594232D02*
X605768D01*
X598732Y455004D02*
X610268D01*
Y447996D02*
Y455004D01*
X598732Y447996D02*
X610268D01*
X598732D02*
Y455004D01*
X571807Y382760D02*
X585193D01*
X571807D02*
Y390240D01*
X585193D01*
Y382760D02*
Y390240D01*
X571760Y367807D02*
Y381193D01*
X579240D01*
Y367807D02*
Y381193D01*
X571760Y367807D02*
X579240D01*
X571760Y353223D02*
Y366609D01*
X579240D01*
Y353223D02*
Y366609D01*
X571760Y353223D02*
X579240D01*
X567831Y345075D02*
X579169D01*
X567831D02*
Y351925D01*
X579169D01*
Y345075D02*
Y351925D01*
X575307Y442260D02*
X588693D01*
X575307D02*
Y449740D01*
X588693D01*
Y442260D02*
Y449740D01*
X582669Y404075D02*
Y410925D01*
X571331D02*
X582669D01*
X571331Y404075D02*
Y410925D01*
Y404075D02*
X582669D01*
X575260Y427307D02*
Y440693D01*
X582740D01*
Y427307D02*
Y440693D01*
X575260Y427307D02*
X582740D01*
X575260Y412723D02*
Y426109D01*
X582740D01*
Y412723D02*
Y426109D01*
X575260Y412723D02*
X582740D01*
X462512Y471268D02*
X476488D01*
X462512Y454732D02*
Y471268D01*
Y454732D02*
X476488D01*
Y471268D01*
X543642Y473028D02*
X561358D01*
Y463972D02*
Y473028D01*
X543642Y463972D02*
X561358D01*
X543642D02*
Y473028D01*
X505307Y475240D02*
X518693D01*
Y467760D02*
Y475240D01*
X505307Y467760D02*
X518693D01*
X505307D02*
Y475240D01*
X604606Y472173D02*
Y493827D01*
X575394Y472173D02*
Y493827D01*
Y472173D02*
X604606D01*
X575394Y493827D02*
X604606D01*
X596598Y195453D02*
Y245292D01*
Y195453D02*
X644591D01*
Y245292D01*
X596598D02*
X644591D01*
X258961Y374496D02*
X308800D01*
X258961Y326504D02*
Y374496D01*
Y326504D02*
X308800D01*
Y374496D01*
X261504Y272961D02*
Y322800D01*
Y272961D02*
X309496D01*
Y322800D01*
X261504D02*
X309496D01*
X314444Y493984D02*
X326413D01*
Y292016D02*
Y493984D01*
X314444Y292016D02*
X326413D01*
X314444D02*
Y493984D01*
X590579Y373177D02*
X600421D01*
Y382823D01*
X590579D02*
X600421D01*
X590579Y373177D02*
Y382823D01*
X594579Y428177D02*
X604421D01*
Y437823D01*
X594579D02*
X604421D01*
X594579Y428177D02*
Y437823D01*
X626413Y292016D02*
Y493984D01*
X614444D02*
X626413D01*
X614444Y292016D02*
Y493984D01*
Y292016D02*
X626413D01*
X512925Y398331D02*
Y409669D01*
X506075Y398331D02*
X512925D01*
X506075D02*
Y409669D01*
X512925D01*
X503925Y398331D02*
Y409669D01*
X497075Y398331D02*
X503925D01*
X497075D02*
Y409669D01*
X503925D01*
X445831Y429425D02*
X457169D01*
Y422575D02*
Y429425D01*
X445831Y422575D02*
X457169D01*
X445831D02*
Y429425D01*
Y421377D02*
X457169D01*
Y414527D02*
Y421377D01*
X445831Y414527D02*
X457169D01*
X445831D02*
Y421377D01*
X442524Y412976D02*
X495476D01*
Y360024D02*
Y412976D01*
X442524Y360024D02*
X495476D01*
X442524D02*
Y412976D01*
X484623Y351623D02*
X495962D01*
X484623D02*
Y358473D01*
X495962D01*
Y351623D02*
Y358473D01*
X484623Y343575D02*
X495962D01*
X484623D02*
Y350425D01*
X495962D01*
Y343575D02*
Y350425D01*
X447831Y350123D02*
X459169D01*
X447831D02*
Y356973D01*
X459169D01*
Y350123D02*
Y356973D01*
X447831Y342075D02*
X459169D01*
X447831D02*
Y348925D01*
X459169D01*
Y342075D02*
Y348925D01*
X415835Y433173D02*
X445165D01*
X415835D02*
Y454827D01*
X445165D01*
Y433173D02*
Y454827D01*
M02*
