M48
;Layer_Color=9474304
;FILE_FORMAT=2:5
INCH,LZ
;TYPE=PLATED
T1F00S00C0.01000
T2F00S00C0.02000
T3F00S00C0.02953
T4F00S00C0.03150
T5F00S00C0.03937
T6F00S00C0.04016
T7F00S00C0.04213
T8F00S00C0.12598
;TYPE=NON_PLATED
T9F00S00C0.11811
T10F00S00C0.12008
%
T01
X06005Y02885
X05985Y03025
X0595
X05915
Y0306
Y03095
X0341Y02885
X0358768Y0321
X0365838Y0333056
X0401768Y0326918
X0418823Y0352
X0428Y03605
X0451Y0361
X0457Y03535
X04465Y04115
X0448Y0426
X04565Y0439
X04195Y04415
Y04465
X0411Y04515
X043Y04215
X04055Y03755
X0469Y0358
X04765
X0475Y0354
X0472Y0351
X0471Y03325
Y03235
X04705Y03125
X04935Y0347
Y0355
X05085Y03665
Y03725
Y03785
X0512Y03755
Y03695
X0518Y03725
X0531Y03815
Y03865
Y03915
X0535Y0389
Y0384
Y03785
X05225Y0400772
X05095Y0400772
Y04075
X0482Y04235
X0486Y0432
X04835Y0435
X0492Y04365
X04895Y0439
X05215Y04665
X05425Y04575
X0545Y0453
X0558405Y04685
X0607Y0446
Y04425
Y0439
Y04355
X0588Y04185
Y0413
Y0408
X058Y04075
X0579Y0416
X05725Y0402
X0569
X05655
X06045Y0391
Y0388
Y0385
Y0382
X059Y03175
X0564Y03425
X05215Y047
Y04735
X04735Y0469
X05995Y05
X0466Y0469
X0349Y05
T02
X059Y049
T03
X0419126Y049
T04
X0620428Y0298
Y0308
X0320428
Y0298
Y0318
Y0328
Y0338
Y0348
Y0358
Y0368
Y0378
Y0388
Y0398
Y0408
Y0418
Y0428
Y0438
Y0448
Y0458
Y0468
X0620428
Y0458
Y0448
Y0438
Y0428
Y0418
Y0408
Y0398
Y0388
Y0378
Y0368
Y0358
Y0348
Y0338
Y0328
Y0318
Y0478
Y0488
X0434874Y049
X0427
X0320428Y0488
Y0478
T05
X0411252Y049
X0442748
T06
X06265Y02375
X0614689
X0291406Y0315008
X0279594
X0301008Y0344595
Y0356405
T07
X06405Y0263584
Y0275395
Y0287207
Y0299018
Y0310829
X03Y0393445
X03Y0405256
X03Y0417067
X03Y0428878
X03Y0440689
X03Y04525
X03Y0464311
X06405Y046431
Y0452499
Y0440688
Y0428877
Y0417066
Y0405255
Y0393444
Y0358073
Y0346262
Y0334451
Y032264
Y0476121
Y0487932
X03Y0487933
Y0476122
T08
X06175Y02695
X03029Y03245
X03057Y03746
X06331Y03759
X03828Y04966
T09
X0620595Y0220492
X02855Y0298
X0284Y03505
T10
X0657508Y0272049
X0282992Y0401909
X0657508Y0401908
Y0349608
Y0479467
X0282992Y0479468
M30
