G04*
G04 #@! TF.GenerationSoftware,Altium Limited,Altium Designer,19.1.5 (86)*
G04*
G04 Layer_Color=65535*
%FSLAX25Y25*%
%MOIN*%
G70*
G01*
G75*
%ADD10C,0.00600*%
%ADD11C,0.01000*%
%ADD12C,0.00787*%
%ADD13C,0.00394*%
%ADD14C,0.00984*%
%ADD15C,0.00500*%
G36*
X343416Y407259D02*
X344510Y406165D01*
Y398884D01*
X343416Y397790D01*
X335854D01*
X334760Y398905D01*
Y406186D01*
X335854Y407280D01*
X343416D01*
Y407259D01*
D02*
G37*
G36*
X344510Y416347D02*
Y409024D01*
X343416Y407930D01*
X335854D01*
Y407951D01*
X334760Y409045D01*
Y416326D01*
X335854Y417420D01*
X343437D01*
X344510Y416347D01*
D02*
G37*
G36*
X346718Y407076D02*
X353416D01*
X353608Y406614D01*
X345920Y398927D01*
X345420Y399134D01*
Y406186D01*
X346514Y407280D01*
X346718Y407076D01*
D02*
G37*
G36*
X355040Y416326D02*
Y409045D01*
X353946Y407951D01*
Y407930D01*
X346384D01*
X345290Y409045D01*
Y416176D01*
X346515Y417401D01*
Y417420D01*
X353946D01*
X355040Y416326D01*
D02*
G37*
D10*
X566153Y491787D02*
G03*
X566153Y491787I-591J0D01*
G01*
D11*
X348427Y397928D02*
G03*
X350211Y397920I1784J206763D01*
G01*
X347244Y397955D02*
G03*
X348427Y397928I1548J42280D01*
G01*
X346378Y397992D02*
G03*
X347244Y397955I3059J59843D01*
G01*
X346256Y398065D02*
G03*
X346378Y397992I130J81D01*
G01*
X346267Y398178D02*
G03*
X346256Y398065I68J-64D01*
G01*
X347348Y399326D02*
G03*
X346267Y398178I286247J-270504D01*
G01*
X345906Y398645D02*
G03*
X346470Y399099I-3798J5297D01*
G01*
X345653Y398660D02*
G03*
X345906Y398645I136J150D01*
G01*
X351903Y403944D02*
G03*
X350310Y402355I631902J-634855D01*
G01*
X353253Y405282D02*
G03*
X351903Y403944I322237J-326434D01*
G01*
X350310Y402355D02*
G03*
X348648Y400676I177286J-177220D01*
G01*
X352343Y407273D02*
G03*
X350241Y407280I-2102J-338837D01*
G01*
X353344Y407244D02*
G03*
X352343Y407273I-1135J-21716D01*
G01*
X350096Y402661D02*
G03*
X352470Y405048I-487494J487321D01*
G01*
X354509Y406500D02*
G03*
X354470Y406484I0J-55D01*
G01*
X354542Y406490D02*
G03*
X354509Y406500I-33J-49D01*
G01*
X354618Y406437D02*
G03*
X354542Y406490I-1201J-1638D01*
G01*
X354707Y406367D02*
G03*
X354618Y406437I-1213J-1463D01*
G01*
X354802Y406285D02*
G03*
X354707Y406367I-1957J-2163D01*
G01*
X354939Y406043D02*
G03*
X354802Y406285I-434J-86D01*
G01*
X355003Y405551D02*
G03*
X354939Y406043I-3705J-232D01*
G01*
X355034Y404654D02*
G03*
X355003Y405551I-15766J-88D01*
G01*
X355040Y402489D02*
G03*
X355034Y404654I-388201J0D01*
G01*
X354137Y407076D02*
G03*
X353927Y407192I-251J-209D01*
G01*
X354137Y406858D02*
G03*
X354137Y407076I-132J109D01*
G01*
X368376Y389860D02*
G03*
X369055Y389095I3300J2248D01*
G01*
X367961Y390729D02*
G03*
X368376Y389860I3030J912D01*
G01*
X367804Y391363D02*
G03*
X367961Y390729I6470J1266D01*
G01*
X367897Y391579D02*
G03*
X367804Y391363I110J-175D01*
G01*
X368199Y391669D02*
G03*
X367897Y391579I10J-587D01*
G01*
X368636Y394601D02*
G03*
X369095Y394087I2604J1861D01*
G01*
X368202Y395299D02*
G03*
X368636Y394601I5657J3034D01*
G01*
X367838Y396091D02*
G03*
X368202Y395299I6610J2558D01*
G01*
X367590Y396892D02*
G03*
X367838Y396091I5929J1398D01*
G01*
X367454Y397735D02*
G03*
X367590Y396892I5983J535D01*
G01*
X367399Y398793D02*
G03*
X367454Y397735I14101J198D01*
G01*
X367424Y399848D02*
G03*
X367399Y398793I14009J-857D01*
G01*
X368050Y402179D02*
G03*
X367537Y400676I6047J-2902D01*
G01*
X368886Y403453D02*
G03*
X368050Y402179I4319J-3748D01*
G01*
X368657Y407405D02*
G03*
X369161Y407003I2464J2572D01*
G01*
X369279Y413024D02*
G03*
X369232Y412405I1581J-431D01*
G01*
X367812Y408887D02*
G03*
X367967Y408388I3964J957D01*
G01*
X367839Y409169D02*
G03*
X367812Y408887I400J-180D01*
G01*
X368021Y409314D02*
G03*
X367839Y409169I49J-249D01*
G01*
X368392Y409335D02*
G03*
X368021Y409314I-111J-1331D01*
G01*
X368667Y409298D02*
G03*
X368392Y409335I-494J-2578D01*
G01*
X368810Y409231D02*
G03*
X368667Y409298I-203J-248D01*
G01*
X368897Y409107D02*
G03*
X368810Y409231I-264J-93D01*
G01*
X368963Y408867D02*
G03*
X368897Y409107I-1775J-360D01*
G01*
X368963Y408867D02*
G03*
X369206Y408294I1527J310D01*
G01*
X368163Y411902D02*
G03*
X368588Y411253I1353J424D01*
G01*
X368072Y412769D02*
G03*
X368163Y411902I2188J-210D01*
G01*
X368125Y413107D02*
G03*
X368072Y412769I2884J-620D01*
G01*
X368211Y413369D02*
G03*
X368125Y413107I1154J-529D01*
G01*
X368353Y413605D02*
G03*
X368212Y413369I1011J-764D01*
G01*
X368574Y413865D02*
G03*
X368353Y413605I2117J-2028D01*
G01*
X368901Y414170D02*
G03*
X368574Y413865I2521J-3033D01*
G01*
X369214Y414384D02*
G03*
X368901Y414170I1010J-1806D01*
G01*
X375687Y387883D02*
G03*
X376739Y388224I-1383J6065D01*
G01*
X374662Y387739D02*
G03*
X375687Y387883I-345J6154D01*
G01*
X373342Y387719D02*
G03*
X374662Y387739I422J16007D01*
G01*
X372043Y387807D02*
G03*
X373342Y387719I1718J15780D01*
G01*
X371093Y388005D02*
G03*
X372043Y387807I1493J4793D01*
G01*
X369973Y388468D02*
G03*
X371093Y388005I3117J5949D01*
G01*
X371302Y391323D02*
G03*
X371650Y390750I1730J658D01*
G01*
Y390750D02*
G03*
X372181Y390332I1436J1278D01*
G01*
Y390332D02*
G03*
X372900Y390079I1191J2233D01*
G01*
D02*
G03*
X373797Y389993I913J4807D01*
G01*
D02*
G03*
X374515Y390034I19J5995D01*
G01*
D02*
G03*
X375060Y390168I-263J2239D01*
G01*
D02*
G03*
X375509Y390418I-653J1703D01*
G01*
Y390418D02*
G03*
X375932Y390812I-1743J2296D01*
G01*
Y390812D02*
G03*
X376269Y391293I-2012J1766D01*
G01*
D02*
G03*
X376477Y391818I-2007J1098D01*
G01*
X370802Y399150D02*
G03*
X370891Y398110I6054J-2D01*
G01*
D02*
G03*
X371131Y397152I6671J1162D01*
G01*
D02*
G03*
X371482Y396433I2818J929D01*
G01*
D02*
G03*
X371970Y395904I1916J1280D01*
G01*
D02*
G03*
X372620Y395521I1720J2178D01*
G01*
D02*
G03*
X373463Y395327I990J2370D01*
G01*
D02*
G03*
X374353Y395412I169J2930D01*
G01*
D02*
G03*
X375182Y395763I-731J2881D01*
G01*
D02*
G03*
X375845Y396339I-1418J2301D01*
G01*
Y396339D02*
G03*
X376499Y397693I-2417J2003D01*
G01*
D02*
G03*
X376599Y399459I-5720J1210D01*
G01*
X376586Y392492D02*
G03*
X376619Y393465I-14498J981D01*
G01*
X374626Y393105D02*
G03*
X376094Y394094I-1344J3580D01*
G01*
X372716Y392758D02*
G03*
X374626Y393105I-5J5448D01*
G01*
X370743Y393100D02*
G03*
X372716Y392758I1968J5486D01*
G01*
X375286Y402183D02*
G03*
X374975Y402361I-1519J-2296D01*
G01*
X374975D02*
G03*
X374681Y402470I-708J-1451D01*
G01*
X374681D02*
G03*
X374332Y402533I-567J-2134D01*
G01*
D02*
G03*
X373837Y402568I-814J-8198D01*
G01*
D02*
G03*
X373096Y402552I-237J-6118D01*
G01*
Y402552D02*
G03*
X372565Y402428I153J-1854D01*
G01*
Y402428D02*
G03*
X372121Y402163I595J-1506D01*
G01*
D02*
G03*
X371660Y401707I2511J-3000D01*
G01*
D02*
G03*
X371195Y400985I2421J-2072D01*
G01*
X376172Y401124D02*
G03*
X375286Y402183I-2218J-956D01*
G01*
X371664Y405083D02*
G03*
X371290Y405000I577J-3494D01*
G01*
X372089Y405136D02*
G03*
X371664Y405083I468J-5460D01*
G01*
X372553Y405159D02*
G03*
X372089Y405136I86J-6441D01*
G01*
X373048Y405151D02*
G03*
X372553Y405159I-385J-8253D01*
G01*
X373995Y405042D02*
G03*
X373048Y405151I-1269J-6823D01*
G01*
X374770Y404806D02*
G03*
X373995Y405042I-1447J-3374D01*
G01*
X375433Y404423D02*
G03*
X374770Y404806I-1931J-2572D01*
G01*
X376039Y403868D02*
G03*
X375433Y404423I-3142J-2825D01*
G01*
X371290Y405000D02*
G03*
X369991Y404414I1265J-4534D01*
G01*
X376477Y407160D02*
G03*
X377112Y406801I1543J1992D01*
G01*
X375851Y407744D02*
G03*
X376477Y407160I3505J3133D01*
G01*
X372621Y406805D02*
G03*
X373576Y407409I-1016J2661D01*
G01*
X371983Y406643D02*
G03*
X372621Y406805I-382J2833D01*
G01*
X371147Y406578D02*
G03*
X371983Y406643I-148J7369D01*
G01*
X370312Y406609D02*
G03*
X371147Y406578I687J7310D01*
G01*
X369681Y406746D02*
G03*
X370312Y406609I884J2544D01*
G01*
X370306Y407623D02*
G03*
X371164Y407540I859J4414D01*
G01*
D02*
G03*
X371979Y407626I0J3912D01*
G01*
X376473Y412725D02*
G03*
X375963Y411472I3157J-2015D01*
G01*
D02*
G03*
X375880Y410515I3996J-830D01*
G01*
X375880D02*
G03*
X376026Y409578I3856J121D01*
G01*
X376026D02*
G03*
X376384Y408746I3382J964D01*
G01*
X375001Y409163D02*
G03*
X375328Y408446I3072J966D01*
G01*
X374841Y409966D02*
G03*
X375001Y409163I3795J340D01*
G01*
X374819Y410933D02*
G03*
X374841Y409966I7319J-313D01*
G01*
X374922Y411878D02*
G03*
X374819Y410933I7051J-1251D01*
G01*
X375149Y412610D02*
G03*
X374922Y411878I2806J-1271D01*
G01*
X375573Y413314D02*
G03*
X375149Y412610I2785J-2157D01*
G01*
X376166Y413936D02*
G03*
X375573Y413314I2725J-3192D01*
G01*
X376863Y414416D02*
G03*
X376166Y413936I1948J-3577D01*
G01*
X371371Y414794D02*
G03*
X370055Y414693I-374J-3765D01*
G01*
X372598Y414427D02*
G03*
X371371Y414794I-1559J-2977D01*
G01*
X373500Y413673D02*
G03*
X372598Y414427I-2189J-1704D01*
G01*
X373909Y412675D02*
G03*
X373500Y413673I-1991J-234D01*
G01*
X373922Y412444D02*
G03*
X373909Y412675I-1857J15D01*
G01*
X373877Y412337D02*
G03*
X373922Y412444I-107J108D01*
G01*
X373764Y412280D02*
G03*
X373877Y412337I-32J204D01*
G01*
X373477Y412245D02*
G03*
X373764Y412280I-328J3947D01*
G01*
X373186Y412240D02*
G03*
X373477Y412245I102J2268D01*
G01*
X373030Y412295D02*
G03*
X373186Y412240I169J229D01*
G01*
X372910Y412436D02*
G03*
X373030Y412295I364J189D01*
G01*
X372741Y412788D02*
G03*
X372910Y412436I5754J2545D01*
G01*
X372741Y412788D02*
G03*
X372450Y413260I-1856J-821D01*
G01*
X372450D02*
G03*
X372066Y413580I-1050J-867D01*
G01*
D02*
G03*
X371560Y413762I-799J-1423D01*
G01*
D02*
G03*
X370900Y413822I-660J-3622D01*
G01*
D02*
G03*
X370100Y413736I0J-3777D01*
G01*
X369717Y411793D02*
G03*
X370301Y411548I1442J2615D01*
G01*
D02*
G03*
X371240Y411298I4448J14834D01*
G01*
X372237Y411041D02*
G03*
X371240Y411298I-6046J-21451D01*
G01*
X372897Y410805D02*
G03*
X372237Y411041I-2022J-4597D01*
G01*
X373371Y410537D02*
G03*
X372897Y410805I-1568J-2220D01*
G01*
X373754Y410192D02*
G03*
X373371Y410537I-1651J-1449D01*
G01*
X374200Y409295D02*
G03*
X373754Y410192I-1917J-395D01*
G01*
X374141Y408301D02*
G03*
X374200Y409295I-1816J607D01*
G01*
X372973Y408301D02*
G03*
X373110Y408840I-991J539D01*
G01*
Y408840D02*
G03*
X373002Y409317I-1107J0D01*
G01*
D02*
G03*
X372702Y409663I-778J-372D01*
G01*
D02*
G03*
X372105Y409949I-1304J-1955D01*
G01*
D02*
G03*
X370956Y410276I-6469J-20522D01*
G01*
X379167Y390139D02*
G03*
X379568Y391034I-2925J1846D01*
G01*
X378563Y389406D02*
G03*
X379167Y390139I-2593J2752D01*
G01*
X377726Y388749D02*
G03*
X378563Y389406I-3206J4947D01*
G01*
X379853Y393976D02*
G03*
X379870Y398467I-607625J4492D01*
G01*
X385319Y397655D02*
G03*
X384806Y397255I783J-1536D01*
G01*
D02*
G03*
X384495Y396704I1165J-1020D01*
G01*
D02*
G03*
X384430Y396073I1484J-472D01*
G01*
D02*
G03*
X384617Y395446I1747J180D01*
G01*
D02*
G03*
X384908Y395068I1192J616D01*
G01*
D02*
G03*
X385315Y394811I939J1036D01*
G01*
X382772Y392931D02*
G03*
X384745Y392373I2598J5423D01*
G01*
X381500Y394074D02*
G03*
X382772Y392931I2584J1595D01*
G01*
X381284Y394468D02*
G03*
X381500Y394075I3882J1870D01*
G01*
X381165Y394801D02*
G03*
X381284Y394468I1658J407D01*
G01*
X381099Y395205D02*
G03*
X381165Y394801I2539J205D01*
G01*
X381059Y395866D02*
G03*
X381099Y395205I16212J641D01*
G01*
X381046Y396544D02*
G03*
X381059Y395866I17784J26D01*
G01*
X381078Y396947D02*
G03*
X381046Y396544I2464J-400D01*
G01*
X381171Y397292D02*
G03*
X381078Y396947I1621J-623D01*
G01*
X381362Y397730D02*
G03*
X381171Y397292I4869J-2382D01*
G01*
X381709Y398281D02*
G03*
X381362Y397730I2401J-1895D01*
G01*
X382159Y398737D02*
G03*
X381709Y398281I1802J-2234D01*
G01*
X382731Y399107D02*
G03*
X382159Y398737I1499J-2938D01*
G01*
X383441Y399407D02*
G03*
X382731Y399107I1715J-5053D01*
G01*
X383947Y399551D02*
G03*
X383441Y399407I1183J-5120D01*
G01*
X384607Y399687D02*
G03*
X383947Y399551I2466J-13665D01*
G01*
X385281Y402462D02*
G03*
X384916Y401793I1402J-1198D01*
G01*
X381491Y402130D02*
G03*
X381433Y401722I1467J-418D01*
G01*
X381673Y402651D02*
G03*
X381491Y402130I4405J-1827D01*
G01*
X381927Y403178D02*
G03*
X381673Y402651I4487J-2493D01*
G01*
X382217Y403614D02*
G03*
X381927Y403178I2585J-2033D01*
G01*
X382798Y404184D02*
G03*
X382217Y403614I1932J-2548D01*
G01*
X383584Y404679D02*
G03*
X382798Y404184I2452J-4764D01*
G01*
X384522Y405071D02*
G03*
X383584Y404679I1988J-6077D01*
G01*
X377721Y407611D02*
G03*
X378168Y407546I475J1701D01*
G01*
D02*
G03*
X378822Y407565I119J7416D01*
G01*
Y407565D02*
G03*
X379210Y407609I-330J4565D01*
G01*
Y407609D02*
G03*
X379517Y407684I-307J1933D01*
G01*
D02*
G03*
X379781Y407799I-496J1503D01*
G01*
X380737Y407271D02*
G03*
X381189Y407662I-1649J2362D01*
G01*
X380168Y406936D02*
G03*
X380737Y407271I-1881J3845D01*
G01*
X379450Y406679D02*
G03*
X380168Y406936I-797J3355D01*
G01*
X378652Y406567D02*
G03*
X379450Y406679I-188J4259D01*
G01*
X377849Y406608D02*
G03*
X378652Y406567I616J4212D01*
G01*
X379723Y413552D02*
G03*
X378493Y413838I-1281J-2717D01*
G01*
X380904Y409177D02*
G03*
X381135Y410915I-4430J1474D01*
G01*
D02*
G03*
X380710Y412570I-4408J-250D01*
G01*
Y412570D02*
G03*
X379723Y413552I-1873J-895D01*
G01*
X379378Y414705D02*
G03*
X378482Y414806I-887J-3828D01*
G01*
X380214Y414404D02*
G03*
X379378Y414705I-1696J-3413D01*
G01*
X380925Y413927D02*
G03*
X380214Y414404I-2178J-2474D01*
G01*
X381749Y412887D02*
G03*
X380925Y413927I-3292J-1764D01*
G01*
X382215Y411567D02*
G03*
X381749Y412887I-4516J-850D01*
G01*
X382267Y410136D02*
G03*
X382215Y411567I-4792J539D01*
G01*
X381894Y408775D02*
G03*
X382267Y410136I-4154J1871D01*
G01*
X383273Y414030D02*
G03*
X383281Y412025I418528J733D01*
G01*
X383276Y415747D02*
G03*
X383273Y414030I225668J-1321D01*
G01*
X383372Y417465D02*
G03*
X383312Y417395I70J-120D01*
G01*
X383487Y417511D02*
G03*
X383372Y417465I96J-408D01*
G01*
X383653Y417532D02*
G03*
X383487Y417511I16J-792D01*
G01*
X383866Y417525D02*
G03*
X383653Y417532I-172J-2082D01*
G01*
X383312Y417395D02*
G03*
X383286Y417257I369J-141D01*
G01*
X389444Y397603D02*
G03*
X389489Y398323I-23748J1825D01*
G01*
D02*
G03*
X389448Y398586I-671J31D01*
G01*
X389448Y398586D02*
G03*
X389325Y398657I-105J-38D01*
G01*
Y398657D02*
G03*
X389089Y398572I117J-689D01*
G01*
X388943Y398513D02*
G03*
X389089Y398572I-129J530D01*
G01*
X388494Y398407D02*
G03*
X388943Y398513I-5457J24277D01*
G01*
X387954Y398293D02*
G03*
X388494Y398407I-3969J20173D01*
G01*
X387353Y398181D02*
G03*
X387954Y398293I-5372J30469D01*
G01*
X387353Y398181D02*
G03*
X386731Y398059I2871J-16286D01*
G01*
Y398059D02*
G03*
X386125Y397915I3241J-14994D01*
G01*
X385875Y394664D02*
G03*
X386630Y394618I755J6133D01*
G01*
D02*
G03*
X387343Y394656I0J6626D01*
G01*
Y394656D02*
G03*
X387863Y394780I-230J2125D01*
G01*
Y394780D02*
G03*
X388297Y395017I-615J1643D01*
G01*
Y395017D02*
G03*
X388734Y395406I-2040J2733D01*
G01*
X388734Y395406D02*
G03*
X389037Y395798I-1819J1721D01*
G01*
Y395798D02*
G03*
X389232Y396214I-1581J990D01*
G01*
X389232Y396214D02*
G03*
X389356Y396763I-2981J963D01*
G01*
D02*
G03*
X389444Y397603I-14952J1996D01*
G01*
X392882Y398332D02*
G03*
X392925Y396268I241357J3924D01*
G01*
D02*
G03*
X392979Y394688I84303J2092D01*
G01*
X392979D02*
G03*
X393040Y393480I88727J3866D01*
G01*
X393040D02*
G03*
X393110Y393111I1435J82D01*
G01*
X393167Y392937D02*
G03*
X393110Y393111I-3629195J-1198455D01*
G01*
X393216Y392790D02*
G03*
X393167Y392937I-1834899J-605677D01*
G01*
X393260Y392656D02*
G03*
X393260Y392657I-10J-3D01*
G01*
X393260Y392655D02*
G03*
X393260Y392656I0J0D01*
G01*
X392179Y392679D02*
G03*
X392745Y392667I41632J1863152D01*
G01*
X391506Y392694D02*
G03*
X392179Y392679I82402J3656895D01*
G01*
X389669Y393247D02*
G03*
X389635Y393444I-7832J-1253D01*
G01*
X389635D02*
G03*
X389600Y393609I-4039J-751D01*
G01*
X389600D02*
G03*
X389568Y393747I-8168J-1869D01*
G01*
X389568D02*
G03*
X389551Y393760I-16J-4D01*
G01*
D02*
G03*
X389526Y393753I-0J-47D01*
G01*
D02*
G03*
X389329Y393627I33956J-53538D01*
G01*
D02*
G03*
X389104Y393481I10070J-15749D01*
G01*
X389104D02*
G03*
X388843Y393307I18966J-28744D01*
G01*
X386938Y392494D02*
G03*
X388843Y393307I-1173J5386D01*
G01*
X387741Y405397D02*
G03*
X386366Y405411I-1034J-35513D01*
G01*
X389119Y405330D02*
G03*
X387741Y405397I-2391J-34732D01*
G01*
X389964Y405206D02*
G03*
X389119Y405330I-1226J-5418D01*
G01*
X390659Y404977D02*
G03*
X389964Y405206I-1548J-3538D01*
G01*
X391357Y404607D02*
G03*
X390659Y404977I-2801J-4437D01*
G01*
X391971Y404150D02*
G03*
X391357Y404607I-3266J-3745D01*
G01*
X392410Y403662D02*
G03*
X391971Y404150I-2228J-1562D01*
G01*
X388483Y400371D02*
G03*
X389078Y400724I-508J1534D01*
G01*
D02*
G03*
X389373Y401224I-701J750D01*
G01*
D02*
G03*
X389401Y401878I-1569J395D01*
G01*
X389401D02*
G03*
X389221Y402362I-1314J-213D01*
G01*
X389221D02*
G03*
X388867Y402754I-1242J-764D01*
G01*
D02*
G03*
X388351Y403033I-1121J-1461D01*
G01*
Y403033D02*
G03*
X387702Y403181I-1000J-2875D01*
G01*
Y403181D02*
G03*
X386713Y403181I-495J-4262D01*
G01*
D02*
G03*
X385889Y402937I286J-2473D01*
G01*
X387471Y407695D02*
G03*
X387945Y407566I636J1397D01*
G01*
D02*
G03*
X388587Y407545I464J4342D01*
G01*
Y407545D02*
G03*
X389233Y407619I-181J4420D01*
G01*
D02*
G03*
X389723Y407787I-340J1786D01*
G01*
X392358Y407823D02*
G03*
X392675Y407647I411J367D01*
G01*
X392797Y407603D02*
G03*
X392675Y407647I-187J-330D01*
G01*
X392877Y407525D02*
G03*
X392797Y407603I-189J-113D01*
G01*
X392921Y407400D02*
G03*
X392877Y407525I-333J-49D01*
G01*
X392935Y407213D02*
G03*
X392921Y407400I-1292J-0D01*
G01*
X392918Y406987D02*
G03*
X392935Y407213I-1475J226D01*
G01*
X392855Y406878D02*
G03*
X392918Y406987I-110J136D01*
G01*
X392723Y406820D02*
G03*
X392855Y406878I-38J269D01*
G01*
X392408Y406786D02*
G03*
X392723Y406820I-341J4643D01*
G01*
X391950Y406824D02*
G03*
X392408Y406786I350J1431D01*
G01*
X391550Y407003D02*
G03*
X391950Y406824I691J1010D01*
G01*
X391277Y407287D02*
G03*
X391550Y407003I815J509D01*
G01*
X391180Y407626D02*
G03*
X391277Y407287I641J0D01*
G01*
X391180Y407626D02*
G03*
X391157Y407794I-614J0D01*
G01*
D02*
G03*
X391089Y407827I-49J-14D01*
G01*
D02*
G03*
X390951Y407742I178J-447D01*
G01*
X390951D02*
G03*
X390525Y407365I25368J-29065D01*
G01*
X390170Y407071D02*
G03*
X390525Y407365I-3435J4510D01*
G01*
X389859Y406871D02*
G03*
X390170Y407071I-1131J2093D01*
G01*
X389540Y406732D02*
G03*
X389859Y406871I-653J1938D01*
G01*
X389163Y406630D02*
G03*
X389540Y406732I-659J3175D01*
G01*
X388204Y406550D02*
G03*
X389163Y406630I151J3977D01*
G01*
X387274Y406706D02*
G03*
X388204Y406550I1068J3496D01*
G01*
X386498Y407071D02*
G03*
X387274Y406706I1658J2523D01*
G01*
X385988Y407600D02*
G03*
X386498Y407071I1427J866D01*
G01*
X391050Y410172D02*
G03*
X391035Y410525I-4239J-0D01*
G01*
D02*
G03*
X390980Y410724I-558J-47D01*
G01*
D02*
G03*
X390890Y410780I-89J-44D01*
G01*
D02*
G03*
X390776Y410732I1J-164D01*
G01*
X390724Y410704D02*
G03*
X390776Y410732I-20J100D01*
G01*
X390342Y410629D02*
G03*
X390724Y410704I-10474J54056D01*
G01*
X389897Y410548D02*
G03*
X390342Y410629I-3753J21748D01*
G01*
X389380Y410462D02*
G03*
X389897Y410548I-6226J39163D01*
G01*
X389380Y410462D02*
G03*
X388370Y410278I3531J-22212D01*
G01*
Y410278D02*
G03*
X387704Y410090I985J-4777D01*
G01*
Y410090D02*
G03*
X387257Y409872I778J-2162D01*
G01*
Y409872D02*
G03*
X386964Y409593I546J-867D01*
G01*
D02*
G03*
X386779Y409107I867J-607D01*
G01*
X386779D02*
G03*
X386821Y408535I1526J-175D01*
G01*
X390335Y408200D02*
G03*
X390744Y408704I-1222J1412D01*
G01*
D02*
G03*
X390974Y409345I-1836J1022D01*
G01*
Y409345D02*
G03*
X391050Y410172I-4483J827D01*
G01*
X388970Y414807D02*
G03*
X388125Y414698I66J-3850D01*
G01*
X389896Y414743D02*
G03*
X388970Y414807I-834J-5330D01*
G01*
X390741Y414533D02*
G03*
X389896Y414743I-1601J-4620D01*
G01*
X391332Y414197D02*
G03*
X390741Y414533I-1202J-1428D01*
G01*
X391744Y413725D02*
G03*
X391332Y414197I-1742J-1108D01*
G01*
X391967Y413177D02*
G03*
X391744Y413725I-1615J-337D01*
G01*
X392067Y412319D02*
G03*
X391967Y413177I-4817J-126D01*
G01*
X392090Y410559D02*
G03*
X392067Y412319I-67491J-0D01*
G01*
X392090Y410559D02*
G03*
X392106Y408881I90946J0D01*
G01*
D02*
G03*
X392182Y408175I3951J73D01*
G01*
X386133Y410206D02*
G03*
X385690Y409414I1480J-1348D01*
G01*
X386916Y410803D02*
G03*
X386133Y410206I1249J-2448D01*
G01*
X387223Y410923D02*
G03*
X386916Y410803I461J-1626D01*
G01*
X387742Y411057D02*
G03*
X387223Y410923I2445J-10588D01*
G01*
X388373Y411187D02*
G03*
X387742Y411057I2415J-13320D01*
G01*
X389065Y411300D02*
G03*
X388373Y411187I2698J-18807D01*
G01*
X389065Y411300D02*
G03*
X390213Y411488I-4056J28278D01*
G01*
D02*
G03*
X390722Y411669I-313J1690D01*
G01*
D02*
G03*
X390964Y411940I-258J474D01*
G01*
D02*
G03*
X391050Y412381I-1090J441D01*
G01*
D02*
G03*
X390850Y413093I-1367J0D01*
G01*
X390850Y413093D02*
G03*
X390307Y413607I-1219J-744D01*
G01*
Y413608D02*
G03*
X389472Y413845I-962J-1793D01*
G01*
D02*
G03*
X388462Y413770I-234J-3695D01*
G01*
D02*
G03*
X387953Y413612I619J-2887D01*
G01*
D02*
G03*
X387585Y413382I501J-1211D01*
G01*
D02*
G03*
X387328Y413057I782J-884D01*
G01*
D02*
G03*
X387150Y412609I1848J-993D01*
G01*
X387054Y412305D02*
G03*
X387150Y412609I-3610J1302D01*
G01*
X386962Y412170D02*
G03*
X387054Y412305I-215J246D01*
G01*
X386823Y412107D02*
G03*
X386962Y412170I-33J260D01*
G01*
X386556Y412090D02*
G03*
X386823Y412107I0J2094D01*
G01*
X386222Y412135D02*
G03*
X386556Y412090I334J1228D01*
G01*
X386049Y412273D02*
G03*
X386222Y412135I246J131D01*
G01*
X386008Y412521D02*
G03*
X386049Y412273I389J-64D01*
G01*
X386109Y412933D02*
G03*
X386008Y412521I2579J-851D01*
G01*
X386405Y413536D02*
G03*
X386109Y412933I2033J-1372D01*
G01*
X386859Y414051D02*
G03*
X386405Y413536I1760J-2009D01*
G01*
X387445Y414447D02*
G03*
X386859Y414051I1283J-2528D01*
G01*
X388125Y414698D02*
G03*
X387445Y414447I745J-3062D01*
G01*
X399527Y399289D02*
G03*
X399575Y396427I230565J2478D01*
G01*
D02*
G03*
X399718Y395682I2295J53D01*
G01*
X399718D02*
G03*
X400099Y395347I500J185D01*
G01*
D02*
G03*
X401032Y395231I1043J4577D01*
G01*
X398627Y392685D02*
G03*
X400020Y392658I1453J39105D01*
G01*
X397880Y392786D02*
G03*
X398627Y392685I891J3790D01*
G01*
X397341Y393006D02*
G03*
X397880Y392786I964J1589D01*
G01*
X396790Y393418D02*
G03*
X397341Y393006I2406J2645D01*
G01*
X396362Y393959D02*
G03*
X396790Y393418I1851J1023D01*
G01*
X396148Y394593D02*
G03*
X396362Y393959I1859J275D01*
G01*
X396057Y395684D02*
G03*
X396148Y394593I8593J168D01*
G01*
X396013Y398668D02*
G03*
X396057Y395684I313857J3148D01*
G01*
X396803Y414567D02*
G03*
X396575Y414498I591J-2345D01*
G01*
X397057Y414621D02*
G03*
X396803Y414567I584J-3379D01*
G01*
X397299Y414653D02*
G03*
X397057Y414621I297J-3148D01*
G01*
X397485Y414655D02*
G03*
X397299Y414653I-84J-1092D01*
G01*
X397707Y414622D02*
G03*
X397485Y414655I-345J-1583D01*
G01*
X397812Y414557D02*
G03*
X397707Y414622I-146J-118D01*
G01*
X397863Y414434D02*
G03*
X397812Y414557I-229J-22D01*
G01*
X397875Y414173D02*
G03*
X397863Y414434I-2739J-0D01*
G01*
X397851Y413895D02*
G03*
X397875Y414173I-1617J279D01*
G01*
X397768Y413753D02*
G03*
X397851Y413895I-148J182D01*
G01*
X397582Y413654D02*
G03*
X397768Y413753I-154J517D01*
G01*
X397054Y413507D02*
G03*
X397582Y413654I-4201J16066D01*
G01*
X397054Y413507D02*
G03*
X396684Y413392I1096J-4194D01*
G01*
D02*
G03*
X396345Y413250I1188J-3304D01*
G01*
Y413250D02*
G03*
X396056Y413089I1261J-2611D01*
G01*
Y413089D02*
G03*
X395835Y412919I784J-1239D01*
G01*
Y412919D02*
G03*
X395398Y412389I1863J-1982D01*
G01*
X395398D02*
G03*
X395155Y411810I1624J-1025D01*
G01*
X395155D02*
G03*
X395027Y410942I4812J-1150D01*
G01*
X395027D02*
G03*
X394954Y409230I59958J-3426D01*
G01*
X395756Y413969D02*
G03*
X395509Y413734I2064J-2426D01*
G01*
X396047Y414196D02*
G03*
X395756Y413969I2568J-3588D01*
G01*
X396337Y414385D02*
G03*
X396047Y414196I2065J-3478D01*
G01*
X396575Y414498D02*
G03*
X396337Y414385I469J-1303D01*
G01*
X406436Y399420D02*
G03*
X406446Y398111I7314J-604D01*
G01*
D02*
G03*
X406701Y396959I4839J467D01*
G01*
Y396959D02*
G03*
X407185Y396024I3596J1270D01*
G01*
Y396024D02*
G03*
X407873Y395353I2184J1547D01*
G01*
D02*
G03*
X408254Y395119I2856J4236D01*
G01*
D02*
G03*
X408548Y395000I643J1162D01*
G01*
Y395000D02*
G03*
X408881Y394945I425J1554D01*
G01*
X405700Y393393D02*
G03*
X407771Y392536I3370J5207D01*
G01*
X404138Y394892D02*
G03*
X405700Y393393I4671J3306D01*
G01*
X403199Y396897D02*
G03*
X404138Y394892I6046J1609D01*
G01*
X403127Y397253D02*
G03*
X403199Y396897I2910J399D01*
G01*
X403068Y397772D02*
G03*
X403127Y397253I11925J1109D01*
G01*
X403027Y398346D02*
G03*
X403068Y397772I13351J663D01*
G01*
X403013Y398895D02*
G03*
X403027Y398346I11063J0D01*
G01*
Y399444D02*
G03*
X403013Y398895I11049J-549D01*
G01*
X408262Y402640D02*
G03*
X407337Y402010I792J-2160D01*
G01*
D02*
G03*
X406732Y400940I2169J-1932D01*
G01*
X408484Y405394D02*
G03*
X407660Y405258I511J-5645D01*
G01*
X403199Y400893D02*
G03*
X403127Y400536I2838J-755D01*
G01*
X403827Y402411D02*
G03*
X403199Y400893I5403J-3124D01*
G01*
X404824Y403695D02*
G03*
X403827Y402411I4190J-4283D01*
G01*
X406130Y404664D02*
G03*
X404824Y403695I2883J-5250D01*
G01*
X407660Y405258D02*
G03*
X406130Y404664I1468J-6054D01*
G01*
X410823Y395174D02*
G03*
X411797Y395876I-735J2048D01*
G01*
X411797D02*
G03*
X412362Y397095I-2279J1796D01*
G01*
X412362D02*
G03*
X412542Y398895I-8877J1800D01*
G01*
X415993Y398346D02*
G03*
X416007Y398895I-11049J549D01*
G01*
X415952Y397772D02*
G03*
X415993Y398346I-13310J1237D01*
G01*
X415893Y397253D02*
G03*
X415952Y397772I-11866J1627D01*
G01*
X415821Y396897D02*
G03*
X415893Y397253I-2838J755D01*
G01*
X415052Y395126D02*
G03*
X415821Y396897I-5501J3440D01*
G01*
X413820Y393741D02*
G03*
X415052Y395126I-3451J4313D01*
G01*
X412169Y392816D02*
G03*
X413820Y393741I-1973J5455D01*
G01*
X410177Y392381D02*
G03*
X412169Y392816I-639J7710D01*
G01*
X410888Y402594D02*
G03*
X410591Y402713I-1017J-2100D01*
G01*
X410591D02*
G03*
X410269Y402796I-830J-2562D01*
G01*
D02*
G03*
X409910Y402844I-610J-3175D01*
G01*
X412449Y400272D02*
G03*
X412155Y401301I-3739J-511D01*
G01*
D02*
G03*
X411641Y402054I-2344J-1048D01*
G01*
D02*
G03*
X410888Y402594I-1936J-1906D01*
G01*
X411300Y405264D02*
G03*
X410468Y405398I-1338J-5673D01*
G01*
X412115Y405018D02*
G03*
X411300Y405264I-2401J-6479D01*
G01*
X412853Y404682D02*
G03*
X412115Y405018I-2709J-4983D01*
G01*
X413538Y404245D02*
G03*
X412853Y404682I-3409J-4574D01*
G01*
X414194Y403691D02*
G03*
X413538Y404245I-4889J-5126D01*
G01*
X415014Y402725D02*
G03*
X414194Y403691I-4976J-3391D01*
G01*
X415576Y401644D02*
G03*
X415014Y402725I-4826J-1825D01*
G01*
X415900Y400387D02*
G03*
X415576Y401644I-5893J-849D01*
G01*
X418587Y392553D02*
G03*
X419240Y392565I-594J53279D01*
G01*
X418029Y392552D02*
G03*
X418587Y392553I239J28641D01*
G01*
X423787Y405181D02*
G03*
X423455Y405079I810J-3238D01*
G01*
X424144Y405253D02*
G03*
X423787Y405181I617J-3966D01*
G01*
X424505Y405292D02*
G03*
X424144Y405253I253J-3985D01*
G01*
X424850Y405296D02*
G03*
X424505Y405292I-139J-3243D01*
G01*
X424940Y402159D02*
G03*
X423810Y402145I-513J-4368D01*
G01*
D02*
G03*
X422798Y401835I476J-3360D01*
G01*
D02*
G03*
X421973Y401247I1352J-2772D01*
G01*
X421973D02*
G03*
X421382Y400423I2178J-2183D01*
G01*
X421563Y403782D02*
G03*
X421094Y403120I4101J-3402D01*
G01*
X422100Y404319D02*
G03*
X421563Y403782I2614J-3151D01*
G01*
X422724Y404746D02*
G03*
X422100Y404319I1966J-3549D01*
G01*
X423455Y405079D02*
G03*
X422724Y404746I1756J-4821D01*
G01*
X430136Y392612D02*
G03*
X431976Y392359I2306J9957D01*
G01*
X428619Y393188D02*
G03*
X430136Y392612I2873J5278D01*
G01*
X427795Y393782D02*
G03*
X428619Y393188I2759J2959D01*
G01*
X427127Y394573D02*
G03*
X427795Y393782I3631J2387D01*
G01*
X426689Y395464D02*
G03*
X427127Y394573I3777J1304D01*
G01*
X426540Y396351D02*
G03*
X426689Y395464I2718J0D01*
G01*
X429870Y396141D02*
G03*
X430132Y395628I1905J650D01*
G01*
D02*
G03*
X430534Y395197I1794J1270D01*
G01*
Y395197D02*
G03*
X431055Y394872I1517J1854D01*
G01*
Y394872D02*
G03*
X431665Y394672I1194J2610D01*
G01*
X431665Y394672D02*
G03*
X432789Y394600I817J3934D01*
G01*
X433067Y397586D02*
G03*
X431008Y398117I-16010J-57781D01*
G01*
X430249Y398311D02*
G03*
X431008Y398117I6666J24496D01*
G01*
X429508Y398526D02*
G03*
X430249Y398311I7023J22869D01*
G01*
X428874Y398731D02*
G03*
X429508Y398526I6901J20202D01*
G01*
X428514Y398883D02*
G03*
X428874Y398731I1262J2491D01*
G01*
X427984Y399213D02*
G03*
X428514Y398883I2137J2840D01*
G01*
X427521Y399631D02*
G03*
X427984Y399213I2575J2389D01*
G01*
X431579Y405439D02*
G03*
X430200Y405260I360J-8189D01*
G01*
X433112Y405409D02*
G03*
X431579Y405439I-1002J-12044D01*
G01*
X433007Y403115D02*
G03*
X432195Y403173I-796J-5410D01*
G01*
Y403173D02*
G03*
X431233Y403075I14J-4905D01*
G01*
X431233Y403075D02*
G03*
X430587Y402774I304J-1496D01*
G01*
X430587D02*
G03*
X430292Y402298I517J-651D01*
G01*
X430292D02*
G03*
X430329Y401690I1101J-237D01*
G01*
X430329D02*
G03*
X430574Y401324I835J291D01*
G01*
D02*
G03*
X431023Y401021I1298J1445D01*
G01*
D02*
G03*
X431743Y400745I1952J4017D01*
G01*
D02*
G03*
X432878Y400452I6149J21451D01*
G01*
X426827Y401137D02*
G03*
X426928Y400593I2043J96D01*
G01*
X426836Y401869D02*
G03*
X426827Y401137I6031J-447D01*
G01*
X426935Y402601D02*
G03*
X426836Y401869I5979J-1182D01*
G01*
X427117Y403150D02*
G03*
X426935Y402601I2112J-1002D01*
G01*
X427595Y403871D02*
G03*
X427117Y403150I2289J-2035D01*
G01*
X428279Y404474D02*
G03*
X427595Y403871I2118J-3093D01*
G01*
X429154Y404941D02*
G03*
X428279Y404474I1667J-4181D01*
G01*
X430200Y405260D02*
G03*
X429154Y404941I1401J-6457D01*
G01*
X436847Y399153D02*
G03*
X436070Y399570I-2302J-3362D01*
G01*
X437492Y398589D02*
G03*
X436847Y399153I-2705J-2444D01*
G01*
X437949Y397912D02*
G03*
X437492Y398589I-2609J-1267D01*
G01*
X438194Y397140D02*
G03*
X437949Y397912I-2774J-456D01*
G01*
X438221Y396272D02*
G03*
X438194Y397140I-3274J334D01*
G01*
X438031Y395311D02*
G03*
X438221Y396272I-5067J1497D01*
G01*
X437694Y394592D02*
G03*
X438031Y395311I-2199J1469D01*
G01*
X437109Y393876D02*
G03*
X437694Y394592I-3397J3376D01*
G01*
X436378Y393268D02*
G03*
X437109Y393876I-2837J4153D01*
G01*
X435605Y392869D02*
G03*
X436378Y393268I-1233J3337D01*
G01*
X433883Y392442D02*
G03*
X435605Y392869I-1060J7957D01*
G01*
X433791Y394862D02*
G03*
X434479Y395394I-825J1776D01*
G01*
D02*
G03*
X434730Y396095I-853J701D01*
G01*
D02*
G03*
X434551Y396723I-1188J-0D01*
G01*
D02*
G03*
X434063Y397183I-1115J-693D01*
G01*
X435659Y404806D02*
G03*
X434558Y405194I-2086J-4169D01*
G01*
X436275Y404423D02*
G03*
X435659Y404806I-2373J-3131D01*
G01*
X436836Y403920D02*
G03*
X436275Y404423I-3327J-3145D01*
G01*
X437291Y403348D02*
G03*
X436836Y403920I-3598J-2399D01*
G01*
X437591Y402762D02*
G03*
X437291Y403348I-2688J-1006D01*
G01*
X437858Y401962D02*
G03*
X437591Y402762I-11196J-3289D01*
G01*
X437783Y401699D02*
G03*
X437858Y401962I-171J191D01*
G01*
X437480Y401578D02*
G03*
X437783Y401699I-12J472D01*
G01*
X436258Y401565D02*
G03*
X437480Y401578I130J43874D01*
G01*
X434405Y402117D02*
G03*
X434073Y402599I-1661J-789D01*
G01*
X348648Y400676D02*
G03*
X347348Y399326I71674J-70311D01*
G01*
X347478Y400052D02*
G03*
X350096Y402661I-682307J687289D01*
G01*
X346470Y399099D02*
G03*
X347478Y400052I-19086J21194D01*
G01*
X367537Y400676D02*
G03*
X367424Y399848I5490J-1171D01*
G01*
X368236Y407888D02*
G03*
X368657Y407405I2859J2061D01*
G01*
X367967Y408388D02*
G03*
X368236Y407888I2049J782D01*
G01*
X371195Y400985D02*
G03*
X370904Y400121I3644J-1705D01*
G01*
X370904D02*
G03*
X370802Y399150I4553J-973D01*
G01*
X376599Y399459D02*
G03*
X376172Y401124I-5516J-527D01*
G01*
X376477Y391818D02*
G03*
X376586Y392492I-3564J923D01*
G01*
X376384Y408746D02*
G03*
X376926Y408094I2328J1383D01*
G01*
X376926D02*
G03*
X377343Y407780I2288J2605D01*
G01*
X375328Y408446D02*
G03*
X375851Y407744I4163J2552D01*
G01*
X373576Y407409D02*
G03*
X374141Y408301I-1524J1591D01*
G01*
X369651Y407875D02*
G03*
X370306Y407623I1039J1724D01*
G01*
X371979Y407626D02*
G03*
X372593Y407885I-368J1731D01*
G01*
Y407885D02*
G03*
X372973Y408301I-653J977D01*
G01*
X379769Y392131D02*
G03*
X379853Y393976I-23965J2023D01*
G01*
X379568Y391034D02*
G03*
X379769Y392131I-5520J1580D01*
G01*
X379781Y407799D02*
G03*
X380039Y407966I-983J1795D01*
G01*
D02*
G03*
X380904Y409177I-1532J2008D01*
G01*
X381562Y408149D02*
G03*
X381894Y408775I-4628J2860D01*
G01*
X381189Y407662D02*
G03*
X381562Y408149I-2238J2101D01*
G01*
X383286Y417257D02*
G03*
X383276Y415747I948104J-7068D01*
G01*
X387552Y400149D02*
G03*
X388483Y400371I-824J5521D01*
G01*
X386821Y408535D02*
G03*
X387070Y408020I1474J394D01*
G01*
Y408020D02*
G03*
X387471Y407695I830J616D01*
G01*
X389723Y407787D02*
G03*
X390335Y408200I-1409J2747D01*
G01*
X392182Y408175D02*
G03*
X392358Y407823I738J148D01*
G01*
X406732Y400940D02*
G03*
X406436Y399420I6764J-2103D01*
G01*
X403068Y400018D02*
G03*
X403027Y399444I13310J-1237D01*
G01*
X403127Y400536D02*
G03*
X403068Y400018I11866J-1627D01*
G01*
X412542Y398895D02*
G03*
X412449Y400272I-10163J0D01*
G01*
X416007Y398895D02*
G03*
X415900Y400387I-10462J-0D01*
G01*
X427159Y400102D02*
G03*
X427521Y399631I2710J1708D01*
G01*
X426928Y400593D02*
G03*
X427159Y400102I2122J700D01*
G01*
X436070Y399570D02*
G03*
X434913Y399952I-3546J-8785D01*
G01*
X345519Y398900D02*
G03*
X345653Y398660I422J78D01*
G01*
X345456Y399409D02*
G03*
X345519Y398900I4170J252D01*
G01*
X354470Y406484D02*
G03*
X353253Y405282I4924637J-4991257D01*
G01*
X353927Y407192D02*
G03*
X353344Y407244I-991J-7742D01*
G01*
X353539Y406171D02*
G03*
X354137Y406858I-13407J12270D01*
G01*
X352470Y405048D02*
G03*
X353539Y406171I-28149J27866D01*
G01*
X345420Y402518D02*
G03*
X345426Y400330I392544J-1D01*
G01*
X376739Y388224D02*
G03*
X377726Y388749I-2536J5960D01*
G01*
X369055Y389095D02*
G03*
X369973Y388468I3136J3605D01*
G01*
X369473Y391680D02*
G03*
X368199Y391669I-0J-71304D01*
G01*
X369095Y394087D02*
G03*
X370743Y393100I3321J3676D01*
G01*
X386125Y397915D02*
G03*
X385609Y397771I3422J-13212D01*
G01*
Y397771D02*
G03*
X385319Y397655I503J-1669D01*
G01*
X385315Y394811D02*
G03*
X385875Y394664I825J2005D01*
G01*
X384745Y392373D02*
G03*
X386938Y392494I720J6890D01*
G01*
X369991Y404414D02*
G03*
X368886Y403453I2856J-4399D01*
G01*
X386366Y405411D02*
G03*
X385559Y405334I46J-4768D01*
G01*
X385889Y402937D02*
G03*
X385281Y402462I864J-1733D01*
G01*
X385559Y405334D02*
G03*
X384522Y405071I1403J-7722D01*
G01*
X377343Y407780D02*
G03*
X377721Y407611I754J1176D01*
G01*
X377112Y406801D02*
G03*
X377849Y406608I1231J3190D01*
G01*
X369161Y407003D02*
G03*
X369681Y406746I1286J1951D01*
G01*
X385690Y409414D02*
G03*
X385643Y408513I1904J-552D01*
G01*
X378493Y413838D02*
G03*
X377356Y413555I-39J-2268D01*
G01*
X377356D02*
G03*
X376473Y412725I1192J-2154D01*
G01*
X378482Y414806D02*
G03*
X377595Y414698I9J-3786D01*
G01*
D02*
G03*
X376863Y414416I716J-2943D01*
G01*
X370100Y413736D02*
G03*
X369563Y413471I261J-1206D01*
G01*
D02*
G03*
X369279Y413024I579J-681D01*
G01*
X369232Y412405D02*
G03*
X369379Y412069I626J73D01*
G01*
D02*
G03*
X369717Y411793I924J788D01*
G01*
X369455Y410742D02*
G03*
X370956Y410276I5305J14439D01*
G01*
X368588Y411253D02*
G03*
X369455Y410742I1833J2122D01*
G01*
X369575Y414547D02*
G03*
X369214Y414384I765J-2177D01*
G01*
X370055Y414693D02*
G03*
X369575Y414547I1448J-5633D01*
G01*
X417544Y392558D02*
G03*
X418029Y392552I1260J92869D01*
G01*
X417494Y392579D02*
G03*
X417544Y392558I51J51D01*
G01*
X417472Y392632D02*
G03*
X417494Y392579I76J1D01*
G01*
X417456Y394425D02*
G03*
X417472Y392632I4309936J37277D01*
G01*
X417444Y396424D02*
G03*
X417456Y394425I371200J1215D01*
G01*
X417440Y398787D02*
G03*
X417444Y396424I722251J-2D01*
G01*
X408881Y394945D02*
G03*
X409419Y394930I537J9499D01*
G01*
D02*
G03*
X410823Y395174I-0J4158D01*
G01*
X407771Y392536D02*
G03*
X410177Y392381I1725J8056D01*
G01*
X409910Y402844D02*
G03*
X409502Y402860I-408J-5240D01*
G01*
D02*
G03*
X408262Y402640I0J-3600D01*
G01*
X409475Y405440D02*
G03*
X408484Y405394I19J-11191D01*
G01*
X410468Y405398D02*
G03*
X409475Y405440I-974J-11183D01*
G01*
X431976Y392359D02*
G03*
X433883Y392442I490J10722D01*
G01*
X432789Y394600D02*
G03*
X433791Y394862I-222J2897D01*
G01*
X434063Y397183D02*
G03*
X433067Y397586I-2261J-4163D01*
G01*
X434558Y405194D02*
G03*
X433112Y405409I-2381J-11018D01*
G01*
X434073Y402599D02*
G03*
X433619Y402928I-1123J-1073D01*
G01*
D02*
G03*
X433007Y403115I-925J-1937D01*
G01*
X345426Y400330D02*
G03*
X345456Y399409I16871J94D01*
G01*
X385629Y399857D02*
G03*
X384607Y399687I6090J-39591D01*
G01*
X387552Y400149D02*
G03*
X385629Y399857I62682J-420226D01*
G01*
X385643Y408513D02*
G03*
X385988Y407600I2627J471D01*
G01*
X369206Y408294D02*
G03*
X369651Y407875I1192J821D01*
G01*
X434913Y399952D02*
G03*
X432878Y400452I-18685J-71691D01*
G01*
X335383Y388261D02*
X335876Y387780D01*
X334890Y388743D02*
X335383Y388261D01*
X335371Y396517D02*
X335853Y397010D01*
X334890Y392383D02*
Y396024D01*
X335371Y396517D01*
X335307Y398347D02*
X335854Y397790D01*
X334760Y398905D02*
X335307Y398347D01*
Y406723D02*
X335854Y407280D01*
X334760Y402535D02*
Y406165D01*
X335307Y406723D01*
X334760Y409045D02*
X335307Y408487D01*
X334760Y409045D02*
Y412675D01*
X335307Y416863D02*
X335854Y417420D01*
X334760Y416305D02*
X335307Y416863D01*
X343899Y388273D02*
X344380Y388766D01*
X343417Y387780D02*
X343899Y388273D01*
X339647Y387780D02*
X343417D01*
X339623Y397010D02*
X343394D01*
X343887Y396529D01*
X344380Y396047D01*
Y392407D02*
Y396047D01*
X343963Y398347D02*
X344510Y398905D01*
X343416Y397790D02*
X343963Y398347D01*
X339635Y397790D02*
X343416D01*
X339635Y407280D02*
X343416D01*
X343963Y406723D01*
X344510Y406165D01*
Y402535D02*
Y406165D01*
X345290Y409045D02*
Y412610D01*
X344510Y409045D02*
Y412696D01*
X343963Y408487D02*
X344510Y409045D01*
X339600Y417420D02*
X343346D01*
X343928Y416883D01*
X344510Y416347D01*
X346406Y387780D02*
X350242D01*
X345913Y388261D02*
X346406Y387780D01*
X345901Y396517D02*
X346383Y397010D01*
X350153D01*
X345967Y406723D02*
X346514Y407280D01*
X350241D01*
X345903Y416798D02*
X346515Y417420D01*
X350231D01*
X356911Y387780D02*
X360759D01*
X356491Y388213D02*
X356911Y387780D01*
X356072Y388646D02*
X356491Y388213D01*
X354495Y388209D02*
X354910Y388637D01*
X354079Y387780D02*
X354495Y388209D01*
X356557Y396513D02*
X357043Y397010D01*
X360759D01*
X356071Y396015D02*
X356071Y392330D01*
X356071Y396015D02*
X356557Y396513D01*
X353924Y397010D02*
X354417Y396529D01*
X354910Y396047D01*
Y392342D02*
Y396047D01*
X354559Y398413D02*
X355040Y398906D01*
X354077Y397920D02*
X354559Y398413D01*
X356911Y397920D02*
X360759D01*
X356491Y398353D02*
X356911Y397920D01*
X356072Y398786D02*
X356491Y398353D01*
X356557Y406652D02*
X357043Y407150D01*
X360759D01*
X356071Y406155D02*
X356071Y402470D01*
X356071Y406155D02*
X356557Y406652D01*
X356072Y408926D02*
X356491Y408493D01*
X356071Y412610D02*
X356072Y408926D01*
X355040Y409045D02*
Y412675D01*
X354493Y408487D02*
X355040Y409045D01*
X356557Y416792D02*
X357043Y417290D01*
X360759D01*
X356071Y416295D02*
X356557Y416792D01*
X353946Y417420D02*
X354493Y416863D01*
X355040Y416305D01*
X365089Y388273D02*
X365570Y388766D01*
X364607Y387780D02*
X365089Y388273D01*
X364476Y397010D02*
X365023Y396453D01*
X365570Y395895D01*
Y392331D02*
Y395895D01*
X365089Y398413D02*
X365570Y398906D01*
X364607Y397920D02*
X365089Y398413D01*
X364476Y407150D02*
X365023Y406593D01*
X365570Y406035D01*
Y402471D02*
Y406035D01*
Y409046D02*
Y412611D01*
X365089Y408553D02*
X365570Y409046D01*
X364476Y417290D02*
X365023Y416733D01*
X365570Y416175D01*
X371166Y391680D02*
X371302Y391323D01*
X376619Y393465D02*
X376620Y394664D01*
X376094Y394094D02*
X376620Y394664D01*
X376039Y403868D02*
X376620Y403222D01*
Y404016D01*
Y404810D01*
X378245D02*
X379870D01*
X384769Y401300D02*
X384916Y401793D01*
X383099Y401300D02*
X384769D01*
X381430D02*
X383099D01*
X381430D02*
X381433Y401722D01*
X383835Y406825D02*
X384355D01*
X383315D02*
X383835D01*
X383866Y417525D02*
X384355Y417485D01*
X393216Y392790D02*
X393260Y392657D01*
X392745Y392667D02*
X393260Y392655D01*
X389751Y392734D02*
X391506Y392694D01*
X389669Y393247D02*
X389751Y392734D01*
X392410Y403662D02*
X392805Y403098D01*
X399500Y405070D02*
Y406955D01*
Y405070D02*
X400800D01*
X399488Y402860D02*
X400794D01*
X394940D02*
X395971D01*
X393910D02*
X394940D01*
X393910D02*
Y403965D01*
Y405070D01*
X394950D01*
X395990D01*
Y406955D01*
X394430Y406825D02*
X394885D01*
X393975D02*
X394430D01*
X395990Y408840D02*
X397745D01*
X399500D01*
X393975Y410660D02*
Y414495D01*
X394430D01*
X394885D01*
X394924Y413827D01*
X394963Y413159D01*
X395509Y413734D01*
X402035Y393931D02*
Y395208D01*
Y392655D02*
Y393931D01*
X402100Y403965D02*
Y405070D01*
Y402860D02*
Y403965D01*
X420973Y396140D02*
X421015Y399675D01*
X420931Y392604D02*
X420973Y396140D01*
X419240Y392565D02*
X420931Y392604D01*
X419130Y404940D02*
X420820D01*
X420821Y403802D01*
X420821Y402665D01*
X421094Y403120D01*
X426540Y396685D02*
X426540Y396351D01*
X426540Y396685D02*
X428120Y396661D01*
X429701Y396637D01*
X429870Y396141D01*
X434665Y401569D02*
X436258Y401565D01*
X434405Y402117D02*
X434665Y401569D01*
X334890Y388743D02*
Y392383D01*
X334760Y398905D02*
Y402535D01*
X335307Y408487D02*
X335854Y407930D01*
X334760Y412675D02*
Y416305D01*
X344380Y388766D02*
Y392407D01*
X344510Y398905D02*
Y402535D01*
X345290Y412610D02*
Y416176D01*
X344510Y412696D02*
Y416347D01*
X343416Y407930D02*
X343963Y408487D01*
X339635Y407930D02*
X343416D01*
X346384D02*
X350165D01*
X345837Y408487D02*
X346384Y407930D01*
X356071Y392330D02*
X356072Y388646D01*
X354910Y388637D02*
Y392342D01*
X355040Y398906D02*
Y402488D01*
X356071Y402470D02*
X356072Y398786D01*
X356911Y408060D02*
X360759D01*
X356491Y408493D02*
X356911Y408060D01*
X356071Y416295D02*
X356071Y412610D01*
X355040Y412675D02*
Y416305D01*
X353946Y407930D02*
X354493Y408487D01*
X365570Y388766D02*
Y392331D01*
Y398906D02*
Y402471D01*
Y412611D02*
Y416175D01*
X364607Y408060D02*
X365089Y408553D01*
X384355Y412155D02*
Y417485D01*
Y406825D02*
Y412155D01*
X383281Y412025D02*
X383315Y406825D01*
X392805Y403098D02*
X392882Y398332D01*
X399488Y402860D02*
X399527Y399289D01*
X395971Y402860D02*
X396013Y398668D01*
X395990Y406955D02*
Y408840D01*
X399500Y406955D02*
Y408840D01*
X394885Y406825D02*
X394954Y409230D01*
X393975Y406825D02*
Y410660D01*
X421015Y399675D02*
X421382Y400423D01*
X379870Y398467D02*
Y404810D01*
X360759Y387780D02*
X364607D01*
X350242D02*
X354079D01*
X345420Y388743D02*
X345913Y388261D01*
X335876Y387780D02*
X339647D01*
X360759Y397010D02*
X364476D01*
X350153D02*
X353924D01*
X345420Y392383D02*
Y396024D01*
X345901Y396517D01*
X335853Y397010D02*
X339623D01*
X350211Y397920D02*
X354077D01*
X360759D02*
X364607D01*
X335854Y397790D02*
X339635D01*
X360759Y407150D02*
X364476D01*
X345420Y402518D02*
Y406165D01*
X345967Y406723D01*
X335854Y407280D02*
X339635D01*
X345290Y409045D02*
X345837Y408487D01*
X360759Y417290D02*
X364476D01*
X350231Y417420D02*
X353946D01*
X345290Y416176D02*
X345903Y416798D01*
X335854Y417420D02*
X339600D01*
X369473Y391680D02*
X371166D01*
X376620Y404810D02*
X378245D01*
X401032Y395231D02*
X402035Y395208D01*
X400020Y392658D02*
X402035Y392655D01*
X424850Y405296D02*
X425565Y405265D01*
X425601Y403671D01*
X425638Y402077D01*
X424940Y402159D02*
X425638Y402077D01*
X417440Y404940D02*
X419130D01*
X400800Y405070D02*
X402100D01*
X400794Y402860D02*
X402100D01*
X345420Y388743D02*
Y392383D01*
X360759Y408060D02*
X364607D01*
X350165Y407930D02*
X353946D01*
X335854D02*
X339635D01*
X417440Y398787D02*
Y404940D01*
X338332Y446294D02*
X337499Y447127D01*
X335833D01*
X335000Y446294D01*
Y445461D01*
X335833Y444628D01*
X337499D01*
X338332Y443794D01*
Y442961D01*
X337499Y442128D01*
X335833D01*
X335000Y442961D01*
X340831Y446294D02*
Y445461D01*
X339998D01*
X341665D01*
X340831D01*
Y442961D01*
X341665Y442128D01*
X346663D02*
X344997D01*
X344164Y442961D01*
Y444628D01*
X344997Y445461D01*
X346663D01*
X347496Y444628D01*
Y443794D01*
X344164D01*
X351661Y442128D02*
X349995D01*
X349162Y442961D01*
Y444628D01*
X349995Y445461D01*
X351661D01*
X352494Y444628D01*
Y443794D01*
X349162D01*
X354160Y445461D02*
Y442128D01*
Y443794D01*
X354994Y444628D01*
X355827Y445461D01*
X356660D01*
X359159Y442128D02*
X360825D01*
X359992D01*
Y445461D01*
X359159D01*
X363324Y442128D02*
Y445461D01*
X365823D01*
X366656Y444628D01*
Y442128D01*
X369989Y440462D02*
X370822D01*
X371655Y441295D01*
Y445461D01*
X369156D01*
X368322Y444628D01*
Y442961D01*
X369156Y442128D01*
X371655D01*
X378319Y447127D02*
Y442128D01*
X379985Y443794D01*
X381652Y442128D01*
Y447127D01*
X383318D02*
Y442128D01*
Y444628D01*
X384151Y445461D01*
X385817D01*
X386650Y444628D01*
Y442128D01*
X390815D02*
X389149D01*
X388316Y442961D01*
Y444628D01*
X389149Y445461D01*
X390815D01*
X391648Y444628D01*
Y443794D01*
X388316D01*
X395814Y442128D02*
X394147D01*
X393314Y442961D01*
Y444628D01*
X394147Y445461D01*
X395814D01*
X396647Y444628D01*
Y443794D01*
X393314D01*
X398313Y442128D02*
X399979D01*
X399146D01*
Y447127D01*
X398313D01*
X335000Y437063D02*
X338332D01*
X336666D01*
Y432064D01*
X340831Y435396D02*
X342498D01*
X343331Y434563D01*
Y432064D01*
X340831D01*
X339998Y432897D01*
X340831Y433730D01*
X343331D01*
X344997Y435396D02*
Y432897D01*
X345830Y432064D01*
X348329D01*
Y431231D01*
X347496Y430398D01*
X346663D01*
X348329Y432064D02*
Y435396D01*
X349995Y432064D02*
X351661D01*
X350828D01*
Y437063D01*
X349995D01*
X354994Y432064D02*
X356660D01*
X357493Y432897D01*
Y434563D01*
X356660Y435396D01*
X354994D01*
X354160Y434563D01*
Y432897D01*
X354994Y432064D01*
X359159Y435396D02*
Y432064D01*
Y433730D01*
X359992Y434563D01*
X360825Y435396D01*
X361658D01*
X372488Y436230D02*
X371655Y437063D01*
X369989D01*
X369156Y436230D01*
Y432897D01*
X369989Y432064D01*
X371655D01*
X372488Y432897D01*
Y434563D01*
X370822D01*
X376653Y432064D02*
X374987D01*
X374154Y432897D01*
Y434563D01*
X374987Y435396D01*
X376653D01*
X377486Y434563D01*
Y433730D01*
X374154D01*
X379152Y435396D02*
Y432064D01*
Y433730D01*
X379985Y434563D01*
X380819Y435396D01*
X381651D01*
X384151Y432064D02*
Y437063D01*
Y433730D02*
X386650Y435396D01*
X384151Y433730D02*
X386650Y432064D01*
X391648D02*
X389982D01*
X389149Y432897D01*
Y434563D01*
X389982Y435396D01*
X391648D01*
X392481Y434563D01*
Y433730D01*
X389149D01*
X335000Y426165D02*
X335833Y426998D01*
X337499D01*
X338332Y426165D01*
Y422833D01*
X337499Y422000D01*
X335833D01*
X335000Y422833D01*
Y426165D01*
X339998D02*
X340831Y426998D01*
X342498D01*
X343331Y426165D01*
Y425332D01*
X342498Y424499D01*
X341665D01*
X342498D01*
X343331Y423666D01*
Y422833D01*
X342498Y422000D01*
X340831D01*
X339998Y422833D01*
X344997Y422000D02*
Y422833D01*
X345830D01*
Y422000D01*
X344997D01*
X349162Y426165D02*
X349995Y426998D01*
X351661D01*
X352494Y426165D01*
Y422833D01*
X351661Y422000D01*
X349995D01*
X349162Y422833D01*
Y426165D01*
X354160Y422000D02*
X355827D01*
X354994D01*
Y426998D01*
X354160Y426165D01*
X358326Y422000D02*
Y422833D01*
X359159D01*
Y422000D01*
X358326D01*
X365823D02*
X362491D01*
X365823Y425332D01*
Y426165D01*
X364990Y426998D01*
X363324D01*
X362491Y426165D01*
X367490D02*
X368322Y426998D01*
X369989D01*
X370822Y426165D01*
Y422833D01*
X369989Y422000D01*
X368322D01*
X367490Y422833D01*
Y426165D01*
X375820Y422000D02*
X372488D01*
X375820Y425332D01*
Y426165D01*
X374987Y426998D01*
X373321D01*
X372488Y426165D01*
X377486D02*
X378319Y426998D01*
X379985D01*
X380819Y426165D01*
Y425332D01*
X379985Y424499D01*
X379152D01*
X379985D01*
X380819Y423666D01*
Y422833D01*
X379985Y422000D01*
X378319D01*
X377486Y422833D01*
X432000Y500500D02*
Y503499D01*
X433499D01*
X433999Y502999D01*
Y502000D01*
X433499Y501500D01*
X432000D01*
X433000D02*
X433999Y500500D01*
X434999Y503499D02*
Y501000D01*
X435499Y500500D01*
X436498D01*
X436998Y501000D01*
Y503499D01*
X437998Y500500D02*
Y503499D01*
X439997Y500500D01*
Y503499D01*
X403000D02*
Y501000D01*
X403500Y500500D01*
X404499D01*
X404999Y501000D01*
Y503499D01*
X407998Y502999D02*
X407499Y503499D01*
X406499D01*
X405999Y502999D01*
Y502499D01*
X406499Y502000D01*
X407499D01*
X407998Y501500D01*
Y501000D01*
X407499Y500500D01*
X406499D01*
X405999Y501000D01*
X408998Y503499D02*
Y500500D01*
X410498D01*
X410997Y501000D01*
Y501500D01*
X410498Y502000D01*
X408998D01*
X410498D01*
X410997Y502499D01*
Y502999D01*
X410498Y503499D01*
X408998D01*
X414996Y500500D02*
Y503499D01*
X416496D01*
X416995Y502999D01*
Y502000D01*
X416496Y501500D01*
X414996D01*
X419994Y502999D02*
X419495Y503499D01*
X418495D01*
X417995Y502999D01*
Y501000D01*
X418495Y500500D01*
X419495D01*
X419994Y501000D01*
Y502000D01*
X418995D01*
X420994Y500500D02*
Y503499D01*
X422494D01*
X422994Y502999D01*
Y502000D01*
X422494Y501500D01*
X420994D01*
X421994D02*
X422994Y500500D01*
X423993D02*
Y503499D01*
X424993Y502499D01*
X425993Y503499D01*
Y500500D01*
X417999Y362998D02*
X415999D01*
X416999D01*
Y358000D01*
X415999Y357000D01*
X415000D01*
X414000Y358000D01*
X419998Y357000D02*
X421997D01*
X420998D01*
Y362998D01*
X419998Y361998D01*
X402499Y460498D02*
X401499Y461498D01*
X399500D01*
X398500Y460498D01*
Y456500D01*
X399500Y455500D01*
X401499D01*
X402499Y456500D01*
X404498Y455500D02*
X406497D01*
X405498D01*
Y461498D01*
X404498Y460498D01*
X413495Y461498D02*
X411496Y460498D01*
X409496Y458499D01*
Y456500D01*
X410496Y455500D01*
X412496D01*
X413495Y456500D01*
Y457499D01*
X412496Y458499D01*
X409496D01*
X459499Y445998D02*
X458499Y446998D01*
X456500D01*
X455500Y445998D01*
Y442000D01*
X456500Y441000D01*
X458499D01*
X459499Y442000D01*
X461498Y441000D02*
X463497D01*
X462498D01*
Y446998D01*
X461498Y445998D01*
X470495Y446998D02*
X466496D01*
Y443999D01*
X468496Y444999D01*
X469495D01*
X470495Y443999D01*
Y442000D01*
X469495Y441000D01*
X467496D01*
X466496Y442000D01*
X383499Y303999D02*
X382999Y304499D01*
X382000D01*
X381500Y303999D01*
Y302000D01*
X382000Y301500D01*
X382999D01*
X383499Y302000D01*
X386498Y301500D02*
X384499D01*
X386498Y303499D01*
Y303999D01*
X385999Y304499D01*
X384999D01*
X384499Y303999D01*
X387498Y301500D02*
X388498D01*
X387998D01*
Y304499D01*
X387498Y303999D01*
X333679Y298499D02*
X333179Y298999D01*
X332179D01*
X331679Y298499D01*
Y296500D01*
X332179Y296000D01*
X333179D01*
X333679Y296500D01*
X336678Y296000D02*
X334678D01*
X336678Y297999D01*
Y298499D01*
X336178Y298999D01*
X335178D01*
X334678Y298499D01*
X337677D02*
X338177Y298999D01*
X339177D01*
X339676Y298499D01*
Y296500D01*
X339177Y296000D01*
X338177D01*
X337677Y296500D01*
Y298499D01*
X334499Y344177D02*
X333999Y344677D01*
X333000D01*
X332500Y344177D01*
Y342178D01*
X333000Y341678D01*
X333999D01*
X334499Y342178D01*
X335499Y341678D02*
X336499D01*
X335999D01*
Y344677D01*
X335499Y344177D01*
X337998Y342178D02*
X338498Y341678D01*
X339498D01*
X339998Y342178D01*
Y344177D01*
X339498Y344677D01*
X338498D01*
X337998Y344177D01*
Y343677D01*
X338498Y343178D01*
X339998D01*
X343000Y363500D02*
Y366499D01*
X344499D01*
X344999Y365999D01*
Y365000D01*
X344499Y364500D01*
X343000D01*
X344000D02*
X344999Y363500D01*
X345999D02*
X346999D01*
X346499D01*
Y366499D01*
X345999Y365999D01*
X350498Y366499D02*
X348498D01*
Y365000D01*
X349498Y365499D01*
X349998D01*
X350498Y365000D01*
Y364000D01*
X349998Y363500D01*
X348998D01*
X348498Y364000D01*
X613500Y289999D02*
Y287000D01*
X614999D01*
X615499Y287500D01*
Y289499D01*
X614999Y289999D01*
X613500D01*
X616499Y287000D02*
X617499D01*
X616999D01*
Y289999D01*
X616499Y289499D01*
X618998D02*
X619498Y289999D01*
X620498D01*
X620998Y289499D01*
Y287500D01*
X620498Y287000D01*
X619498D01*
X618998Y287500D01*
Y289499D01*
X321500Y289999D02*
Y287000D01*
X323000D01*
X323499Y287500D01*
Y289499D01*
X323000Y289999D01*
X321500D01*
X324499Y287500D02*
X324999Y287000D01*
X325998D01*
X326498Y287500D01*
Y289499D01*
X325998Y289999D01*
X324999D01*
X324499Y289499D01*
Y288999D01*
X324999Y288499D01*
X326498D01*
X477999Y342999D02*
X477499Y343499D01*
X476500D01*
X476000Y342999D01*
Y341000D01*
X476500Y340500D01*
X477499D01*
X477999Y341000D01*
X478999Y340500D02*
X479999D01*
X479499D01*
Y343499D01*
X478999Y342999D01*
X481498Y343499D02*
X483498D01*
Y342999D01*
X481498Y341000D01*
Y340500D01*
X347303Y351832D02*
Y355831D01*
X346303Y356831D01*
X344304D01*
X343304Y355831D01*
Y351832D01*
X344304Y350833D01*
X346303D01*
X345304Y352832D02*
X347303Y350833D01*
X346303D02*
X347303Y351832D01*
X353301Y356831D02*
X349302D01*
Y353832D01*
X351302Y354831D01*
X352301D01*
X353301Y353832D01*
Y351832D01*
X352301Y350833D01*
X350302D01*
X349302Y351832D01*
X355500Y372092D02*
Y369092D01*
X356999D01*
X357499Y369592D01*
Y371592D01*
X356999Y372092D01*
X355500D01*
X360498Y369092D02*
X358499D01*
X360498Y371092D01*
Y371592D01*
X359998Y372092D01*
X358999D01*
X358499Y371592D01*
X346000Y326926D02*
X343001D01*
Y328426D01*
X343501Y328925D01*
X344500D01*
X345000Y328426D01*
Y326926D01*
Y327926D02*
X346000Y328925D01*
Y329925D02*
Y330925D01*
Y330425D01*
X343001D01*
X343501Y329925D01*
X343001Y332424D02*
Y334424D01*
X343501D01*
X345500Y332424D01*
X346000D01*
X349377Y312500D02*
Y315499D01*
X350876D01*
X351376Y314999D01*
Y314000D01*
X350876Y313500D01*
X349377D01*
X350377D02*
X351376Y312500D01*
X352376D02*
X353376D01*
X352876D01*
Y315499D01*
X352376Y314999D01*
X356375Y312500D02*
Y315499D01*
X354875Y314000D01*
X356874D01*
X362836Y312593D02*
Y315592D01*
X364335D01*
X364835Y315092D01*
Y314092D01*
X364335Y313592D01*
X362836D01*
X363835D02*
X364835Y312593D01*
X365835D02*
X366834D01*
X366335D01*
Y315592D01*
X365835Y315092D01*
X370333Y315592D02*
X369334Y315092D01*
X368334Y314092D01*
Y313092D01*
X368834Y312593D01*
X369833D01*
X370333Y313092D01*
Y313592D01*
X369833Y314092D01*
X368334D01*
X400505Y340795D02*
Y342795D01*
X400005Y343295D01*
X399006D01*
X398506Y342795D01*
Y340795D01*
X399006Y340296D01*
X400005D01*
X399506Y341295D02*
X400505Y340296D01*
X400005D02*
X400505Y340795D01*
X403005Y340296D02*
Y343295D01*
X401505Y341795D01*
X403504D01*
X378728Y364265D02*
X378228Y364765D01*
X377228D01*
X376728Y364265D01*
Y362266D01*
X377228Y361766D01*
X378228D01*
X378728Y362266D01*
X379727Y361766D02*
X380727D01*
X380227D01*
Y364765D01*
X379727Y364265D01*
X382227D02*
X382726Y364765D01*
X383726D01*
X384226Y364265D01*
Y363766D01*
X383726Y363266D01*
X384226Y362766D01*
Y362266D01*
X383726Y361766D01*
X382726D01*
X382227Y362266D01*
Y362766D01*
X382726Y363266D01*
X382227Y363766D01*
Y364265D01*
X382726Y363266D02*
X383726D01*
X391500Y351766D02*
X394499D01*
Y350267D01*
X393999Y349767D01*
X393000D01*
X392500Y350267D01*
Y351766D01*
Y350766D02*
X391500Y349767D01*
Y348767D02*
Y347767D01*
Y348267D01*
X394499D01*
X393999Y348767D01*
Y346268D02*
X394499Y345768D01*
Y344768D01*
X393999Y344269D01*
X393499D01*
X393000Y344768D01*
Y345268D01*
Y344768D01*
X392500Y344269D01*
X392000D01*
X391500Y344768D01*
Y345768D01*
X392000Y346268D01*
X356500Y349592D02*
Y346592D01*
X357999D01*
X358499Y347092D01*
Y349092D01*
X357999Y349592D01*
X356500D01*
X359499Y346592D02*
X360499D01*
X359999D01*
Y349592D01*
X359499Y349092D01*
X435499Y384999D02*
X435000Y385499D01*
X434000D01*
X433500Y384999D01*
Y383000D01*
X434000Y382500D01*
X435000D01*
X435499Y383000D01*
X436499D02*
X436999Y382500D01*
X437998D01*
X438498Y383000D01*
Y384999D01*
X437998Y385499D01*
X436999D01*
X436499Y384999D01*
Y384499D01*
X436999Y383999D01*
X438498D01*
X425499Y384999D02*
X425000Y385499D01*
X424000D01*
X423500Y384999D01*
Y383000D01*
X424000Y382500D01*
X425000D01*
X425499Y383000D01*
X426499Y382500D02*
X427499D01*
X426999D01*
Y385499D01*
X426499Y384999D01*
X428998D02*
X429498Y385499D01*
X430498D01*
X430998Y384999D01*
Y383000D01*
X430498Y382500D01*
X429498D01*
X428998Y383000D01*
Y384999D01*
X535500Y346000D02*
Y348999D01*
X537000D01*
X537499Y348499D01*
Y347499D01*
X537000Y347000D01*
X535500D01*
X536500D02*
X537499Y346000D01*
X538499D02*
X539499D01*
X538999D01*
Y348999D01*
X538499Y348499D01*
X504653Y360498D02*
Y354500D01*
X507652D01*
X508651Y355500D01*
Y356499D01*
X507652Y357499D01*
X504653D01*
X507652D01*
X508651Y358499D01*
Y359498D01*
X507652Y360498D01*
X504653D01*
X510651Y354500D02*
Y360498D01*
X513650D01*
X514649Y359498D01*
Y357499D01*
X513650Y356499D01*
X510651D01*
X512650D02*
X514649Y354500D01*
X516649Y360498D02*
Y354500D01*
X519648D01*
X520647Y355500D01*
Y359498D01*
X519648Y360498D01*
X516649D01*
X531644D02*
X529644D01*
X528645Y359498D01*
Y355500D01*
X529644Y354500D01*
X531644D01*
X532644Y355500D01*
Y359498D01*
X531644Y360498D01*
X534643Y354500D02*
Y360498D01*
X538642Y354500D01*
Y360498D01*
X499000Y331000D02*
Y333999D01*
X500499D01*
X500999Y333499D01*
Y332500D01*
X500499Y332000D01*
X499000D01*
X500000D02*
X500999Y331000D01*
X503499D02*
Y333999D01*
X501999Y332500D01*
X503998D01*
X499000Y322000D02*
Y324999D01*
X500499D01*
X500999Y324499D01*
Y323499D01*
X500499Y323000D01*
X499000D01*
X500000D02*
X500999Y322000D01*
X501999Y324499D02*
X502499Y324999D01*
X503499D01*
X503998Y324499D01*
Y323999D01*
X503499Y323499D01*
X502999D01*
X503499D01*
X503998Y323000D01*
Y322500D01*
X503499Y322000D01*
X502499D01*
X501999Y322500D01*
X499000Y311000D02*
Y313999D01*
X500499D01*
X500999Y313499D01*
Y312499D01*
X500499Y312000D01*
X499000D01*
X500000D02*
X500999Y311000D01*
X503998D02*
X501999D01*
X503998Y312999D01*
Y313499D01*
X503499Y313999D01*
X502499D01*
X501999Y313499D01*
X441499Y333499D02*
X441000Y333999D01*
X440000D01*
X439500Y333499D01*
Y331500D01*
X440000Y331000D01*
X441000D01*
X441499Y331500D01*
X442499Y331000D02*
Y332999D01*
X443499Y333999D01*
X444498Y332999D01*
Y331000D01*
Y332500D01*
X442499D01*
X445498Y331000D02*
Y333999D01*
X447497Y331000D01*
Y333999D01*
X453496D02*
X451496D01*
Y332500D01*
X452496D01*
X451496D01*
Y331000D01*
X454495D02*
Y332999D01*
X455495Y333999D01*
X456495Y332999D01*
Y331000D01*
Y332500D01*
X454495D01*
X457494Y333999D02*
Y331500D01*
X457994Y331000D01*
X458994D01*
X459493Y331500D01*
Y333999D01*
X460493D02*
Y331000D01*
X462493D01*
X463492Y333999D02*
X465492D01*
X464492D01*
Y331000D01*
X421651Y314498D02*
X420652Y315498D01*
X418652D01*
X417653Y314498D01*
Y313499D01*
X418652Y312499D01*
X420652D01*
X421651Y311499D01*
Y310500D01*
X420652Y309500D01*
X418652D01*
X417653Y310500D01*
X423651Y315498D02*
X427649D01*
X425650D01*
Y309500D01*
X429649D02*
Y315498D01*
X431648Y313499D01*
X433647Y315498D01*
Y309500D01*
X435647Y314498D02*
X436646Y315498D01*
X438646D01*
X439645Y314498D01*
Y313499D01*
X438646Y312499D01*
X437646D01*
X438646D01*
X439645Y311499D01*
Y310500D01*
X438646Y309500D01*
X436646D01*
X435647Y310500D01*
X445644Y309500D02*
X441645D01*
X445644Y313499D01*
Y314498D01*
X444644Y315498D01*
X442645D01*
X441645Y314498D01*
X456640Y315498D02*
X454641D01*
X453641Y314498D01*
Y310500D01*
X454641Y309500D01*
X456640D01*
X457640Y310500D01*
Y314498D01*
X456640Y315498D01*
X459639D02*
Y309500D01*
Y311499D01*
X463638Y315498D01*
X460639Y312499D01*
X463638Y309500D01*
X453499Y325499D02*
X451500D01*
Y322500D01*
X453499D01*
X451500Y324000D02*
X452500D01*
X454499Y322500D02*
Y325499D01*
X455999D01*
X456498Y324999D01*
Y324000D01*
X455999Y323500D01*
X454499D01*
X455499D02*
X456498Y322500D01*
X457498D02*
Y325499D01*
X458998D01*
X459497Y324999D01*
Y324000D01*
X458998Y323500D01*
X457498D01*
X458498D02*
X459497Y322500D01*
X461997Y325499D02*
X460997D01*
X460497Y324999D01*
Y323000D01*
X460997Y322500D01*
X461997D01*
X462496Y323000D01*
Y324999D01*
X461997Y325499D01*
X463496Y322500D02*
Y325499D01*
X464996D01*
X465495Y324999D01*
Y324000D01*
X464996Y323500D01*
X463496D01*
X464496D02*
X465495Y322500D01*
X405499Y483999D02*
X404999Y484499D01*
X404000D01*
X403500Y483999D01*
Y483499D01*
X404000Y483000D01*
X404999D01*
X405499Y482500D01*
Y482000D01*
X404999Y481500D01*
X404000D01*
X403500Y482000D01*
X406499Y481500D02*
X407499D01*
X406999D01*
Y484499D01*
X406499Y483999D01*
X355000Y502999D02*
Y500000D01*
X356500D01*
X356999Y500500D01*
Y502499D01*
X356500Y502999D01*
X355000D01*
X357999Y502499D02*
X358499Y502999D01*
X359499D01*
X359998Y502499D01*
Y501999D01*
X359499Y501500D01*
X359998Y501000D01*
Y500500D01*
X359499Y500000D01*
X358499D01*
X357999Y500500D01*
Y501000D01*
X358499Y501500D01*
X357999Y501999D01*
Y502499D01*
X358499Y501500D02*
X359499D01*
X586999Y396499D02*
X586500Y396999D01*
X585500D01*
X585000Y396499D01*
Y394500D01*
X585500Y394000D01*
X586500D01*
X586999Y394500D01*
X587999Y394000D02*
X588999D01*
X588499D01*
Y396999D01*
X587999Y396499D01*
X590498D02*
X590998Y396999D01*
X591998D01*
X592498Y396499D01*
Y395999D01*
X591998Y395499D01*
X591498D01*
X591998D01*
X592498Y395000D01*
Y394500D01*
X591998Y394000D01*
X590998D01*
X590498Y394500D01*
X602499Y460998D02*
X601499Y461998D01*
X599500D01*
X598500Y460998D01*
Y457000D01*
X599500Y456000D01*
X601499D01*
X602499Y457000D01*
X604498Y456000D02*
X606497D01*
X605498D01*
Y461998D01*
X604498Y460998D01*
X609496Y456000D02*
X611496D01*
X610496D01*
Y461998D01*
X609496Y460998D01*
X563500Y386500D02*
Y389499D01*
X564999D01*
X565499Y388999D01*
Y388000D01*
X564999Y387500D01*
X563500D01*
X564500D02*
X565499Y386500D01*
X566499D02*
X567499D01*
X566999D01*
Y389499D01*
X566499Y388999D01*
X568998Y386500D02*
X569998D01*
X569498D01*
Y389499D01*
X568998Y388999D01*
X562500Y377500D02*
Y380499D01*
X564000D01*
X564499Y379999D01*
Y378999D01*
X564000Y378500D01*
X562500D01*
X563500D02*
X564499Y377500D01*
X565499D02*
X566499D01*
X565999D01*
Y380499D01*
X565499Y379999D01*
X567998D02*
X568498Y380499D01*
X569498D01*
X569998Y379999D01*
Y378000D01*
X569498Y377500D01*
X568498D01*
X567998Y378000D01*
Y379999D01*
X565000Y362916D02*
Y365915D01*
X566500D01*
X566999Y365416D01*
Y364416D01*
X566500Y363916D01*
X565000D01*
X566000D02*
X566999Y362916D01*
X567999Y363416D02*
X568499Y362916D01*
X569498D01*
X569998Y363416D01*
Y365416D01*
X569498Y365915D01*
X568499D01*
X567999Y365416D01*
Y364916D01*
X568499Y364416D01*
X569998D01*
X563501Y346999D02*
X563001Y346499D01*
Y345500D01*
X563501Y345000D01*
X565500D01*
X566000Y345500D01*
Y346499D01*
X565500Y346999D01*
X566000Y347999D02*
Y348999D01*
Y348499D01*
X563001D01*
X563501Y347999D01*
X566000Y351998D02*
X563001D01*
X564501Y350498D01*
Y352498D01*
X576000Y451500D02*
Y454499D01*
X577499D01*
X577999Y453999D01*
Y452999D01*
X577499Y452500D01*
X576000D01*
X577000D02*
X577999Y451500D01*
X578999Y453999D02*
X579499Y454499D01*
X580499D01*
X580998Y453999D01*
Y453499D01*
X580499Y452999D01*
X580998Y452500D01*
Y452000D01*
X580499Y451500D01*
X579499D01*
X578999Y452000D01*
Y452500D01*
X579499Y452999D01*
X578999Y453499D01*
Y453999D01*
X579499Y452999D02*
X580499D01*
X585673Y428998D02*
Y423000D01*
X589672D01*
X591671D02*
X593671D01*
X592671D01*
Y428998D01*
X591671Y427998D01*
X567501Y406999D02*
X567001Y406499D01*
Y405500D01*
X567501Y405000D01*
X569500D01*
X570000Y405500D01*
Y406499D01*
X569500Y406999D01*
X570000Y407999D02*
Y408999D01*
Y408499D01*
X567001D01*
X567501Y407999D01*
X570000Y412498D02*
Y410498D01*
X568001Y412498D01*
X567501D01*
X567001Y411998D01*
Y410998D01*
X567501Y410498D01*
X569000Y437000D02*
Y439999D01*
X570500D01*
X570999Y439499D01*
Y438499D01*
X570500Y438000D01*
X569000D01*
X570000D02*
X570999Y437000D01*
X571999Y439999D02*
X573998D01*
Y439499D01*
X571999Y437500D01*
Y437000D01*
X569000Y422500D02*
Y425499D01*
X570500D01*
X570999Y424999D01*
Y424000D01*
X570500Y423500D01*
X569000D01*
X570000D02*
X570999Y422500D01*
X573998Y425499D02*
X572999Y424999D01*
X571999Y424000D01*
Y423000D01*
X572499Y422500D01*
X573498D01*
X573998Y423000D01*
Y423500D01*
X573498Y424000D01*
X571999D01*
X464500Y477998D02*
Y472000D01*
X467499D01*
X468499Y473000D01*
Y476998D01*
X467499Y477998D01*
X464500D01*
X470498Y476998D02*
X471498Y477998D01*
X473497D01*
X474497Y476998D01*
Y475999D01*
X473497Y474999D01*
X472497D01*
X473497D01*
X474497Y473999D01*
Y473000D01*
X473497Y472000D01*
X471498D01*
X470498Y473000D01*
X545000Y455000D02*
Y460998D01*
X547999D01*
X548999Y459998D01*
Y457999D01*
X547999Y456999D01*
X545000D01*
X546999D02*
X548999Y455000D01*
X550998D02*
X552997D01*
X551998D01*
Y460998D01*
X550998Y459998D01*
X559995Y455000D02*
X555996D01*
X559995Y458999D01*
Y459998D01*
X558995Y460998D01*
X556996D01*
X555996Y459998D01*
X580000Y503499D02*
Y500500D01*
X581499D01*
X581999Y501000D01*
Y502999D01*
X581499Y503499D01*
X580000D01*
X582999D02*
X584998D01*
Y502999D01*
X582999Y501000D01*
Y500500D01*
X507000Y460500D02*
Y466498D01*
X509999D01*
X510999Y465498D01*
Y463499D01*
X509999Y462499D01*
X507000D01*
X508999D02*
X510999Y460500D01*
X516997Y466498D02*
X512998D01*
Y463499D01*
X514997Y464499D01*
X515997D01*
X516997Y463499D01*
Y461500D01*
X515997Y460500D01*
X513998D01*
X512998Y461500D01*
X534999Y477498D02*
X531000D01*
Y474499D01*
X532999D01*
X531000D01*
Y471500D01*
X536998D02*
X538997D01*
X537998D01*
Y477498D01*
X536998Y476498D01*
X580499Y465500D02*
Y469498D01*
X579499Y470498D01*
X577500D01*
X576500Y469498D01*
Y465500D01*
X577500Y464500D01*
X579499D01*
X578499Y466499D02*
X580499Y464500D01*
X579499D02*
X580499Y465500D01*
X582498Y464500D02*
X584497D01*
X583498D01*
Y470498D01*
X582498Y469498D01*
X495999Y473500D02*
Y477498D01*
X494999Y478498D01*
X493000D01*
X492000Y477498D01*
Y473500D01*
X493000Y472500D01*
X494999D01*
X493999Y474499D02*
X495999Y472500D01*
X494999D02*
X495999Y473500D01*
X501997Y472500D02*
X497998D01*
X501997Y476499D01*
Y477498D01*
X500997Y478498D01*
X498998D01*
X497998Y477498D01*
X445499Y502998D02*
X443499D01*
X444499D01*
Y498000D01*
X443499Y497000D01*
X442500D01*
X441500Y498000D01*
X451497Y497000D02*
X447498D01*
X451497Y500999D01*
Y501998D01*
X450497Y502998D01*
X448498D01*
X447498Y501998D01*
X634000Y461000D02*
X628002D01*
X630001Y462999D01*
X628002Y464999D01*
X634000D01*
Y466998D02*
X630001D01*
X628002Y468997D01*
X630001Y470997D01*
X634000D01*
X631001D01*
Y466998D01*
X628002Y472996D02*
Y474996D01*
Y473996D01*
X634000D01*
Y472996D01*
Y474996D01*
Y477994D02*
X628002D01*
X634000Y481993D01*
X628002D01*
X607499Y252998D02*
X605499D01*
X606499D01*
Y248000D01*
X605499Y247000D01*
X604500D01*
X603500Y248000D01*
X613497Y252998D02*
X611497Y251998D01*
X609498Y249999D01*
Y248000D01*
X610498Y247000D01*
X612497D01*
X613497Y248000D01*
Y248999D01*
X612497Y249999D01*
X609498D01*
X311998Y496001D02*
Y498001D01*
Y497001D01*
X307000D01*
X306000Y498001D01*
Y499000D01*
X307000Y500000D01*
X310998Y494002D02*
X311998Y493002D01*
Y491003D01*
X310998Y490003D01*
X309999D01*
X308999Y491003D01*
Y492003D01*
Y491003D01*
X307999Y490003D01*
X307000D01*
X306000Y491003D01*
Y493002D01*
X307000Y494002D01*
X271999Y377498D02*
X269999D01*
X270999D01*
Y372500D01*
X269999Y371500D01*
X269000D01*
X268000Y372500D01*
X276997Y371500D02*
Y377498D01*
X273998Y374499D01*
X277997D01*
X272499Y325998D02*
X271499Y326998D01*
X269500D01*
X268500Y325998D01*
Y324999D01*
X269500Y323999D01*
X271499D01*
X272499Y322999D01*
Y322000D01*
X271499Y321000D01*
X269500D01*
X268500Y322000D01*
X274498Y321000D02*
Y326998D01*
X277497D01*
X278497Y325998D01*
Y323999D01*
X277497Y322999D01*
X274498D01*
X280496Y326998D02*
Y321000D01*
Y322999D01*
X284495Y326998D01*
X281496Y323999D01*
X284495Y321000D01*
X286494D02*
Y326998D01*
X289493D01*
X290493Y325998D01*
Y323999D01*
X289493Y322999D01*
X286494D01*
X288493D02*
X290493Y321000D01*
X654999Y378998D02*
X652999D01*
X653999D01*
Y374000D01*
X652999Y373000D01*
X652000D01*
X651000Y374000D01*
X660997Y378998D02*
X656998D01*
Y375999D01*
X658997Y376999D01*
X659997D01*
X660997Y375999D01*
Y374000D01*
X659997Y373000D01*
X657998D01*
X656998Y374000D01*
X329000Y492498D02*
X330999D01*
X330000D01*
Y486500D01*
X329000D01*
X330999D01*
X333998Y492498D02*
Y486500D01*
X337997D01*
X339996Y492498D02*
X341996D01*
X340996D01*
Y486500D01*
X339996D01*
X341996D01*
X344995Y487500D02*
X345994Y486500D01*
X347994D01*
X348993Y487500D01*
Y491498D01*
X347994Y492498D01*
X345994D01*
X344995Y491498D01*
Y490499D01*
X345994Y489499D01*
X348993D01*
X350993Y491498D02*
X351993Y492498D01*
X353992D01*
X354992Y491498D01*
Y490499D01*
X353992Y489499D01*
X352992D01*
X353992D01*
X354992Y488499D01*
Y487500D01*
X353992Y486500D01*
X351993D01*
X350993Y487500D01*
X359990Y486500D02*
Y492498D01*
X356991Y489499D01*
X360990D01*
X362989Y486500D02*
X364988D01*
X363989D01*
Y492498D01*
X362989Y491498D01*
X581500Y371798D02*
Y365800D01*
X585499D01*
X591497D02*
X587498D01*
X591497Y369799D01*
Y370798D01*
X590497Y371798D01*
X588498D01*
X587498Y370798D01*
X416700Y463898D02*
Y458900D01*
X417700Y457900D01*
X419699D01*
X420699Y458900D01*
Y463898D01*
X422698Y462898D02*
X423698Y463898D01*
X425697D01*
X426697Y462898D01*
Y461899D01*
X425697Y460899D01*
X424697D01*
X425697D01*
X426697Y459899D01*
Y458900D01*
X425697Y457900D01*
X423698D01*
X422698Y458900D01*
X591500Y391898D02*
Y386900D01*
X592500Y385900D01*
X594499D01*
X595499Y386900D01*
Y391898D01*
X601497Y385900D02*
X597498D01*
X601497Y389899D01*
Y390898D01*
X600497Y391898D01*
X598498D01*
X597498Y390898D01*
X595500Y446898D02*
Y441900D01*
X596500Y440900D01*
X598499D01*
X599499Y441900D01*
Y446898D01*
X601498Y440900D02*
X603497D01*
X602498D01*
Y446898D01*
X601498Y445898D01*
X470499Y420498D02*
X469499Y421498D01*
X467500D01*
X466500Y420498D01*
Y419499D01*
X467500Y418499D01*
X469499D01*
X470499Y417499D01*
Y416500D01*
X469499Y415500D01*
X467500D01*
X466500Y416500D01*
X472498Y421498D02*
X476497D01*
X474497D01*
Y415500D01*
X478496D02*
Y421498D01*
X480496Y419499D01*
X482495Y421498D01*
Y415500D01*
X484494Y420498D02*
X485494Y421498D01*
X487493D01*
X488493Y420498D01*
Y419499D01*
X487493Y418499D01*
X486493D01*
X487493D01*
X488493Y417499D01*
Y416500D01*
X487493Y415500D01*
X485494D01*
X484494Y416500D01*
X494491Y415500D02*
X490492D01*
X494491Y419499D01*
Y420498D01*
X493491Y421498D01*
X491492D01*
X490492Y420498D01*
X600299Y324600D02*
Y328598D01*
X599299Y329598D01*
X597300D01*
X596300Y328598D01*
Y324600D01*
X597300Y323600D01*
X599299D01*
X598299Y325599D02*
X600299Y323600D01*
X599299D02*
X600299Y324600D01*
X602298Y328598D02*
X603298Y329598D01*
X605297D01*
X606297Y328598D01*
Y327599D01*
X605297Y326599D01*
X604297D01*
X605297D01*
X606297Y325599D01*
Y324600D01*
X605297Y323600D01*
X603298D01*
X602298Y324600D01*
X437999Y427998D02*
X436999Y428998D01*
X435000D01*
X434000Y427998D01*
Y424000D01*
X435000Y423000D01*
X436999D01*
X437999Y424000D01*
X439998Y427998D02*
X440998Y428998D01*
X442997D01*
X443997Y427998D01*
Y426999D01*
X442997Y425999D01*
X443997Y424999D01*
Y424000D01*
X442997Y423000D01*
X440998D01*
X439998Y424000D01*
Y424999D01*
X440998Y425999D01*
X439998Y426999D01*
Y427998D01*
X440998Y425999D02*
X442997D01*
X508999Y413499D02*
X508499Y413999D01*
X507500D01*
X507000Y413499D01*
Y411500D01*
X507500Y411000D01*
X508499D01*
X508999Y411500D01*
X509999Y413999D02*
X511998D01*
Y413499D01*
X509999Y411500D01*
Y411000D01*
X499292Y347999D02*
X498792Y348499D01*
X497792D01*
X497292Y347999D01*
Y346000D01*
X497792Y345500D01*
X498792D01*
X499292Y346000D01*
X502291Y348499D02*
X501291Y347999D01*
X500291Y347000D01*
Y346000D01*
X500791Y345500D01*
X501791D01*
X502291Y346000D01*
Y346500D01*
X501791Y347000D01*
X500291D01*
X443499Y346499D02*
X443000Y346999D01*
X442000D01*
X441500Y346499D01*
Y344500D01*
X442000Y344000D01*
X443000D01*
X443499Y344500D01*
X446498Y346999D02*
X444499D01*
Y345499D01*
X445499Y345999D01*
X445998D01*
X446498Y345499D01*
Y344500D01*
X445998Y344000D01*
X444999D01*
X444499Y344500D01*
X438499Y419950D02*
X437499Y420950D01*
X435500D01*
X434500Y419950D01*
Y415951D01*
X435500Y414952D01*
X437499D01*
X438499Y415951D01*
X443497Y414952D02*
Y420950D01*
X440498Y417951D01*
X444497D01*
X499999Y413499D02*
X499500Y413999D01*
X498500D01*
X498000Y413499D01*
Y411500D01*
X498500Y411000D01*
X499500D01*
X499999Y411500D01*
X500999Y413499D02*
X501499Y413999D01*
X502498D01*
X502998Y413499D01*
Y412999D01*
X502498Y412500D01*
X501999D01*
X502498D01*
X502998Y412000D01*
Y411500D01*
X502498Y411000D01*
X501499D01*
X500999Y411500D01*
X499292Y355999D02*
X498792Y356499D01*
X497792D01*
X497292Y355999D01*
Y354000D01*
X497792Y353500D01*
X498792D01*
X499292Y354000D01*
X502291Y353500D02*
X500291D01*
X502291Y355499D01*
Y355999D01*
X501791Y356499D01*
X500791D01*
X500291Y355999D01*
X444499Y354499D02*
X443999Y354999D01*
X443000D01*
X442500Y354499D01*
Y352500D01*
X443000Y352000D01*
X443999D01*
X444499Y352500D01*
X445499Y352000D02*
X446499D01*
X445999D01*
Y354999D01*
X445499Y354499D01*
D12*
X411933Y352236D02*
G03*
X411933Y351842I0J-197D01*
G01*
D02*
G03*
X411933Y352236I0J197D01*
G01*
D02*
G03*
X411933Y351842I0J-197D01*
G01*
X366394Y373722D02*
G03*
X366394Y373722I-394J0D01*
G01*
X366231Y351363D02*
G03*
X366231Y351363I-394J0D01*
G01*
X517849Y347000D02*
G03*
X517849Y347000I-197J0D01*
G01*
X481349Y312500D02*
G03*
X481349Y312500I-197J0D01*
G01*
X574646Y490500D02*
G03*
X574646Y490500I-394J0D01*
G01*
X476770Y481205D02*
G03*
X476770Y481205I-181J0D01*
G01*
X631839Y487932D02*
G03*
X632232Y487932I197J0D01*
G01*
D02*
G03*
X631839Y487932I-197J0D01*
G01*
D02*
G03*
X632232Y487932I197J0D01*
G01*
X308661Y393445D02*
G03*
X308268Y393445I-197J0D01*
G01*
D02*
G03*
X308661Y393445I197J0D01*
G01*
D02*
G03*
X308268Y393445I-197J0D01*
G01*
X631839Y358073D02*
G03*
X632232Y358073I197J0D01*
G01*
D02*
G03*
X631839Y358073I-197J0D01*
G01*
D02*
G03*
X632232Y358073I197J0D01*
G01*
X601819Y319307D02*
X604181D01*
Y307693D02*
Y319307D01*
X601819Y307693D02*
X604181D01*
X601819D02*
Y319307D01*
X595716Y319406D02*
X600441D01*
X408933Y448500D02*
X413067D01*
X447933Y444000D02*
X452067D01*
X347630Y294019D02*
X378732D01*
X347630Y311145D02*
X376370D01*
X341191Y303110D02*
Y319350D01*
X330167Y303110D02*
Y316890D01*
X333252Y322517D02*
Y337477D01*
X339748Y324879D02*
Y337477D01*
X477933Y350000D02*
X482067D01*
X350009Y348081D02*
X350599D01*
Y336585D02*
Y348081D01*
X350009Y336585D02*
X350599D01*
X350009D02*
Y348081D01*
X343710Y348258D02*
X348631D01*
X353500Y328359D02*
Y332493D01*
X364769Y323000D02*
X368903D01*
X381616Y340591D02*
X395396D01*
Y315000D02*
Y340591D01*
X381616Y315000D02*
X395396D01*
X381616D02*
Y340591D01*
X372758Y340197D02*
X377482D01*
X379500Y354699D02*
Y358833D01*
X432981Y375500D02*
X437115D01*
X424933D02*
X429067D01*
X527500Y345433D02*
Y349567D01*
X491000Y330433D02*
Y334567D01*
Y321433D02*
Y325567D01*
Y310433D02*
Y314567D01*
X471047Y335748D02*
X480201D01*
Y329252D02*
Y335748D01*
X471047Y329252D02*
X480201D01*
X471047Y326985D02*
X480201D01*
Y320489D02*
Y326985D01*
X471047Y320489D02*
X480201D01*
X578500Y384433D02*
Y388567D01*
X573433Y374500D02*
X577567D01*
X573433Y359916D02*
X577567D01*
X573500Y346433D02*
Y350567D01*
X582000Y443933D02*
Y448067D01*
X577000Y405433D02*
Y409567D01*
X576933Y434000D02*
X581067D01*
X576933Y419416D02*
X581067D01*
X475799Y465559D02*
Y470284D01*
X463744Y464181D02*
X475256D01*
X463744Y461819D02*
Y464181D01*
Y461819D02*
X475256D01*
Y464181D01*
X552500Y465744D02*
Y471256D01*
X512000Y469433D02*
Y473567D01*
X455636Y484315D02*
Y490721D01*
X485164Y484315D02*
Y490721D01*
X455636Y504000D02*
X485164D01*
X315428Y293000D02*
Y488000D01*
Y293000D02*
X325428D01*
Y493000D01*
X320428D02*
X325428D01*
X590972Y373768D02*
Y375638D01*
X591366Y377016D02*
X599634D01*
Y378984D01*
X591366D02*
X599634D01*
X591366Y377016D02*
Y378984D01*
X594972Y428768D02*
Y430638D01*
X595366Y432016D02*
X603634D01*
Y433984D01*
X595366D02*
X603634D01*
X595366Y432016D02*
Y433984D01*
X615428Y293000D02*
X620428D01*
X615428D02*
Y493000D01*
X625428D01*
Y298000D02*
Y493000D01*
X507433Y404000D02*
X511567D01*
X498433D02*
X502567D01*
X451500Y423933D02*
Y428067D01*
Y415885D02*
Y420019D01*
X450693Y404807D02*
X487307D01*
Y368193D02*
Y404807D01*
X450693Y368193D02*
X487307D01*
X450693D02*
Y404807D01*
X490292Y352981D02*
Y357115D01*
Y344933D02*
Y349067D01*
X453500Y351481D02*
Y355615D01*
Y343433D02*
Y347567D01*
X424201Y434354D02*
X436799D01*
X424201D02*
Y453646D01*
X436799D01*
Y434354D02*
Y453646D01*
X438177Y433843D02*
X444181D01*
D13*
X522173Y481051D02*
G03*
X522173Y480657I0J-197D01*
G01*
D02*
G03*
X522173Y481051I0J197D01*
G01*
X410071Y493937D02*
Y498465D01*
X443929D01*
Y493937D02*
Y498465D01*
X410071Y481535D02*
Y486063D01*
Y481535D02*
X443929D01*
Y486063D01*
X503276Y480854D02*
X514299D01*
X501701Y500146D02*
X514299D01*
X636642Y380393D02*
Y387538D01*
Y380393D02*
Y387538D01*
Y380393D02*
X675618D01*
X636642D02*
X675618D01*
X675618Y500983D01*
X675618Y380393D02*
X675618Y500983D01*
X636642D02*
X675618D01*
X636642D02*
X675618D01*
X636642Y493837D02*
Y500983D01*
Y493837D02*
Y500983D01*
X303858Y493839D02*
Y500984D01*
Y493839D02*
Y500984D01*
X264882Y500984D02*
X303858Y500984D01*
X264882Y500984D02*
X303858Y500984D01*
X264882Y380394D02*
Y500984D01*
Y380394D02*
Y500984D01*
Y380394D02*
X303858D01*
X264882D02*
X303858D01*
Y387539D01*
Y380394D02*
Y387539D01*
X636642Y250533D02*
Y257679D01*
Y250533D02*
Y257679D01*
Y250533D02*
X675618D01*
X636642D02*
X675618D01*
Y371124D01*
Y250533D02*
Y371124D01*
X636642D02*
X675618D01*
X636642D02*
X675618D01*
X636642Y363978D02*
Y371124D01*
Y363978D02*
Y371124D01*
D14*
X444984Y404216D02*
G03*
X444984Y404216I-492J0D01*
G01*
D15*
X543988Y497378D02*
X555012D01*
X543988Y484622D02*
X555012D01*
X344898Y353307D02*
X357102D01*
X344898Y361693D02*
X357102D01*
X363047Y359825D02*
Y366360D01*
X368953Y359825D02*
Y366360D01*
X346898Y325193D02*
X359102D01*
X346898Y316807D02*
X359102D01*
X374898Y351848D02*
X387102D01*
X374898Y343462D02*
X387102D01*
X362885Y337466D02*
Y344001D01*
X368790Y337466D02*
Y344001D01*
X582126Y473083D02*
X597874D01*
X582126Y492917D02*
X597874D01*
X641067Y237500D02*
X645004Y239469D01*
X641067Y237500D02*
X645004Y235531D01*
Y239469D01*
X601598Y200453D02*
Y239429D01*
Y200453D02*
X639591D01*
Y239429D01*
X301008Y330028D02*
X302976Y326091D01*
X299039D02*
X301008Y330028D01*
X299039Y326091D02*
X302976D01*
X263961Y369496D02*
X302937D01*
X263961Y331504D02*
Y369496D01*
Y331504D02*
X302937D01*
X305972Y315008D02*
X309910Y316976D01*
X305972Y315008D02*
X309910Y313039D01*
Y316976D01*
X266504Y277961D02*
Y316937D01*
Y277961D02*
X304496D01*
Y316937D01*
M02*
