G04*
G04 #@! TF.GenerationSoftware,Altium Limited,Altium Designer,19.1.5 (86)*
G04*
G04 Layer_Physical_Order=1*
G04 Layer_Color=255*
%FSLAX25Y25*%
%MOIN*%
G70*
G01*
G75*
%ADD11C,0.01000*%
%ADD16R,0.07008X0.12402*%
%ADD17R,0.04724X0.02362*%
%ADD18R,0.09449X0.02992*%
%ADD19R,0.05630X0.03701*%
%ADD20R,0.09055X0.09843*%
%ADD21R,0.08858X0.06890*%
%ADD22R,0.05118X0.07087*%
G04:AMPARAMS|DCode=23|XSize=37.01mil|YSize=69.69mil|CornerRadius=2.59mil|HoleSize=0mil|Usage=FLASHONLY|Rotation=0.000|XOffset=0mil|YOffset=0mil|HoleType=Round|Shape=RoundedRectangle|*
%AMROUNDEDRECTD23*
21,1,0.03701,0.06450,0,0,0.0*
21,1,0.03183,0.06969,0,0,0.0*
1,1,0.00518,0.01591,-0.03225*
1,1,0.00518,-0.01591,-0.03225*
1,1,0.00518,-0.01591,0.03225*
1,1,0.00518,0.01591,0.03225*
%
%ADD23ROUNDEDRECTD23*%
G04:AMPARAMS|DCode=24|XSize=42.91mil|YSize=69.69mil|CornerRadius=3mil|HoleSize=0mil|Usage=FLASHONLY|Rotation=0.000|XOffset=0mil|YOffset=0mil|HoleType=Round|Shape=RoundedRectangle|*
%AMROUNDEDRECTD24*
21,1,0.04291,0.06368,0,0,0.0*
21,1,0.03691,0.06969,0,0,0.0*
1,1,0.00601,0.01845,-0.03184*
1,1,0.00601,-0.01845,-0.03184*
1,1,0.00601,-0.01845,0.03184*
1,1,0.00601,0.01845,0.03184*
%
%ADD24ROUNDEDRECTD24*%
G04:AMPARAMS|DCode=25|XSize=79.92mil|YSize=74.8mil|CornerRadius=3.74mil|HoleSize=0mil|Usage=FLASHONLY|Rotation=0.000|XOffset=0mil|YOffset=0mil|HoleType=Round|Shape=RoundedRectangle|*
%AMROUNDEDRECTD25*
21,1,0.07992,0.06732,0,0,0.0*
21,1,0.07244,0.07480,0,0,0.0*
1,1,0.00748,0.03622,-0.03366*
1,1,0.00748,-0.03622,-0.03366*
1,1,0.00748,-0.03622,0.03366*
1,1,0.00748,0.03622,0.03366*
%
%ADD25ROUNDEDRECTD25*%
G04:AMPARAMS|DCode=26|XSize=38.19mil|YSize=74.8mil|CornerRadius=1.91mil|HoleSize=0mil|Usage=FLASHONLY|Rotation=0.000|XOffset=0mil|YOffset=0mil|HoleType=Round|Shape=RoundedRectangle|*
%AMROUNDEDRECTD26*
21,1,0.03819,0.07098,0,0,0.0*
21,1,0.03437,0.07480,0,0,0.0*
1,1,0.00382,0.01719,-0.03549*
1,1,0.00382,-0.01719,-0.03549*
1,1,0.00382,-0.01719,0.03549*
1,1,0.00382,0.01719,0.03549*
%
%ADD26ROUNDEDRECTD26*%
%ADD27R,0.04921X0.02362*%
%ADD28R,0.06496X0.02362*%
%ADD29R,0.03937X0.05512*%
%ADD30R,0.05512X0.03937*%
%ADD31R,0.04724X0.03937*%
%ADD32R,0.04724X0.12992*%
%ADD33R,0.03701X0.05630*%
%ADD34R,0.04528X0.05709*%
%ADD35R,0.03740X0.03740*%
%ADD36R,0.03819X0.05787*%
%ADD37R,0.05906X0.15748*%
%ADD38R,0.02362X0.04724*%
%ADD39R,0.03937X0.06890*%
G04:AMPARAMS|DCode=40|XSize=77.56mil|YSize=23.62mil|CornerRadius=2.95mil|HoleSize=0mil|Usage=FLASHONLY|Rotation=0.000|XOffset=0mil|YOffset=0mil|HoleType=Round|Shape=RoundedRectangle|*
%AMROUNDEDRECTD40*
21,1,0.07756,0.01772,0,0,0.0*
21,1,0.07165,0.02362,0,0,0.0*
1,1,0.00591,0.03583,-0.00886*
1,1,0.00591,-0.03583,-0.00886*
1,1,0.00591,-0.03583,0.00886*
1,1,0.00591,0.03583,0.00886*
%
%ADD40ROUNDEDRECTD40*%
%ADD41R,0.06102X0.02362*%
%ADD42R,0.09350X0.07480*%
%ADD43R,0.04626X0.07480*%
%ADD44R,0.05807X0.08268*%
%ADD45R,0.01772X0.05433*%
%ADD46R,0.01181X0.01870*%
%ADD47R,0.05807X0.01181*%
%ADD48R,0.01181X0.05807*%
%ADD49R,0.06004X0.02559*%
%ADD98C,0.04000*%
%ADD99C,0.03000*%
%ADD100C,0.00900*%
%ADD101C,0.02500*%
%ADD102C,0.02000*%
%ADD103C,0.01500*%
%ADD104C,0.09843*%
%ADD105C,0.05906*%
%ADD106C,0.04724*%
%ADD107C,0.05118*%
%ADD108C,0.06319*%
%ADD109C,0.06004*%
%ADD110C,0.11811*%
%ADD111C,0.05984*%
%ADD112R,0.05984X0.05984*%
%ADD113R,0.05984X0.05984*%
%ADD114R,0.04724X0.04724*%
%ADD115C,0.03000*%
%ADD116C,0.03500*%
%ADD117C,0.02000*%
G36*
X676000Y250000D02*
X640500D01*
Y200000D01*
X601000D01*
Y275000D01*
X569500Y306500D01*
X397000D01*
X381500Y291000D01*
X353500D01*
X340000Y277500D01*
X263500D01*
Y505500D01*
X676000D01*
Y250000D01*
D02*
G37*
%LPC*%
G36*
X601487Y504764D02*
X598050D01*
X597585Y504671D01*
X597191Y504408D01*
X596928Y504014D01*
X596836Y503549D01*
Y500754D01*
X596821Y500718D01*
X596726Y500000D01*
X596821Y499282D01*
X596836Y499246D01*
Y496451D01*
X596928Y495986D01*
X597191Y495592D01*
X597585Y495329D01*
X598050Y495236D01*
X601487D01*
X601952Y495329D01*
X602346Y495592D01*
X602609Y495986D01*
X602701Y496451D01*
Y503549D01*
X602609Y504014D01*
X602346Y504408D01*
X601952Y504671D01*
X601487Y504764D01*
D02*
G37*
G36*
X341950D02*
X338513D01*
X338048Y504671D01*
X337654Y504408D01*
X337391Y504014D01*
X337299Y503549D01*
Y502549D01*
X284000D01*
X283025Y502355D01*
X282198Y501802D01*
X269698Y489302D01*
X269145Y488476D01*
X268951Y487500D01*
Y294000D01*
X269145Y293024D01*
X269698Y292198D01*
X276780Y285116D01*
X277607Y284563D01*
X278582Y284369D01*
X327337D01*
X327487Y284143D01*
X327942Y283840D01*
X328478Y283733D01*
X335722D01*
X336258Y283840D01*
X336713Y284143D01*
X337016Y284598D01*
X337123Y285134D01*
Y291866D01*
X337016Y292402D01*
X336713Y292857D01*
X336572Y292951D01*
X336723Y293451D01*
X337500D01*
X338210Y293592D01*
X338551Y293299D01*
X338560Y293263D01*
X338248Y292946D01*
X338191Y292908D01*
X337928Y292514D01*
X337836Y292049D01*
Y284951D01*
X337928Y284486D01*
X338191Y284092D01*
X338585Y283829D01*
X339050Y283736D01*
X342487D01*
X342952Y283829D01*
X343346Y284092D01*
X343609Y284486D01*
X343701Y284951D01*
Y287950D01*
X343774Y288500D01*
X343701Y289050D01*
Y292049D01*
X343609Y292514D01*
X343346Y292908D01*
X342952Y293171D01*
X342487Y293264D01*
X339063D01*
X339050Y293264D01*
X338815Y293271D01*
X338670Y293775D01*
X339302Y294198D01*
X341135Y296030D01*
X346768D01*
X347743Y296224D01*
X348397Y296661D01*
X355323D01*
Y306722D01*
X355785Y306914D01*
X359451Y303247D01*
Y297500D01*
X359645Y296525D01*
X360198Y295698D01*
X363198Y292698D01*
X364024Y292145D01*
X365000Y291951D01*
X379500D01*
X380475Y292145D01*
X381302Y292698D01*
X390308Y301704D01*
X390861Y302531D01*
X391055Y303506D01*
Y324665D01*
X398530D01*
Y320300D01*
X405254D01*
Y335292D01*
X398530D01*
Y329763D01*
X378482D01*
Y330764D01*
X372250D01*
X372209Y330764D01*
X372143Y330773D01*
X372084Y331264D01*
X372101Y331279D01*
X372475Y331353D01*
X373137Y331795D01*
X375224Y333882D01*
X378482D01*
Y339819D01*
X371758D01*
Y336184D01*
X370850Y335276D01*
X370105D01*
Y336206D01*
X370028Y336596D01*
X369807Y336927D01*
X369476Y337148D01*
X369086Y337225D01*
X366822D01*
X366432Y337148D01*
X366101Y336927D01*
X365574D01*
X365244Y337148D01*
X364853Y337225D01*
X362590D01*
X362199Y337148D01*
X361869Y336927D01*
X361648Y336596D01*
X361570Y336206D01*
Y331914D01*
X360209D01*
Y334182D01*
X354272D01*
Y326670D01*
X360209D01*
Y327836D01*
X362069D01*
X363080Y326825D01*
Y323772D01*
X367708D01*
X368789Y322690D01*
X368598Y322228D01*
X363080D01*
Y316291D01*
X370591D01*
Y316670D01*
X371758D01*
Y315772D01*
X377257D01*
X377449Y315310D01*
X376290Y314152D01*
X375848Y313490D01*
X375693Y312710D01*
Y308503D01*
X368677D01*
Y297049D01*
X366056D01*
X364549Y298556D01*
Y304303D01*
X364355Y305279D01*
X363802Y306106D01*
X349812Y320096D01*
Y324225D01*
X349714Y324716D01*
X349436Y325133D01*
X349020Y325411D01*
X348528Y325509D01*
X345346D01*
X344854Y325411D01*
X344438Y325133D01*
X344160Y324716D01*
X344121Y324522D01*
X341642D01*
X340346Y325819D01*
X340059Y326011D01*
Y330603D01*
X332941D01*
Y321517D01*
X333541D01*
Y320350D01*
X330250D01*
Y311461D01*
X341108D01*
Y319425D01*
X344062D01*
Y317775D01*
X344160Y317284D01*
X344438Y316867D01*
X344854Y316589D01*
X345346Y316491D01*
X346207D01*
X353733Y308965D01*
X353542Y308503D01*
X344268D01*
Y301128D01*
X341108D01*
Y303594D01*
X336179D01*
Y299650D01*
X336892D01*
X337083Y299188D01*
X336444Y298549D01*
X328500D01*
X327524Y298355D01*
X326698Y297802D01*
X322944Y294049D01*
X309556D01*
X293802Y309802D01*
X292975Y310355D01*
X292167Y310516D01*
X292216Y311016D01*
X295398D01*
Y314508D01*
X287413D01*
Y311501D01*
X286913Y311294D01*
X283572Y314635D01*
X283621Y315008D01*
X283484Y316050D01*
X283082Y317021D01*
X282442Y317855D01*
X281608Y318495D01*
X280637Y318897D01*
X279594Y319035D01*
X278552Y318897D01*
X277581Y318495D01*
X276747Y317855D01*
X276107Y317021D01*
X275705Y316050D01*
X275568Y315008D01*
X275705Y313966D01*
X276107Y312995D01*
X276747Y312161D01*
X277581Y311521D01*
X278552Y311119D01*
X279594Y310981D01*
X279967Y311030D01*
X284800Y306198D01*
X285627Y305645D01*
X286602Y305451D01*
X290944D01*
X306428Y289967D01*
X306221Y289467D01*
X279638D01*
X274049Y295056D01*
Y486444D01*
X285056Y497451D01*
X337299D01*
Y496451D01*
X337391Y495986D01*
X337654Y495592D01*
X338048Y495329D01*
X338513Y495236D01*
X341950D01*
X342415Y495329D01*
X342809Y495592D01*
X343072Y495986D01*
X343164Y496451D01*
Y503549D01*
X343072Y504014D01*
X342809Y504408D01*
X342415Y504671D01*
X341950Y504764D01*
D02*
G37*
G36*
X352522Y504767D02*
X345278D01*
X344742Y504660D01*
X344287Y504357D01*
X343984Y503902D01*
X343877Y503366D01*
Y496634D01*
X343984Y496098D01*
X344287Y495643D01*
X344742Y495340D01*
X345278Y495233D01*
X352522D01*
X353058Y495340D01*
X353513Y495643D01*
X353816Y496098D01*
X353923Y496634D01*
Y503366D01*
X353816Y503902D01*
X353513Y504357D01*
X353058Y504660D01*
X352522Y504767D01*
D02*
G37*
G36*
X442748Y493987D02*
X441716Y493851D01*
X440755Y493453D01*
X439929Y492819D01*
X439295Y491993D01*
X438897Y491032D01*
X438865Y490786D01*
X438360D01*
X438342Y490929D01*
X437983Y491795D01*
X437412Y492538D01*
X436669Y493109D01*
X435803Y493467D01*
X435374Y493524D01*
Y490000D01*
Y486476D01*
X435803Y486533D01*
X436669Y486891D01*
X437412Y487462D01*
X437983Y488205D01*
X438342Y489071D01*
X438360Y489214D01*
X438865D01*
X438897Y488968D01*
X439295Y488007D01*
X439929Y487181D01*
X440755Y486547D01*
X441716Y486149D01*
X442748Y486013D01*
X443780Y486149D01*
X444741Y486547D01*
X445567Y487181D01*
X446201Y488007D01*
X446599Y488968D01*
X446735Y490000D01*
X446599Y491032D01*
X446201Y491993D01*
X445567Y492819D01*
X444741Y493453D01*
X443780Y493851D01*
X442748Y493987D01*
D02*
G37*
G36*
X434374Y493524D02*
X433945Y493467D01*
X433079Y493109D01*
X432336Y492538D01*
X431765Y491795D01*
X431407Y490929D01*
X431350Y490500D01*
X434374D01*
Y493524D01*
D02*
G37*
G36*
X382800Y503934D02*
X381369Y503794D01*
X379993Y503376D01*
X378725Y502698D01*
X377614Y501786D01*
X376702Y500675D01*
X376024Y499407D01*
X375606Y498031D01*
X375465Y496600D01*
X375606Y495169D01*
X376024Y493793D01*
X376702Y492525D01*
X377614Y491414D01*
X378725Y490502D01*
X379993Y489824D01*
X381369Y489406D01*
X382800Y489265D01*
X384231Y489406D01*
X385607Y489824D01*
X386875Y490502D01*
X387986Y491414D01*
X388898Y492525D01*
X389576Y493793D01*
X389994Y495169D01*
X390135Y496600D01*
X389994Y498031D01*
X389576Y499407D01*
X388898Y500675D01*
X387986Y501786D01*
X386875Y502698D01*
X385607Y503376D01*
X384231Y503794D01*
X382800Y503934D01*
D02*
G37*
G36*
X594722Y504767D02*
X587478D01*
X586942Y504660D01*
X586487Y504357D01*
X586184Y503902D01*
X586077Y503366D01*
Y496634D01*
X586184Y496098D01*
X586487Y495643D01*
X586942Y495340D01*
X587478Y495233D01*
X587547D01*
Y491263D01*
X587321Y490718D01*
X587226Y490000D01*
X587321Y489282D01*
X587598Y488613D01*
X588039Y488039D01*
X588613Y487598D01*
X589282Y487321D01*
X590000Y487226D01*
X590718Y487321D01*
X591387Y487598D01*
X591961Y488039D01*
X592402Y488613D01*
X592679Y489282D01*
X592774Y490000D01*
X592679Y490718D01*
X592645Y490801D01*
Y495233D01*
X594722D01*
X595258Y495340D01*
X595713Y495643D01*
X596016Y496098D01*
X596123Y496634D01*
Y503366D01*
X596016Y503902D01*
X595713Y504357D01*
X595258Y504660D01*
X594722Y504767D01*
D02*
G37*
G36*
X419126Y493391D02*
X418248Y493276D01*
X417430Y492937D01*
X416728Y492398D01*
X416189Y491696D01*
X415850Y490878D01*
X415735Y490000D01*
X415850Y489122D01*
X416189Y488304D01*
X416728Y487602D01*
X417430Y487063D01*
X418248Y486724D01*
X419126Y486609D01*
X420004Y486724D01*
X420822Y487063D01*
X421524Y487602D01*
X422063Y488304D01*
X422402Y489122D01*
X422517Y490000D01*
X422402Y490878D01*
X422063Y491696D01*
X421524Y492398D01*
X420822Y492937D01*
X420004Y493276D01*
X419126Y493391D01*
D02*
G37*
G36*
X434374Y489500D02*
X431350D01*
X431407Y489071D01*
X431765Y488205D01*
X432336Y487462D01*
X433079Y486891D01*
X433945Y486533D01*
X434374Y486476D01*
Y489500D01*
D02*
G37*
G36*
X411252Y493987D02*
X410220Y493851D01*
X409259Y493453D01*
X408433Y492819D01*
X407799Y491993D01*
X407401Y491032D01*
X407265Y490000D01*
X407401Y488968D01*
X407799Y488007D01*
X408433Y487181D01*
X409259Y486547D01*
X410220Y486149D01*
X411252Y486013D01*
X412284Y486149D01*
X413245Y486547D01*
X414071Y487181D01*
X414705Y488007D01*
X415103Y488968D01*
X415239Y490000D01*
X415103Y491032D01*
X414705Y491993D01*
X414071Y492819D01*
X413245Y493453D01*
X412284Y493851D01*
X411252Y493987D01*
D02*
G37*
G36*
X620428Y491391D02*
X619551Y491276D01*
X618733Y490937D01*
X618031Y490398D01*
X617491Y489696D01*
X617153Y488878D01*
X617037Y488000D01*
X617153Y487122D01*
X617491Y486304D01*
X618031Y485602D01*
X618733Y485063D01*
X619551Y484724D01*
X620428Y484609D01*
X621306Y484724D01*
X622124Y485063D01*
X622826Y485602D01*
X623365Y486304D01*
X623704Y487122D01*
X623820Y488000D01*
X623704Y488878D01*
X623365Y489696D01*
X622826Y490398D01*
X622124Y490937D01*
X621306Y491276D01*
X620428Y491391D01*
D02*
G37*
G36*
X300000Y492128D02*
X298914Y491986D01*
X297902Y491566D01*
X297034Y490900D01*
X296367Y490031D01*
X295948Y489019D01*
X295805Y487933D01*
X295948Y486847D01*
X296367Y485835D01*
X297034Y484967D01*
X297902Y484300D01*
X298914Y483881D01*
X300000Y483738D01*
X301086Y483881D01*
X302098Y484300D01*
X302967Y484967D01*
X303633Y485835D01*
X304052Y486847D01*
X304195Y487933D01*
X304052Y489019D01*
X303633Y490031D01*
X302967Y490900D01*
X302098Y491566D01*
X301086Y491986D01*
X300000Y492128D01*
D02*
G37*
G36*
X574400Y502120D02*
X553500Y502120D01*
X553110Y502042D01*
X552779Y501821D01*
X552558Y501490D01*
X552480Y501100D01*
X552480Y480900D01*
X552558Y480510D01*
X552779Y480179D01*
X553110Y479958D01*
X553500Y479880D01*
X567678Y479880D01*
X569279Y478279D01*
X569610Y478058D01*
X570000Y477980D01*
X574970D01*
X575023Y477991D01*
X575077Y477986D01*
X575217Y478029D01*
X575360Y478058D01*
X575405Y478088D01*
X575456Y478104D01*
X575569Y478198D01*
X575691Y478279D01*
X575721Y478324D01*
X575763Y478358D01*
X575924Y478557D01*
X576168Y478394D01*
X576673Y478294D01*
X583839D01*
X584344Y478394D01*
X584772Y478680D01*
X585059Y479109D01*
X585159Y479614D01*
Y481386D01*
X585059Y481891D01*
X584772Y482320D01*
X584798Y482804D01*
X584799Y482809D01*
X584838Y483003D01*
X584877Y483197D01*
X584876Y483198D01*
X584877Y483199D01*
Y483278D01*
X584867Y483328D01*
X584872Y483378D01*
X584828Y483522D01*
X584799Y483669D01*
X584782Y483694D01*
X585059Y484109D01*
X585159Y484614D01*
Y486386D01*
X585059Y486891D01*
X584772Y487320D01*
X584798Y487804D01*
X584799Y487809D01*
X584838Y488003D01*
X584877Y488197D01*
X584876Y488198D01*
X584877Y488199D01*
Y488278D01*
X584867Y488328D01*
X584872Y488378D01*
X584828Y488522D01*
X584799Y488668D01*
X584782Y488694D01*
X585059Y489109D01*
X585159Y489614D01*
Y491386D01*
X585059Y491891D01*
X584772Y492320D01*
X584344Y492606D01*
X583839Y492706D01*
X583769D01*
X583351Y493168D01*
X583274Y493559D01*
X583052Y493889D01*
X575121Y501821D01*
X574790Y502042D01*
X574400Y502120D01*
D02*
G37*
G36*
X300500Y480252D02*
Y476622D01*
X304130D01*
X304052Y477208D01*
X303633Y478220D01*
X302967Y479089D01*
X302098Y479755D01*
X301086Y480174D01*
X300500Y480252D01*
D02*
G37*
G36*
X299500Y480252D02*
X298914Y480174D01*
X297902Y479755D01*
X297034Y479089D01*
X296367Y478220D01*
X295948Y477208D01*
X295870Y476622D01*
X299500D01*
Y480252D01*
D02*
G37*
G36*
X583839Y477706D02*
X580756D01*
Y476000D01*
X585159D01*
Y476386D01*
X585059Y476891D01*
X584772Y477320D01*
X584344Y477606D01*
X583839Y477706D01*
D02*
G37*
G36*
X579756D02*
X576673D01*
X576168Y477606D01*
X575739Y477320D01*
X575453Y476891D01*
X575353Y476386D01*
Y476000D01*
X579756D01*
Y477706D01*
D02*
G37*
G36*
X620428Y481391D02*
X619551Y481276D01*
X618733Y480937D01*
X618031Y480398D01*
X617491Y479696D01*
X617153Y478878D01*
X617037Y478000D01*
X617153Y477122D01*
X617491Y476304D01*
X618031Y475602D01*
X618733Y475063D01*
X619551Y474724D01*
X620428Y474609D01*
X621306Y474724D01*
X622124Y475063D01*
X622826Y475602D01*
X623365Y476304D01*
X623704Y477122D01*
X623820Y478000D01*
X623704Y478878D01*
X623365Y479696D01*
X622826Y480398D01*
X622124Y480937D01*
X621306Y481276D01*
X620428Y481391D01*
D02*
G37*
G36*
X522000Y475440D02*
Y474000D01*
X523440D01*
X523384Y474280D01*
X522942Y474942D01*
X522280Y475384D01*
X522000Y475440D01*
D02*
G37*
G36*
X521000D02*
X520720Y475384D01*
X520058Y474942D01*
X519616Y474280D01*
X519560Y474000D01*
X521000D01*
Y475440D01*
D02*
G37*
G36*
X585159Y475000D02*
X580756D01*
Y473293D01*
X583839D01*
X584344Y473394D01*
X584772Y473680D01*
X585059Y474109D01*
X585159Y474614D01*
Y475000D01*
D02*
G37*
G36*
X579756D02*
X575353D01*
Y474614D01*
X575453Y474109D01*
X575739Y473680D01*
X576168Y473394D01*
X576673Y473293D01*
X579756D01*
Y475000D01*
D02*
G37*
G36*
X282992Y486506D02*
X281619Y486371D01*
X280299Y485971D01*
X279082Y485320D01*
X278016Y484445D01*
X277140Y483379D01*
X276490Y482162D01*
X276090Y480841D01*
X275954Y479468D01*
X276090Y478095D01*
X276490Y476775D01*
X277140Y475559D01*
X278016Y474492D01*
X279082Y473617D01*
X280299Y472966D01*
X281619Y472566D01*
X282992Y472431D01*
X284365Y472566D01*
X285685Y472966D01*
X286902Y473617D01*
X287969Y474492D01*
X288844Y475559D01*
X289494Y476775D01*
X289895Y478095D01*
X290030Y479468D01*
X289895Y480841D01*
X289494Y482162D01*
X288844Y483379D01*
X287969Y484445D01*
X286902Y485320D01*
X285685Y485971D01*
X284365Y486371D01*
X282992Y486506D01*
D02*
G37*
G36*
X657508Y486505D02*
X656135Y486370D01*
X654815Y485969D01*
X653598Y485319D01*
X652531Y484444D01*
X651656Y483377D01*
X651006Y482161D01*
X650605Y480840D01*
X650470Y479467D01*
X650605Y478094D01*
X651006Y476774D01*
X651656Y475557D01*
X652531Y474491D01*
X653598Y473616D01*
X654815Y472965D01*
X656135Y472565D01*
X657508Y472430D01*
X658881Y472565D01*
X660201Y472965D01*
X661418Y473616D01*
X662484Y474491D01*
X663360Y475557D01*
X664010Y476774D01*
X664410Y478094D01*
X664546Y479467D01*
X664410Y480840D01*
X664010Y482161D01*
X663360Y483377D01*
X662484Y484444D01*
X661418Y485319D01*
X660201Y485969D01*
X658881Y486370D01*
X657508Y486505D01*
D02*
G37*
G36*
X518709Y475256D02*
X516240D01*
Y472000D01*
X518709D01*
Y475256D01*
D02*
G37*
G36*
X515240D02*
X512772D01*
Y472000D01*
X515240D01*
Y475256D01*
D02*
G37*
G36*
X299500Y475622D02*
X295870D01*
X295948Y475036D01*
X296367Y474024D01*
X297034Y473155D01*
X297902Y472489D01*
X298914Y472070D01*
X299500Y471992D01*
Y475622D01*
D02*
G37*
G36*
X304130D02*
X300500D01*
Y471992D01*
X301086Y472070D01*
X302098Y472489D01*
X302967Y473155D01*
X303633Y474024D01*
X304052Y475036D01*
X304130Y475622D01*
D02*
G37*
G36*
X626432Y504549D02*
X613303D01*
X612328Y504355D01*
X611501Y503802D01*
X600747Y493049D01*
X599744D01*
X598769Y492855D01*
X598546Y492706D01*
X596161D01*
X595656Y492606D01*
X595228Y492320D01*
X594941Y491891D01*
X594841Y491386D01*
Y489614D01*
X594941Y489109D01*
X595228Y488680D01*
X595656Y488394D01*
X596161Y488294D01*
X597195D01*
Y487707D01*
X596161D01*
X595656Y487606D01*
X595228Y487320D01*
X594941Y486891D01*
X594841Y486386D01*
Y484614D01*
X594941Y484109D01*
X595228Y483680D01*
X595656Y483394D01*
X596161Y483293D01*
X597195D01*
Y482706D01*
X596161D01*
X595656Y482606D01*
X595228Y482320D01*
X594941Y481891D01*
X594841Y481386D01*
Y479614D01*
X594941Y479109D01*
X595228Y478680D01*
X595656Y478394D01*
X596161Y478294D01*
X597195D01*
Y477706D01*
X596161D01*
X595656Y477606D01*
X595228Y477320D01*
X594941Y476891D01*
X594841Y476386D01*
Y474614D01*
X594941Y474109D01*
X595228Y473680D01*
X595656Y473394D01*
X596161Y473293D01*
X598546D01*
X598769Y473145D01*
X599744Y472951D01*
X600719Y473145D01*
X600942Y473293D01*
X603327D01*
X603832Y473394D01*
X604261Y473680D01*
X604547Y474109D01*
X604647Y474614D01*
Y476386D01*
X604547Y476891D01*
X604261Y477320D01*
X603832Y477606D01*
X603327Y477706D01*
X602293D01*
Y478294D01*
X603327D01*
X603832Y478394D01*
X604261Y478680D01*
X604547Y479109D01*
X604647Y479614D01*
Y481386D01*
X604547Y481891D01*
X604261Y482320D01*
X603832Y482606D01*
X603327Y482706D01*
X602293D01*
Y483293D01*
X603327D01*
X603832Y483394D01*
X604261Y483680D01*
X604547Y484109D01*
X604647Y484614D01*
Y486386D01*
X604547Y486891D01*
X604261Y487320D01*
X603832Y487606D01*
X603459Y487680D01*
X603281Y488015D01*
X603252Y488206D01*
X603327Y488294D01*
X603832Y488394D01*
X604261Y488680D01*
X604547Y489109D01*
X604647Y489614D01*
Y489740D01*
X614359Y499451D01*
X625376D01*
X636373Y488454D01*
X636305Y487932D01*
X636448Y486846D01*
X636867Y485834D01*
X637533Y484965D01*
X637951Y484645D01*
Y479408D01*
X637533Y479087D01*
X636867Y478219D01*
X636448Y477207D01*
X636305Y476121D01*
X636448Y475035D01*
X636867Y474023D01*
X637533Y473154D01*
X638402Y472488D01*
X639414Y472069D01*
X640500Y471926D01*
X641586Y472069D01*
X642598Y472488D01*
X643467Y473154D01*
X644133Y474023D01*
X644552Y475035D01*
X644695Y476121D01*
X644552Y477207D01*
X644133Y478219D01*
X643467Y479087D01*
X643049Y479408D01*
Y484645D01*
X643467Y484965D01*
X644133Y485834D01*
X644552Y486846D01*
X644695Y487932D01*
X644552Y489018D01*
X644133Y490030D01*
X643467Y490899D01*
X642598Y491565D01*
X641586Y491984D01*
X640500Y492127D01*
X639978Y492059D01*
X628234Y503802D01*
X627407Y504355D01*
X626432Y504549D01*
D02*
G37*
G36*
X523440Y473000D02*
X519560D01*
X519616Y472720D01*
X520058Y472058D01*
X520145Y472000D01*
Y471500D01*
X520058Y471442D01*
X519616Y470780D01*
X519560Y470500D01*
X523440D01*
X523384Y470780D01*
X522942Y471442D01*
X522855Y471500D01*
Y472000D01*
X522942Y472058D01*
X523384Y472720D01*
X523440Y473000D01*
D02*
G37*
G36*
X620928Y471325D02*
Y468500D01*
X623754D01*
X623704Y468878D01*
X623365Y469696D01*
X622826Y470398D01*
X622124Y470937D01*
X621306Y471276D01*
X620928Y471325D01*
D02*
G37*
G36*
X619928D02*
X619551Y471276D01*
X618733Y470937D01*
X618031Y470398D01*
X617491Y469696D01*
X617153Y468878D01*
X617103Y468500D01*
X619928D01*
Y471325D01*
D02*
G37*
G36*
X518709Y471000D02*
X516240D01*
Y467744D01*
X518709D01*
Y471000D01*
D02*
G37*
G36*
X515240D02*
X512772D01*
Y467744D01*
X515240D01*
Y471000D01*
D02*
G37*
G36*
X523440Y469500D02*
X519560D01*
X519616Y469220D01*
X520058Y468558D01*
X520145Y468500D01*
Y468000D01*
X520058Y467942D01*
X519616Y467280D01*
X519560Y467000D01*
X523440D01*
X523384Y467280D01*
X522942Y467942D01*
X522855Y468000D01*
Y468500D01*
X522942Y468558D01*
X523384Y469220D01*
X523440Y469500D01*
D02*
G37*
G36*
X623754Y467500D02*
X620928D01*
Y464675D01*
X621306Y464724D01*
X622124Y465063D01*
X622826Y465602D01*
X623365Y466304D01*
X623704Y467122D01*
X623754Y467500D01*
D02*
G37*
G36*
X619928D02*
X617103D01*
X617153Y467122D01*
X617491Y466304D01*
X618031Y465602D01*
X618733Y465063D01*
X619551Y464724D01*
X619928Y464675D01*
Y467500D01*
D02*
G37*
G36*
X523440Y466000D02*
X522000D01*
Y464560D01*
X522280Y464616D01*
X522942Y465058D01*
X523384Y465720D01*
X523440Y466000D01*
D02*
G37*
G36*
X521000D02*
X519560D01*
X519616Y465720D01*
X520058Y465058D01*
X520720Y464616D01*
X521000Y464560D01*
Y466000D01*
D02*
G37*
G36*
X561374Y472945D02*
X555437D01*
Y464055D01*
X561374D01*
Y472945D01*
D02*
G37*
G36*
X300000Y468506D02*
X298914Y468363D01*
X297902Y467944D01*
X297034Y467278D01*
X296367Y466409D01*
X295948Y465397D01*
X295805Y464311D01*
X295948Y463225D01*
X296367Y462213D01*
X297034Y461344D01*
X297902Y460678D01*
X298914Y460259D01*
X300000Y460116D01*
X301086Y460259D01*
X302098Y460678D01*
X302967Y461344D01*
X303633Y462213D01*
X304052Y463225D01*
X304195Y464311D01*
X304052Y465397D01*
X303633Y466409D01*
X302967Y467278D01*
X302098Y467944D01*
X301086Y468363D01*
X300000Y468506D01*
D02*
G37*
G36*
X640500Y468505D02*
X639414Y468362D01*
X638402Y467943D01*
X637533Y467276D01*
X636867Y466407D01*
X636448Y465396D01*
X636305Y464310D01*
X636448Y463224D01*
X636867Y462212D01*
X637533Y461343D01*
X638402Y460677D01*
X639414Y460257D01*
X640500Y460114D01*
X641586Y460257D01*
X642598Y460677D01*
X643467Y461343D01*
X644133Y462212D01*
X644552Y463224D01*
X644695Y464310D01*
X644552Y465396D01*
X644133Y466407D01*
X643467Y467276D01*
X642598Y467943D01*
X641586Y468362D01*
X640500Y468505D01*
D02*
G37*
G36*
X620928Y461325D02*
Y458500D01*
X623754D01*
X623704Y458878D01*
X623365Y459696D01*
X622826Y460398D01*
X622124Y460937D01*
X621306Y461276D01*
X620928Y461325D01*
D02*
G37*
G36*
X619928D02*
X619551Y461276D01*
X618733Y460937D01*
X618031Y460398D01*
X617491Y459696D01*
X617153Y458878D01*
X617103Y458500D01*
X619928D01*
Y461325D01*
D02*
G37*
G36*
X623754Y457500D02*
X620928D01*
Y454675D01*
X621306Y454724D01*
X622124Y455063D01*
X622826Y455602D01*
X623365Y456304D01*
X623704Y457122D01*
X623754Y457500D01*
D02*
G37*
G36*
X619928D02*
X617103D01*
X617153Y457122D01*
X617491Y456304D01*
X618031Y455602D01*
X618733Y455063D01*
X619551Y454724D01*
X619928Y454675D01*
Y457500D01*
D02*
G37*
G36*
X300500Y456630D02*
Y453000D01*
X304130D01*
X304052Y453586D01*
X303633Y454598D01*
X302967Y455467D01*
X302098Y456133D01*
X301086Y456552D01*
X300500Y456630D01*
D02*
G37*
G36*
X299500D02*
X298914Y456552D01*
X297902Y456133D01*
X297033Y455467D01*
X296367Y454598D01*
X295948Y453586D01*
X295870Y453000D01*
X299500D01*
Y456630D01*
D02*
G37*
G36*
X610677Y455394D02*
X608268D01*
Y452000D01*
X610677D01*
Y455394D01*
D02*
G37*
G36*
X607268D02*
X604858D01*
Y452000D01*
X607268D01*
Y455394D01*
D02*
G37*
G36*
X620928Y451325D02*
Y448500D01*
X623754D01*
X623704Y448878D01*
X623365Y449696D01*
X622826Y450398D01*
X622124Y450937D01*
X621306Y451276D01*
X620928Y451325D01*
D02*
G37*
G36*
X619928D02*
X619551Y451276D01*
X618733Y450937D01*
X618031Y450398D01*
X617491Y449696D01*
X617153Y448878D01*
X617103Y448500D01*
X619928D01*
Y451325D01*
D02*
G37*
G36*
X304130Y452000D02*
X300500D01*
Y448371D01*
X301086Y448448D01*
X302098Y448867D01*
X302967Y449533D01*
X303633Y450402D01*
X304052Y451414D01*
X304130Y452000D01*
D02*
G37*
G36*
X299500D02*
X295870D01*
X295948Y451414D01*
X296367Y450402D01*
X297033Y449533D01*
X297902Y448867D01*
X298914Y448448D01*
X299500Y448371D01*
Y452000D01*
D02*
G37*
G36*
X640500Y456694D02*
X639414Y456551D01*
X638402Y456132D01*
X637533Y455465D01*
X636867Y454597D01*
X636448Y453585D01*
X636305Y452499D01*
X636448Y451413D01*
X636867Y450401D01*
X637533Y449532D01*
X638402Y448866D01*
X639414Y448447D01*
X640500Y448304D01*
X641586Y448447D01*
X642598Y448866D01*
X643467Y449532D01*
X644133Y450401D01*
X644552Y451413D01*
X644695Y452499D01*
X644552Y453585D01*
X644133Y454597D01*
X643467Y455465D01*
X642598Y456132D01*
X641586Y456551D01*
X640500Y456694D01*
D02*
G37*
G36*
X581228Y449756D02*
X578760D01*
Y446500D01*
X581228D01*
Y449756D01*
D02*
G37*
G36*
X610677Y451000D02*
X607768D01*
X604858D01*
Y447606D01*
X605067D01*
X605334Y447106D01*
X605116Y446780D01*
X605060Y446500D01*
X608940D01*
X608884Y446780D01*
X608666Y447106D01*
X608933Y447606D01*
X610677D01*
Y451000D01*
D02*
G37*
G36*
X577760Y449756D02*
X575291D01*
Y446500D01*
X577760D01*
Y449756D01*
D02*
G37*
G36*
X414815Y448122D02*
X411500D01*
Y445772D01*
X414815D01*
Y448122D01*
D02*
G37*
G36*
X410500D02*
X407185D01*
Y445772D01*
X410500D01*
Y448122D01*
D02*
G37*
G36*
X623754Y447500D02*
X620928D01*
Y444675D01*
X621306Y444724D01*
X622124Y445063D01*
X622826Y445602D01*
X623365Y446304D01*
X623704Y447122D01*
X623754Y447500D01*
D02*
G37*
G36*
X619928D02*
X617103D01*
X617153Y447122D01*
X617491Y446304D01*
X618031Y445602D01*
X618733Y445063D01*
X619551Y444724D01*
X619928Y444675D01*
Y447500D01*
D02*
G37*
G36*
X608940Y445500D02*
X605060D01*
X605116Y445220D01*
X605558Y444558D01*
X605645Y444500D01*
Y444000D01*
X605558Y443942D01*
X605116Y443280D01*
X605060Y443000D01*
X608940D01*
X608884Y443280D01*
X608442Y443942D01*
X608355Y444000D01*
Y444500D01*
X608442Y444558D01*
X608884Y445220D01*
X608940Y445500D01*
D02*
G37*
G36*
X414815Y444772D02*
X411500D01*
Y442421D01*
X414815D01*
Y444772D01*
D02*
G37*
G36*
X410500D02*
X407185D01*
Y442421D01*
X410500D01*
Y444772D01*
D02*
G37*
G36*
X581228Y445500D02*
X578760D01*
Y442244D01*
X581228D01*
Y445500D01*
D02*
G37*
G36*
X577760D02*
X575291D01*
Y442244D01*
X577760D01*
Y445500D01*
D02*
G37*
G36*
X453815Y443622D02*
X450500D01*
Y441272D01*
X453815D01*
Y443622D01*
D02*
G37*
G36*
X449500D02*
X446185D01*
Y441272D01*
X449500D01*
Y443622D01*
D02*
G37*
G36*
X608940Y442000D02*
X605060D01*
X605116Y441720D01*
X605558Y441058D01*
X605645Y441000D01*
Y440500D01*
X605558Y440442D01*
X605116Y439780D01*
X605060Y439500D01*
X608940D01*
X608884Y439780D01*
X608442Y440442D01*
X608355Y440500D01*
Y441000D01*
X608442Y441058D01*
X608884Y441720D01*
X608940Y442000D01*
D02*
G37*
G36*
X456000Y440940D02*
X455720Y440884D01*
X455058Y440442D01*
X454616Y439780D01*
X454560Y439500D01*
X456000D01*
Y440940D01*
D02*
G37*
G36*
X545300Y504520D02*
X515500D01*
X515110Y504442D01*
X514779Y504221D01*
X514558Y503890D01*
X514480Y503500D01*
Y500181D01*
X514364Y500039D01*
X512500D01*
X511720Y499884D01*
X511058Y499442D01*
X506818Y495202D01*
X506376Y494540D01*
X506221Y493760D01*
Y475256D01*
X505291D01*
Y467744D01*
X511228D01*
Y475256D01*
X510299D01*
Y492915D01*
X513345Y495961D01*
X514364D01*
X514480Y495819D01*
Y495181D01*
X514558Y494791D01*
X514579Y494760D01*
Y491240D01*
X514558Y491209D01*
X514480Y490819D01*
Y490181D01*
X514558Y489791D01*
X514579Y489760D01*
Y486240D01*
X514558Y486209D01*
X514480Y485819D01*
Y485181D01*
X514558Y484791D01*
X514579Y484760D01*
Y481240D01*
X514558Y481209D01*
X514480Y480819D01*
Y479500D01*
X514558Y479110D01*
X514779Y478779D01*
X515110Y478558D01*
X515500Y478480D01*
X536677D01*
X543537Y471621D01*
Y468532D01*
X543569Y468292D01*
Y467087D01*
X543626Y466651D01*
Y464055D01*
X545347D01*
X555155Y454247D01*
Y403319D01*
X555258Y402536D01*
X555561Y401806D01*
X556041Y401179D01*
X562360Y394860D01*
X562360Y394860D01*
X562987Y394379D01*
X563717Y394077D01*
X564500Y393974D01*
X590480D01*
Y386527D01*
X590019Y386335D01*
X588772Y387581D01*
X588276Y387913D01*
X587691Y388029D01*
X585209D01*
Y390256D01*
X579272D01*
Y382744D01*
X585209D01*
Y384971D01*
X587057D01*
X590957Y381071D01*
Y379364D01*
X598075D01*
Y381299D01*
X598453D01*
Y381799D01*
X600043D01*
Y383234D01*
X598883D01*
X598676Y383734D01*
X599721Y384779D01*
X599942Y385110D01*
X600020Y385500D01*
Y392247D01*
X600358Y392606D01*
X600520Y392606D01*
X602567D01*
X602834Y392106D01*
X602616Y391780D01*
X602560Y391500D01*
X606440D01*
X606384Y391780D01*
X606166Y392106D01*
X606177Y392606D01*
X606177Y392606D01*
X606177Y392606D01*
Y396000D01*
X603268D01*
X600358D01*
Y393585D01*
X599858Y393355D01*
X599642Y393541D01*
Y395685D01*
X599655Y395717D01*
X599758Y396500D01*
Y396909D01*
X599758Y396909D01*
X599655Y397693D01*
X599642Y397725D01*
Y400394D01*
X594763D01*
X594544Y400721D01*
X594213Y400942D01*
X593823Y401020D01*
X591500D01*
X591110Y400942D01*
X590779Y400721D01*
X590558Y400390D01*
X590486Y400026D01*
X574045D01*
X573894Y400526D01*
X573942Y400558D01*
X574384Y401220D01*
X574440Y401500D01*
X572500D01*
Y402500D01*
X574440D01*
X574384Y402780D01*
X574114Y403185D01*
X574381Y403685D01*
X575665D01*
X575680Y403610D01*
X575901Y403279D01*
X576232Y403058D01*
X576622Y402980D01*
X577378D01*
X577768Y403058D01*
X578099Y403279D01*
X578320Y403610D01*
X578335Y403685D01*
X582122D01*
X582137Y403610D01*
X582358Y403279D01*
X582689Y403058D01*
X583079Y402980D01*
X583599D01*
X583736Y403008D01*
X583876Y403019D01*
X584323Y403145D01*
X584378Y403172D01*
X584437Y403184D01*
X584553Y403262D01*
X584678Y403325D01*
X584718Y403371D01*
X584768Y403405D01*
X584846Y403521D01*
X584937Y403627D01*
X584955Y403685D01*
X584989Y403736D01*
X585016Y403873D01*
X585060Y404005D01*
X585543Y404126D01*
X591654D01*
X592025Y403973D01*
X592025Y403973D01*
X592415Y403895D01*
X592805Y403973D01*
X593136Y404194D01*
X597758Y408817D01*
X598220Y408625D01*
Y404126D01*
X606126D01*
Y421874D01*
X605029D01*
Y428653D01*
X604913Y429239D01*
X604581Y429735D01*
X604043Y430273D01*
Y431636D01*
X594957D01*
Y431230D01*
X582756D01*
Y433228D01*
X575244D01*
Y427291D01*
X577471D01*
Y426125D01*
X575244D01*
Y420188D01*
X575538D01*
X575676Y419960D01*
X575764Y419708D01*
X575766Y419688D01*
X575724Y419641D01*
X575681Y419516D01*
X575622Y419399D01*
X575618Y419330D01*
X575595Y419265D01*
X575602Y419145D01*
X575602Y419124D01*
X575594Y419002D01*
X575592Y419000D01*
X575244Y418645D01*
X575244Y418645D01*
X575244Y418645D01*
Y413676D01*
X575110Y413650D01*
X574779Y413429D01*
X574558Y413098D01*
X574480Y412708D01*
Y411315D01*
X574272D01*
Y407500D01*
X573772D01*
Y407000D01*
X570921D01*
Y403685D01*
X570921Y403685D01*
X570921D01*
X570494Y403482D01*
X570408Y403465D01*
X569780Y403884D01*
X569500Y403940D01*
Y402000D01*
X568500D01*
Y403940D01*
X568220Y403884D01*
X567558Y403442D01*
X567500Y403355D01*
X567000D01*
X566942Y403442D01*
X566280Y403884D01*
X566000Y403940D01*
Y402000D01*
X565000D01*
Y403940D01*
X564720Y403884D01*
X564058Y403442D01*
X563652Y402834D01*
X563446Y402729D01*
X563142Y402637D01*
X561207Y404572D01*
Y452474D01*
X596480D01*
Y439182D01*
X596019Y438991D01*
X590184Y444826D01*
X589688Y445157D01*
X589102Y445273D01*
X588709D01*
Y449756D01*
X582772D01*
Y442244D01*
X587061D01*
X587209Y442215D01*
X588469D01*
X594957Y435727D01*
Y434364D01*
X602075D01*
Y436299D01*
X602453D01*
Y436799D01*
X604043D01*
Y438234D01*
X603260D01*
X602927Y438607D01*
X603013Y439387D01*
X603013Y439395D01*
X603015Y439402D01*
X603763Y447138D01*
X603781Y447203D01*
X603815Y447242D01*
X604142Y447606D01*
X604142Y447606D01*
X604142Y447606D01*
Y450685D01*
X604155Y450717D01*
X604258Y451500D01*
Y452303D01*
X604155Y453086D01*
X604142Y453119D01*
Y455394D01*
X602421D01*
X600175Y457640D01*
X599548Y458120D01*
X598819Y458423D01*
X598035Y458526D01*
X559435D01*
X549620Y468340D01*
Y468500D01*
X549589Y468739D01*
Y472874D01*
X549486Y473657D01*
X549184Y474387D01*
X548703Y475014D01*
X548703Y475014D01*
X545672Y478045D01*
X545678Y478213D01*
X545795Y478628D01*
X546021Y478779D01*
X546242Y479110D01*
X546320Y479500D01*
Y503500D01*
X546242Y503890D01*
X546021Y504221D01*
X545690Y504442D01*
X545300Y504520D01*
D02*
G37*
G36*
X620928Y441325D02*
Y438500D01*
X623754D01*
X623704Y438878D01*
X623365Y439696D01*
X622826Y440398D01*
X622124Y440937D01*
X621306Y441276D01*
X620928Y441325D01*
D02*
G37*
G36*
X619928D02*
X619551Y441276D01*
X618733Y440937D01*
X618031Y440398D01*
X617491Y439696D01*
X617153Y438878D01*
X617103Y438500D01*
X619928D01*
Y441325D01*
D02*
G37*
G36*
X582756Y440709D02*
X579500D01*
Y438240D01*
X582756D01*
Y440709D01*
D02*
G37*
G36*
X578500D02*
X575244D01*
Y438240D01*
X578500D01*
Y440709D01*
D02*
G37*
G36*
X456000Y438500D02*
X454560D01*
X454616Y438220D01*
X455058Y437558D01*
X455720Y437116D01*
X456000Y437060D01*
Y438500D01*
D02*
G37*
G36*
X414815Y454579D02*
X407185D01*
Y448878D01*
X414815D01*
Y449235D01*
X415714D01*
X415821Y448779D01*
X415821Y448721D01*
Y444279D01*
X415821Y444220D01*
Y443780D01*
X415821Y443720D01*
Y439280D01*
X415821Y439221D01*
Y438779D01*
X415821Y438721D01*
Y437000D01*
X419823D01*
X423825D01*
Y438721D01*
X423825Y438779D01*
Y439221D01*
X423825Y439280D01*
Y443720D01*
X423825Y443780D01*
Y444220D01*
X423825Y444279D01*
Y448721D01*
X423825Y448779D01*
Y449221D01*
X423825Y449279D01*
Y453780D01*
X420015D01*
X419793Y453824D01*
X414815D01*
Y454579D01*
D02*
G37*
G36*
X300000Y444884D02*
X298914Y444741D01*
X297902Y444322D01*
X297034Y443655D01*
X296367Y442787D01*
X295948Y441775D01*
X295805Y440689D01*
X295948Y439603D01*
X296367Y438591D01*
X297034Y437722D01*
X297902Y437056D01*
X298914Y436637D01*
X300000Y436494D01*
X301086Y436637D01*
X302098Y437056D01*
X302967Y437722D01*
X303633Y438591D01*
X304052Y439603D01*
X304195Y440689D01*
X304052Y441775D01*
X303633Y442787D01*
X302967Y443655D01*
X302098Y444322D01*
X301086Y444741D01*
X300000Y444884D01*
D02*
G37*
G36*
X608940Y438500D02*
X605060D01*
X605116Y438220D01*
X605558Y437558D01*
X605645Y437500D01*
Y437000D01*
X605558Y436942D01*
X605116Y436280D01*
X605060Y436000D01*
X608940D01*
X608884Y436280D01*
X608442Y436942D01*
X608355Y437000D01*
Y437500D01*
X608442Y437558D01*
X608884Y438220D01*
X608940Y438500D01*
D02*
G37*
G36*
X582756Y437240D02*
X579500D01*
Y434772D01*
X582756D01*
Y437240D01*
D02*
G37*
G36*
X578500D02*
X575244D01*
Y434772D01*
X578500D01*
Y437240D01*
D02*
G37*
G36*
X604043Y435799D02*
X602953D01*
Y434364D01*
X604043D01*
Y435799D01*
D02*
G37*
G36*
X423825Y436000D02*
X420323D01*
Y434221D01*
X423825D01*
Y436000D01*
D02*
G37*
G36*
X419323D02*
X415821D01*
Y434221D01*
X419323D01*
Y436000D01*
D02*
G37*
G36*
X608940Y435000D02*
X607500D01*
Y433560D01*
X607780Y433616D01*
X608442Y434058D01*
X608884Y434720D01*
X608940Y435000D01*
D02*
G37*
G36*
X606500D02*
X605060D01*
X605116Y434720D01*
X605558Y434058D01*
X606220Y433616D01*
X606500Y433560D01*
Y435000D01*
D02*
G37*
G36*
X300500Y433007D02*
Y429378D01*
X304130D01*
X304052Y429964D01*
X303633Y430976D01*
X302967Y431845D01*
X302098Y432511D01*
X301086Y432930D01*
X300500Y433007D01*
D02*
G37*
G36*
X299500Y433007D02*
X298914Y432930D01*
X297902Y432511D01*
X297033Y431845D01*
X296367Y430976D01*
X295948Y429964D01*
X295870Y429378D01*
X299500D01*
Y433007D01*
D02*
G37*
G36*
X454228Y429815D02*
X451878D01*
Y426500D01*
X454228D01*
Y429815D01*
D02*
G37*
G36*
X304130Y428378D02*
X300500D01*
Y424748D01*
X301086Y424826D01*
X302098Y425245D01*
X302967Y425911D01*
X303633Y426780D01*
X304052Y427792D01*
X304130Y428378D01*
D02*
G37*
G36*
X299500D02*
X295870D01*
X295948Y427792D01*
X296367Y426780D01*
X297033Y425911D01*
X297902Y425245D01*
X298914Y424826D01*
X299500Y424748D01*
Y428378D01*
D02*
G37*
G36*
X640500Y433072D02*
X639414Y432929D01*
X638402Y432510D01*
X637533Y431843D01*
X636867Y430974D01*
X636448Y429963D01*
X636305Y428877D01*
X636448Y427791D01*
X636867Y426779D01*
X637533Y425910D01*
X638402Y425244D01*
X639414Y424824D01*
X640500Y424682D01*
X641586Y424824D01*
X642598Y425244D01*
X643467Y425910D01*
X644133Y426779D01*
X644552Y427791D01*
X644695Y428877D01*
X644552Y429963D01*
X644133Y430974D01*
X643467Y431843D01*
X642598Y432510D01*
X641586Y432929D01*
X640500Y433072D01*
D02*
G37*
G36*
X620428Y421391D02*
X619551Y421276D01*
X618733Y420937D01*
X618031Y420398D01*
X617491Y419696D01*
X617153Y418878D01*
X617037Y418000D01*
X617153Y417122D01*
X617491Y416304D01*
X618031Y415602D01*
X618733Y415063D01*
X619551Y414724D01*
X620428Y414609D01*
X621306Y414724D01*
X622124Y415063D01*
X622826Y415602D01*
X623365Y416304D01*
X623704Y417122D01*
X623820Y418000D01*
X623704Y418878D01*
X623365Y419696D01*
X622826Y420398D01*
X622124Y420937D01*
X621306Y421276D01*
X620428Y421391D01*
D02*
G37*
G36*
X487542Y500276D02*
X453258D01*
Y490795D01*
X456841D01*
Y481347D01*
X464648D01*
Y481347D01*
X464782D01*
Y485063D01*
X465782D01*
Y481347D01*
X468871D01*
Y479121D01*
X464678Y474929D01*
X464347Y474433D01*
X464230Y473847D01*
Y471283D01*
X463579D01*
Y464559D01*
X469000D01*
Y467921D01*
X470000D01*
Y464559D01*
X474687D01*
X474896Y464087D01*
X474657Y463784D01*
X470379D01*
X469696Y463649D01*
X469117Y463262D01*
X468238Y462383D01*
X467851Y461804D01*
X467779Y461441D01*
X463579D01*
Y454716D01*
X465778D01*
X466043Y454452D01*
X466116Y454342D01*
X473798Y446661D01*
X473798Y446661D01*
X476055Y444403D01*
X475976Y444004D01*
X476092Y443419D01*
X476423Y442922D01*
X478545Y440801D01*
X479041Y440470D01*
X479626Y440353D01*
X480026Y440433D01*
X483058Y437401D01*
X482912Y436922D01*
X482720Y436884D01*
X482058Y436442D01*
X481616Y435780D01*
X481492Y435154D01*
X464966Y418629D01*
X464634Y418132D01*
X464518Y417547D01*
Y412994D01*
X463640D01*
Y448390D01*
X463523Y448975D01*
X463192Y449471D01*
X428529Y484133D01*
Y486781D01*
X428795Y486891D01*
X429538Y487462D01*
X430109Y488205D01*
X430467Y489071D01*
X430590Y490000D01*
X430467Y490929D01*
X430109Y491795D01*
X429538Y492538D01*
X428795Y493109D01*
X427929Y493467D01*
X427000Y493590D01*
X426071Y493467D01*
X425205Y493109D01*
X424462Y492538D01*
X423891Y491795D01*
X423533Y490929D01*
X423410Y490000D01*
X423533Y489071D01*
X423891Y488205D01*
X424462Y487462D01*
X425205Y486891D01*
X425471Y486781D01*
Y483500D01*
X425587Y482915D01*
X425919Y482419D01*
X454808Y453529D01*
X454601Y453029D01*
X445179D01*
Y453780D01*
X437175D01*
Y449221D01*
X436746Y449049D01*
X435000D01*
X434024Y448855D01*
X433198Y448302D01*
X428198Y443302D01*
X427645Y442476D01*
X427451Y441500D01*
Y422532D01*
X427321Y422218D01*
X427226Y421500D01*
X427321Y420782D01*
X427598Y420113D01*
X428039Y419539D01*
X428613Y419098D01*
X429282Y418821D01*
X430000Y418726D01*
X430718Y418821D01*
X431387Y419098D01*
X431961Y419539D01*
X432402Y420113D01*
X432679Y420782D01*
X432774Y421500D01*
X432679Y422218D01*
X432549Y422532D01*
Y440444D01*
X436056Y443951D01*
X436746D01*
X437175Y443780D01*
X437175Y443451D01*
Y442000D01*
X441177D01*
X445179D01*
Y443706D01*
X445179Y443780D01*
X445357Y444206D01*
X448307D01*
X449172Y444378D01*
X453815D01*
Y449971D01*
X454366D01*
X458612Y445725D01*
Y440339D01*
X458112Y440187D01*
X457942Y440442D01*
X457280Y440884D01*
X457000Y440940D01*
Y439000D01*
Y437060D01*
X457280Y437116D01*
X457942Y437558D01*
X458112Y437813D01*
X458612Y437661D01*
Y432704D01*
X458150Y432513D01*
X453242Y437421D01*
X453449Y437921D01*
X453815D01*
Y440272D01*
X446185D01*
Y438029D01*
X445179D01*
Y438721D01*
X445179Y438779D01*
Y439221D01*
X445179Y439280D01*
Y441000D01*
X441177D01*
X437175D01*
Y439280D01*
X437175Y439221D01*
Y438779D01*
X437175Y438721D01*
Y434221D01*
X445179D01*
Y434971D01*
X451367D01*
X456060Y430277D01*
X455869Y429815D01*
X455228D01*
Y426000D01*
X454728D01*
Y425500D01*
X451878D01*
Y422185D01*
X451878D01*
Y421767D01*
X451878D01*
Y418452D01*
X454728D01*
Y417452D01*
X451878D01*
Y416732D01*
X451401Y416522D01*
X451122Y416746D01*
Y421767D01*
X451122D01*
Y422185D01*
X451122D01*
Y429815D01*
X445421D01*
Y422185D01*
X445421D01*
Y421767D01*
X445421D01*
Y416883D01*
X445372Y416637D01*
Y413977D01*
X444698Y413302D01*
X444145Y412475D01*
X443951Y411500D01*
X444145Y410525D01*
X444698Y409698D01*
X445525Y409145D01*
X446500Y408951D01*
X447475Y409145D01*
X448302Y409698D01*
X449724Y411119D01*
X450276Y411946D01*
X450367Y412403D01*
X450910Y412567D01*
X452646Y410831D01*
Y405187D01*
X455827D01*
Y409091D01*
X456582D01*
Y405187D01*
X482234D01*
Y401113D01*
X454577Y373456D01*
X454115Y373647D01*
Y386216D01*
X453999Y386802D01*
X453667Y387298D01*
X450521Y390444D01*
X450313Y390583D01*
Y395736D01*
Y399673D01*
Y402854D01*
X442506D01*
Y400825D01*
X409767D01*
X323791Y486801D01*
Y491362D01*
X317066D01*
Y484638D01*
X321628D01*
X406947Y399318D01*
X406756Y398856D01*
X401735D01*
X323635Y476956D01*
X323704Y477122D01*
X323820Y478000D01*
X323704Y478878D01*
X323365Y479696D01*
X322826Y480398D01*
X322124Y480937D01*
X321306Y481276D01*
X320428Y481391D01*
X319551Y481276D01*
X318733Y480937D01*
X318031Y480398D01*
X317492Y479696D01*
X317153Y478878D01*
X317037Y478000D01*
X317153Y477122D01*
X317492Y476304D01*
X318031Y475602D01*
X318733Y475063D01*
X319551Y474724D01*
X320428Y474609D01*
X321306Y474724D01*
X321472Y474793D01*
X398916Y397350D01*
X398725Y396888D01*
X393704D01*
X323635Y466956D01*
X323704Y467122D01*
X323820Y468000D01*
X323704Y468878D01*
X323365Y469696D01*
X322826Y470398D01*
X322124Y470937D01*
X321306Y471276D01*
X320428Y471391D01*
X319551Y471276D01*
X318733Y470937D01*
X318031Y470398D01*
X317492Y469696D01*
X317153Y468878D01*
X317037Y468000D01*
X317153Y467122D01*
X317492Y466304D01*
X318031Y465602D01*
X318733Y465063D01*
X319551Y464724D01*
X320428Y464609D01*
X321306Y464724D01*
X321472Y464793D01*
X390884Y395381D01*
X390693Y394919D01*
X385672D01*
X323635Y456956D01*
X323704Y457122D01*
X323820Y458000D01*
X323704Y458878D01*
X323365Y459696D01*
X322826Y460398D01*
X322124Y460937D01*
X321306Y461276D01*
X320428Y461391D01*
X319551Y461276D01*
X318733Y460937D01*
X318031Y460398D01*
X317492Y459696D01*
X317153Y458878D01*
X317037Y458000D01*
X317153Y457122D01*
X317492Y456304D01*
X318031Y455602D01*
X318733Y455063D01*
X319551Y454724D01*
X320428Y454609D01*
X321306Y454724D01*
X321472Y454793D01*
X382853Y393413D01*
X382662Y392951D01*
X377641D01*
X323635Y446956D01*
X323704Y447122D01*
X323820Y448000D01*
X323704Y448878D01*
X323365Y449696D01*
X322826Y450398D01*
X322124Y450937D01*
X321306Y451276D01*
X320428Y451391D01*
X319551Y451276D01*
X318733Y450937D01*
X318031Y450398D01*
X317492Y449696D01*
X317153Y448878D01*
X317037Y448000D01*
X317153Y447122D01*
X317492Y446304D01*
X318031Y445602D01*
X318733Y445063D01*
X319551Y444724D01*
X320428Y444609D01*
X321306Y444724D01*
X321472Y444793D01*
X375926Y390340D01*
X376422Y390008D01*
X377007Y389892D01*
X442506D01*
Y389392D01*
X371200D01*
X323635Y436956D01*
X323704Y437122D01*
X323820Y438000D01*
X323704Y438878D01*
X323365Y439696D01*
X322826Y440398D01*
X322124Y440937D01*
X321306Y441276D01*
X320428Y441391D01*
X319551Y441276D01*
X318733Y440937D01*
X318031Y440398D01*
X317492Y439696D01*
X317153Y438878D01*
X317037Y438000D01*
X317153Y437122D01*
X317492Y436304D01*
X318031Y435602D01*
X318733Y435063D01*
X319551Y434724D01*
X320428Y434609D01*
X321306Y434724D01*
X321472Y434793D01*
X367912Y388353D01*
X367721Y387892D01*
X362700D01*
X323635Y426956D01*
X323704Y427122D01*
X323820Y428000D01*
X323704Y428878D01*
X323365Y429696D01*
X322826Y430398D01*
X322124Y430937D01*
X321306Y431276D01*
X320428Y431391D01*
X319551Y431276D01*
X318733Y430937D01*
X318031Y430398D01*
X317492Y429696D01*
X317153Y428878D01*
X317037Y428000D01*
X317153Y427122D01*
X317492Y426304D01*
X318031Y425602D01*
X318733Y425063D01*
X319551Y424724D01*
X320428Y424609D01*
X321306Y424724D01*
X321472Y424793D01*
X359060Y387206D01*
X358869Y386744D01*
X353848D01*
X323635Y416956D01*
X323704Y417122D01*
X323820Y418000D01*
X323704Y418878D01*
X323365Y419696D01*
X322826Y420398D01*
X322124Y420937D01*
X321306Y421276D01*
X320428Y421391D01*
X319551Y421276D01*
X318733Y420937D01*
X318031Y420398D01*
X317492Y419696D01*
X317153Y418878D01*
X317037Y418000D01*
X317153Y417122D01*
X317492Y416304D01*
X318031Y415602D01*
X318733Y415063D01*
X319551Y414724D01*
X320428Y414609D01*
X321306Y414724D01*
X321472Y414793D01*
X350912Y385353D01*
X350721Y384892D01*
X335791D01*
X335205Y384775D01*
X334709Y384444D01*
X321472Y371207D01*
X321306Y371276D01*
X320428Y371391D01*
X319551Y371276D01*
X318733Y370937D01*
X318031Y370398D01*
X317492Y369696D01*
X317153Y368878D01*
X317037Y368000D01*
X317153Y367122D01*
X317492Y366304D01*
X318031Y365602D01*
X318733Y365063D01*
X319551Y364724D01*
X320428Y364609D01*
X321306Y364724D01*
X322124Y365063D01*
X322826Y365602D01*
X323365Y366304D01*
X323704Y367122D01*
X323820Y368000D01*
X323704Y368878D01*
X323635Y369044D01*
X336424Y381833D01*
X422790D01*
X423185Y381579D01*
X423185Y381333D01*
Y379228D01*
X427000D01*
Y378728D01*
X427500D01*
Y375878D01*
X430733D01*
X430815Y375878D01*
X431233D01*
X431315Y375878D01*
X434548D01*
Y378728D01*
X435548D01*
Y375878D01*
X436649D01*
X436859Y375401D01*
X436635Y375122D01*
X431233D01*
Y375122D01*
X430815D01*
Y375122D01*
X423185D01*
Y374821D01*
X409784D01*
X407302Y377302D01*
X406475Y377855D01*
X405500Y378049D01*
X404525Y377855D01*
X403698Y377302D01*
X403145Y376476D01*
X402951Y375500D01*
X403145Y374524D01*
X403698Y373698D01*
X406926Y370469D01*
X407753Y369917D01*
X408728Y369723D01*
X422805D01*
X422901Y369529D01*
X422590Y369029D01*
X396133D01*
X385581Y379581D01*
X385085Y379913D01*
X384500Y380029D01*
X340928D01*
X340343Y379913D01*
X339847Y379581D01*
X321472Y361207D01*
X321306Y361276D01*
X320428Y361391D01*
X319551Y361276D01*
X318733Y360937D01*
X318031Y360398D01*
X317492Y359696D01*
X317153Y358878D01*
X317037Y358000D01*
X317153Y357122D01*
X317492Y356304D01*
X318031Y355602D01*
X318733Y355063D01*
X319551Y354724D01*
X320428Y354609D01*
X321306Y354724D01*
X322124Y355063D01*
X322826Y355602D01*
X323365Y356304D01*
X323704Y357122D01*
X323820Y358000D01*
X323704Y358878D01*
X323635Y359044D01*
X341562Y376971D01*
X346583D01*
X346774Y376509D01*
X321472Y351207D01*
X321306Y351276D01*
X320428Y351391D01*
X319551Y351276D01*
X318733Y350937D01*
X318031Y350398D01*
X317492Y349696D01*
X317153Y348878D01*
X317037Y348000D01*
X317153Y347122D01*
X317492Y346304D01*
X318031Y345602D01*
X318733Y345063D01*
X319551Y344724D01*
X320428Y344609D01*
X321306Y344724D01*
X322124Y345063D01*
X322826Y345602D01*
X323365Y346304D01*
X323704Y347122D01*
X323820Y348000D01*
X323704Y348878D01*
X323635Y349044D01*
X334553Y359961D01*
X335013Y359715D01*
X334971Y359500D01*
Y354705D01*
X321472Y341207D01*
X321306Y341276D01*
X320428Y341391D01*
X319551Y341276D01*
X318733Y340937D01*
X318031Y340398D01*
X317492Y339696D01*
X317153Y338878D01*
X317037Y338000D01*
X317153Y337122D01*
X317492Y336304D01*
X318031Y335602D01*
X318733Y335063D01*
X319551Y334724D01*
X319819Y334689D01*
X319998Y334161D01*
X319347Y333510D01*
X319015Y333014D01*
X318899Y332428D01*
Y331006D01*
X318733Y330937D01*
X318031Y330398D01*
X317492Y329696D01*
X317153Y328878D01*
X317037Y328000D01*
X317153Y327122D01*
X317492Y326304D01*
X318031Y325602D01*
X318733Y325063D01*
X319551Y324724D01*
X320428Y324609D01*
X321306Y324724D01*
X322124Y325063D01*
X322826Y325602D01*
X323365Y326304D01*
X323704Y327122D01*
X323820Y328000D01*
X323704Y328878D01*
X323365Y329696D01*
X322826Y330398D01*
X322124Y330937D01*
X321958Y331006D01*
Y331795D01*
X340081Y349919D01*
X340413Y350415D01*
X340529Y351000D01*
Y357867D01*
X341599Y358936D01*
X342061Y358745D01*
Y358000D01*
X348403D01*
Y360684D01*
X348303Y361191D01*
X348015Y361621D01*
X347585Y361909D01*
X347078Y362010D01*
X345326D01*
X345134Y362472D01*
X355134Y372471D01*
X361700D01*
X361744Y371971D01*
X361732Y371911D01*
Y370687D01*
X361713Y370589D01*
Y366668D01*
X357054Y362009D01*
X355472D01*
X354980Y361911D01*
X354564Y361633D01*
X354286Y361216D01*
X354188Y360725D01*
Y356723D01*
X354173Y356650D01*
Y355700D01*
X346747Y348274D01*
X342710D01*
Y343911D01*
X349631D01*
Y345390D01*
X357232Y352991D01*
X358654D01*
X359146Y353089D01*
X359562Y353367D01*
X359840Y353783D01*
X359938Y354275D01*
Y359125D01*
X365194Y364381D01*
X365636Y365042D01*
X365791Y365823D01*
X365791Y365823D01*
Y366706D01*
X366139Y366848D01*
X366274Y366877D01*
X366315Y366865D01*
X366594Y366678D01*
X366984Y366600D01*
X369248D01*
X369638Y366678D01*
X369969Y366899D01*
X370190Y367230D01*
X370268Y367620D01*
Y371911D01*
X370256Y371971D01*
X370300Y372471D01*
X378867D01*
X391919Y359419D01*
X392415Y359087D01*
X393000Y358971D01*
X426689D01*
X427220Y358616D01*
X427659Y358529D01*
X427823Y357986D01*
X425419Y355581D01*
X425087Y355085D01*
X424995Y354622D01*
X424549Y354497D01*
X424501Y354496D01*
X424471Y354496D01*
X419089D01*
X418823Y354549D01*
X418557Y354496D01*
X413098D01*
Y349996D01*
X413098Y349504D01*
X413098D01*
Y349496D01*
X413098D01*
Y347500D01*
X418823D01*
Y346500D01*
X413098D01*
Y344996D01*
X413098Y344504D01*
X413098Y344004D01*
Y342500D01*
X418823D01*
Y341500D01*
X413098D01*
Y339996D01*
X413098Y339504D01*
X413098Y339004D01*
Y334996D01*
X413098Y334504D01*
X413098Y334004D01*
Y332500D01*
X424547D01*
Y334004D01*
X424547Y334496D01*
X424547Y334996D01*
Y336014D01*
X425047Y336064D01*
X425087Y335864D01*
X425419Y335367D01*
X428453Y332333D01*
Y329504D01*
X439902D01*
Y334004D01*
X439902Y334496D01*
X439902D01*
Y334504D01*
X439902D01*
Y339004D01*
X439902Y339496D01*
X439902Y339996D01*
Y344004D01*
X439902Y344496D01*
X439902Y344996D01*
Y349004D01*
X439902Y349496D01*
X439902D01*
Y349504D01*
X439902D01*
Y352333D01*
X448470Y360902D01*
X449013Y360737D01*
X449116Y360220D01*
X449558Y359558D01*
X450220Y359116D01*
X451000Y358961D01*
X451780Y359116D01*
X452442Y359558D01*
X452722Y359977D01*
X454146D01*
X454293Y360006D01*
X456644D01*
Y357363D01*
X453878D01*
Y349733D01*
X453878D01*
Y349315D01*
X453878D01*
Y341685D01*
X457177D01*
X457368Y341223D01*
X444174Y328029D01*
X415133D01*
X414121Y329042D01*
X414312Y329504D01*
X418323D01*
Y331500D01*
X413098D01*
Y330718D01*
X412637Y330526D01*
X409029Y334134D01*
Y348000D01*
X408913Y348585D01*
X408581Y349081D01*
X400581Y357081D01*
X400085Y357413D01*
X399500Y357529D01*
X385579D01*
Y360581D01*
X379878D01*
Y355305D01*
X379401Y355095D01*
X379122Y355318D01*
Y360581D01*
X373421D01*
Y352951D01*
X375654D01*
X375943Y352601D01*
X375756Y352164D01*
X373346D01*
X372854Y352066D01*
X372438Y351788D01*
X372160Y351371D01*
X372062Y350880D01*
Y350450D01*
X370086D01*
Y350591D01*
X367877D01*
Y353215D01*
X369248D01*
X369346Y353234D01*
X370248D01*
Y354136D01*
X370268Y354234D01*
Y358565D01*
X370190Y358955D01*
X369969Y359286D01*
X369638Y359507D01*
X369248Y359585D01*
X366984D01*
X366594Y359507D01*
X366263Y359286D01*
X365737D01*
X365406Y359507D01*
X365016Y359585D01*
X362752D01*
X362362Y359507D01*
X362031Y359286D01*
X361810Y358955D01*
X361732Y358565D01*
Y354234D01*
X361752Y354136D01*
Y353234D01*
X362653D01*
X362752Y353215D01*
X363798D01*
Y350591D01*
X361590D01*
Y349651D01*
X361570Y349552D01*
Y345261D01*
X361648Y344871D01*
X361869Y344540D01*
X362199Y344319D01*
X362590Y344241D01*
X364853D01*
X365244Y344319D01*
X365574Y344540D01*
X366101D01*
X366432Y344319D01*
X366822Y344241D01*
X369086D01*
X369476Y344319D01*
X369807Y344540D01*
X370028Y344871D01*
X370105Y345261D01*
Y346371D01*
X372062D01*
Y344430D01*
X372160Y343938D01*
X372438Y343522D01*
X372854Y343244D01*
X373346Y343146D01*
X376528D01*
X377020Y343244D01*
X377436Y343522D01*
X377714Y343938D01*
X377812Y344430D01*
Y350142D01*
X378274Y350333D01*
X380492Y348115D01*
X381154Y347673D01*
X381934Y347518D01*
X383597D01*
Y344471D01*
X383698Y343964D01*
X383985Y343534D01*
X384415Y343246D01*
X384922Y343145D01*
X388613D01*
X389120Y343246D01*
X389550Y343534D01*
X389838Y343964D01*
X389939Y344471D01*
Y350839D01*
X389838Y351346D01*
X389550Y351776D01*
X389120Y352064D01*
X388613Y352165D01*
X384922D01*
X384415Y352064D01*
X383985Y351776D01*
X383865Y351596D01*
X382779D01*
X381886Y352489D01*
X382077Y352951D01*
X385579D01*
Y354471D01*
X398867D01*
X405971Y347366D01*
Y333500D01*
X406087Y332915D01*
X406419Y332419D01*
X413418Y325419D01*
X413915Y325087D01*
X414500Y324971D01*
X444808D01*
X445393Y325087D01*
X445889Y325419D01*
X461223Y340752D01*
X461555Y341248D01*
X461671Y341834D01*
Y347513D01*
X462133Y347704D01*
X473419Y336419D01*
X473915Y336087D01*
X474500Y335971D01*
X484291D01*
Y335049D01*
X479823D01*
Y335370D01*
X474417D01*
X474083Y335370D01*
X473583Y335370D01*
X468177D01*
Y329630D01*
X473583D01*
X473917Y329630D01*
X474417Y329630D01*
X479823D01*
Y329951D01*
X484291D01*
Y328744D01*
X490228D01*
Y335971D01*
X491772D01*
Y333000D01*
X494740D01*
X497709D01*
Y335971D01*
X521745D01*
X530797Y326919D01*
X531293Y326587D01*
X531879Y326471D01*
X617423D01*
X617491Y326304D01*
X618031Y325602D01*
X618733Y325063D01*
X619551Y324724D01*
X620428Y324609D01*
X621306Y324724D01*
X622124Y325063D01*
X622826Y325602D01*
X623365Y326304D01*
X623704Y327122D01*
X623820Y328000D01*
X623704Y328878D01*
X623365Y329696D01*
X622826Y330398D01*
X622124Y330937D01*
X621306Y331276D01*
X620428Y331391D01*
X619551Y331276D01*
X618733Y330937D01*
X618031Y330398D01*
X617491Y329696D01*
X617423Y329529D01*
X532512D01*
X531533Y330509D01*
X531724Y330971D01*
X614928D01*
X615514Y331087D01*
X616010Y331419D01*
X619384Y334793D01*
X619551Y334724D01*
X620428Y334609D01*
X621306Y334724D01*
X622124Y335063D01*
X622826Y335602D01*
X623365Y336304D01*
X623704Y337122D01*
X623820Y338000D01*
X623704Y338878D01*
X623365Y339696D01*
X622826Y340398D01*
X622124Y340937D01*
X621306Y341276D01*
X620428Y341391D01*
X619551Y341276D01*
X618733Y340937D01*
X618031Y340398D01*
X617491Y339696D01*
X617153Y338878D01*
X617037Y338000D01*
X617153Y337122D01*
X617222Y336956D01*
X614295Y334029D01*
X609274D01*
X609083Y334491D01*
X619384Y344793D01*
X619551Y344724D01*
X620428Y344609D01*
X621306Y344724D01*
X622124Y345063D01*
X622826Y345602D01*
X623365Y346304D01*
X623704Y347122D01*
X623820Y348000D01*
X623704Y348878D01*
X623365Y349696D01*
X622826Y350398D01*
X622124Y350937D01*
X621306Y351276D01*
X620428Y351391D01*
X619551Y351276D01*
X618733Y350937D01*
X618031Y350398D01*
X617491Y349696D01*
X617153Y348878D01*
X617037Y348000D01*
X617153Y347122D01*
X617222Y346956D01*
X605795Y335529D01*
X581841D01*
X581634Y336029D01*
X585629Y340024D01*
X586182Y340851D01*
X586376Y341827D01*
Y342846D01*
X586876Y342925D01*
X590603Y339198D01*
X591430Y338645D01*
X592406Y338451D01*
X602000D01*
X602976Y338645D01*
X603802Y339198D01*
X612802Y348198D01*
X613355Y349025D01*
X613549Y350000D01*
Y428444D01*
X615556Y430451D01*
X617441D01*
X617688Y429951D01*
X617491Y429696D01*
X617153Y428878D01*
X617037Y428000D01*
X617153Y427122D01*
X617491Y426304D01*
X618031Y425602D01*
X618733Y425063D01*
X619551Y424724D01*
X620428Y424609D01*
X621306Y424724D01*
X622124Y425063D01*
X622826Y425602D01*
X623365Y426304D01*
X623704Y427122D01*
X623820Y428000D01*
X623704Y428878D01*
X623365Y429696D01*
X623169Y429951D01*
X623416Y430451D01*
X632812D01*
X633788Y430645D01*
X634615Y431198D01*
X639978Y436561D01*
X640500Y436492D01*
X641586Y436635D01*
X642598Y437055D01*
X643467Y437721D01*
X644133Y438590D01*
X644552Y439602D01*
X644695Y440688D01*
X644552Y441774D01*
X644133Y442786D01*
X643467Y443654D01*
X642598Y444321D01*
X641586Y444740D01*
X640500Y444883D01*
X639414Y444740D01*
X638402Y444321D01*
X637533Y443654D01*
X636867Y442786D01*
X636448Y441774D01*
X636305Y440688D01*
X636373Y440166D01*
X631756Y435549D01*
X623416D01*
X623169Y436049D01*
X623365Y436304D01*
X623704Y437122D01*
X623754Y437500D01*
X620428D01*
X617103D01*
X617153Y437122D01*
X617491Y436304D01*
X617688Y436049D01*
X617441Y435549D01*
X614500D01*
X613524Y435355D01*
X612698Y434802D01*
X609198Y431302D01*
X608645Y430476D01*
X608451Y429500D01*
Y351056D01*
X600944Y343549D01*
X593461D01*
X590726Y346284D01*
X593585Y349143D01*
X594047Y348952D01*
Y345626D01*
X601953D01*
Y363374D01*
X601029D01*
Y373654D01*
X600913Y374239D01*
X600581Y374735D01*
X600043Y375273D01*
Y376636D01*
X590957D01*
Y375273D01*
X587973Y372289D01*
X579256D01*
Y373728D01*
X571744D01*
Y367791D01*
X573971D01*
Y366625D01*
X571744D01*
Y362020D01*
X571000D01*
X570610Y361942D01*
X570279Y361721D01*
X570058Y361390D01*
X569980Y361000D01*
X569980Y352315D01*
X567421D01*
Y349000D01*
X570272D01*
Y348500D01*
X570772D01*
Y344685D01*
X573122D01*
Y344685D01*
X573424Y344700D01*
X573773Y344689D01*
X573910Y344604D01*
X574050Y344255D01*
X574071Y344091D01*
X574080Y343927D01*
X574096Y343895D01*
X574100Y343860D01*
X574182Y343717D01*
X574254Y343569D01*
X574395Y343384D01*
X574447Y343337D01*
X574486Y343279D01*
X574594Y343207D01*
X574692Y343120D01*
X574758Y343097D01*
X574817Y343058D01*
X574945Y343033D01*
X575068Y342990D01*
X575138Y342994D01*
X575207Y342980D01*
X580668D01*
X580876Y342480D01*
X578444Y340049D01*
X564493D01*
X564443Y340549D01*
X564780Y340616D01*
X565442Y341058D01*
X565884Y341720D01*
X565940Y342000D01*
X562060D01*
X562116Y341720D01*
X562558Y341058D01*
X563220Y340616D01*
X563557Y340549D01*
X563508Y340049D01*
X561056D01*
X526802Y374302D01*
X525976Y374855D01*
X525000Y375049D01*
X519032D01*
X518718Y375179D01*
X518000Y375274D01*
X517282Y375179D01*
X516613Y374902D01*
X516039Y374461D01*
X515598Y373887D01*
X515321Y373218D01*
X515226Y372500D01*
X515321Y371782D01*
X515598Y371113D01*
X516039Y370539D01*
X516613Y370098D01*
X517282Y369821D01*
X518000Y369726D01*
X518718Y369821D01*
X519032Y369951D01*
X523944D01*
X557866Y336029D01*
X557659Y335529D01*
X530901D01*
X524849Y341581D01*
X524353Y341913D01*
X523768Y342029D01*
X476634D01*
X467577Y351086D01*
Y356015D01*
X468018Y356251D01*
X468220Y356116D01*
X469000Y355961D01*
X469780Y356116D01*
X469947Y356227D01*
X470447Y355960D01*
Y352276D01*
X470116Y351780D01*
X469961Y351000D01*
X470116Y350220D01*
X470558Y349558D01*
X471220Y349116D01*
X472000Y348961D01*
X472780Y349116D01*
X473442Y349558D01*
X473884Y350220D01*
X474039Y351000D01*
X473893Y351733D01*
X474062Y351938D01*
X474267Y352107D01*
X475000Y351961D01*
X475685Y352097D01*
X476185Y351831D01*
Y350378D01*
X483714D01*
X483815Y350378D01*
X483953Y350293D01*
Y350023D01*
X483488Y349622D01*
X480500D01*
Y346772D01*
Y343921D01*
X483714D01*
X483815Y343921D01*
X484214Y343676D01*
Y343185D01*
X486564D01*
Y347000D01*
X487064D01*
Y347500D01*
X489914D01*
Y350733D01*
X489914Y350815D01*
Y351233D01*
X489914Y351315D01*
Y354548D01*
X487064D01*
Y355548D01*
X489914D01*
Y356648D01*
X490391Y356859D01*
X490670Y356635D01*
Y351233D01*
X490670D01*
Y350815D01*
X490670D01*
Y343185D01*
X496371D01*
Y344451D01*
X503846D01*
Y343146D01*
X510373D01*
Y350854D01*
X503846D01*
Y349549D01*
X496371D01*
Y350815D01*
X496371D01*
Y351233D01*
X496371D01*
Y358863D01*
X492833D01*
X489109Y362587D01*
X488613Y362919D01*
X488028Y363035D01*
X485354D01*
Y367813D01*
X482173D01*
Y363909D01*
X481418D01*
Y367813D01*
X456075D01*
X455923Y368313D01*
X456081Y368419D01*
X483460Y395797D01*
X487687D01*
Y393768D01*
Y389831D01*
Y385894D01*
Y381957D01*
Y378020D01*
Y374083D01*
Y370146D01*
X495494D01*
Y370207D01*
X497815D01*
X502603Y365419D01*
X503099Y365087D01*
X503685Y364971D01*
X507189D01*
X507720Y364616D01*
X508500Y364461D01*
X509280Y364616D01*
X509942Y365058D01*
X510384Y365720D01*
X510539Y366500D01*
X510384Y367280D01*
X510691Y367721D01*
X510970Y367783D01*
X511220Y367616D01*
X512000Y367461D01*
X512780Y367616D01*
X513442Y368058D01*
X513884Y368720D01*
X514039Y369500D01*
X513884Y370280D01*
X513442Y370942D01*
X512780Y371384D01*
X512000Y371539D01*
X511220Y371384D01*
X510970Y371217D01*
X510691Y371279D01*
X510384Y371720D01*
X510539Y372500D01*
X510384Y373280D01*
X510691Y373721D01*
X510970Y373783D01*
X511220Y373616D01*
X512000Y373461D01*
X512780Y373616D01*
X513442Y374058D01*
X513884Y374720D01*
X514039Y375500D01*
X513884Y376280D01*
X513694Y376565D01*
X513994Y377015D01*
X514219Y376971D01*
X533689D01*
X534220Y376616D01*
X535000Y376461D01*
X535780Y376616D01*
X536442Y377058D01*
X536884Y377720D01*
X537039Y378500D01*
X536884Y379280D01*
X536442Y379942D01*
X535780Y380384D01*
X535000Y380539D01*
X534220Y380384D01*
X533689Y380029D01*
X533024D01*
X532757Y380529D01*
X532884Y380720D01*
X533039Y381500D01*
X532946Y381971D01*
X533312Y382471D01*
X533689D01*
X534220Y382116D01*
X535000Y381961D01*
X535780Y382116D01*
X536442Y382558D01*
X536884Y383220D01*
X537039Y384000D01*
X536884Y384780D01*
X536442Y385442D01*
X535780Y385884D01*
X535000Y386039D01*
X534220Y385884D01*
X533689Y385529D01*
X533312D01*
X532946Y386029D01*
X533039Y386500D01*
X532946Y386971D01*
X533312Y387471D01*
X533689D01*
X534220Y387116D01*
X535000Y386961D01*
X535780Y387116D01*
X536442Y387558D01*
X536884Y388220D01*
X537039Y389000D01*
X536884Y389780D01*
X536442Y390442D01*
X535780Y390884D01*
X535000Y391039D01*
X534220Y390884D01*
X533689Y390529D01*
X533312D01*
X532946Y391029D01*
X533039Y391500D01*
X532884Y392280D01*
X532442Y392942D01*
X531780Y393384D01*
X531000Y393539D01*
X530220Y393384D01*
X529689Y393029D01*
X515346D01*
X515154Y393491D01*
X518581Y396919D01*
X518913Y397415D01*
X519029Y398000D01*
Y417000D01*
X518913Y417585D01*
X518581Y418082D01*
X511581Y425081D01*
X511085Y425413D01*
X510500Y425529D01*
X501376D01*
X492764Y434142D01*
X492910Y434703D01*
X493311Y434971D01*
X528500D01*
X529085Y435087D01*
X529581Y435419D01*
X545154Y450991D01*
X545780Y451116D01*
X546442Y451558D01*
X546884Y452220D01*
X547039Y453000D01*
X546884Y453780D01*
X546442Y454442D01*
X545780Y454884D01*
X545000Y455039D01*
X544220Y454884D01*
X543558Y454442D01*
X543116Y453780D01*
X542991Y453154D01*
X527867Y438029D01*
X525846D01*
X525654Y438491D01*
X542654Y455491D01*
X543280Y455616D01*
X543942Y456058D01*
X544384Y456720D01*
X544539Y457500D01*
X544384Y458280D01*
X543942Y458942D01*
X543280Y459384D01*
X542500Y459539D01*
X541720Y459384D01*
X541058Y458942D01*
X540616Y458280D01*
X540491Y457654D01*
X523366Y440529D01*
X490811D01*
X490280Y440884D01*
X489500Y441039D01*
X488720Y440884D01*
X488058Y440442D01*
X487703Y439910D01*
X487142Y439764D01*
X474769Y452136D01*
Y454716D01*
X475421D01*
Y460216D01*
X475500D01*
X476183Y460352D01*
X476762Y460738D01*
X480262Y464238D01*
X480262Y464238D01*
X480649Y464817D01*
X480784Y465500D01*
X480784Y465500D01*
Y477480D01*
X498500D01*
X498890Y477558D01*
X499221Y477779D01*
X501078Y479636D01*
X501299Y479967D01*
X501377Y480357D01*
X501421Y480819D01*
X501421Y480819D01*
Y484260D01*
X501721Y484460D01*
X501942Y484791D01*
X502020Y485181D01*
Y485819D01*
X501942Y486209D01*
X501721Y486540D01*
X501421Y486740D01*
Y489260D01*
X501721Y489460D01*
X501942Y489791D01*
X502020Y490181D01*
Y490819D01*
X501942Y491209D01*
X501721Y491540D01*
X501421Y491740D01*
Y494260D01*
X501721Y494460D01*
X501942Y494791D01*
X502020Y495181D01*
Y495819D01*
X501942Y496209D01*
X501721Y496540D01*
X501421Y496740D01*
Y500181D01*
X493319D01*
Y500181D01*
X492857Y499877D01*
X492467Y499799D01*
X492136Y499578D01*
X488004Y495446D01*
X487542Y495637D01*
Y500276D01*
D02*
G37*
G36*
X300000Y421262D02*
X298914Y421119D01*
X297902Y420700D01*
X297034Y420034D01*
X296367Y419165D01*
X295948Y418153D01*
X295805Y417067D01*
X295948Y415981D01*
X296367Y414969D01*
X297034Y414100D01*
X297902Y413434D01*
X298914Y413015D01*
X300000Y412872D01*
X301086Y413015D01*
X302098Y413434D01*
X302967Y414100D01*
X303633Y414969D01*
X304052Y415981D01*
X304195Y417067D01*
X304052Y418153D01*
X303633Y419165D01*
X302967Y420034D01*
X302098Y420700D01*
X301086Y421119D01*
X300000Y421262D01*
D02*
G37*
G36*
X640500Y421261D02*
X639414Y421118D01*
X638402Y420699D01*
X637533Y420032D01*
X636867Y419164D01*
X636448Y418152D01*
X636305Y417066D01*
X636448Y415980D01*
X636867Y414968D01*
X637533Y414099D01*
X638402Y413433D01*
X639414Y413013D01*
X640500Y412870D01*
X641586Y413013D01*
X642598Y413433D01*
X643467Y414099D01*
X644133Y414968D01*
X644552Y415980D01*
X644695Y417066D01*
X644552Y418152D01*
X644133Y419164D01*
X643467Y420032D01*
X642598Y420699D01*
X641586Y421118D01*
X640500Y421261D01*
D02*
G37*
G36*
X573272Y411315D02*
X570921D01*
Y408000D01*
X573272D01*
Y411315D01*
D02*
G37*
G36*
X300500Y409385D02*
Y405756D01*
X304130D01*
X304052Y406342D01*
X303633Y407354D01*
X302967Y408222D01*
X302098Y408889D01*
X301086Y409308D01*
X300500Y409385D01*
D02*
G37*
G36*
X299500Y409385D02*
X298914Y409308D01*
X297902Y408889D01*
X297034Y408222D01*
X296367Y407354D01*
X295948Y406342D01*
X295870Y405756D01*
X299500D01*
Y409385D01*
D02*
G37*
G36*
X641000Y409384D02*
Y405755D01*
X644629D01*
X644552Y406341D01*
X644133Y407352D01*
X643467Y408221D01*
X642598Y408888D01*
X641586Y409307D01*
X641000Y409384D01*
D02*
G37*
G36*
X640000Y409384D02*
X639414Y409307D01*
X638402Y408888D01*
X637533Y408221D01*
X636867Y407352D01*
X636448Y406341D01*
X636371Y405755D01*
X640000D01*
Y409384D01*
D02*
G37*
G36*
X620428Y411391D02*
X619551Y411276D01*
X618733Y410937D01*
X618031Y410398D01*
X617491Y409696D01*
X617153Y408878D01*
X617037Y408000D01*
X617153Y407122D01*
X617491Y406304D01*
X618031Y405602D01*
X618733Y405063D01*
X619551Y404724D01*
X620428Y404609D01*
X621306Y404724D01*
X622124Y405063D01*
X622826Y405602D01*
X623365Y406304D01*
X623704Y407122D01*
X623820Y408000D01*
X623704Y408878D01*
X623365Y409696D01*
X622826Y410398D01*
X622124Y410937D01*
X621306Y411276D01*
X620428Y411391D01*
D02*
G37*
G36*
X320428D02*
X319551Y411276D01*
X318733Y410937D01*
X318031Y410398D01*
X317492Y409696D01*
X317153Y408878D01*
X317037Y408000D01*
X317153Y407122D01*
X317492Y406304D01*
X318031Y405602D01*
X318733Y405063D01*
X319551Y404724D01*
X320428Y404609D01*
X321306Y404724D01*
X322124Y405063D01*
X322826Y405602D01*
X323365Y406304D01*
X323704Y407122D01*
X323820Y408000D01*
X323704Y408878D01*
X323365Y409696D01*
X322826Y410398D01*
X322124Y410937D01*
X321306Y411276D01*
X320428Y411391D01*
D02*
G37*
G36*
X523000Y403221D02*
Y401272D01*
X524950D01*
X524855Y401747D01*
X524302Y402574D01*
X523476Y403126D01*
X523000Y403221D01*
D02*
G37*
G36*
X522000D02*
X521524Y403126D01*
X520698Y402574D01*
X520145Y401747D01*
X520050Y401272D01*
X522000D01*
Y403221D01*
D02*
G37*
G36*
X304130Y404756D02*
X300500D01*
Y401126D01*
X301086Y401203D01*
X302098Y401623D01*
X302967Y402289D01*
X303633Y403158D01*
X304052Y404170D01*
X304130Y404756D01*
D02*
G37*
G36*
X299500D02*
X295870D01*
X295948Y404170D01*
X296367Y403158D01*
X297034Y402289D01*
X297902Y401623D01*
X298914Y401203D01*
X299500Y401126D01*
Y404756D01*
D02*
G37*
G36*
X644629Y404755D02*
X641000D01*
Y401125D01*
X641586Y401202D01*
X642598Y401621D01*
X643467Y402288D01*
X644133Y403157D01*
X644552Y404169D01*
X644629Y404755D01*
D02*
G37*
G36*
X640000D02*
X636371D01*
X636448Y404169D01*
X636867Y403157D01*
X637533Y402288D01*
X638402Y401621D01*
X639414Y401202D01*
X640000Y401125D01*
Y404755D01*
D02*
G37*
G36*
X524950Y400272D02*
X523000D01*
Y398322D01*
X523476Y398417D01*
X524302Y398969D01*
X524855Y399796D01*
X524950Y400272D01*
D02*
G37*
G36*
X522000D02*
X520050D01*
X520145Y399796D01*
X520698Y398969D01*
X521524Y398417D01*
X522000Y398322D01*
Y400272D01*
D02*
G37*
G36*
X606177Y400394D02*
X603768D01*
Y397000D01*
X606177D01*
Y400394D01*
D02*
G37*
G36*
X602768D02*
X600358D01*
Y397000D01*
X602768D01*
Y400394D01*
D02*
G37*
G36*
X282992Y408947D02*
X281619Y408812D01*
X280299Y408412D01*
X279082Y407761D01*
X278016Y406886D01*
X277140Y405820D01*
X276490Y404603D01*
X276090Y403282D01*
X275954Y401909D01*
X276090Y400536D01*
X276490Y399216D01*
X277140Y397999D01*
X278016Y396933D01*
X279082Y396058D01*
X280299Y395407D01*
X281619Y395007D01*
X282992Y394872D01*
X284365Y395007D01*
X285685Y395407D01*
X286902Y396058D01*
X287969Y396933D01*
X288844Y397999D01*
X289494Y399216D01*
X289895Y400536D01*
X290030Y401909D01*
X289895Y403282D01*
X289494Y404603D01*
X288844Y405820D01*
X287969Y406886D01*
X286902Y407761D01*
X285685Y408412D01*
X284365Y408812D01*
X282992Y408947D01*
D02*
G37*
G36*
X657508Y408946D02*
X656135Y408811D01*
X654815Y408410D01*
X653598Y407760D01*
X652531Y406885D01*
X651656Y405818D01*
X651006Y404602D01*
X650605Y403281D01*
X650470Y401908D01*
X650605Y400535D01*
X651006Y399215D01*
X651656Y397998D01*
X652531Y396932D01*
X653598Y396057D01*
X654815Y395406D01*
X656135Y395006D01*
X657508Y394870D01*
X658881Y395006D01*
X660201Y395406D01*
X661418Y396057D01*
X662484Y396932D01*
X663360Y397998D01*
X664010Y399215D01*
X664410Y400535D01*
X664546Y401908D01*
X664410Y403281D01*
X664010Y404602D01*
X663360Y405818D01*
X662484Y406885D01*
X661418Y407760D01*
X660201Y408410D01*
X658881Y408811D01*
X657508Y408946D01*
D02*
G37*
G36*
X620428Y401391D02*
X619551Y401276D01*
X618733Y400937D01*
X618031Y400398D01*
X617491Y399696D01*
X617153Y398878D01*
X617037Y398000D01*
X617153Y397122D01*
X617491Y396304D01*
X618031Y395602D01*
X618733Y395063D01*
X619551Y394724D01*
X620428Y394609D01*
X621306Y394724D01*
X622124Y395063D01*
X622826Y395602D01*
X623365Y396304D01*
X623704Y397122D01*
X623820Y398000D01*
X623704Y398878D01*
X623365Y399696D01*
X622826Y400398D01*
X622124Y400937D01*
X621306Y401276D01*
X620428Y401391D01*
D02*
G37*
G36*
X320428D02*
X319551Y401276D01*
X318733Y400937D01*
X318031Y400398D01*
X317492Y399696D01*
X317153Y398878D01*
X317037Y398000D01*
X317153Y397122D01*
X317492Y396304D01*
X318031Y395602D01*
X318733Y395063D01*
X319551Y394724D01*
X320428Y394609D01*
X321306Y394724D01*
X322124Y395063D01*
X322826Y395602D01*
X323365Y396304D01*
X323704Y397122D01*
X323820Y398000D01*
X323704Y398878D01*
X323365Y399696D01*
X322826Y400398D01*
X322124Y400937D01*
X321306Y401276D01*
X320428Y401391D01*
D02*
G37*
G36*
X641000Y397573D02*
Y393944D01*
X644629D01*
X644552Y394530D01*
X644133Y395541D01*
X643467Y396410D01*
X642598Y397077D01*
X641586Y397496D01*
X641000Y397573D01*
D02*
G37*
G36*
X640000Y397573D02*
X639414Y397496D01*
X638402Y397077D01*
X637533Y396410D01*
X636867Y395541D01*
X636448Y394530D01*
X636371Y393944D01*
X640000D01*
Y397573D01*
D02*
G37*
G36*
Y392944D02*
X636371D01*
X636448Y392358D01*
X636867Y391346D01*
X637533Y390477D01*
X638402Y389810D01*
X639414Y389391D01*
X640000Y389314D01*
Y392944D01*
D02*
G37*
G36*
X644629D02*
X641000D01*
Y389314D01*
X641586Y389391D01*
X642598Y389810D01*
X643467Y390477D01*
X644133Y391346D01*
X644552Y392358D01*
X644629Y392944D01*
D02*
G37*
G36*
X300000Y397640D02*
X298914Y397497D01*
X297902Y397078D01*
X297034Y396411D01*
X296367Y395543D01*
X295948Y394531D01*
X295805Y393445D01*
X295948Y392359D01*
X296367Y391347D01*
X297034Y390478D01*
X297902Y389812D01*
X298914Y389392D01*
X300000Y389249D01*
X301086Y389392D01*
X302098Y389812D01*
X302967Y390478D01*
X303633Y391347D01*
X304052Y392359D01*
X304195Y393445D01*
X304052Y394531D01*
X303633Y395543D01*
X302967Y396411D01*
X302098Y397078D01*
X301086Y397497D01*
X300000Y397640D01*
D02*
G37*
G36*
X606440Y390500D02*
X602560D01*
X602616Y390220D01*
X603058Y389558D01*
Y389442D01*
X602616Y388780D01*
X602560Y388500D01*
X606440D01*
X606384Y388780D01*
X605942Y389442D01*
Y389558D01*
X606384Y390220D01*
X606440Y390500D01*
D02*
G37*
G36*
X577728Y390256D02*
X575260D01*
Y387000D01*
X577728D01*
Y390256D01*
D02*
G37*
G36*
X574260D02*
X571791D01*
Y387000D01*
X574260D01*
Y390256D01*
D02*
G37*
G36*
X606440Y387500D02*
X602560D01*
X602616Y387220D01*
X603058Y386558D01*
Y386442D01*
X602616Y385780D01*
X602560Y385500D01*
X606440D01*
X606384Y385780D01*
X605942Y386442D01*
Y386558D01*
X606384Y387220D01*
X606440Y387500D01*
D02*
G37*
G36*
X620428Y391391D02*
X619551Y391276D01*
X618733Y390937D01*
X618031Y390398D01*
X617491Y389696D01*
X617153Y388878D01*
X617037Y388000D01*
X617153Y387122D01*
X617491Y386304D01*
X618031Y385602D01*
X618733Y385063D01*
X619551Y384724D01*
X620428Y384609D01*
X621306Y384724D01*
X622124Y385063D01*
X622826Y385602D01*
X623365Y386304D01*
X623704Y387122D01*
X623820Y388000D01*
X623704Y388878D01*
X623365Y389696D01*
X622826Y390398D01*
X622124Y390937D01*
X621306Y391276D01*
X620428Y391391D01*
D02*
G37*
G36*
X320428D02*
X319551Y391276D01*
X318733Y390937D01*
X318031Y390398D01*
X317492Y389696D01*
X317153Y388878D01*
X317037Y388000D01*
X317153Y387122D01*
X317492Y386304D01*
X318031Y385602D01*
X318733Y385063D01*
X319551Y384724D01*
X320428Y384609D01*
X321306Y384724D01*
X322124Y385063D01*
X322826Y385602D01*
X323365Y386304D01*
X323704Y387122D01*
X323820Y388000D01*
X323704Y388878D01*
X323365Y389696D01*
X322826Y390398D01*
X322124Y390937D01*
X321306Y391276D01*
X320428Y391391D01*
D02*
G37*
G36*
X577728Y386000D02*
X575260D01*
Y382744D01*
X577728D01*
Y386000D01*
D02*
G37*
G36*
X574260D02*
X571791D01*
Y382744D01*
X574260D01*
Y386000D01*
D02*
G37*
G36*
X606440Y384500D02*
X602560D01*
X602616Y384220D01*
X603058Y383558D01*
Y383442D01*
X602616Y382780D01*
X602560Y382500D01*
X606440D01*
X606384Y382780D01*
X605942Y383442D01*
Y383558D01*
X606384Y384220D01*
X606440Y384500D01*
D02*
G37*
G36*
Y381500D02*
X605000D01*
Y380060D01*
X605280Y380116D01*
X605942Y380558D01*
X606384Y381220D01*
X606440Y381500D01*
D02*
G37*
G36*
X604000D02*
X602560D01*
X602616Y381220D01*
X603058Y380558D01*
X603720Y380116D01*
X604000Y380060D01*
Y381500D01*
D02*
G37*
G36*
X600043Y380799D02*
X598953D01*
Y379364D01*
X600043D01*
Y380799D01*
D02*
G37*
G36*
X579256Y381209D02*
X576000D01*
Y378740D01*
X579256D01*
Y381209D01*
D02*
G37*
G36*
X575000D02*
X571744D01*
Y378740D01*
X575000D01*
Y381209D01*
D02*
G37*
G36*
X426500Y378228D02*
X423185D01*
Y375878D01*
X426500D01*
Y378228D01*
D02*
G37*
G36*
X579256Y377740D02*
X576000D01*
Y375272D01*
X579256D01*
Y377740D01*
D02*
G37*
G36*
X575000D02*
X571744D01*
Y375272D01*
X575000D01*
Y377740D01*
D02*
G37*
G36*
X620428Y381391D02*
X619551Y381276D01*
X618733Y380937D01*
X618031Y380398D01*
X617491Y379696D01*
X617153Y378878D01*
X617037Y378000D01*
X617153Y377122D01*
X617491Y376304D01*
X618031Y375602D01*
X618733Y375063D01*
X619551Y374724D01*
X620428Y374609D01*
X621306Y374724D01*
X622124Y375063D01*
X622826Y375602D01*
X623365Y376304D01*
X623704Y377122D01*
X623820Y378000D01*
X623704Y378878D01*
X623365Y379696D01*
X622826Y380398D01*
X622124Y380937D01*
X621306Y381276D01*
X620428Y381391D01*
D02*
G37*
G36*
X320428D02*
X319551Y381276D01*
X318733Y380937D01*
X318031Y380398D01*
X317492Y379696D01*
X317153Y378878D01*
X317037Y378000D01*
X317153Y377122D01*
X317492Y376304D01*
X318031Y375602D01*
X318733Y375063D01*
X319551Y374724D01*
X320428Y374609D01*
X321306Y374724D01*
X322124Y375063D01*
X322826Y375602D01*
X323365Y376304D01*
X323704Y377122D01*
X323820Y378000D01*
X323704Y378878D01*
X323365Y379696D01*
X322826Y380398D01*
X322124Y380937D01*
X321306Y381276D01*
X320428Y381391D01*
D02*
G37*
G36*
X633100Y383235D02*
X631669Y383094D01*
X630293Y382676D01*
X629025Y381998D01*
X627914Y381086D01*
X627002Y379975D01*
X626324Y378707D01*
X625906Y377331D01*
X625766Y375900D01*
X625906Y374469D01*
X626324Y373093D01*
X627002Y371825D01*
X627914Y370714D01*
X629025Y369802D01*
X630293Y369124D01*
X631669Y368706D01*
X633100Y368566D01*
X634531Y368706D01*
X635907Y369124D01*
X637175Y369802D01*
X638286Y370714D01*
X639198Y371825D01*
X639876Y373093D01*
X640294Y374469D01*
X640435Y375900D01*
X640294Y377331D01*
X639876Y378707D01*
X639198Y379975D01*
X638286Y381086D01*
X637175Y381998D01*
X635907Y382676D01*
X634531Y383094D01*
X633100Y383235D01*
D02*
G37*
G36*
X305700Y381934D02*
X304269Y381794D01*
X302893Y381376D01*
X301625Y380698D01*
X300514Y379786D01*
X299602Y378675D01*
X298924Y377407D01*
X298506Y376031D01*
X298365Y374600D01*
X298506Y373169D01*
X298924Y371793D01*
X299602Y370525D01*
X300514Y369414D01*
X301625Y368502D01*
X302893Y367824D01*
X304269Y367406D01*
X305700Y367266D01*
X307131Y367406D01*
X308507Y367824D01*
X309775Y368502D01*
X310886Y369414D01*
X311798Y370525D01*
X312476Y371793D01*
X312894Y373169D01*
X313035Y374600D01*
X312894Y376031D01*
X312476Y377407D01*
X311798Y378675D01*
X310886Y379786D01*
X309775Y380698D01*
X308507Y381376D01*
X307131Y381794D01*
X305700Y381934D01*
D02*
G37*
G36*
X620428Y371391D02*
X619551Y371276D01*
X618733Y370937D01*
X618031Y370398D01*
X617491Y369696D01*
X617153Y368878D01*
X617037Y368000D01*
X617153Y367122D01*
X617491Y366304D01*
X618031Y365602D01*
X618733Y365063D01*
X619551Y364724D01*
X620428Y364609D01*
X621306Y364724D01*
X622124Y365063D01*
X622826Y365602D01*
X623365Y366304D01*
X623704Y367122D01*
X623820Y368000D01*
X623704Y368878D01*
X623365Y369696D01*
X622826Y370398D01*
X622124Y370937D01*
X621306Y371276D01*
X620428Y371391D01*
D02*
G37*
G36*
X301508Y360366D02*
Y356906D01*
X304969D01*
X304897Y357448D01*
X304495Y358419D01*
X303855Y359253D01*
X303021Y359893D01*
X302050Y360295D01*
X301508Y360366D01*
D02*
G37*
G36*
X300508D02*
X299966Y360295D01*
X298995Y359893D01*
X298161Y359253D01*
X297521Y358419D01*
X297118Y357448D01*
X297047Y356906D01*
X300508D01*
Y360366D01*
D02*
G37*
G36*
X620428Y361391D02*
X619551Y361276D01*
X618733Y360937D01*
X618031Y360398D01*
X617491Y359696D01*
X617153Y358878D01*
X617037Y358000D01*
X617153Y357122D01*
X617491Y356304D01*
X618031Y355602D01*
X618733Y355063D01*
X619551Y354724D01*
X620428Y354609D01*
X621306Y354724D01*
X622124Y355063D01*
X622826Y355602D01*
X623365Y356304D01*
X623704Y357122D01*
X623820Y358000D01*
X623704Y358878D01*
X623365Y359696D01*
X622826Y360398D01*
X622124Y360937D01*
X621306Y361276D01*
X620428Y361391D01*
D02*
G37*
G36*
X453122Y357363D02*
X450772D01*
Y354048D01*
X453122D01*
Y357363D01*
D02*
G37*
G36*
X449772D02*
X447421D01*
Y354048D01*
X449772D01*
Y357363D01*
D02*
G37*
G36*
X640500Y362268D02*
X639414Y362125D01*
X638402Y361706D01*
X637533Y361039D01*
X636867Y360170D01*
X636448Y359158D01*
X636305Y358073D01*
X636448Y356987D01*
X636867Y355975D01*
X637533Y355106D01*
X638402Y354439D01*
X639414Y354020D01*
X640500Y353877D01*
X641586Y354020D01*
X642598Y354439D01*
X643467Y355106D01*
X644133Y355975D01*
X644552Y356987D01*
X644695Y358073D01*
X644552Y359158D01*
X644133Y360170D01*
X643467Y361039D01*
X642598Y361706D01*
X641586Y362125D01*
X640500Y362268D01*
D02*
G37*
G36*
X348403Y357000D02*
X345732D01*
Y352990D01*
X347078D01*
X347585Y353091D01*
X348015Y353379D01*
X348303Y353809D01*
X348403Y354316D01*
Y357000D01*
D02*
G37*
G36*
X344732D02*
X342061D01*
Y354316D01*
X342162Y353809D01*
X342449Y353379D01*
X342880Y353091D01*
X343387Y352990D01*
X344732D01*
Y357000D01*
D02*
G37*
G36*
X304969Y355906D02*
X301508D01*
Y352445D01*
X302050Y352516D01*
X303021Y352918D01*
X303855Y353558D01*
X304495Y354392D01*
X304897Y355363D01*
X304969Y355906D01*
D02*
G37*
G36*
X300508D02*
X297047D01*
X297118Y355363D01*
X297521Y354392D01*
X298161Y353558D01*
X298995Y352918D01*
X299966Y352516D01*
X300508Y352445D01*
Y355906D01*
D02*
G37*
G36*
X526728Y351256D02*
X520791D01*
Y349799D01*
X517460D01*
Y350854D01*
X510932D01*
Y343146D01*
X517460D01*
Y344701D01*
X520791D01*
Y343744D01*
X526728D01*
Y351256D01*
D02*
G37*
G36*
X534209D02*
X531740D01*
Y348000D01*
X534209D01*
Y351256D01*
D02*
G37*
G36*
X530740D02*
X528272D01*
Y348000D01*
X530740D01*
Y351256D01*
D02*
G37*
G36*
X479500Y349622D02*
X476185D01*
Y347272D01*
X479500D01*
Y349622D01*
D02*
G37*
G36*
X641000Y350391D02*
Y346762D01*
X644629D01*
X644552Y347347D01*
X644133Y348359D01*
X643467Y349228D01*
X642598Y349895D01*
X641586Y350314D01*
X641000Y350391D01*
D02*
G37*
G36*
X640000Y350391D02*
X639414Y350314D01*
X638402Y349895D01*
X637533Y349228D01*
X636867Y348359D01*
X636448Y347347D01*
X636371Y346762D01*
X640000D01*
Y350391D01*
D02*
G37*
G36*
X453122Y353048D02*
X450272D01*
X447421D01*
Y349815D01*
X447421Y349733D01*
Y349315D01*
X447421Y349233D01*
Y346000D01*
X450272D01*
X453122D01*
Y349233D01*
X453122Y349315D01*
Y349733D01*
X453122Y349815D01*
Y353048D01*
D02*
G37*
G36*
X305000Y348587D02*
X301508D01*
Y345094D01*
X305000D01*
Y348587D01*
D02*
G37*
G36*
X300508D02*
X297016D01*
Y345094D01*
X300508D01*
Y348587D01*
D02*
G37*
G36*
X569772Y348000D02*
X567421D01*
Y344685D01*
X569772D01*
Y348000D01*
D02*
G37*
G36*
X479500Y346272D02*
X476185D01*
Y343921D01*
X479500D01*
Y346272D01*
D02*
G37*
G36*
X534209Y347000D02*
X531740D01*
Y343744D01*
X534209D01*
Y347000D01*
D02*
G37*
G36*
X530740D02*
X528272D01*
Y343744D01*
X530740D01*
Y347000D01*
D02*
G37*
G36*
X284000Y357439D02*
X282646Y357306D01*
X281345Y356911D01*
X280145Y356270D01*
X279093Y355407D01*
X278231Y354355D01*
X277589Y353155D01*
X277194Y351854D01*
X277061Y350500D01*
X277194Y349146D01*
X277589Y347845D01*
X278231Y346645D01*
X279093Y345593D01*
X280145Y344730D01*
X281345Y344089D01*
X282646Y343694D01*
X284000Y343561D01*
X285354Y343694D01*
X286655Y344089D01*
X287855Y344730D01*
X288907Y345593D01*
X289770Y346645D01*
X290411Y347845D01*
X290806Y349146D01*
X290939Y350500D01*
X290806Y351854D01*
X290411Y353155D01*
X289770Y354355D01*
X288907Y355407D01*
X287855Y356270D01*
X286655Y356911D01*
X285354Y357306D01*
X284000Y357439D01*
D02*
G37*
G36*
X489914Y346500D02*
X487564D01*
Y343185D01*
X489914D01*
Y346500D01*
D02*
G37*
G36*
X564500Y344440D02*
Y343000D01*
X565940D01*
X565884Y343280D01*
X565442Y343942D01*
X564780Y344384D01*
X564500Y344440D01*
D02*
G37*
G36*
X563500D02*
X563220Y344384D01*
X562558Y343942D01*
X562116Y343280D01*
X562060Y343000D01*
X563500D01*
Y344440D01*
D02*
G37*
G36*
X357899Y344514D02*
X354938D01*
Y342833D01*
X357899D01*
Y344514D01*
D02*
G37*
G36*
X353938D02*
X350977D01*
Y342833D01*
X353938D01*
Y344514D01*
D02*
G37*
G36*
X657508Y356646D02*
X656135Y356511D01*
X654815Y356110D01*
X653598Y355460D01*
X652531Y354585D01*
X651656Y353518D01*
X651006Y352301D01*
X650605Y350981D01*
X650470Y349608D01*
X650605Y348235D01*
X651006Y346915D01*
X651656Y345698D01*
X652531Y344632D01*
X653598Y343756D01*
X654815Y343106D01*
X656135Y342705D01*
X657508Y342570D01*
X658881Y342705D01*
X660201Y343106D01*
X661418Y343756D01*
X662484Y344632D01*
X663360Y345698D01*
X664010Y346915D01*
X664410Y348235D01*
X664546Y349608D01*
X664410Y350981D01*
X664010Y352301D01*
X663360Y353518D01*
X662484Y354585D01*
X661418Y355460D01*
X660201Y356110D01*
X658881Y356511D01*
X657508Y356646D01*
D02*
G37*
G36*
X644629Y345762D02*
X641000D01*
Y342132D01*
X641586Y342209D01*
X642598Y342628D01*
X643467Y343295D01*
X644133Y344164D01*
X644552Y345176D01*
X644629Y345762D01*
D02*
G37*
G36*
X640000D02*
X636371D01*
X636448Y345176D01*
X636867Y344164D01*
X637533Y343295D01*
X638402Y342628D01*
X639414Y342209D01*
X640000Y342132D01*
Y345762D01*
D02*
G37*
G36*
X453122Y345000D02*
X450772D01*
Y341685D01*
X453122D01*
Y345000D01*
D02*
G37*
G36*
X449772D02*
X447421D01*
Y341685D01*
X449772D01*
Y345000D01*
D02*
G37*
G36*
X305000Y344094D02*
X301508D01*
Y340602D01*
X305000D01*
Y344094D01*
D02*
G37*
G36*
X300508D02*
X297016D01*
Y340602D01*
X300508D01*
Y344094D01*
D02*
G37*
G36*
X357899Y341833D02*
X354938D01*
Y340152D01*
X357899D01*
Y341833D01*
D02*
G37*
G36*
X353938D02*
X350977D01*
Y340152D01*
X353938D01*
Y341833D01*
D02*
G37*
G36*
X340059Y340840D02*
X337000D01*
Y336796D01*
X340059D01*
Y340840D01*
D02*
G37*
G36*
X336000D02*
X332941D01*
Y336796D01*
X336000D01*
Y340840D01*
D02*
G37*
G36*
X340059Y335796D02*
X337000D01*
Y331753D01*
X340059D01*
Y335796D01*
D02*
G37*
G36*
X336000D02*
X332941D01*
Y331753D01*
X336000D01*
Y335796D01*
D02*
G37*
G36*
X640500Y338646D02*
X639414Y338503D01*
X638402Y338084D01*
X637533Y337417D01*
X636867Y336548D01*
X636448Y335536D01*
X636305Y334451D01*
X636448Y333365D01*
X636867Y332353D01*
X637533Y331484D01*
X638402Y330817D01*
X639414Y330398D01*
X640500Y330255D01*
X641586Y330398D01*
X642598Y330817D01*
X643467Y331484D01*
X644133Y332353D01*
X644552Y333365D01*
X644695Y334451D01*
X644552Y335536D01*
X644133Y336548D01*
X643467Y337417D01*
X642598Y338084D01*
X641586Y338503D01*
X640500Y338646D01*
D02*
G37*
G36*
X424547Y331500D02*
X419323D01*
Y329504D01*
X424547D01*
Y331500D01*
D02*
G37*
G36*
X497709Y332000D02*
X495240D01*
Y328744D01*
X497709D01*
Y332000D01*
D02*
G37*
G36*
X494240D02*
X491772D01*
Y328744D01*
X494240D01*
Y332000D01*
D02*
G37*
G36*
X349631Y340754D02*
X342710D01*
Y336392D01*
X344543D01*
Y334392D01*
X344698Y333611D01*
X345140Y332950D01*
X346791Y331298D01*
Y326670D01*
X352728D01*
Y334182D01*
X349675D01*
X348621Y335236D01*
Y336392D01*
X349631D01*
Y340754D01*
D02*
G37*
G36*
X490228Y327256D02*
X484291D01*
Y326168D01*
X479823D01*
Y326607D01*
X474417D01*
X474083Y326607D01*
X473583Y326607D01*
X468177D01*
Y320867D01*
X473583D01*
X473917Y320867D01*
X474417Y320867D01*
X479823D01*
Y321070D01*
X484291D01*
Y319744D01*
X490228D01*
Y327256D01*
D02*
G37*
G36*
X497709D02*
X495240D01*
Y324000D01*
X497709D01*
Y327256D01*
D02*
G37*
G36*
X494240D02*
X491772D01*
Y324000D01*
X494240D01*
Y327256D01*
D02*
G37*
G36*
X641000Y326769D02*
Y323140D01*
X644629D01*
X644552Y323725D01*
X644133Y324737D01*
X643467Y325606D01*
X642598Y326273D01*
X641586Y326692D01*
X641000Y326769D01*
D02*
G37*
G36*
X640000D02*
X639414Y326692D01*
X638402Y326273D01*
X637533Y325606D01*
X636867Y324737D01*
X636448Y323725D01*
X636371Y323140D01*
X640000D01*
Y326769D01*
D02*
G37*
G36*
X497709Y323000D02*
X495240D01*
Y319744D01*
X497709D01*
Y323000D01*
D02*
G37*
G36*
X494240D02*
X491772D01*
Y319744D01*
X494240D01*
Y323000D01*
D02*
G37*
G36*
X644629Y322140D02*
X641000D01*
Y318510D01*
X641586Y318587D01*
X642598Y319006D01*
X643467Y319673D01*
X644133Y320542D01*
X644552Y321554D01*
X644629Y322140D01*
D02*
G37*
G36*
X640000D02*
X636371D01*
X636448Y321554D01*
X636867Y320542D01*
X637533Y319673D01*
X638402Y319006D01*
X639414Y318587D01*
X640000Y318510D01*
Y322140D01*
D02*
G37*
G36*
X302900Y331835D02*
X301469Y331694D01*
X300093Y331276D01*
X298825Y330598D01*
X297714Y329686D01*
X296802Y328575D01*
X296124Y327307D01*
X295706Y325931D01*
X295566Y324500D01*
X295706Y323069D01*
X296124Y321693D01*
X296802Y320425D01*
X297714Y319314D01*
X298825Y318402D01*
X300093Y317724D01*
X301469Y317306D01*
X302900Y317165D01*
X304331Y317306D01*
X305707Y317724D01*
X306975Y318402D01*
X308086Y319314D01*
X308998Y320425D01*
X309676Y321693D01*
X310094Y323069D01*
X310234Y324500D01*
X310094Y325931D01*
X309676Y327307D01*
X308998Y328575D01*
X308086Y329686D01*
X306975Y330598D01*
X305707Y331276D01*
X304331Y331694D01*
X302900Y331835D01*
D02*
G37*
G36*
X360613Y325510D02*
X356922D01*
X356415Y325409D01*
X355985Y325121D01*
X355697Y324691D01*
X355597Y324184D01*
Y317816D01*
X355697Y317309D01*
X355985Y316879D01*
X356415Y316591D01*
X356922Y316490D01*
X360613D01*
X361120Y316591D01*
X361550Y316879D01*
X361838Y317309D01*
X361939Y317816D01*
Y324184D01*
X361838Y324691D01*
X361550Y325121D01*
X361120Y325409D01*
X360613Y325510D01*
D02*
G37*
G36*
X295398Y319000D02*
X291905D01*
Y315508D01*
X295398D01*
Y319000D01*
D02*
G37*
G36*
X290905D02*
X287413D01*
Y315508D01*
X290905D01*
Y319000D01*
D02*
G37*
G36*
X590000Y319539D02*
X589220Y319384D01*
X588558Y318942D01*
X588116Y318280D01*
X587961Y317500D01*
X588116Y316720D01*
X588558Y316058D01*
X589220Y315616D01*
X590000Y315461D01*
X590780Y315616D01*
X591117Y315841D01*
X594717D01*
Y315059D01*
X601441D01*
Y319421D01*
X594717D01*
Y318899D01*
X591470D01*
X591442Y318942D01*
X590780Y319384D01*
X590000Y319539D01*
D02*
G37*
G36*
X620428Y321391D02*
X619551Y321276D01*
X618733Y320937D01*
X618031Y320398D01*
X617491Y319696D01*
X617153Y318878D01*
X617037Y318000D01*
X617153Y317122D01*
X617491Y316304D01*
X618031Y315602D01*
X618733Y315063D01*
X619551Y314724D01*
X620428Y314609D01*
X621306Y314724D01*
X622124Y315063D01*
X622826Y315602D01*
X623365Y316304D01*
X623704Y317122D01*
X623820Y318000D01*
X623704Y318878D01*
X623365Y319696D01*
X622826Y320398D01*
X622124Y320937D01*
X621306Y321276D01*
X620428Y321391D01*
D02*
G37*
G36*
X320428D02*
X319551Y321276D01*
X318733Y320937D01*
X318031Y320398D01*
X317492Y319696D01*
X317153Y318878D01*
X317037Y318000D01*
X317153Y317122D01*
X317492Y316304D01*
X318031Y315602D01*
X318733Y315063D01*
X319551Y314724D01*
X320428Y314609D01*
X321306Y314724D01*
X322124Y315063D01*
X322826Y315602D01*
X323365Y316304D01*
X323704Y317122D01*
X323820Y318000D01*
X323704Y318878D01*
X323365Y319696D01*
X322826Y320398D01*
X322124Y320937D01*
X321306Y321276D01*
X320428Y321391D01*
D02*
G37*
G36*
X497709Y316256D02*
X495240D01*
Y313000D01*
X497709D01*
Y316256D01*
D02*
G37*
G36*
X494240D02*
X491772D01*
Y313000D01*
X494240D01*
Y316256D01*
D02*
G37*
G36*
X601441Y311941D02*
X598579D01*
Y310260D01*
X601441D01*
Y311941D01*
D02*
G37*
G36*
X597579D02*
X594717D01*
Y310260D01*
X597579D01*
Y311941D01*
D02*
G37*
G36*
X592000Y311440D02*
Y310000D01*
X593440D01*
X593384Y310280D01*
X592942Y310942D01*
X592280Y311384D01*
X592000Y311440D01*
D02*
G37*
G36*
X591000D02*
X590720Y311384D01*
X590058Y310942D01*
X589616Y310280D01*
X589560Y310000D01*
X591000D01*
Y311440D01*
D02*
G37*
G36*
X497709Y312000D02*
X495240D01*
Y308744D01*
X497709D01*
Y312000D01*
D02*
G37*
G36*
X494240D02*
X491772D01*
Y308744D01*
X494240D01*
Y312000D01*
D02*
G37*
G36*
X480960Y316354D02*
X474432D01*
Y308646D01*
X480960D01*
Y309951D01*
X484291D01*
Y308744D01*
X490228D01*
Y316256D01*
X484291D01*
Y315049D01*
X480960D01*
Y316354D01*
D02*
G37*
G36*
X473873D02*
X467346D01*
Y308646D01*
X473873D01*
Y316354D01*
D02*
G37*
G36*
X601441Y309260D02*
X598579D01*
Y307579D01*
X601441D01*
Y309260D01*
D02*
G37*
G36*
X597579D02*
X594717D01*
Y307579D01*
X597579D01*
Y309260D01*
D02*
G37*
G36*
X640500Y315024D02*
X639414Y314881D01*
X638402Y314462D01*
X637533Y313795D01*
X636867Y312926D01*
X636448Y311914D01*
X636305Y310829D01*
X636448Y309743D01*
X636867Y308731D01*
X637533Y307862D01*
X638402Y307195D01*
X639414Y306776D01*
X640500Y306633D01*
X641586Y306776D01*
X642598Y307195D01*
X643467Y307862D01*
X644133Y308731D01*
X644552Y309743D01*
X644695Y310829D01*
X644552Y311914D01*
X644133Y312926D01*
X643467Y313795D01*
X642598Y314462D01*
X641586Y314881D01*
X640500Y315024D01*
D02*
G37*
G36*
X593440Y309000D02*
X589560D01*
X589616Y308720D01*
X590058Y308058D01*
X590145Y308000D01*
Y307500D01*
X590058Y307442D01*
X589616Y306780D01*
X589560Y306500D01*
X593440D01*
X593384Y306780D01*
X592942Y307442D01*
X592855Y307500D01*
Y308000D01*
X592942Y308058D01*
X593384Y308720D01*
X593440Y309000D01*
D02*
G37*
G36*
X620428Y311391D02*
X619551Y311276D01*
X618733Y310937D01*
X618031Y310398D01*
X617491Y309696D01*
X617153Y308878D01*
X617037Y308000D01*
X617153Y307122D01*
X617491Y306304D01*
X618031Y305602D01*
X618733Y305063D01*
X619551Y304724D01*
X620428Y304609D01*
X621306Y304724D01*
X622124Y305063D01*
X622826Y305602D01*
X623365Y306304D01*
X623704Y307122D01*
X623820Y308000D01*
X623704Y308878D01*
X623365Y309696D01*
X622826Y310398D01*
X622124Y310937D01*
X621306Y311276D01*
X620428Y311391D01*
D02*
G37*
G36*
X320428D02*
X319551Y311276D01*
X318733Y310937D01*
X318031Y310398D01*
X317492Y309696D01*
X317153Y308878D01*
X317037Y308000D01*
X317153Y307122D01*
X317492Y306304D01*
X318031Y305602D01*
X318733Y305063D01*
X319551Y304724D01*
X320428Y304609D01*
X321306Y304724D01*
X322124Y305063D01*
X322826Y305602D01*
X323365Y306304D01*
X323704Y307122D01*
X323820Y308000D01*
X323704Y308878D01*
X323365Y309696D01*
X322826Y310398D01*
X322124Y310937D01*
X321306Y311276D01*
X320428Y311391D01*
D02*
G37*
G36*
X341108Y308539D02*
X336179D01*
Y304594D01*
X341108D01*
Y308539D01*
D02*
G37*
G36*
X335179D02*
X330250D01*
Y304594D01*
X335179D01*
Y308539D01*
D02*
G37*
G36*
X598000Y304440D02*
X597720Y304384D01*
X597058Y303942D01*
X597000Y303855D01*
X596500D01*
X596442Y303942D01*
X595780Y304384D01*
X595500Y304440D01*
Y302500D01*
Y300560D01*
X595780Y300616D01*
X596442Y301058D01*
X596500Y301145D01*
X597000D01*
X597058Y301058D01*
X597720Y300616D01*
X598000Y300560D01*
Y302500D01*
Y304440D01*
D02*
G37*
G36*
X599000D02*
Y303000D01*
X600440D01*
X600384Y303280D01*
X599942Y303942D01*
X599280Y304384D01*
X599000Y304440D01*
D02*
G37*
G36*
X600440Y302000D02*
X599000D01*
Y300560D01*
X599280Y300616D01*
X599942Y301058D01*
X600384Y301720D01*
X600440Y302000D01*
D02*
G37*
G36*
X593440Y305500D02*
X589560D01*
X589616Y305220D01*
X590058Y304558D01*
X590145Y304500D01*
Y304000D01*
X590058Y303942D01*
X589616Y303280D01*
X589560Y303000D01*
X591500D01*
Y302500D01*
X592000D01*
Y300560D01*
X592280Y300616D01*
X592942Y301058D01*
X593000Y301145D01*
X593500D01*
X593558Y301058D01*
X594220Y300616D01*
X594500Y300560D01*
Y302500D01*
Y304440D01*
X594220Y304384D01*
X593558Y303942D01*
X593500Y303855D01*
X593000D01*
X592942Y303942D01*
X592855Y304000D01*
Y304500D01*
X592942Y304558D01*
X593384Y305220D01*
X593440Y305500D01*
D02*
G37*
G36*
X591000Y302000D02*
X589560D01*
X589616Y301720D01*
X590058Y301058D01*
X590720Y300616D01*
X591000Y300560D01*
Y302000D01*
D02*
G37*
G36*
X335179Y303594D02*
X330250D01*
Y299650D01*
X335179D01*
Y303594D01*
D02*
G37*
G36*
X641000Y303147D02*
Y299517D01*
X644629D01*
X644552Y300103D01*
X644133Y301115D01*
X643467Y301984D01*
X642598Y302651D01*
X641586Y303070D01*
X641000Y303147D01*
D02*
G37*
G36*
X640000Y303147D02*
X639414Y303070D01*
X638402Y302651D01*
X637533Y301984D01*
X636867Y301115D01*
X636448Y300103D01*
X636371Y299517D01*
X640000D01*
Y303147D01*
D02*
G37*
G36*
X623791Y301362D02*
X620928D01*
Y298500D01*
X623791D01*
Y301362D01*
D02*
G37*
G36*
X320928Y301325D02*
Y298500D01*
X323754D01*
X323704Y298878D01*
X323365Y299696D01*
X322826Y300398D01*
X322124Y300937D01*
X321306Y301276D01*
X320928Y301325D01*
D02*
G37*
G36*
X319928D02*
X319551Y301276D01*
X318733Y300937D01*
X318031Y300398D01*
X317492Y299696D01*
X317153Y298878D01*
X317103Y298500D01*
X319928D01*
Y301325D01*
D02*
G37*
G36*
X619928Y301362D02*
X617066D01*
Y298500D01*
X619928D01*
Y301362D01*
D02*
G37*
G36*
X640000Y298517D02*
X636371D01*
X636448Y297932D01*
X636867Y296920D01*
X637533Y296051D01*
X638402Y295384D01*
X639414Y294965D01*
X640000Y294888D01*
Y298517D01*
D02*
G37*
G36*
X644629D02*
X641000D01*
Y294888D01*
X641586Y294965D01*
X642598Y295384D01*
X643467Y296051D01*
X644133Y296920D01*
X644552Y297932D01*
X644629Y298517D01*
D02*
G37*
G36*
X323754Y297500D02*
X320928D01*
Y294675D01*
X321306Y294724D01*
X322124Y295063D01*
X322826Y295602D01*
X323365Y296304D01*
X323704Y297122D01*
X323754Y297500D01*
D02*
G37*
G36*
X319928D02*
X317103D01*
X317153Y297122D01*
X317492Y296304D01*
X318031Y295602D01*
X318733Y295063D01*
X319551Y294724D01*
X319928Y294675D01*
Y297500D01*
D02*
G37*
G36*
X623791D02*
X620928D01*
Y294638D01*
X623791D01*
Y297500D01*
D02*
G37*
G36*
X619928D02*
X617066D01*
Y294638D01*
X619928D01*
Y297500D01*
D02*
G37*
G36*
X285500Y304939D02*
X284146Y304806D01*
X282845Y304411D01*
X281645Y303769D01*
X280593Y302907D01*
X279731Y301855D01*
X279089Y300655D01*
X278694Y299354D01*
X278561Y298000D01*
X278694Y296646D01*
X279089Y295345D01*
X279731Y294145D01*
X280593Y293093D01*
X281645Y292231D01*
X282845Y291589D01*
X284146Y291194D01*
X285500Y291061D01*
X286854Y291194D01*
X288155Y291589D01*
X289355Y292231D01*
X290407Y293093D01*
X291269Y294145D01*
X291911Y295345D01*
X292306Y296646D01*
X292439Y298000D01*
X292306Y299354D01*
X291911Y300655D01*
X291269Y301855D01*
X290407Y302907D01*
X289355Y303769D01*
X288155Y304411D01*
X286854Y304806D01*
X285500Y304939D01*
D02*
G37*
G36*
X607776Y316049D02*
X607331D01*
X606355Y315855D01*
X606095Y315681D01*
X604559D01*
Y311319D01*
X606095D01*
X606355Y311145D01*
X606568Y311103D01*
X606719Y310951D01*
Y292927D01*
X606691Y292908D01*
X606428Y292514D01*
X606336Y292049D01*
Y284951D01*
X606428Y284486D01*
X606691Y284092D01*
X607085Y283829D01*
X607550Y283736D01*
X610987D01*
X611452Y283829D01*
X611846Y284092D01*
X612109Y284486D01*
X612201Y284951D01*
Y292049D01*
X612109Y292514D01*
X611846Y292908D01*
X611818Y292927D01*
Y312007D01*
X611623Y312983D01*
X611283Y313491D01*
Y315681D01*
X609011D01*
X608751Y315855D01*
X607776Y316049D01*
D02*
G37*
G36*
X604222Y293267D02*
X596978D01*
X596442Y293160D01*
X595987Y292857D01*
X595684Y292402D01*
X595577Y291866D01*
Y285134D01*
X595684Y284598D01*
X595987Y284143D01*
X596442Y283840D01*
X596978Y283733D01*
X604222D01*
X604758Y283840D01*
X605213Y284143D01*
X605516Y284598D01*
X605623Y285134D01*
Y291866D01*
X605516Y292402D01*
X605213Y292857D01*
X604758Y293160D01*
X604222Y293267D01*
D02*
G37*
G36*
X640500Y291402D02*
X639414Y291259D01*
X638402Y290840D01*
X637533Y290173D01*
X636867Y289304D01*
X636448Y288292D01*
X636305Y287207D01*
X636448Y286121D01*
X636867Y285109D01*
X637533Y284240D01*
X638402Y283573D01*
X639414Y283154D01*
X640500Y283011D01*
X641586Y283154D01*
X642598Y283573D01*
X643467Y284240D01*
X644133Y285109D01*
X644552Y286121D01*
X644695Y287207D01*
X644552Y288292D01*
X644133Y289304D01*
X643467Y290173D01*
X642598Y290840D01*
X641586Y291259D01*
X640500Y291402D01*
D02*
G37*
G36*
X641000Y279525D02*
Y275896D01*
X644629D01*
X644552Y276481D01*
X644133Y277493D01*
X643467Y278362D01*
X642598Y279029D01*
X641586Y279448D01*
X641000Y279525D01*
D02*
G37*
G36*
X640000D02*
X639414Y279448D01*
X638402Y279029D01*
X637533Y278362D01*
X636867Y277493D01*
X636448Y276481D01*
X636371Y275896D01*
X640000D01*
Y279525D01*
D02*
G37*
G36*
X644629Y274896D02*
X641000D01*
Y271266D01*
X641586Y271343D01*
X642598Y271762D01*
X643467Y272429D01*
X644133Y273298D01*
X644552Y274310D01*
X644629Y274896D01*
D02*
G37*
G36*
X640000D02*
X636371D01*
X636448Y274310D01*
X636867Y273298D01*
X637533Y272429D01*
X638402Y271762D01*
X639414Y271343D01*
X640000Y271266D01*
Y274896D01*
D02*
G37*
G36*
X657508Y279087D02*
X656135Y278952D01*
X654815Y278551D01*
X653598Y277901D01*
X652531Y277026D01*
X651656Y275959D01*
X651006Y274742D01*
X650605Y273422D01*
X650470Y272049D01*
X650605Y270676D01*
X651006Y269356D01*
X651656Y268139D01*
X652531Y267073D01*
X653598Y266197D01*
X654815Y265547D01*
X656135Y265146D01*
X657508Y265011D01*
X658881Y265146D01*
X660201Y265547D01*
X661418Y266197D01*
X662484Y267073D01*
X663360Y268139D01*
X664010Y269356D01*
X664410Y270676D01*
X664546Y272049D01*
X664410Y273422D01*
X664010Y274742D01*
X663360Y275959D01*
X662484Y277026D01*
X661418Y277901D01*
X660201Y278551D01*
X658881Y278952D01*
X657508Y279087D01*
D02*
G37*
G36*
X617500Y276835D02*
X616069Y276694D01*
X614693Y276276D01*
X613425Y275598D01*
X612314Y274686D01*
X611402Y273575D01*
X610724Y272307D01*
X610306Y270931D01*
X610166Y269500D01*
X610306Y268069D01*
X610724Y266693D01*
X611402Y265425D01*
X612314Y264314D01*
X613425Y263402D01*
X614693Y262724D01*
X616069Y262306D01*
X617500Y262165D01*
X618931Y262306D01*
X620307Y262724D01*
X621575Y263402D01*
X622686Y264314D01*
X623598Y265425D01*
X624276Y266693D01*
X624694Y268069D01*
X624834Y269500D01*
X624694Y270931D01*
X624276Y272307D01*
X623598Y273575D01*
X622686Y274686D01*
X621575Y275598D01*
X620307Y276276D01*
X618931Y276694D01*
X617500Y276835D01*
D02*
G37*
G36*
X640500Y267780D02*
X639414Y267637D01*
X638402Y267218D01*
X637533Y266551D01*
X636867Y265682D01*
X636448Y264670D01*
X636305Y263584D01*
X636448Y262499D01*
X636867Y261487D01*
X637533Y260618D01*
X638402Y259951D01*
X639414Y259532D01*
X640500Y259389D01*
X641586Y259532D01*
X642598Y259951D01*
X643467Y260618D01*
X644133Y261487D01*
X644552Y262499D01*
X644695Y263584D01*
X644552Y264670D01*
X644133Y265682D01*
X643467Y266551D01*
X642598Y267218D01*
X641586Y267637D01*
X640500Y267780D01*
D02*
G37*
G36*
X630492Y241492D02*
X627000D01*
Y238000D01*
X630492D01*
Y241492D01*
D02*
G37*
G36*
X626000D02*
X622508D01*
Y238000D01*
X626000D01*
Y241492D01*
D02*
G37*
G36*
X615189Y241461D02*
Y238000D01*
X618650D01*
X618578Y238542D01*
X618176Y239513D01*
X617536Y240347D01*
X616702Y240987D01*
X615731Y241389D01*
X615189Y241461D01*
D02*
G37*
G36*
X614189D02*
X613647Y241389D01*
X612676Y240987D01*
X611842Y240347D01*
X611202Y239513D01*
X610800Y238542D01*
X610728Y238000D01*
X614189D01*
Y241461D01*
D02*
G37*
G36*
X618650Y237000D02*
X615189D01*
Y233539D01*
X615731Y233611D01*
X616702Y234013D01*
X617536Y234653D01*
X618176Y235487D01*
X618578Y236458D01*
X618650Y237000D01*
D02*
G37*
G36*
X614189D02*
X610728D01*
X610800Y236458D01*
X611202Y235487D01*
X611842Y234653D01*
X612676Y234013D01*
X613647Y233611D01*
X614189Y233539D01*
Y237000D01*
D02*
G37*
G36*
X630492D02*
X627000D01*
Y233508D01*
X630492D01*
Y237000D01*
D02*
G37*
G36*
X626000D02*
X622508D01*
Y233508D01*
X626000D01*
Y237000D01*
D02*
G37*
G36*
X620595Y227431D02*
X619241Y227298D01*
X617939Y226903D01*
X616739Y226262D01*
X615688Y225399D01*
X614825Y224347D01*
X614184Y223148D01*
X613789Y221846D01*
X613656Y220492D01*
X613789Y219138D01*
X614184Y217837D01*
X614825Y216637D01*
X615688Y215586D01*
X616739Y214723D01*
X617939Y214081D01*
X619241Y213686D01*
X620595Y213553D01*
X621948Y213686D01*
X623250Y214081D01*
X624449Y214723D01*
X625501Y215586D01*
X626364Y216637D01*
X627005Y217837D01*
X627400Y219138D01*
X627533Y220492D01*
X627400Y221846D01*
X627005Y223148D01*
X626364Y224347D01*
X625501Y225399D01*
X624449Y226262D01*
X623250Y226903D01*
X621948Y227298D01*
X620595Y227431D01*
D02*
G37*
%LPD*%
G36*
X369086Y331875D02*
X362590D01*
Y336206D01*
X364853D01*
Y334237D01*
X366822D01*
Y336206D01*
X369086D01*
Y331875D01*
D02*
G37*
G36*
X385957Y304562D02*
X380194Y298799D01*
X379732Y298990D01*
Y305331D01*
X379771Y305528D01*
Y311865D01*
X381442Y313536D01*
X381884Y314197D01*
X382039Y314978D01*
Y321000D01*
X381884Y321780D01*
X381442Y322442D01*
X379942Y323942D01*
X379609Y324165D01*
X379760Y324665D01*
X385957D01*
Y304562D01*
D02*
G37*
G36*
X582332Y493168D02*
X582140Y492706D01*
X580756D01*
Y490500D01*
Y488294D01*
X583839D01*
X583857Y488278D01*
Y488199D01*
X583363Y487707D01*
X580756D01*
Y485500D01*
Y483293D01*
X583839D01*
X583857Y483278D01*
Y483199D01*
X583363Y482706D01*
X580756D01*
Y480500D01*
X580256D01*
Y480000D01*
X575353D01*
Y479614D01*
X575375Y479500D01*
X574970Y479000D01*
X570000D01*
X568100Y480900D01*
X553500Y480900D01*
X553500Y501100D01*
X574400Y501100D01*
X582332Y493168D01*
D02*
G37*
%LPC*%
G36*
X564299Y498201D02*
X560295D01*
Y491500D01*
X564299D01*
Y498201D01*
D02*
G37*
G36*
X559295D02*
X555291D01*
Y491500D01*
X559295D01*
Y498201D01*
D02*
G37*
G36*
X579756Y492706D02*
X576673D01*
X576168Y492606D01*
X575739Y492320D01*
X575453Y491891D01*
X575353Y491386D01*
Y491000D01*
X579756D01*
Y492706D01*
D02*
G37*
G36*
Y490000D02*
X575353D01*
Y489614D01*
X575453Y489109D01*
X575739Y488680D01*
X576168Y488394D01*
X576673Y488294D01*
X579756D01*
Y490000D01*
D02*
G37*
G36*
Y487707D02*
X576673D01*
X576168Y487606D01*
X575739Y487320D01*
X575453Y486891D01*
X575353Y486386D01*
Y486000D01*
X579756D01*
Y487707D01*
D02*
G37*
G36*
X564299Y490500D02*
X560295D01*
Y483799D01*
X564299D01*
Y490500D01*
D02*
G37*
G36*
X559295D02*
X555291D01*
Y483799D01*
X559295D01*
Y490500D01*
D02*
G37*
G36*
X579756Y485000D02*
X575353D01*
Y484614D01*
X575453Y484109D01*
X575739Y483680D01*
X576168Y483394D01*
X576673Y483293D01*
X579756D01*
Y485000D01*
D02*
G37*
G36*
Y482706D02*
X576673D01*
X576168Y482606D01*
X575739Y482320D01*
X575453Y481891D01*
X575353Y481386D01*
Y481000D01*
X579756D01*
Y482706D01*
D02*
G37*
%LPD*%
G36*
X545300Y479500D02*
X515500D01*
Y480819D01*
X518130D01*
Y483000D01*
Y485181D01*
X515500D01*
Y485819D01*
X518130D01*
Y488000D01*
Y490181D01*
X515500D01*
Y490819D01*
X518130D01*
Y493000D01*
Y495181D01*
X515500D01*
Y495819D01*
X518130D01*
Y498000D01*
Y500181D01*
X515500D01*
Y503500D01*
X545300D01*
Y479500D01*
D02*
G37*
G36*
X598323Y452000D02*
X601232D01*
Y451500D01*
X601732D01*
Y447606D01*
X602413D01*
X602749Y447236D01*
X602000Y439500D01*
X601859Y438234D01*
X600862D01*
Y436299D01*
X599984D01*
Y438234D01*
X599016D01*
Y436299D01*
X598138D01*
Y438234D01*
X597500D01*
Y455000D01*
X598323D01*
Y452000D01*
D02*
G37*
G36*
X600862Y427766D02*
X601500D01*
Y421874D01*
X598220D01*
Y410720D01*
X592415Y404915D01*
X591953Y405106D01*
Y412500D01*
X588000D01*
X584047D01*
Y404126D01*
X583599Y404000D01*
X583079D01*
Y407000D01*
X580228D01*
X577378D01*
Y404000D01*
X576622D01*
Y411315D01*
X575500D01*
Y412708D01*
X578500D01*
Y415676D01*
Y418645D01*
X576733D01*
X576605Y419128D01*
X578471Y420188D01*
X582756D01*
Y422623D01*
X592522Y428171D01*
X594957D01*
Y427766D01*
X600106D01*
Y429701D01*
X600862D01*
Y427766D01*
D02*
G37*
G36*
X593823Y397000D02*
X596732D01*
Y396500D01*
X597232D01*
Y392606D01*
X599000D01*
Y385500D01*
X597500Y384000D01*
Y383234D01*
X596862D01*
Y381299D01*
X595984D01*
Y383234D01*
X595016D01*
Y381299D01*
X594138D01*
Y383234D01*
X593120D01*
X591500Y384854D01*
Y400000D01*
X593823D01*
Y397000D01*
D02*
G37*
%LPC*%
G36*
X522681Y500181D02*
X519130D01*
Y498500D01*
X522681D01*
Y500181D01*
D02*
G37*
G36*
Y497500D02*
X519130D01*
Y495819D01*
X522681D01*
Y497500D01*
D02*
G37*
G36*
Y495181D02*
X519130D01*
Y493500D01*
X522681D01*
Y495181D01*
D02*
G37*
G36*
X543709Y498201D02*
X539705D01*
Y491500D01*
X543709D01*
Y498201D01*
D02*
G37*
G36*
X538705D02*
X534701D01*
Y491500D01*
X538705D01*
Y498201D01*
D02*
G37*
G36*
X522681Y492500D02*
X519130D01*
Y490819D01*
X522681D01*
Y492500D01*
D02*
G37*
G36*
Y490181D02*
X519130D01*
Y488500D01*
X522681D01*
Y490181D01*
D02*
G37*
G36*
Y487500D02*
X519130D01*
Y485819D01*
X522681D01*
Y487500D01*
D02*
G37*
G36*
X543709Y490500D02*
X539705D01*
Y483799D01*
X543709D01*
Y490500D01*
D02*
G37*
G36*
X538705D02*
X534701D01*
Y483799D01*
X538705D01*
Y490500D01*
D02*
G37*
G36*
X522681Y485181D02*
X519130D01*
Y483500D01*
X522681D01*
Y485181D01*
D02*
G37*
G36*
Y482500D02*
X519130D01*
Y480819D01*
X522681D01*
Y482500D01*
D02*
G37*
G36*
X600732Y451000D02*
X598323D01*
Y447606D01*
X600732D01*
Y451000D01*
D02*
G37*
G36*
X582756Y418645D02*
X579500D01*
Y416176D01*
X582756D01*
Y418645D01*
D02*
G37*
G36*
X591953Y421874D02*
X588500D01*
Y413500D01*
X591953D01*
Y421874D01*
D02*
G37*
G36*
X587500D02*
X584047D01*
Y413500D01*
X587500D01*
Y421874D01*
D02*
G37*
G36*
X582756Y415176D02*
X579500D01*
Y412708D01*
X582756D01*
Y415176D01*
D02*
G37*
G36*
X583079Y411315D02*
X580728D01*
Y408000D01*
X583079D01*
Y411315D01*
D02*
G37*
G36*
X579728D02*
X577378D01*
Y408000D01*
X579728D01*
Y411315D01*
D02*
G37*
G36*
X596232Y396000D02*
X593823D01*
Y392606D01*
X596232D01*
Y396000D01*
D02*
G37*
%LPD*%
G36*
X493319Y498666D02*
Y498500D01*
X497370D01*
Y498000D01*
X497870D01*
Y495819D01*
X501000D01*
Y495181D01*
X497870D01*
Y493000D01*
Y490819D01*
X501000D01*
Y490181D01*
X497870D01*
Y488000D01*
Y485819D01*
X501000D01*
Y485181D01*
X497870D01*
Y483000D01*
Y480819D01*
X500166D01*
X500357Y480357D01*
X498500Y478500D01*
X477000D01*
X474653Y480847D01*
X474688Y481347D01*
X475018D01*
Y485063D01*
X476018D01*
Y481347D01*
X476152D01*
Y481347D01*
X483959D01*
Y482500D01*
X487000D01*
Y490795D01*
X487542D01*
Y493542D01*
X492857Y498857D01*
X493319Y498666D01*
D02*
G37*
G36*
X476279Y477779D02*
X476610Y477558D01*
X477000Y477480D01*
X477216D01*
Y466239D01*
X475921Y464945D01*
X475421Y465152D01*
Y468407D01*
X475539Y469000D01*
X475421Y469593D01*
Y471283D01*
X474629D01*
Y478776D01*
X475091Y478967D01*
X476279Y477779D01*
D02*
G37*
G36*
X480029Y423159D02*
X480116Y422720D01*
X480356Y422360D01*
Y412994D01*
X469815D01*
X469657Y413494D01*
X479486Y423323D01*
X480029Y423159D01*
D02*
G37*
G36*
X499540Y420919D02*
X500036Y420587D01*
X500621Y420471D01*
X509367D01*
X513971Y415867D01*
Y399899D01*
X513815Y399784D01*
X513315Y400035D01*
Y400272D01*
X510000D01*
Y397921D01*
X511605D01*
X511796Y397459D01*
X511225Y396888D01*
X495494D01*
Y398918D01*
X491590D01*
Y399673D01*
X495494D01*
Y400691D01*
X496223Y401420D01*
X496582Y401272D01*
X500000D01*
Y403622D01*
X499232D01*
X499022Y404099D01*
X499246Y404378D01*
X504315D01*
Y404679D01*
X505685D01*
Y404378D01*
X513315D01*
Y410079D01*
X505685D01*
Y409777D01*
X504315D01*
Y410079D01*
X496685D01*
Y406208D01*
X493331Y402854D01*
X487687D01*
Y398856D01*
X484957D01*
X484765Y399318D01*
X484845Y399398D01*
X485177Y399894D01*
X485293Y400480D01*
Y405187D01*
X485354D01*
Y412994D01*
X483415D01*
Y422040D01*
X483442Y422058D01*
X483884Y422720D01*
X484039Y423500D01*
X483884Y424280D01*
X483442Y424942D01*
X482780Y425384D01*
X482341Y425471D01*
X482177Y426014D01*
X486154Y429991D01*
X486780Y430116D01*
X487442Y430558D01*
X487884Y431220D01*
X487991Y431760D01*
X488523Y431935D01*
X499540Y420919D01*
D02*
G37*
G36*
X369248Y367620D02*
X366984D01*
Y369589D01*
X365016D01*
Y367620D01*
X362752D01*
Y371911D01*
X369248D01*
Y367620D01*
D02*
G37*
G36*
Y354234D02*
X362752D01*
Y358565D01*
X365016D01*
Y356596D01*
X366984D01*
Y358565D01*
X369248D01*
Y354234D01*
D02*
G37*
G36*
X596862Y372766D02*
X597500D01*
X597500Y363374D01*
X594047D01*
Y351047D01*
X587000Y344000D01*
X575207D01*
X575067Y344185D01*
X575315Y344685D01*
X576228D01*
Y348000D01*
X573878D01*
Y345930D01*
X573401Y345720D01*
X573122Y345943D01*
Y352315D01*
X571000D01*
X571000Y361000D01*
X571744D01*
Y360688D01*
X579256D01*
Y360936D01*
X579374Y361016D01*
X579874Y360752D01*
Y355000D01*
X583327D01*
Y363374D01*
X581980D01*
X581785Y363834D01*
X586981Y369231D01*
X588606D01*
X589192Y369347D01*
X589688Y369678D01*
X592775Y372766D01*
X596106D01*
Y374701D01*
X596862D01*
Y372766D01*
D02*
G37*
G36*
X369086Y345261D02*
X366822D01*
Y347229D01*
X364853D01*
Y345261D01*
X362590D01*
Y349552D01*
X369086D01*
Y345261D01*
D02*
G37*
%LPC*%
G36*
X496870Y497500D02*
X493319D01*
Y495819D01*
X496870D01*
Y497500D01*
D02*
G37*
G36*
Y495181D02*
X493319D01*
Y493500D01*
X496870D01*
Y495181D01*
D02*
G37*
G36*
Y492500D02*
X493319D01*
Y490819D01*
X496870D01*
Y492500D01*
D02*
G37*
G36*
Y490181D02*
X493319D01*
Y488500D01*
X496870D01*
Y490181D01*
D02*
G37*
G36*
Y487500D02*
X493319D01*
Y485819D01*
X496870D01*
Y487500D01*
D02*
G37*
G36*
Y485181D02*
X493319D01*
Y483500D01*
X496870D01*
Y485181D01*
D02*
G37*
G36*
Y482500D02*
X493319D01*
Y480819D01*
X496870D01*
Y482500D01*
D02*
G37*
G36*
X513315Y403622D02*
X510000D01*
Y401272D01*
X513315D01*
Y403622D01*
D02*
G37*
G36*
X509000D02*
X505685D01*
Y401272D01*
X509000D01*
Y403622D01*
D02*
G37*
G36*
X504315D02*
X501000D01*
Y401272D01*
X504315D01*
Y403622D01*
D02*
G37*
G36*
X509000Y400272D02*
X505685D01*
Y397921D01*
X509000D01*
Y400272D01*
D02*
G37*
G36*
X504315D02*
X501000D01*
Y397921D01*
X504315D01*
Y400272D01*
D02*
G37*
G36*
X500000D02*
X496685D01*
Y397921D01*
X500000D01*
Y400272D01*
D02*
G37*
G36*
X579256Y359145D02*
X576000D01*
Y356676D01*
X579256D01*
Y359145D01*
D02*
G37*
G36*
X575000D02*
X571744D01*
Y356676D01*
X575000D01*
Y359145D01*
D02*
G37*
G36*
X587780Y363374D02*
X584327D01*
Y355000D01*
X587780D01*
Y363374D01*
D02*
G37*
G36*
X579256Y355676D02*
X576000D01*
Y353208D01*
X579256D01*
Y355676D01*
D02*
G37*
G36*
X575000D02*
X571744D01*
Y353208D01*
X575000D01*
Y355676D01*
D02*
G37*
G36*
X576228Y352315D02*
X573878D01*
Y349000D01*
X576228D01*
Y352315D01*
D02*
G37*
G36*
X587780Y354000D02*
X584327D01*
Y345626D01*
X587780D01*
Y354000D01*
D02*
G37*
G36*
X583327D02*
X579874D01*
Y352693D01*
X579579Y352315D01*
X577228D01*
Y348500D01*
Y344685D01*
X579579D01*
Y345248D01*
X579874Y345626D01*
X583327D01*
Y354000D01*
D02*
G37*
%LPD*%
D11*
X473100Y468062D02*
Y484922D01*
X465760Y467921D02*
Y473847D01*
X575500Y363656D02*
Y370760D01*
X335791Y383362D02*
X440517D01*
X320428Y368000D02*
X335791Y383362D01*
X440517D02*
X442300Y381579D01*
X446410D01*
X443532Y383638D02*
X446319D01*
X443245Y383925D02*
X443532Y383638D01*
X442075Y383925D02*
X443245D01*
X441138Y384862D02*
X442075Y383925D01*
X361093Y385214D02*
X361445Y384862D01*
X353214Y385214D02*
X361093D01*
X361445Y384862D02*
X441138D01*
X446319Y383638D02*
X446410Y383547D01*
X320428Y418000D02*
X353214Y385214D01*
X362066Y386362D02*
X442154D01*
X320428Y428000D02*
X362066Y386362D01*
X370566Y387862D02*
X446032D01*
X320428Y438000D02*
X370566Y387862D01*
X443000Y385516D02*
X446410D01*
X442154Y386362D02*
X443000Y385516D01*
X377007Y391421D02*
X446410D01*
X320428Y448000D02*
X377007Y391421D01*
X446032Y387862D02*
X446410Y387484D01*
X384500Y378500D02*
X395500Y367500D01*
X340928Y378500D02*
X384500D01*
X320428Y358000D02*
X340928Y378500D01*
X383000Y377000D02*
X395000Y365000D01*
X349428Y377000D02*
X383000D01*
X320428Y348000D02*
X349428Y377000D01*
X381500Y375500D02*
X394000Y363000D01*
X352500Y375500D02*
X381500D01*
X336500Y359500D02*
X352500Y375500D01*
X379500Y374000D02*
X393000Y360500D01*
X354500Y374000D02*
X379500D01*
X339000Y358500D02*
X354500Y374000D01*
X385039Y393390D02*
X446410D01*
X320428Y458000D02*
X385039Y393390D01*
X393070Y395358D02*
X446410D01*
X320428Y468000D02*
X393070Y395358D01*
X454383Y357684D02*
X456205Y359506D01*
X453443Y357684D02*
X454383D01*
X450272Y354513D02*
X453443Y357684D01*
X450272Y353548D02*
Y354513D01*
X456205Y359506D02*
Y363910D01*
X393000Y360500D02*
X428000D01*
X394000Y363000D02*
X440000D01*
X395000Y365000D02*
X438500D01*
X395500Y367500D02*
X437500D01*
X435048Y378728D02*
X435930Y379610D01*
X446410D01*
X487064Y355048D02*
Y356013D01*
X485714Y357363D02*
X487064Y356013D01*
X485402Y357363D02*
X485714D01*
X481886Y360879D02*
X485402Y357363D01*
X481886Y360879D02*
Y363819D01*
X481795Y363910D02*
X481886Y363819D01*
X454728Y416987D02*
Y417952D01*
Y416987D02*
X456205Y415511D01*
Y409091D02*
Y415511D01*
X473921Y355349D02*
X475000Y354271D01*
Y354000D02*
Y354271D01*
X469000Y358000D02*
Y358271D01*
X466047Y350453D02*
Y363910D01*
X471976Y351024D02*
X472000Y351000D01*
X466047Y350453D02*
X476000Y340500D01*
X464079Y350300D02*
X475379Y339000D01*
X462110Y349890D02*
X474500Y337500D01*
X479827Y353402D02*
Y363910D01*
X471976Y351024D02*
Y363886D01*
X464079Y350300D02*
Y363910D01*
X462110Y349890D02*
Y363910D01*
X460142Y341834D02*
Y363910D01*
X458173Y355958D02*
Y363910D01*
X456728Y354513D02*
X458173Y355958D01*
X476500Y358000D02*
Y358271D01*
X590000Y317500D02*
X590130Y317370D01*
X598539D01*
X598669Y317240D01*
X481886Y423386D02*
X482000Y423500D01*
X481886Y409181D02*
Y423386D01*
X481795Y409091D02*
X481886Y409181D01*
X503500Y372500D02*
X508500D01*
X500327Y375673D02*
X503500Y372500D01*
X491590Y375673D02*
X500327D01*
X503685Y366500D02*
X508500D01*
X498448Y371736D02*
X503685Y366500D01*
X491590Y371736D02*
X498448D01*
X503532Y369500D02*
X512000D01*
X499327Y373705D02*
X503532Y369500D01*
X491590Y373705D02*
X499327D01*
X503887Y375500D02*
X512000D01*
X501746Y377642D02*
X503887Y375500D01*
X491590Y377642D02*
X501746D01*
X508229Y378500D02*
X508500D01*
X507119Y379610D02*
X508229Y378500D01*
X491590Y379610D02*
X507119D01*
X475890Y358881D02*
X476500Y358271D01*
X475890Y358881D02*
Y363910D01*
X473921Y355349D02*
Y363910D01*
X471953D02*
X471976Y363886D01*
X468016Y359255D02*
X469000Y358271D01*
X468016Y359255D02*
Y363910D01*
X451777Y361506D02*
X454146D01*
X454236Y361596D01*
Y363910D01*
X441500Y361000D02*
X452586Y372086D01*
X433000Y361000D02*
X441500D01*
X452586Y372086D02*
Y386216D01*
X449440Y389362D02*
X452586Y386216D01*
X446500Y389362D02*
X449440D01*
X446410Y389453D02*
X446500Y389362D01*
X426500Y354500D02*
X433000Y361000D01*
X426500Y336449D02*
Y354500D01*
Y336449D02*
X430949Y332000D01*
X434177D01*
X440000Y363000D02*
X444006Y367006D01*
Y371646D01*
X442784Y359500D02*
X483764Y400480D01*
X434043Y359500D02*
X442784D01*
X428453Y353910D02*
X434043Y359500D01*
X483764Y400480D02*
Y409091D01*
X428453Y349496D02*
Y353910D01*
Y349496D02*
X430949Y347000D01*
X434177D01*
X455000Y369500D02*
X482827Y397327D01*
X454906Y369500D02*
X455000D01*
X482827Y397327D02*
X491590D01*
X437405Y352000D02*
X454906Y369500D01*
X434177Y352000D02*
X437405D01*
X399500Y356000D02*
X407500Y348000D01*
Y333500D02*
Y348000D01*
Y333500D02*
X414500Y326500D01*
X523768Y340500D02*
X530268Y334000D01*
X476000Y340500D02*
X523768D01*
X523000Y339000D02*
X529500Y332500D01*
X475379Y339000D02*
X523000D01*
X522379Y337500D02*
X531879Y328000D01*
X474500Y337500D02*
X522379D01*
X336500Y354072D02*
Y359500D01*
X320428Y338000D02*
X336500Y354072D01*
X339000Y351000D02*
Y358500D01*
X320428Y332428D02*
X339000Y351000D01*
X320428Y328000D02*
Y332428D01*
X444808Y326500D02*
X460142Y341834D01*
X456728Y353548D02*
Y354513D01*
X382728Y356184D02*
X382912Y356000D01*
X399500D01*
X414500Y326500D02*
X444808D01*
X444006Y371646D02*
X444097Y371736D01*
X446410D01*
X439500Y373500D02*
X441673Y375673D01*
X439500Y369500D02*
Y373500D01*
X437500Y367500D02*
X439500Y369500D01*
X436013Y372272D02*
X441383Y377642D01*
X441500Y368000D02*
Y372500D01*
X438500Y365000D02*
X441500Y368000D01*
Y372500D02*
X442614Y373614D01*
X446319D01*
X446410Y373705D01*
X441673Y375673D02*
X446410D01*
X435048Y372272D02*
X436013D01*
X441383Y377642D02*
X446410D01*
X320428Y478000D02*
X401102Y397327D01*
X446410D01*
X409133Y399295D02*
X446410D01*
X320428Y488000D02*
X409133Y399295D01*
X479827Y353402D02*
X480000Y353228D01*
X531879Y328000D02*
X620428D01*
X467198Y455424D02*
X474879Y447742D01*
X480182Y442439D02*
X482561Y440061D01*
X479626Y441883D02*
X480182Y442439D01*
X477505Y444004D02*
X479626Y441883D01*
X477505Y444004D02*
X478061Y444560D01*
X475940Y446681D02*
X478061Y444560D01*
X474879Y447742D02*
X475940Y446681D01*
X529500Y332500D02*
X614928D01*
X620428Y338000D01*
X606428Y334000D02*
X620428Y348000D01*
X530268Y334000D02*
X606428D01*
X427000Y483500D02*
Y490000D01*
Y483500D02*
X462110Y448390D01*
Y409091D02*
Y448390D01*
X528500Y436500D02*
X545000Y453000D01*
X492000Y436500D02*
X528500D01*
X524000Y439000D02*
X542500Y457500D01*
X489500Y439000D02*
X524000D01*
X468016Y414016D02*
X486000Y432000D01*
X468016Y409091D02*
Y414016D01*
X466047Y417547D02*
X483500Y435000D01*
X466047Y409091D02*
Y417547D01*
X441177Y451500D02*
X455000D01*
X460142Y446358D01*
Y409091D02*
Y446358D01*
X452000Y436500D02*
X458173Y430327D01*
Y409091D02*
Y430327D01*
X441177Y436500D02*
X452000D01*
X499535Y407228D02*
X500500D01*
X498185Y405878D02*
X499535Y407228D01*
X498185Y405545D02*
Y405878D01*
X493903Y401264D02*
X498185Y405545D01*
X491590Y401264D02*
X493903D01*
X493521Y355048D02*
Y356013D01*
X488028Y361506D02*
X493521Y356013D01*
X483854Y361506D02*
X488028D01*
X483764Y361596D02*
X483854Y361506D01*
X483764Y361596D02*
Y363910D01*
X514219Y378500D02*
X535000D01*
X511140Y381579D02*
X514219Y378500D01*
X491590Y381579D02*
X511140D01*
X513340Y381500D02*
X531000D01*
X511293Y383547D02*
X513340Y381500D01*
X491590Y383547D02*
X511293D01*
X513727Y384000D02*
X535000D01*
X514447Y389000D02*
X535000D01*
X491669Y391500D02*
X531000D01*
X491590Y389453D02*
X513994D01*
X491590Y391421D02*
X491669Y391500D01*
X513994Y389453D02*
X514447Y389000D01*
X512212Y385516D02*
X513727Y384000D01*
X491590Y385516D02*
X512212D01*
X530729Y386500D02*
X531000D01*
X529745Y387484D02*
X530729Y386500D01*
X491590Y387484D02*
X529745D01*
X598000Y354500D02*
X599500Y356000D01*
Y373654D01*
X491590Y395358D02*
X511858D01*
X515500Y399000D01*
Y416500D01*
X510000Y422000D02*
X515500Y416500D01*
X500621Y422000D02*
X510000D01*
X482561Y440061D02*
X500621Y422000D01*
X473240Y451502D02*
Y458079D01*
Y451502D02*
X500742Y424000D01*
X510500D01*
X517500Y417000D01*
Y398000D02*
Y417000D01*
X512890Y393390D02*
X517500Y398000D01*
X491590Y393390D02*
X512890D01*
X467198Y455424D02*
Y455460D01*
X465760Y456898D02*
X467198Y455460D01*
X465760Y456898D02*
Y458079D01*
X602453Y429701D02*
X603500Y428653D01*
Y414327D02*
Y428653D01*
X602173Y413000D02*
X603500Y414327D01*
X598453Y374701D02*
X599500Y373654D01*
X575500Y370760D02*
X588606D01*
X592112Y374266D01*
X592457D01*
X592547Y374356D01*
Y374701D01*
X582240Y386500D02*
X587691D01*
X592547Y381644D01*
Y381299D02*
Y381644D01*
X579000Y423156D02*
Y430260D01*
X579559Y429701D01*
X596547D01*
X585740Y445213D02*
Y446000D01*
Y445213D02*
X587209Y443744D01*
X589102D01*
X596112Y436734D01*
X596457D01*
X596547Y436644D01*
Y436299D02*
Y436644D01*
X448272Y416987D02*
Y417952D01*
Y416987D02*
X449622Y415637D01*
X450003D01*
X454236Y411404D01*
Y409091D02*
Y411404D01*
X473100Y468062D02*
X473240Y467921D01*
X472959Y485063D02*
X473100Y484922D01*
X470400Y478487D02*
Y485063D01*
X465760Y473847D02*
X470400Y478487D01*
D16*
X539205Y491000D02*
D03*
X559795D02*
D03*
D17*
X598079Y317240D02*
D03*
Y309760D02*
D03*
X607921Y313500D02*
D03*
D18*
X434177Y332000D02*
D03*
X418823D02*
D03*
X434177Y337000D02*
D03*
X418823D02*
D03*
X434177Y342000D02*
D03*
X418823D02*
D03*
X434177Y347000D02*
D03*
X418823D02*
D03*
X434177Y352000D02*
D03*
X418823D02*
D03*
D19*
X411000Y445272D02*
D03*
Y451728D02*
D03*
X450000Y440772D02*
D03*
Y447228D02*
D03*
X480000Y346772D02*
D03*
Y353228D02*
D03*
X435048Y372272D02*
D03*
Y378728D02*
D03*
X427000Y372272D02*
D03*
Y378728D02*
D03*
X509500Y407228D02*
D03*
Y400772D02*
D03*
X500500Y407228D02*
D03*
Y400772D02*
D03*
D20*
X374205Y302582D02*
D03*
X349795D02*
D03*
D21*
X335679Y315905D02*
D03*
Y304095D02*
D03*
D22*
X336500Y326060D02*
D03*
Y336296D02*
D03*
D23*
X357063Y357500D02*
D03*
X346937Y321000D02*
D03*
X374937Y347655D02*
D03*
D24*
X345232Y357500D02*
D03*
X358768Y321000D02*
D03*
X386768Y347655D02*
D03*
D25*
X600600Y288500D02*
D03*
X332100D02*
D03*
X348900Y500000D02*
D03*
X591100D02*
D03*
D26*
X609269Y288500D02*
D03*
X340769D02*
D03*
X340231Y500000D02*
D03*
X599768D02*
D03*
D27*
X346170Y346093D02*
D03*
Y338573D02*
D03*
X354438Y342333D02*
D03*
D28*
X366000Y355415D02*
D03*
Y370770D02*
D03*
X365838Y333056D02*
D03*
Y348410D02*
D03*
D29*
X357240Y330426D02*
D03*
X349760D02*
D03*
X523760Y347500D02*
D03*
X531240D02*
D03*
X487260Y332500D02*
D03*
X494740D02*
D03*
X487260Y323500D02*
D03*
X494740D02*
D03*
X487260Y312500D02*
D03*
X494740D02*
D03*
X582240Y386500D02*
D03*
X574760D02*
D03*
X585740Y446000D02*
D03*
X578260D02*
D03*
X508260Y471500D02*
D03*
X515740D02*
D03*
D30*
X366836Y319260D02*
D03*
Y326740D02*
D03*
X575500Y370760D02*
D03*
Y378240D02*
D03*
Y356176D02*
D03*
Y363656D02*
D03*
X579000Y430260D02*
D03*
Y437740D02*
D03*
Y415676D02*
D03*
Y423156D02*
D03*
D31*
X375120Y336851D02*
D03*
Y327796D02*
D03*
Y318741D02*
D03*
D32*
X401892Y327796D02*
D03*
D33*
X376272Y356766D02*
D03*
X382728D02*
D03*
X576728Y348500D02*
D03*
X570272D02*
D03*
X573772Y407500D02*
D03*
X580228D02*
D03*
X448272Y426000D02*
D03*
X454728D02*
D03*
X448272Y417952D02*
D03*
X454728D02*
D03*
X493521Y355048D02*
D03*
X487064D02*
D03*
X493521Y347000D02*
D03*
X487064D02*
D03*
X456728Y353548D02*
D03*
X450272D02*
D03*
X456728Y345500D02*
D03*
X450272D02*
D03*
D34*
X514196Y347000D02*
D03*
X507109D02*
D03*
X477696Y312500D02*
D03*
X470609D02*
D03*
D35*
X471047Y332500D02*
D03*
X476953D02*
D03*
X471047Y323737D02*
D03*
X476953D02*
D03*
D36*
X603268Y396500D02*
D03*
X596732D02*
D03*
X601232Y451500D02*
D03*
X607768D02*
D03*
D37*
X602173Y413000D02*
D03*
X588000D02*
D03*
X583827Y354500D02*
D03*
X598000D02*
D03*
D38*
X473240Y458079D02*
D03*
X469500D02*
D03*
X465760D02*
D03*
Y467921D02*
D03*
X469500D02*
D03*
X473240D02*
D03*
D39*
X546594Y468500D02*
D03*
X558405D02*
D03*
D40*
X599744Y490500D02*
D03*
Y485500D02*
D03*
Y480500D02*
D03*
Y475500D02*
D03*
X580256D02*
D03*
Y480500D02*
D03*
Y485500D02*
D03*
Y490500D02*
D03*
D41*
X518630Y483000D02*
D03*
Y488000D02*
D03*
Y493000D02*
D03*
Y498000D02*
D03*
X497370D02*
D03*
Y493000D02*
D03*
Y488000D02*
D03*
Y483000D02*
D03*
D42*
X458933Y495535D02*
D03*
X481867D02*
D03*
D43*
X467103D02*
D03*
X473697D02*
D03*
D44*
X480056Y486480D02*
D03*
X460744D02*
D03*
D45*
X465282Y485063D02*
D03*
X467841D02*
D03*
X470400D02*
D03*
X472959D02*
D03*
X475518D02*
D03*
D46*
X592547Y381299D02*
D03*
X594516D02*
D03*
X596484D02*
D03*
X598453D02*
D03*
Y374701D02*
D03*
X596484D02*
D03*
X594516D02*
D03*
X592547D02*
D03*
X596547Y436299D02*
D03*
X598516D02*
D03*
X600484D02*
D03*
X602453D02*
D03*
Y429701D02*
D03*
X600484D02*
D03*
X598516D02*
D03*
X596547D02*
D03*
D47*
X446410Y401264D02*
D03*
Y399295D02*
D03*
Y397327D02*
D03*
Y395358D02*
D03*
Y393390D02*
D03*
Y391421D02*
D03*
Y389453D02*
D03*
Y387484D02*
D03*
Y385516D02*
D03*
Y383547D02*
D03*
Y381579D02*
D03*
Y379610D02*
D03*
Y377642D02*
D03*
Y375673D02*
D03*
Y373705D02*
D03*
Y371736D02*
D03*
X491590D02*
D03*
Y373705D02*
D03*
Y375673D02*
D03*
Y377642D02*
D03*
Y379610D02*
D03*
Y381579D02*
D03*
Y383547D02*
D03*
Y385516D02*
D03*
Y387484D02*
D03*
Y389453D02*
D03*
Y391421D02*
D03*
Y393390D02*
D03*
Y395358D02*
D03*
Y397327D02*
D03*
Y399295D02*
D03*
Y401264D02*
D03*
D48*
X454236Y363910D02*
D03*
X456205D02*
D03*
X458173D02*
D03*
X460142D02*
D03*
X462110D02*
D03*
X464079D02*
D03*
X466047D02*
D03*
X468016D02*
D03*
X469984D02*
D03*
X471953D02*
D03*
X473921D02*
D03*
X475890D02*
D03*
X477858D02*
D03*
X479827D02*
D03*
X481795D02*
D03*
X483764D02*
D03*
Y409091D02*
D03*
X481795D02*
D03*
X479827D02*
D03*
X477858D02*
D03*
X475890D02*
D03*
X473921D02*
D03*
X471953D02*
D03*
X469984D02*
D03*
X468016D02*
D03*
X466047D02*
D03*
X464079D02*
D03*
X462110D02*
D03*
X460142D02*
D03*
X458173D02*
D03*
X456205D02*
D03*
X454236D02*
D03*
D49*
X441177Y436500D02*
D03*
Y441500D02*
D03*
Y446500D02*
D03*
Y451500D02*
D03*
X419823D02*
D03*
Y446500D02*
D03*
Y441500D02*
D03*
Y436500D02*
D03*
D98*
X534933Y484504D02*
Y491000D01*
Y484504D02*
X546563Y472874D01*
X587047Y407500D02*
X588000Y408453D01*
X546594Y467087D02*
X558181Y455500D01*
X564500Y397000D02*
X596642D01*
X596732Y396909D01*
Y396500D02*
Y396909D01*
X558181Y403319D02*
X564500Y397000D01*
X558181Y403319D02*
Y455500D01*
X588000Y408453D02*
Y413000D01*
Y414723D01*
X587047Y415676D02*
X588000Y414723D01*
X598035Y455500D02*
X601232Y452303D01*
Y451500D02*
Y452303D01*
X558181Y455500D02*
X598035D01*
X546594Y467087D02*
Y468500D01*
X546563Y468532D02*
X546594Y468500D01*
X546563Y468532D02*
Y472874D01*
D99*
X388506Y327214D02*
X401892D01*
X375120D02*
X388506D01*
X346587Y319717D02*
Y321973D01*
X500500Y407228D02*
X509500D01*
X493521Y347000D02*
Y355048D01*
X448272Y417952D02*
Y426000D01*
X456728Y345500D02*
Y353548D01*
X278582Y286918D02*
X333600D01*
X609269Y288500D02*
Y312007D01*
Y287000D02*
Y288500D01*
X405500Y375500D02*
X408728Y372272D01*
X427000D01*
X446500Y411500D02*
X447921Y412921D01*
Y416637D01*
X448272Y416987D01*
X450272Y345500D02*
Y353548D01*
X427000Y378728D02*
X435048D01*
X454728Y417952D02*
Y426000D01*
X487064Y347000D02*
Y355048D01*
X388506Y303506D02*
Y327214D01*
X379500Y294500D02*
X388506Y303506D01*
X365000Y294500D02*
X379500D01*
X328500Y296000D02*
X337500D01*
X324000Y291500D02*
X328500Y296000D01*
X308500Y291500D02*
X324000D01*
X583827Y349579D02*
Y354500D01*
Y341827D02*
Y349579D01*
X579500Y337500D02*
X583827Y341827D01*
X560000Y337500D02*
X579500D01*
X525000Y372500D02*
X560000Y337500D01*
X518000Y372500D02*
X525000D01*
X614500Y433000D02*
X632812D01*
X640500Y440688D01*
X611000Y429500D02*
X614500Y433000D01*
X611000Y350000D02*
Y429500D01*
X602000Y341000D02*
X611000Y350000D01*
X592406Y341000D02*
X602000D01*
X583827Y349579D02*
X592406Y341000D01*
X435000Y446500D02*
X441177D01*
X430000Y441500D02*
X435000Y446500D01*
X430000Y421500D02*
Y441500D01*
X607331Y313500D02*
X607776D01*
X609269Y312007D01*
X271500Y294000D02*
X278582Y286918D01*
X271500Y294000D02*
Y487500D01*
X284000Y500000D01*
X340231D01*
X346587Y319717D02*
X362000Y304303D01*
Y297500D02*
Y304303D01*
Y297500D02*
X365000Y294500D01*
X336090Y324665D02*
X336500Y325076D01*
X336090Y316316D02*
Y324665D01*
X335679Y315905D02*
X336090Y316316D01*
X340587Y321973D02*
X346587D01*
X338543Y324017D02*
X340587Y321973D01*
X337559Y324017D02*
X338543D01*
X336500Y325076D02*
X337559Y324017D01*
X337500Y296000D02*
X340079Y298579D01*
X346768D01*
X349795Y301606D01*
Y302000D01*
X292000Y308000D02*
X308500Y291500D01*
X286602Y308000D02*
X292000D01*
X279594Y315008D02*
X286602Y308000D01*
X477696Y312500D02*
X487260D01*
X487141Y323619D02*
X487260Y323500D01*
X477071Y323619D02*
X487141D01*
X476953Y323737D02*
X477071Y323619D01*
X476953Y332500D02*
X487260D01*
X523510Y347250D02*
X523760Y347500D01*
X514446Y347250D02*
X523510D01*
X514196Y347000D02*
X514446Y347250D01*
X493521Y347000D02*
X507109D01*
X427000Y372272D02*
X435048D01*
X590000Y490000D02*
X590096Y490096D01*
Y498996D01*
X591100Y500000D01*
X532933Y493000D02*
X534933Y491000D01*
X599744Y485500D02*
Y490500D01*
Y480500D02*
Y485500D01*
Y475500D02*
Y480500D01*
X601803Y490500D02*
X613303Y502000D01*
X599744Y490500D02*
X601803D01*
X613303Y502000D02*
X626432D01*
X640500Y487932D01*
Y476121D02*
Y487932D01*
D100*
X588000Y417921D02*
X590503Y420424D01*
X588000Y414723D02*
Y417921D01*
D101*
X411000Y451728D02*
X411199Y451530D01*
X419793D02*
X419823Y451500D01*
X411199Y451530D02*
X419793D01*
X411000Y439500D02*
X413971Y436529D01*
X419793D01*
X419823Y436500D01*
X411000Y439500D02*
Y445272D01*
X449035Y440772D02*
X450000D01*
X448307Y441500D02*
X449035Y440772D01*
X441177Y441500D02*
X448307D01*
X449035Y447228D02*
X450000D01*
X448307Y446500D02*
X449035Y447228D01*
X441177Y446500D02*
X448307D01*
D102*
X374205Y302000D02*
X377732Y305528D01*
X374726Y336269D02*
X375120D01*
X374087Y348410D02*
X374937Y347560D01*
X374569Y318709D02*
X375120Y318159D01*
X386768Y347655D02*
Y348411D01*
Y347073D02*
Y347655D01*
X380000Y314978D02*
Y321000D01*
X378500Y322500D02*
X380000Y321000D01*
X371863Y322500D02*
X378500D01*
X377732Y312710D02*
X380000Y314978D01*
X377732Y305528D02*
Y312710D01*
X367623Y326740D02*
X371863Y322500D01*
X366836Y326740D02*
X367623D01*
X367386Y318709D02*
X374569D01*
X366836Y319260D02*
X367386Y318709D01*
X366048Y326740D02*
X366836D01*
X362913Y329875D02*
X366048Y326740D01*
X357791Y329875D02*
X362913D01*
X357240Y330426D02*
X357791Y329875D01*
X371695Y333237D02*
X374726Y336269D01*
X366019Y333237D02*
X371695D01*
X365838Y333056D02*
X366019Y333237D01*
X349760Y330426D02*
Y331214D01*
X346582Y334392D02*
X349760Y331214D01*
X346582Y334392D02*
Y338392D01*
X346401Y338573D02*
X346582Y338392D01*
X346170Y338573D02*
X346401D01*
X356213Y356650D02*
X357063Y357500D01*
X356213Y354855D02*
Y356650D01*
X347450Y346093D02*
X356213Y354855D01*
X346170Y346093D02*
X347450D01*
X357063Y357500D02*
Y359134D01*
X363752Y365823D01*
Y370589D01*
X363933Y370770D01*
X366000D01*
X365838Y355253D02*
X366000Y355415D01*
X365838Y348410D02*
Y355253D01*
Y348410D02*
X374087D01*
X374937Y347073D02*
Y347560D01*
X385622Y349557D02*
X386768Y348411D01*
X381934Y349557D02*
X385622D01*
X376272Y355220D02*
X381934Y349557D01*
X376272Y355220D02*
Y356184D01*
X508260Y493760D02*
X512500Y498000D01*
X518630D01*
X508260Y471500D02*
Y493760D01*
D103*
X479000Y465500D02*
Y479500D01*
X475500Y462000D02*
X479000Y465500D01*
X470379Y462000D02*
X475500D01*
X469500Y461121D02*
X470379Y462000D01*
X469500Y458079D02*
Y461121D01*
D104*
X302900Y324500D02*
D03*
X382800Y496600D02*
D03*
X305700Y374600D02*
D03*
X633100Y375900D02*
D03*
X617500Y269500D02*
D03*
D105*
X411252Y490000D02*
D03*
X442748D02*
D03*
D106*
X419126D02*
D03*
X320428Y478000D02*
D03*
Y468000D02*
D03*
Y458000D02*
D03*
Y448000D02*
D03*
Y438000D02*
D03*
Y428000D02*
D03*
Y418000D02*
D03*
Y408000D02*
D03*
Y398000D02*
D03*
Y388000D02*
D03*
Y378000D02*
D03*
Y368000D02*
D03*
Y358000D02*
D03*
Y348000D02*
D03*
Y338000D02*
D03*
Y328000D02*
D03*
Y318000D02*
D03*
Y308000D02*
D03*
Y298000D02*
D03*
X620428Y488000D02*
D03*
Y478000D02*
D03*
Y468000D02*
D03*
Y458000D02*
D03*
Y448000D02*
D03*
Y438000D02*
D03*
Y428000D02*
D03*
Y418000D02*
D03*
Y408000D02*
D03*
Y398000D02*
D03*
Y388000D02*
D03*
Y378000D02*
D03*
Y368000D02*
D03*
Y358000D02*
D03*
Y348000D02*
D03*
Y338000D02*
D03*
Y328000D02*
D03*
Y318000D02*
D03*
Y308000D02*
D03*
D107*
X427000Y490000D02*
D03*
X434874D02*
D03*
D108*
X640500Y487932D02*
D03*
Y476121D02*
D03*
Y464310D02*
D03*
Y452499D02*
D03*
Y440688D02*
D03*
Y428877D02*
D03*
Y417066D02*
D03*
Y405255D02*
D03*
Y393444D02*
D03*
X300000Y393445D02*
D03*
X300000Y405256D02*
D03*
X300000Y417067D02*
D03*
X300000Y428878D02*
D03*
X300000Y440689D02*
D03*
X300000Y452500D02*
D03*
X300000Y464311D02*
D03*
Y476122D02*
D03*
Y487933D02*
D03*
X640500Y358073D02*
D03*
Y346262D02*
D03*
Y334451D02*
D03*
Y322640D02*
D03*
Y310829D02*
D03*
Y299018D02*
D03*
Y287207D02*
D03*
Y275395D02*
D03*
Y263584D02*
D03*
D109*
X657508Y479467D02*
D03*
Y401908D02*
D03*
X282992Y401909D02*
D03*
X282992Y479468D02*
D03*
X657508Y349608D02*
D03*
Y272049D02*
D03*
D110*
X620595Y220492D02*
D03*
X284000Y350500D02*
D03*
X285500Y298000D02*
D03*
D111*
X614689Y237500D02*
D03*
X301008Y356405D02*
D03*
X279594Y315008D02*
D03*
D112*
X626500Y237500D02*
D03*
X291406Y315008D02*
D03*
D113*
X301008Y344595D02*
D03*
D114*
X320428Y488000D02*
D03*
X620428Y298000D02*
D03*
D115*
X522500Y400772D02*
D03*
X509500Y400772D02*
D03*
X418823Y352000D02*
D03*
X405500Y375500D02*
D03*
X493500Y347000D02*
D03*
Y355000D02*
D03*
X509500Y407500D02*
D03*
X579000Y416000D02*
D03*
X588000Y408000D02*
D03*
Y413000D02*
D03*
Y418500D02*
D03*
X580000Y407500D02*
D03*
X411000Y451500D02*
D03*
X446500Y411500D02*
D03*
X448000Y426000D02*
D03*
X457000Y353500D02*
D03*
D116*
X600500Y288500D02*
D03*
X341000D02*
D03*
X518000Y372500D02*
D03*
X430000Y421500D02*
D03*
X401768Y326918D02*
D03*
X349000Y500000D02*
D03*
X599500D02*
D03*
X590000Y490000D02*
D03*
X558405Y468500D02*
D03*
D117*
X475000Y354000D02*
D03*
X469000Y358000D02*
D03*
X428000Y360500D02*
D03*
X472000Y351000D02*
D03*
X476500Y358000D02*
D03*
X598500Y302500D02*
D03*
X595000D02*
D03*
X591500D02*
D03*
Y306000D02*
D03*
Y309500D02*
D03*
X590000Y317500D02*
D03*
X482000Y423500D02*
D03*
X508500Y366500D02*
D03*
X512000Y369500D02*
D03*
X508500Y372500D02*
D03*
X512000Y375500D02*
D03*
X508500Y378500D02*
D03*
X358768Y321000D02*
D03*
X365838Y333056D02*
D03*
X451000Y361000D02*
D03*
X470500Y312500D02*
D03*
X471000Y323500D02*
D03*
Y332500D02*
D03*
X521500Y466500D02*
D03*
X466000Y469000D02*
D03*
X473500D02*
D03*
X545000Y453000D02*
D03*
X542500Y457500D02*
D03*
X492000Y436500D02*
D03*
X489500Y439000D02*
D03*
X486000Y432000D02*
D03*
X483500Y435000D02*
D03*
X419500Y441500D02*
D03*
Y446500D02*
D03*
X456500Y439000D02*
D03*
X535000Y378500D02*
D03*
X531000Y381500D02*
D03*
X535000Y384000D02*
D03*
Y389000D02*
D03*
X531000Y391500D02*
D03*
Y386500D02*
D03*
X564000Y342500D02*
D03*
X604500Y385000D02*
D03*
Y388000D02*
D03*
Y382000D02*
D03*
Y391000D02*
D03*
X565500Y402000D02*
D03*
X569000D02*
D03*
X572500D02*
D03*
X607000Y435500D02*
D03*
Y439000D02*
D03*
Y442500D02*
D03*
Y446000D02*
D03*
X521500Y470000D02*
D03*
Y473500D02*
D03*
M02*
