G04*
G04 #@! TF.GenerationSoftware,Altium Limited,Altium Designer,19.1.5 (86)*
G04*
G04 Layer_Color=8388736*
%FSLAX25Y25*%
%MOIN*%
G70*
G01*
G75*
%ADD50R,0.07808X0.13202*%
%ADD51R,0.05524X0.03162*%
%ADD52R,0.10249X0.03792*%
%ADD53R,0.06430X0.04501*%
%ADD54R,0.09855X0.10642*%
%ADD55R,0.09658X0.07690*%
%ADD56R,0.05918X0.07887*%
G04:AMPARAMS|DCode=57|XSize=45.01mil|YSize=77.69mil|CornerRadius=6.59mil|HoleSize=0mil|Usage=FLASHONLY|Rotation=0.000|XOffset=0mil|YOffset=0mil|HoleType=Round|Shape=RoundedRectangle|*
%AMROUNDEDRECTD57*
21,1,0.04501,0.06450,0,0,0.0*
21,1,0.03183,0.07769,0,0,0.0*
1,1,0.01318,0.01591,-0.03225*
1,1,0.01318,-0.01591,-0.03225*
1,1,0.01318,-0.01591,0.03225*
1,1,0.01318,0.01591,0.03225*
%
%ADD57ROUNDEDRECTD57*%
G04:AMPARAMS|DCode=58|XSize=50.91mil|YSize=77.69mil|CornerRadius=7mil|HoleSize=0mil|Usage=FLASHONLY|Rotation=0.000|XOffset=0mil|YOffset=0mil|HoleType=Round|Shape=RoundedRectangle|*
%AMROUNDEDRECTD58*
21,1,0.05091,0.06368,0,0,0.0*
21,1,0.03691,0.07769,0,0,0.0*
1,1,0.01401,0.01845,-0.03184*
1,1,0.01401,-0.01845,-0.03184*
1,1,0.01401,-0.01845,0.03184*
1,1,0.01401,0.01845,0.03184*
%
%ADD58ROUNDEDRECTD58*%
G04:AMPARAMS|DCode=59|XSize=87.92mil|YSize=82.8mil|CornerRadius=7.74mil|HoleSize=0mil|Usage=FLASHONLY|Rotation=0.000|XOffset=0mil|YOffset=0mil|HoleType=Round|Shape=RoundedRectangle|*
%AMROUNDEDRECTD59*
21,1,0.08792,0.06732,0,0,0.0*
21,1,0.07244,0.08280,0,0,0.0*
1,1,0.01548,0.03622,-0.03366*
1,1,0.01548,-0.03622,-0.03366*
1,1,0.01548,-0.03622,0.03366*
1,1,0.01548,0.03622,0.03366*
%
%ADD59ROUNDEDRECTD59*%
G04:AMPARAMS|DCode=60|XSize=46.19mil|YSize=82.8mil|CornerRadius=5.91mil|HoleSize=0mil|Usage=FLASHONLY|Rotation=0.000|XOffset=0mil|YOffset=0mil|HoleType=Round|Shape=RoundedRectangle|*
%AMROUNDEDRECTD60*
21,1,0.04619,0.07098,0,0,0.0*
21,1,0.03437,0.08280,0,0,0.0*
1,1,0.01182,0.01719,-0.03549*
1,1,0.01182,-0.01719,-0.03549*
1,1,0.01182,-0.01719,0.03549*
1,1,0.01182,0.01719,0.03549*
%
%ADD60ROUNDEDRECTD60*%
%ADD61R,0.05721X0.03162*%
%ADD62R,0.07296X0.03162*%
%ADD63R,0.04737X0.06312*%
%ADD64R,0.06312X0.04737*%
%ADD65R,0.05524X0.04737*%
%ADD66R,0.05524X0.13792*%
%ADD67R,0.04501X0.06430*%
%ADD68R,0.05328X0.06509*%
%ADD69R,0.04540X0.04540*%
%ADD70R,0.04619X0.06587*%
%ADD71R,0.06706X0.16548*%
%ADD72R,0.03162X0.05524*%
%ADD73R,0.04737X0.07690*%
G04:AMPARAMS|DCode=74|XSize=85.56mil|YSize=31.62mil|CornerRadius=6.95mil|HoleSize=0mil|Usage=FLASHONLY|Rotation=0.000|XOffset=0mil|YOffset=0mil|HoleType=Round|Shape=RoundedRectangle|*
%AMROUNDEDRECTD74*
21,1,0.08556,0.01772,0,0,0.0*
21,1,0.07165,0.03162,0,0,0.0*
1,1,0.01391,0.03583,-0.00886*
1,1,0.01391,-0.03583,-0.00886*
1,1,0.01391,-0.03583,0.00886*
1,1,0.01391,0.03583,0.00886*
%
%ADD74ROUNDEDRECTD74*%
%ADD75R,0.06902X0.03162*%
%ADD76R,0.10150X0.08280*%
%ADD77R,0.05426X0.08280*%
%ADD78R,0.06607X0.09068*%
%ADD79R,0.02572X0.06233*%
%ADD80R,0.01981X0.02670*%
%ADD81R,0.06607X0.01981*%
%ADD82R,0.01981X0.06607*%
%ADD83R,0.06804X0.03359*%
%ADD84C,0.10642*%
%ADD85C,0.06706*%
%ADD86C,0.05524*%
%ADD87C,0.05918*%
%ADD88C,0.07119*%
%ADD89C,0.06804*%
%ADD90C,0.12611*%
%ADD91C,0.06784*%
%ADD92R,0.06784X0.06784*%
%ADD93R,0.06784X0.06784*%
%ADD94R,0.05524X0.05524*%
%ADD95C,0.03800*%
%ADD96C,0.04300*%
%ADD97C,0.02800*%
G36*
X362196Y334631D02*
Y336599D01*
X365247D01*
Y334631D01*
X362196D01*
D02*
G37*
G36*
X366428D02*
Y336599D01*
X369479D01*
Y334631D01*
X366428D01*
D02*
G37*
G36*
X362196Y344867D02*
Y346836D01*
X365247D01*
Y344867D01*
X362196D01*
D02*
G37*
G36*
X366428D02*
Y346836D01*
X369479D01*
Y344867D01*
X366428D01*
D02*
G37*
G36*
X362358Y356990D02*
Y358959D01*
X365409D01*
Y356990D01*
X362358D01*
D02*
G37*
G36*
X366590D02*
Y358959D01*
X369642D01*
Y356990D01*
X366590D01*
D02*
G37*
G36*
X362358Y367226D02*
Y369195D01*
X365409D01*
Y367226D01*
X362358D01*
D02*
G37*
G36*
X366590D02*
Y369195D01*
X369642D01*
Y367226D01*
X366590D01*
D02*
G37*
D50*
X539205Y491000D02*
D03*
X559795D02*
D03*
D51*
X598079Y317240D02*
D03*
Y309760D02*
D03*
X607921Y313500D02*
D03*
D52*
X434177Y332000D02*
D03*
X418823D02*
D03*
X434177Y337000D02*
D03*
X418823D02*
D03*
X434177Y342000D02*
D03*
X418823D02*
D03*
X434177Y347000D02*
D03*
X418823D02*
D03*
X434177Y352000D02*
D03*
X418823D02*
D03*
D53*
X411000Y445272D02*
D03*
Y451728D02*
D03*
X450000Y440772D02*
D03*
Y447228D02*
D03*
X480000Y346772D02*
D03*
Y353228D02*
D03*
X435048Y372272D02*
D03*
Y378728D02*
D03*
X427000Y372272D02*
D03*
Y378728D02*
D03*
X509500Y407228D02*
D03*
Y400772D02*
D03*
X500500Y407228D02*
D03*
Y400772D02*
D03*
D54*
X374205Y302582D02*
D03*
X349795D02*
D03*
D55*
X335679Y315905D02*
D03*
Y304095D02*
D03*
D56*
X336500Y326060D02*
D03*
Y336296D02*
D03*
D57*
X357063Y357500D02*
D03*
X346937Y321000D02*
D03*
X374937Y347655D02*
D03*
D58*
X345232Y357500D02*
D03*
X358768Y321000D02*
D03*
X386768Y347655D02*
D03*
D59*
X600600Y288500D02*
D03*
X332100D02*
D03*
X348900Y500000D02*
D03*
X591100D02*
D03*
D60*
X609269Y288500D02*
D03*
X340769D02*
D03*
X340231Y500000D02*
D03*
X599768D02*
D03*
D61*
X346170Y346093D02*
D03*
Y338573D02*
D03*
X354438Y342333D02*
D03*
D62*
X366000Y355415D02*
D03*
Y370770D02*
D03*
X365838Y333056D02*
D03*
Y348410D02*
D03*
D63*
X357240Y330426D02*
D03*
X349760D02*
D03*
X523760Y347500D02*
D03*
X531240D02*
D03*
X487260Y332500D02*
D03*
X494740D02*
D03*
X487260Y323500D02*
D03*
X494740D02*
D03*
X487260Y312500D02*
D03*
X494740D02*
D03*
X582240Y386500D02*
D03*
X574760D02*
D03*
X585740Y446000D02*
D03*
X578260D02*
D03*
X508260Y471500D02*
D03*
X515740D02*
D03*
D64*
X366836Y319260D02*
D03*
Y326740D02*
D03*
X575500Y370760D02*
D03*
Y378240D02*
D03*
Y356176D02*
D03*
Y363656D02*
D03*
X579000Y430260D02*
D03*
Y437740D02*
D03*
Y415676D02*
D03*
Y423156D02*
D03*
D65*
X375120Y336851D02*
D03*
Y327796D02*
D03*
Y318741D02*
D03*
D66*
X401892Y327796D02*
D03*
D67*
X376272Y356766D02*
D03*
X382728D02*
D03*
X576728Y348500D02*
D03*
X570272D02*
D03*
X573772Y407500D02*
D03*
X580228D02*
D03*
X448272Y426000D02*
D03*
X454728D02*
D03*
X448272Y417952D02*
D03*
X454728D02*
D03*
X493521Y355048D02*
D03*
X487064D02*
D03*
X493521Y347000D02*
D03*
X487064D02*
D03*
X456728Y353548D02*
D03*
X450272D02*
D03*
X456728Y345500D02*
D03*
X450272D02*
D03*
D68*
X514196Y347000D02*
D03*
X507109D02*
D03*
X477696Y312500D02*
D03*
X470609D02*
D03*
D69*
X471047Y332500D02*
D03*
X476953D02*
D03*
X471047Y323737D02*
D03*
X476953D02*
D03*
D70*
X603268Y396500D02*
D03*
X596732D02*
D03*
X601232Y451500D02*
D03*
X607768D02*
D03*
D71*
X602173Y413000D02*
D03*
X588000D02*
D03*
X583827Y354500D02*
D03*
X598000D02*
D03*
D72*
X473240Y458079D02*
D03*
X469500D02*
D03*
X465760D02*
D03*
Y467921D02*
D03*
X469500D02*
D03*
X473240D02*
D03*
D73*
X546594Y468500D02*
D03*
X558405D02*
D03*
D74*
X599744Y490500D02*
D03*
Y485500D02*
D03*
Y480500D02*
D03*
Y475500D02*
D03*
X580256D02*
D03*
Y480500D02*
D03*
Y485500D02*
D03*
Y490500D02*
D03*
D75*
X518630Y483000D02*
D03*
Y488000D02*
D03*
Y493000D02*
D03*
Y498000D02*
D03*
X497370D02*
D03*
Y493000D02*
D03*
Y488000D02*
D03*
Y483000D02*
D03*
D76*
X458933Y495535D02*
D03*
X481867D02*
D03*
D77*
X467103D02*
D03*
X473697D02*
D03*
D78*
X480056Y486480D02*
D03*
X460744D02*
D03*
D79*
X465282Y485063D02*
D03*
X467841D02*
D03*
X470400D02*
D03*
X472959D02*
D03*
X475518D02*
D03*
D80*
X592547Y381299D02*
D03*
X594516D02*
D03*
X596484D02*
D03*
X598453D02*
D03*
Y374701D02*
D03*
X596484D02*
D03*
X594516D02*
D03*
X592547D02*
D03*
X596547Y436299D02*
D03*
X598516D02*
D03*
X600484D02*
D03*
X602453D02*
D03*
Y429701D02*
D03*
X600484D02*
D03*
X598516D02*
D03*
X596547D02*
D03*
D81*
X446410Y401264D02*
D03*
Y399295D02*
D03*
Y397327D02*
D03*
Y395358D02*
D03*
Y393390D02*
D03*
Y391421D02*
D03*
Y389453D02*
D03*
Y387484D02*
D03*
Y385516D02*
D03*
Y383547D02*
D03*
Y381579D02*
D03*
Y379610D02*
D03*
Y377642D02*
D03*
Y375673D02*
D03*
Y373705D02*
D03*
Y371736D02*
D03*
X491590D02*
D03*
Y373705D02*
D03*
Y375673D02*
D03*
Y377642D02*
D03*
Y379610D02*
D03*
Y381579D02*
D03*
Y383547D02*
D03*
Y385516D02*
D03*
Y387484D02*
D03*
Y389453D02*
D03*
Y391421D02*
D03*
Y393390D02*
D03*
Y395358D02*
D03*
Y397327D02*
D03*
Y399295D02*
D03*
Y401264D02*
D03*
D82*
X454236Y363910D02*
D03*
X456205D02*
D03*
X458173D02*
D03*
X460142D02*
D03*
X462110D02*
D03*
X464079D02*
D03*
X466047D02*
D03*
X468016D02*
D03*
X469984D02*
D03*
X471953D02*
D03*
X473921D02*
D03*
X475890D02*
D03*
X477858D02*
D03*
X479827D02*
D03*
X481795D02*
D03*
X483764D02*
D03*
Y409091D02*
D03*
X481795D02*
D03*
X479827D02*
D03*
X477858D02*
D03*
X475890D02*
D03*
X473921D02*
D03*
X471953D02*
D03*
X469984D02*
D03*
X468016D02*
D03*
X466047D02*
D03*
X464079D02*
D03*
X462110D02*
D03*
X460142D02*
D03*
X458173D02*
D03*
X456205D02*
D03*
X454236D02*
D03*
D83*
X441177Y436500D02*
D03*
Y441500D02*
D03*
Y446500D02*
D03*
Y451500D02*
D03*
X419823D02*
D03*
Y446500D02*
D03*
Y441500D02*
D03*
Y436500D02*
D03*
D84*
X302900Y324500D02*
D03*
X382800Y496600D02*
D03*
X305700Y374600D02*
D03*
X633100Y375900D02*
D03*
X617500Y269500D02*
D03*
D85*
X411252Y490000D02*
D03*
X442748D02*
D03*
D86*
X419126D02*
D03*
X320428Y478000D02*
D03*
Y468000D02*
D03*
Y458000D02*
D03*
Y448000D02*
D03*
Y438000D02*
D03*
Y428000D02*
D03*
Y418000D02*
D03*
Y408000D02*
D03*
Y398000D02*
D03*
Y388000D02*
D03*
Y378000D02*
D03*
Y368000D02*
D03*
Y358000D02*
D03*
Y348000D02*
D03*
Y338000D02*
D03*
Y328000D02*
D03*
Y318000D02*
D03*
Y308000D02*
D03*
Y298000D02*
D03*
X620428Y488000D02*
D03*
Y478000D02*
D03*
Y468000D02*
D03*
Y458000D02*
D03*
Y448000D02*
D03*
Y438000D02*
D03*
Y428000D02*
D03*
Y418000D02*
D03*
Y408000D02*
D03*
Y398000D02*
D03*
Y388000D02*
D03*
Y378000D02*
D03*
Y368000D02*
D03*
Y358000D02*
D03*
Y348000D02*
D03*
Y338000D02*
D03*
Y328000D02*
D03*
Y318000D02*
D03*
Y308000D02*
D03*
D87*
X427000Y490000D02*
D03*
X434874D02*
D03*
D88*
X640500Y487932D02*
D03*
Y476121D02*
D03*
Y464310D02*
D03*
Y452499D02*
D03*
Y440688D02*
D03*
Y428877D02*
D03*
Y417066D02*
D03*
Y405255D02*
D03*
Y393444D02*
D03*
X300000Y393445D02*
D03*
X300000Y405256D02*
D03*
X300000Y417067D02*
D03*
X300000Y428878D02*
D03*
X300000Y440689D02*
D03*
X300000Y452500D02*
D03*
X300000Y464311D02*
D03*
Y476122D02*
D03*
Y487933D02*
D03*
X640500Y358073D02*
D03*
Y346262D02*
D03*
Y334451D02*
D03*
Y322640D02*
D03*
Y310829D02*
D03*
Y299018D02*
D03*
Y287207D02*
D03*
Y275395D02*
D03*
Y263584D02*
D03*
D89*
X657508Y479467D02*
D03*
Y401908D02*
D03*
X282992Y401909D02*
D03*
X282992Y479468D02*
D03*
X657508Y349608D02*
D03*
Y272049D02*
D03*
D90*
X620595Y220492D02*
D03*
X284000Y350500D02*
D03*
X285500Y298000D02*
D03*
D91*
X614689Y237500D02*
D03*
X301008Y356405D02*
D03*
X279594Y315008D02*
D03*
D92*
X626500Y237500D02*
D03*
X291406Y315008D02*
D03*
D93*
X301008Y344595D02*
D03*
D94*
X320428Y488000D02*
D03*
X620428Y298000D02*
D03*
D95*
X522500Y400772D02*
D03*
X509500Y400772D02*
D03*
X418823Y352000D02*
D03*
X405500Y375500D02*
D03*
X493500Y347000D02*
D03*
Y355000D02*
D03*
X509500Y407500D02*
D03*
X579000Y416000D02*
D03*
X588000Y408000D02*
D03*
Y413000D02*
D03*
Y418500D02*
D03*
X580000Y407500D02*
D03*
X411000Y451500D02*
D03*
X446500Y411500D02*
D03*
X448000Y426000D02*
D03*
X457000Y353500D02*
D03*
D96*
X600500Y288500D02*
D03*
X341000D02*
D03*
X518000Y372500D02*
D03*
X430000Y421500D02*
D03*
X401768Y326918D02*
D03*
X349000Y500000D02*
D03*
X599500D02*
D03*
X590000Y490000D02*
D03*
X558405Y468500D02*
D03*
D97*
X475000Y354000D02*
D03*
X469000Y358000D02*
D03*
X428000Y360500D02*
D03*
X472000Y351000D02*
D03*
X476500Y358000D02*
D03*
X598500Y302500D02*
D03*
X595000D02*
D03*
X591500D02*
D03*
Y306000D02*
D03*
Y309500D02*
D03*
X590000Y317500D02*
D03*
X482000Y423500D02*
D03*
X508500Y366500D02*
D03*
X512000Y369500D02*
D03*
X508500Y372500D02*
D03*
X512000Y375500D02*
D03*
X508500Y378500D02*
D03*
X358768Y321000D02*
D03*
X365838Y333056D02*
D03*
X451000Y361000D02*
D03*
X470500Y312500D02*
D03*
X471000Y323500D02*
D03*
Y332500D02*
D03*
X521500Y466500D02*
D03*
X466000Y469000D02*
D03*
X473500D02*
D03*
X545000Y453000D02*
D03*
X542500Y457500D02*
D03*
X492000Y436500D02*
D03*
X489500Y439000D02*
D03*
X486000Y432000D02*
D03*
X483500Y435000D02*
D03*
X419500Y441500D02*
D03*
Y446500D02*
D03*
X456500Y439000D02*
D03*
X535000Y378500D02*
D03*
X531000Y381500D02*
D03*
X535000Y384000D02*
D03*
Y389000D02*
D03*
X531000Y391500D02*
D03*
Y386500D02*
D03*
X564000Y342500D02*
D03*
X604500Y385000D02*
D03*
Y388000D02*
D03*
Y382000D02*
D03*
Y391000D02*
D03*
X565500Y402000D02*
D03*
X569000D02*
D03*
X572500D02*
D03*
X607000Y435500D02*
D03*
Y439000D02*
D03*
Y442500D02*
D03*
Y446000D02*
D03*
X521500Y470000D02*
D03*
Y473500D02*
D03*
M02*
