G04*
G04 #@! TF.GenerationSoftware,Altium Limited,Altium Designer,19.1.5 (86)*
G04*
G04 Layer_Physical_Order=2*
G04 Layer_Color=16711680*
%FSLAX25Y25*%
%MOIN*%
G70*
G01*
G75*
%ADD11C,0.01000*%
%ADD99C,0.03000*%
%ADD102C,0.02000*%
%ADD104C,0.09843*%
%ADD105C,0.05906*%
%ADD106C,0.04724*%
%ADD107C,0.05118*%
%ADD108C,0.06319*%
%ADD109C,0.06004*%
%ADD110C,0.11811*%
%ADD111C,0.05984*%
%ADD112R,0.05984X0.05984*%
%ADD113R,0.05984X0.05984*%
%ADD114R,0.04724X0.04724*%
%ADD115C,0.03000*%
%ADD116C,0.03500*%
%ADD117C,0.02000*%
G36*
X676000Y250000D02*
X640500D01*
Y200000D01*
X601000D01*
Y275000D01*
X569549Y306451D01*
X569618Y306951D01*
X576944D01*
X597198Y286698D01*
X598025Y286145D01*
X599000Y285951D01*
X599468D01*
X599782Y285821D01*
X600500Y285726D01*
X601218Y285821D01*
X601887Y286098D01*
X602461Y286539D01*
X602902Y287113D01*
X603179Y287782D01*
X603274Y288500D01*
X603179Y289218D01*
X602902Y289887D01*
X602461Y290461D01*
X601887Y290902D01*
X601218Y291179D01*
X600500Y291274D01*
X599909Y291196D01*
X591068Y300037D01*
X591314Y300498D01*
X591500Y300461D01*
X592280Y300616D01*
X592942Y301058D01*
X593000Y301145D01*
X593500D01*
X593558Y301058D01*
X594220Y300616D01*
X595000Y300461D01*
X595780Y300616D01*
X596442Y301058D01*
X596500Y301145D01*
X597000D01*
X597058Y301058D01*
X597720Y300616D01*
X598500Y300461D01*
X599280Y300616D01*
X599942Y301058D01*
X600384Y301720D01*
X600539Y302500D01*
X600384Y303280D01*
X599942Y303942D01*
X599280Y304384D01*
X598500Y304539D01*
X597720Y304384D01*
X597058Y303942D01*
X597000Y303855D01*
X596500D01*
X596442Y303942D01*
X595780Y304384D01*
X595000Y304539D01*
X594220Y304384D01*
X593558Y303942D01*
X593500Y303855D01*
X593000D01*
X592942Y303942D01*
X592855Y304000D01*
Y304500D01*
X592942Y304558D01*
X593384Y305220D01*
X593539Y306000D01*
X593384Y306780D01*
X592942Y307442D01*
X592855Y307500D01*
Y308000D01*
X592942Y308058D01*
X593384Y308720D01*
X593539Y309500D01*
X593384Y310280D01*
X592942Y310942D01*
X592280Y311384D01*
X591500Y311539D01*
X590720Y311384D01*
X590058Y310942D01*
X589616Y310280D01*
X589461Y309500D01*
X589616Y308720D01*
X590058Y308058D01*
X590145Y308000D01*
Y307500D01*
X590058Y307442D01*
X589616Y306780D01*
X589461Y306000D01*
X589616Y305220D01*
X590058Y304558D01*
X590145Y304500D01*
Y304000D01*
X590058Y303942D01*
X589616Y303280D01*
X589461Y302500D01*
X589498Y302314D01*
X589037Y302068D01*
X579802Y311302D01*
X578975Y311855D01*
X578000Y312049D01*
X495500D01*
X494524Y311855D01*
X494067Y311549D01*
X472825D01*
X472449Y312049D01*
X472539Y312500D01*
X472384Y313280D01*
X471942Y313942D01*
X471942Y313942D01*
X467039Y318845D01*
Y323924D01*
X467501Y324115D01*
X469558Y322058D01*
X470220Y321616D01*
X471000Y321461D01*
X471780Y321616D01*
X472442Y322058D01*
X472884Y322720D01*
X473039Y323500D01*
X472884Y324280D01*
X472442Y324942D01*
X470039Y327345D01*
Y330181D01*
X470539Y330553D01*
X471000Y330461D01*
X471780Y330616D01*
X472442Y331058D01*
X480442Y339058D01*
X480884Y339720D01*
X481039Y340500D01*
Y355500D01*
X480884Y356280D01*
X480442Y356942D01*
X477942Y359442D01*
X477280Y359884D01*
X476943Y359951D01*
X476993Y360451D01*
X512500D01*
X513476Y360645D01*
X514302Y361198D01*
X519802Y366698D01*
X520355Y367525D01*
X520549Y368500D01*
Y371468D01*
X520679Y371782D01*
X520774Y372500D01*
X520679Y373218D01*
X520549Y373532D01*
Y378500D01*
X520355Y379475D01*
X519802Y380302D01*
X476802Y423302D01*
X475976Y423855D01*
X475000Y424049D01*
X450304D01*
X450037Y424549D01*
X450355Y425025D01*
X450450Y425500D01*
X445550D01*
X445645Y425025D01*
X445963Y424549D01*
X445696Y424049D01*
X431032D01*
X430718Y424179D01*
X430000Y424274D01*
X429282Y424179D01*
X428613Y423902D01*
X428039Y423461D01*
X427598Y422887D01*
X427321Y422218D01*
X427226Y421500D01*
X427321Y420782D01*
X427598Y420113D01*
X428039Y419539D01*
X428613Y419098D01*
X429282Y418821D01*
X430000Y418726D01*
X430718Y418821D01*
X431032Y418951D01*
X473944D01*
X515451Y377444D01*
Y373532D01*
X515321Y373218D01*
X515226Y372500D01*
X515321Y371782D01*
X515451Y371468D01*
Y369556D01*
X514224Y368329D01*
X513836Y368648D01*
X513884Y368720D01*
X514039Y369500D01*
X513884Y370280D01*
X513442Y370942D01*
X512780Y371384D01*
X512000Y371539D01*
X511220Y371384D01*
X510970Y371217D01*
X510691Y371279D01*
X510384Y371720D01*
X510539Y372500D01*
X510384Y373280D01*
X510691Y373721D01*
X510970Y373783D01*
X511220Y373616D01*
X512000Y373461D01*
X512780Y373616D01*
X513442Y374058D01*
X513884Y374720D01*
X514039Y375500D01*
X513884Y376280D01*
X513442Y376942D01*
X512780Y377384D01*
X512000Y377539D01*
X511220Y377384D01*
X510970Y377217D01*
X510691Y377279D01*
X510384Y377720D01*
X510539Y378500D01*
X510384Y379280D01*
X509942Y379942D01*
X509280Y380384D01*
X508500Y380539D01*
X507720Y380384D01*
X507189Y380029D01*
X433134D01*
X329081Y484081D01*
X328585Y484413D01*
X328000Y484529D01*
X324246D01*
X323791Y484638D01*
X323791Y485029D01*
Y491362D01*
X317066D01*
X317066Y484638D01*
X316611Y484529D01*
X305567D01*
X303817Y486279D01*
X304052Y486847D01*
X304195Y487933D01*
X304052Y489019D01*
X303633Y490031D01*
X302967Y490900D01*
X302098Y491566D01*
X301086Y491986D01*
X300000Y492128D01*
X298914Y491986D01*
X297902Y491566D01*
X297034Y490900D01*
X296367Y490031D01*
X295948Y489019D01*
X295805Y487933D01*
X295948Y486847D01*
X296367Y485835D01*
X297034Y484967D01*
X297902Y484300D01*
X298914Y483881D01*
X300000Y483738D01*
X301086Y483881D01*
X301654Y484116D01*
X303852Y481919D01*
X304348Y481587D01*
X304933Y481471D01*
X318715D01*
X318814Y480971D01*
X318733Y480937D01*
X318031Y480398D01*
X317492Y479696D01*
X317153Y478878D01*
X317037Y478000D01*
X317153Y477122D01*
X317492Y476304D01*
X318031Y475602D01*
X318733Y475063D01*
X319551Y474724D01*
X320428Y474609D01*
X321306Y474724D01*
X322124Y475063D01*
X322826Y475602D01*
X323365Y476304D01*
X323704Y477122D01*
X323820Y478000D01*
X323704Y478878D01*
X323365Y479696D01*
X322826Y480398D01*
X322124Y480937D01*
X322042Y480971D01*
X322142Y481471D01*
X327366D01*
X431308Y377529D01*
X431171Y377092D01*
X431123Y377029D01*
X410634D01*
X323581Y464081D01*
X323085Y464413D01*
X322500Y464529D01*
X322142D01*
X322042Y465029D01*
X322124Y465063D01*
X322826Y465602D01*
X323365Y466304D01*
X323704Y467122D01*
X323820Y468000D01*
X323704Y468878D01*
X323365Y469696D01*
X322826Y470398D01*
X322124Y470937D01*
X321306Y471276D01*
X320428Y471391D01*
X319551Y471276D01*
X318733Y470937D01*
X318031Y470398D01*
X317492Y469696D01*
X317153Y468878D01*
X317037Y468000D01*
X317153Y467122D01*
X317492Y466304D01*
X318031Y465602D01*
X318733Y465063D01*
X318814Y465029D01*
X318715Y464529D01*
X304167D01*
X304052Y465397D01*
X303633Y466409D01*
X302967Y467278D01*
X302098Y467944D01*
X301086Y468363D01*
X300000Y468506D01*
X298914Y468363D01*
X297902Y467944D01*
X297034Y467278D01*
X296367Y466409D01*
X295948Y465397D01*
X295805Y464311D01*
X295948Y463225D01*
X296367Y462213D01*
X297034Y461344D01*
X297902Y460678D01*
X298914Y460259D01*
X300000Y460116D01*
X301086Y460259D01*
X302098Y460678D01*
X302967Y461344D01*
X303063Y461471D01*
X318715D01*
X318814Y460971D01*
X318733Y460937D01*
X318031Y460398D01*
X317492Y459696D01*
X317153Y458878D01*
X317037Y458000D01*
X317153Y457122D01*
X317492Y456304D01*
X318031Y455602D01*
X318733Y455063D01*
X319551Y454724D01*
X320428Y454609D01*
X321306Y454724D01*
X322124Y455063D01*
X322826Y455602D01*
X323365Y456304D01*
X323704Y457122D01*
X323820Y458000D01*
X323704Y458878D01*
X323670Y458960D01*
X324094Y459243D01*
X404948Y378389D01*
X404803Y377910D01*
X404525Y377855D01*
X403698Y377302D01*
X403145Y376476D01*
X403051Y376000D01*
X405500D01*
Y375000D01*
X403051D01*
X403145Y374524D01*
X403181Y374470D01*
X402946Y374029D01*
X398133D01*
X328081Y444081D01*
X327585Y444413D01*
X327000Y444529D01*
X322142D01*
X322042Y445029D01*
X322124Y445063D01*
X322826Y445602D01*
X323365Y446304D01*
X323704Y447122D01*
X323820Y448000D01*
X323704Y448878D01*
X323365Y449696D01*
X322826Y450398D01*
X322124Y450937D01*
X321306Y451276D01*
X320428Y451391D01*
X319551Y451276D01*
X318733Y450937D01*
X318031Y450398D01*
X317492Y449696D01*
X317153Y448878D01*
X317037Y448000D01*
X317153Y447122D01*
X317492Y446304D01*
X318031Y445602D01*
X318733Y445063D01*
X318814Y445029D01*
X318715Y444529D01*
X315875D01*
X315290Y444413D01*
X314794Y444081D01*
X312931Y442218D01*
X303869D01*
X303633Y442787D01*
X302967Y443655D01*
X302098Y444322D01*
X301086Y444741D01*
X300000Y444884D01*
X298914Y444741D01*
X297902Y444322D01*
X297034Y443655D01*
X296367Y442787D01*
X295948Y441775D01*
X295805Y440689D01*
X295948Y439603D01*
X296367Y438591D01*
X297034Y437722D01*
X297902Y437056D01*
X298914Y436637D01*
X300000Y436494D01*
X301086Y436637D01*
X302098Y437056D01*
X302967Y437722D01*
X303633Y438591D01*
X303869Y439160D01*
X313564D01*
X314149Y439276D01*
X314646Y439607D01*
X316509Y441471D01*
X318715D01*
X318814Y440971D01*
X318733Y440937D01*
X318031Y440398D01*
X317492Y439696D01*
X317153Y438878D01*
X317037Y438000D01*
X317153Y437122D01*
X317492Y436304D01*
X318031Y435602D01*
X318733Y435063D01*
X319551Y434724D01*
X320428Y434609D01*
X321306Y434724D01*
X322124Y435063D01*
X322826Y435602D01*
X323365Y436304D01*
X323704Y437122D01*
X323820Y438000D01*
X323704Y438878D01*
X323365Y439696D01*
X322826Y440398D01*
X322124Y440937D01*
X322042Y440971D01*
X322142Y441471D01*
X326366D01*
X396308Y371529D01*
X396171Y371092D01*
X396123Y371029D01*
X381134D01*
X328081Y424081D01*
X327585Y424413D01*
X327000Y424529D01*
X322142D01*
X322042Y425029D01*
X322124Y425063D01*
X322826Y425602D01*
X323365Y426304D01*
X323704Y427122D01*
X323820Y428000D01*
X323704Y428878D01*
X323365Y429696D01*
X322826Y430398D01*
X322124Y430937D01*
X321306Y431276D01*
X320428Y431391D01*
X319551Y431276D01*
X318733Y430937D01*
X318031Y430398D01*
X317492Y429696D01*
X317153Y428878D01*
X317037Y428000D01*
X317153Y427122D01*
X317492Y426304D01*
X318031Y425602D01*
X318733Y425063D01*
X318814Y425029D01*
X318715Y424529D01*
X305933D01*
X305348Y424413D01*
X304852Y424081D01*
X301654Y420884D01*
X301086Y421119D01*
X300000Y421262D01*
X298914Y421119D01*
X297902Y420700D01*
X297034Y420034D01*
X296367Y419165D01*
X295948Y418153D01*
X295805Y417067D01*
X295948Y415981D01*
X296367Y414969D01*
X297034Y414100D01*
X297902Y413434D01*
X298914Y413015D01*
X300000Y412872D01*
X301086Y413015D01*
X302098Y413434D01*
X302967Y414100D01*
X303633Y414969D01*
X304052Y415981D01*
X304195Y417067D01*
X304052Y418153D01*
X303817Y418721D01*
X306567Y421471D01*
X318715D01*
X318814Y420971D01*
X318733Y420937D01*
X318031Y420398D01*
X317492Y419696D01*
X317153Y418878D01*
X317037Y418000D01*
X317153Y417122D01*
X317492Y416304D01*
X318031Y415602D01*
X318733Y415063D01*
X319551Y414724D01*
X320428Y414609D01*
X321306Y414724D01*
X322124Y415063D01*
X322826Y415602D01*
X323365Y416304D01*
X323704Y417122D01*
X323820Y418000D01*
X323704Y418878D01*
X323365Y419696D01*
X322826Y420398D01*
X322124Y420937D01*
X322042Y420971D01*
X322142Y421471D01*
X326366D01*
X379308Y368529D01*
X379171Y368092D01*
X379123Y368029D01*
X355633D01*
X329081Y394581D01*
X328585Y394913D01*
X328000Y395029D01*
X322901D01*
X322732Y395529D01*
X322826Y395602D01*
X323365Y396304D01*
X323704Y397122D01*
X323820Y398000D01*
X323704Y398878D01*
X323365Y399696D01*
X322826Y400398D01*
X322124Y400937D01*
X321306Y401276D01*
X320428Y401391D01*
X319551Y401276D01*
X318733Y400937D01*
X318031Y400398D01*
X317492Y399696D01*
X317153Y398878D01*
X317037Y398000D01*
X317153Y397122D01*
X317492Y396304D01*
X318031Y395602D01*
X318125Y395529D01*
X317955Y395029D01*
X303846D01*
X303633Y395543D01*
X302967Y396411D01*
X302098Y397078D01*
X301086Y397497D01*
X300000Y397640D01*
X298914Y397497D01*
X297902Y397078D01*
X297034Y396411D01*
X296367Y395543D01*
X295948Y394531D01*
X295805Y393445D01*
X295948Y392359D01*
X296367Y391347D01*
X297034Y390478D01*
X297902Y389812D01*
X298914Y389392D01*
X300000Y389249D01*
X301086Y389392D01*
X302098Y389812D01*
X302967Y390478D01*
X303633Y391347D01*
X303891Y391971D01*
X327366D01*
X353919Y365419D01*
X354415Y365087D01*
X355000Y364971D01*
X473159D01*
X473366Y364471D01*
X471198Y362302D01*
X470645Y361475D01*
X470451Y360500D01*
Y360037D01*
X469951Y359770D01*
X469780Y359884D01*
X469000Y360039D01*
X468220Y359884D01*
X467689Y359529D01*
X453024D01*
X452757Y360029D01*
X452884Y360220D01*
X453039Y361000D01*
X452884Y361780D01*
X452442Y362442D01*
X451780Y362884D01*
X451000Y363039D01*
X450220Y362884D01*
X449558Y362442D01*
X449282Y362029D01*
X429311D01*
X428780Y362384D01*
X428000Y362539D01*
X427220Y362384D01*
X426558Y361942D01*
X426116Y361280D01*
X425961Y360500D01*
X426054Y360029D01*
X425688Y359529D01*
X360428D01*
X359843Y359413D01*
X359347Y359081D01*
X321472Y321207D01*
X321306Y321276D01*
X320428Y321391D01*
X319551Y321276D01*
X318733Y320937D01*
X318031Y320398D01*
X317492Y319696D01*
X317153Y318878D01*
X317037Y318000D01*
X317153Y317122D01*
X317492Y316304D01*
X318031Y315602D01*
X318733Y315063D01*
X319551Y314724D01*
X320428Y314609D01*
X321306Y314724D01*
X322124Y315063D01*
X322826Y315602D01*
X323365Y316304D01*
X323704Y317122D01*
X323820Y318000D01*
X323704Y318878D01*
X323635Y319044D01*
X361062Y356471D01*
X456557D01*
X456606Y355971D01*
X456025Y355855D01*
X455198Y355302D01*
X454645Y354475D01*
X454551Y354000D01*
X459449D01*
X459355Y354475D01*
X458802Y355302D01*
X457975Y355855D01*
X457394Y355971D01*
X457443Y356471D01*
X467689D01*
X467940Y356303D01*
X468028Y355683D01*
X441812Y329467D01*
X402801D01*
X402486Y329597D01*
X401768Y329692D01*
X401051Y329597D01*
X400382Y329320D01*
X399807Y328879D01*
X399366Y328305D01*
X399089Y327636D01*
X398995Y326918D01*
X399089Y326200D01*
X399366Y325531D01*
X399807Y324957D01*
X400382Y324516D01*
X401051Y324239D01*
X401768Y324144D01*
X402486Y324239D01*
X402801Y324369D01*
X442868D01*
X443843Y324563D01*
X444670Y325115D01*
X469499Y349944D01*
X469961Y349753D01*
Y342845D01*
X463558Y336442D01*
X463116Y335780D01*
X462961Y335000D01*
Y318000D01*
X463116Y317220D01*
X463558Y316558D01*
X468105Y312011D01*
X467914Y311549D01*
X435158D01*
X434700Y311855D01*
X433725Y312049D01*
X364851D01*
X363875Y311855D01*
X363048Y311302D01*
X342795Y291049D01*
X342032D01*
X341718Y291179D01*
X341000Y291274D01*
X340282Y291179D01*
X339613Y290902D01*
X339039Y290461D01*
X338598Y289887D01*
X338321Y289218D01*
X338226Y288500D01*
X338321Y287782D01*
X338598Y287113D01*
X339039Y286539D01*
X339613Y286098D01*
X340282Y285821D01*
X341000Y285726D01*
X341718Y285821D01*
X342032Y285951D01*
X343851D01*
X344826Y286145D01*
X345653Y286698D01*
X365906Y306951D01*
X396882D01*
X396951Y306451D01*
X381500Y291000D01*
X353500D01*
X340000Y277500D01*
X263500D01*
Y505500D01*
X614803D01*
X614852Y505000D01*
X614415Y504913D01*
X613919Y504581D01*
X574367Y465029D01*
X523524D01*
X523257Y465529D01*
X523384Y465720D01*
X523539Y466500D01*
X523384Y467280D01*
X522942Y467942D01*
X522855Y468000D01*
Y468500D01*
X522942Y468558D01*
X523384Y469220D01*
X523539Y470000D01*
X523384Y470780D01*
X522942Y471442D01*
X522855Y471500D01*
Y472000D01*
X522942Y472058D01*
X523384Y472720D01*
X523539Y473500D01*
X523384Y474280D01*
X522942Y474942D01*
X522280Y475384D01*
X521500Y475539D01*
X520720Y475384D01*
X520058Y474942D01*
X519616Y474280D01*
X519461Y473500D01*
X519616Y472720D01*
X520058Y472058D01*
X520145Y472000D01*
Y471500D01*
X520058Y471442D01*
X519616Y470780D01*
X519461Y470000D01*
X519616Y469220D01*
X520058Y468558D01*
X520145Y468500D01*
Y468000D01*
X520058Y467942D01*
X519806Y467564D01*
X519184Y467478D01*
X514081Y472581D01*
X513585Y472913D01*
X513000Y473029D01*
X472036D01*
X471450Y472913D01*
X470954Y472581D01*
X468902Y470529D01*
X467311D01*
X466780Y470884D01*
X466000Y471039D01*
X465220Y470884D01*
X464558Y470442D01*
X464116Y469780D01*
X463961Y469000D01*
X464116Y468220D01*
X464558Y467558D01*
X465220Y467116D01*
X466000Y466961D01*
X466780Y467116D01*
X467311Y467471D01*
X469535D01*
X470121Y467587D01*
X470617Y467919D01*
X471125Y468427D01*
X471604Y468282D01*
X471616Y468220D01*
X472058Y467558D01*
X472720Y467116D01*
X473500Y466961D01*
X474280Y467116D01*
X474811Y467471D01*
X512366D01*
X519419Y460419D01*
X519915Y460087D01*
X520500Y459971D01*
X542106D01*
X542155Y459471D01*
X541720Y459384D01*
X541058Y458942D01*
X540616Y458280D01*
X540461Y457500D01*
X540616Y456720D01*
X541058Y456058D01*
X541720Y455616D01*
X542500Y455461D01*
X543280Y455616D01*
X543811Y455971D01*
X589928D01*
X590514Y456087D01*
X591010Y456419D01*
X619384Y484793D01*
X619551Y484724D01*
X620428Y484609D01*
X621306Y484724D01*
X622124Y485063D01*
X622826Y485602D01*
X623365Y486304D01*
X623704Y487122D01*
X623820Y488000D01*
X623704Y488878D01*
X623365Y489696D01*
X622826Y490398D01*
X622124Y490937D01*
X621306Y491276D01*
X620428Y491391D01*
X619551Y491276D01*
X618733Y490937D01*
X618031Y490398D01*
X617491Y489696D01*
X617153Y488878D01*
X617111Y488564D01*
X616638Y488404D01*
X614352Y490689D01*
X622133Y498471D01*
X635366D01*
X641313Y492525D01*
X641079Y492051D01*
X640500Y492127D01*
X639414Y491984D01*
X638402Y491565D01*
X637533Y490899D01*
X636867Y490030D01*
X636448Y489018D01*
X636305Y487932D01*
X636448Y486846D01*
X636867Y485834D01*
X637533Y484965D01*
X638402Y484299D01*
X639414Y483880D01*
X640500Y483737D01*
X641586Y483880D01*
X642598Y484299D01*
X643467Y484965D01*
X644133Y485834D01*
X644471Y486649D01*
X644971Y486549D01*
Y477504D01*
X644471Y477404D01*
X644133Y478219D01*
X643467Y479087D01*
X642598Y479754D01*
X641586Y480173D01*
X640500Y480316D01*
X639414Y480173D01*
X638402Y479754D01*
X637533Y479087D01*
X636867Y478219D01*
X636448Y477207D01*
X636305Y476121D01*
X636448Y475035D01*
X636867Y474023D01*
X637533Y473154D01*
X638402Y472488D01*
X639414Y472069D01*
X640500Y471926D01*
X641586Y472069D01*
X642598Y472488D01*
X643467Y473154D01*
X644133Y474023D01*
X644471Y474838D01*
X644971Y474738D01*
Y465693D01*
X644471Y465593D01*
X644133Y466407D01*
X643467Y467276D01*
X642598Y467943D01*
X641586Y468362D01*
X640500Y468505D01*
X639414Y468362D01*
X638402Y467943D01*
X637533Y467276D01*
X636867Y466407D01*
X636710Y466029D01*
X623743D01*
X623458Y466529D01*
X623704Y467122D01*
X623820Y468000D01*
X623704Y468878D01*
X623365Y469696D01*
X622826Y470398D01*
X622124Y470937D01*
X621306Y471276D01*
X620428Y471391D01*
X619551Y471276D01*
X618733Y470937D01*
X618031Y470398D01*
X617491Y469696D01*
X617153Y468878D01*
X617037Y468000D01*
X617153Y467122D01*
X617398Y466529D01*
X617113Y466029D01*
X606399D01*
X606192Y466529D01*
X616133Y476471D01*
X617423D01*
X617491Y476304D01*
X618031Y475602D01*
X618733Y475063D01*
X619551Y474724D01*
X620428Y474609D01*
X621306Y474724D01*
X622124Y475063D01*
X622826Y475602D01*
X623365Y476304D01*
X623704Y477122D01*
X623820Y478000D01*
X623704Y478878D01*
X623365Y479696D01*
X622826Y480398D01*
X622124Y480937D01*
X621306Y481276D01*
X620428Y481391D01*
X619551Y481276D01*
X618733Y480937D01*
X618031Y480398D01*
X617491Y479696D01*
X617423Y479529D01*
X615500D01*
X614915Y479413D01*
X614419Y479081D01*
X589866Y454529D01*
X546311D01*
X545780Y454884D01*
X545000Y455039D01*
X544220Y454884D01*
X543558Y454442D01*
X543116Y453780D01*
X542961Y453000D01*
X543116Y452220D01*
X543558Y451558D01*
X544220Y451116D01*
X545000Y450961D01*
X545780Y451116D01*
X546311Y451471D01*
X590101D01*
X590308Y450971D01*
X587366Y448029D01*
X420811D01*
X420280Y448384D01*
X419500Y448539D01*
X418720Y448384D01*
X418058Y447942D01*
X417616Y447280D01*
X417461Y446500D01*
X417616Y445720D01*
X418058Y445058D01*
X418720Y444616D01*
X419500Y444461D01*
X420280Y444616D01*
X420811Y444971D01*
X588000D01*
X588585Y445087D01*
X589081Y445419D01*
X606634Y462971D01*
X636553D01*
X636867Y462212D01*
X637533Y461343D01*
X638402Y460677D01*
X639414Y460257D01*
X640500Y460114D01*
X641586Y460257D01*
X642598Y460677D01*
X643467Y461343D01*
X644133Y462212D01*
X644471Y463027D01*
X644971Y462927D01*
Y453882D01*
X644471Y453782D01*
X644133Y454597D01*
X643467Y455465D01*
X642598Y456132D01*
X641586Y456551D01*
X640500Y456694D01*
X639414Y456551D01*
X638402Y456132D01*
X637533Y455465D01*
X636867Y454597D01*
X636632Y454029D01*
X604500D01*
X603915Y453913D01*
X603419Y453581D01*
X592867Y443029D01*
X544500D01*
X543915Y442913D01*
X543419Y442581D01*
X543301Y442405D01*
X542699D01*
X542581Y442581D01*
X542085Y442913D01*
X541500Y443029D01*
X420811D01*
X420280Y443384D01*
X419500Y443539D01*
X418720Y443384D01*
X418058Y442942D01*
X417616Y442280D01*
X417461Y441500D01*
X417616Y440720D01*
X418058Y440058D01*
X418720Y439616D01*
X419500Y439461D01*
X420280Y439616D01*
X420811Y439971D01*
X454188D01*
X454554Y439471D01*
X454461Y439000D01*
X454616Y438220D01*
X455058Y437558D01*
X455720Y437116D01*
X456500Y436961D01*
X457280Y437116D01*
X457942Y437558D01*
X458384Y438220D01*
X458539Y439000D01*
X458446Y439471D01*
X458812Y439971D01*
X487188D01*
X487554Y439471D01*
X487492Y439154D01*
X487099Y438762D01*
X485732D01*
X485147Y438645D01*
X484651Y438314D01*
X483346Y437008D01*
X482720Y436884D01*
X482058Y436442D01*
X481616Y435780D01*
X481461Y435000D01*
X481616Y434220D01*
X482058Y433558D01*
X482720Y433116D01*
X483500Y432961D01*
X483688Y432998D01*
X483730Y432977D01*
X484073Y432565D01*
X483961Y432000D01*
X484116Y431220D01*
X484558Y430558D01*
X485220Y430116D01*
X486000Y429961D01*
X486780Y430116D01*
X487442Y430558D01*
X487884Y431220D01*
X488008Y431846D01*
X489366Y433203D01*
X490232D01*
X490817Y433319D01*
X491314Y433651D01*
X492154Y434491D01*
X492780Y434616D01*
X493442Y435058D01*
X493884Y435720D01*
X494039Y436500D01*
X493884Y437280D01*
X493442Y437942D01*
X492780Y438384D01*
X492000Y438539D01*
X491866Y438513D01*
X491513Y438866D01*
X491539Y439000D01*
X491446Y439471D01*
X491812Y439971D01*
X539986D01*
X540087Y439462D01*
X540419Y438966D01*
X540915Y438634D01*
X541500Y438518D01*
X544500D01*
X545085Y438634D01*
X545581Y438966D01*
X545913Y439462D01*
X546014Y439971D01*
X593500D01*
X594085Y440087D01*
X594581Y440419D01*
X605133Y450971D01*
X617955D01*
X618125Y450471D01*
X618031Y450398D01*
X617491Y449696D01*
X617153Y448878D01*
X617037Y448000D01*
X617153Y447122D01*
X617491Y446304D01*
X618031Y445602D01*
X618733Y445063D01*
X619551Y444724D01*
X620428Y444609D01*
X621306Y444724D01*
X622124Y445063D01*
X622826Y445602D01*
X623365Y446304D01*
X623704Y447122D01*
X623820Y448000D01*
X623704Y448878D01*
X623365Y449696D01*
X622826Y450398D01*
X622732Y450471D01*
X622901Y450971D01*
X636631D01*
X636867Y450401D01*
X637533Y449532D01*
X638402Y448866D01*
X639414Y448447D01*
X640500Y448304D01*
X641586Y448447D01*
X642598Y448866D01*
X643467Y449532D01*
X644133Y450401D01*
X644471Y451216D01*
X644971Y451116D01*
Y442071D01*
X644471Y441971D01*
X644133Y442786D01*
X643467Y443654D01*
X642598Y444321D01*
X641586Y444740D01*
X640500Y444883D01*
X639414Y444740D01*
X638402Y444321D01*
X637533Y443654D01*
X636867Y442786D01*
X636448Y441774D01*
X636305Y440688D01*
X636448Y439602D01*
X636867Y438590D01*
X637533Y437721D01*
X638402Y437055D01*
X639414Y436635D01*
X640500Y436492D01*
X641586Y436635D01*
X642598Y437055D01*
X643467Y437721D01*
X644133Y438590D01*
X644471Y439405D01*
X644971Y439305D01*
Y435510D01*
X642154Y432694D01*
X641586Y432929D01*
X640500Y433072D01*
X639414Y432929D01*
X638402Y432510D01*
X637533Y431843D01*
X636867Y430974D01*
X636448Y429963D01*
X636305Y428877D01*
X636448Y427791D01*
X636867Y426779D01*
X637533Y425910D01*
X638402Y425244D01*
X639414Y424824D01*
X640500Y424682D01*
X641586Y424824D01*
X642598Y425244D01*
X643467Y425910D01*
X644133Y426779D01*
X644552Y427791D01*
X644695Y428877D01*
X644552Y429963D01*
X644317Y430531D01*
X646509Y432723D01*
X646971Y432531D01*
Y424634D01*
X642846Y420509D01*
X642598Y420699D01*
X641586Y421118D01*
X640500Y421261D01*
X639414Y421118D01*
X638402Y420699D01*
X637533Y420032D01*
X636867Y419164D01*
X636448Y418152D01*
X636305Y417066D01*
X636448Y415980D01*
X636867Y414968D01*
X637533Y414099D01*
X638402Y413433D01*
X639414Y413013D01*
X640500Y412870D01*
X641586Y413013D01*
X642598Y413433D01*
X643467Y414099D01*
X644133Y414968D01*
X644552Y415980D01*
X644695Y417066D01*
X644583Y417920D01*
X649581Y422919D01*
X649913Y423415D01*
X650029Y424000D01*
Y478840D01*
X650529Y478865D01*
X650605Y478094D01*
X651006Y476774D01*
X651656Y475557D01*
X652531Y474491D01*
X653598Y473616D01*
X654815Y472965D01*
X656135Y472565D01*
X657508Y472430D01*
X658881Y472565D01*
X660201Y472965D01*
X661418Y473616D01*
X662484Y474491D01*
X663360Y475557D01*
X664010Y476774D01*
X664410Y478094D01*
X664546Y479467D01*
X664410Y480840D01*
X664010Y482161D01*
X663360Y483377D01*
X662484Y484444D01*
X661418Y485319D01*
X660201Y485969D01*
X658881Y486370D01*
X657508Y486505D01*
X656135Y486370D01*
X654815Y485969D01*
X653598Y485319D01*
X652531Y484444D01*
X651656Y483377D01*
X651006Y482161D01*
X650605Y480840D01*
X650529Y480070D01*
X650029Y480094D01*
Y492621D01*
X649913Y493207D01*
X649581Y493703D01*
X638703Y504581D01*
X638207Y504913D01*
X637769Y505000D01*
X637818Y505500D01*
X676000D01*
Y250000D01*
D02*
G37*
G36*
X621205Y501471D02*
X620915Y501413D01*
X620419Y501081D01*
X612169Y492831D01*
X611108Y491771D01*
X610776Y491275D01*
X610686Y490820D01*
X610317Y490642D01*
X610176Y490623D01*
X607584Y493215D01*
X607563Y493900D01*
X615633Y501971D01*
X621155D01*
X621205Y501471D01*
D02*
G37*
G36*
X590271Y476503D02*
X593056Y473719D01*
X591169Y471832D01*
X591169Y471832D01*
X582367Y463029D01*
X577346D01*
X577154Y463491D01*
X590176Y476513D01*
X590271Y476503D01*
D02*
G37*
G36*
X600589Y470428D02*
X600598Y470333D01*
X589295Y459029D01*
X543811D01*
X543280Y459384D01*
X542845Y459471D01*
X542894Y459971D01*
X583000D01*
X583585Y460087D01*
X584081Y460419D01*
X593331Y469669D01*
X593331Y469669D01*
X596300Y472637D01*
X596632Y473134D01*
X596722Y473588D01*
X597091Y473766D01*
X597232Y473785D01*
X600589Y470428D01*
D02*
G37*
%LPC*%
G36*
X442748Y493987D02*
X441716Y493851D01*
X440755Y493453D01*
X439929Y492819D01*
X439295Y491993D01*
X438897Y491032D01*
X438865Y490786D01*
X438360D01*
X438342Y490929D01*
X437983Y491795D01*
X437412Y492538D01*
X436669Y493109D01*
X435803Y493467D01*
X434874Y493590D01*
X433945Y493467D01*
X433079Y493109D01*
X432336Y492538D01*
X431765Y491795D01*
X431407Y490929D01*
X431284Y490000D01*
X431407Y489071D01*
X431765Y488205D01*
X432336Y487462D01*
X433079Y486891D01*
X433945Y486533D01*
X434874Y486410D01*
X435803Y486533D01*
X436669Y486891D01*
X437412Y487462D01*
X437983Y488205D01*
X438342Y489071D01*
X438360Y489214D01*
X438865D01*
X438897Y488968D01*
X439295Y488007D01*
X439929Y487181D01*
X440755Y486547D01*
X441716Y486149D01*
X442748Y486013D01*
X443780Y486149D01*
X444741Y486547D01*
X445567Y487181D01*
X446201Y488007D01*
X446599Y488968D01*
X446735Y490000D01*
X446599Y491032D01*
X446201Y491993D01*
X445567Y492819D01*
X444741Y493453D01*
X443780Y493851D01*
X442748Y493987D01*
D02*
G37*
G36*
X419626Y493325D02*
Y490500D01*
X422451D01*
X422402Y490878D01*
X422063Y491696D01*
X421524Y492398D01*
X420822Y492937D01*
X420004Y493276D01*
X419626Y493325D01*
D02*
G37*
G36*
X418626Y493325D02*
X418248Y493276D01*
X417430Y492937D01*
X416728Y492398D01*
X416189Y491696D01*
X415850Y490878D01*
X415801Y490500D01*
X418626D01*
Y493325D01*
D02*
G37*
G36*
X382800Y503934D02*
X381369Y503794D01*
X379993Y503376D01*
X378725Y502698D01*
X377614Y501786D01*
X376702Y500675D01*
X376024Y499407D01*
X375606Y498031D01*
X375465Y496600D01*
X375606Y495169D01*
X376024Y493793D01*
X376702Y492525D01*
X377614Y491414D01*
X378725Y490502D01*
X379993Y489824D01*
X380899Y489549D01*
X380825Y489049D01*
X375356D01*
X362602Y501802D01*
X361775Y502355D01*
X360800Y502549D01*
X350032D01*
X349718Y502679D01*
X349000Y502774D01*
X348282Y502679D01*
X347613Y502402D01*
X347039Y501961D01*
X346598Y501387D01*
X346321Y500718D01*
X346226Y500000D01*
X346321Y499282D01*
X346598Y498613D01*
X347039Y498039D01*
X347613Y497598D01*
X348282Y497321D01*
X349000Y497226D01*
X349718Y497321D01*
X350032Y497451D01*
X359744D01*
X372498Y484698D01*
X373324Y484145D01*
X374300Y483951D01*
X390800D01*
X391775Y484145D01*
X392602Y484698D01*
X405856Y497951D01*
X500899D01*
X501357Y497645D01*
X502332Y497451D01*
X598468D01*
X598782Y497321D01*
X599500Y497226D01*
X600218Y497321D01*
X600887Y497598D01*
X601461Y498039D01*
X601902Y498613D01*
X602179Y499282D01*
X602274Y500000D01*
X602179Y500718D01*
X601902Y501387D01*
X601461Y501961D01*
X600887Y502402D01*
X600218Y502679D01*
X599500Y502774D01*
X598782Y502679D01*
X598468Y502549D01*
X503266D01*
X502808Y502855D01*
X501832Y503049D01*
X404800D01*
X403825Y502855D01*
X402998Y502302D01*
X389744Y489049D01*
X384775D01*
X384701Y489549D01*
X385607Y489824D01*
X386875Y490502D01*
X387986Y491414D01*
X388898Y492525D01*
X389576Y493793D01*
X389994Y495169D01*
X390135Y496600D01*
X389994Y498031D01*
X389576Y499407D01*
X388898Y500675D01*
X387986Y501786D01*
X386875Y502698D01*
X385607Y503376D01*
X384231Y503794D01*
X382800Y503934D01*
D02*
G37*
G36*
X590000Y492774D02*
X589282Y492679D01*
X588968Y492549D01*
X579906D01*
X578930Y492355D01*
X578103Y491802D01*
X557333Y471032D01*
X557019Y470902D01*
X556444Y470461D01*
X556003Y469887D01*
X555726Y469218D01*
X555632Y468500D01*
X555726Y467782D01*
X556003Y467113D01*
X556444Y466539D01*
X557019Y466098D01*
X557688Y465821D01*
X558405Y465726D01*
X559123Y465821D01*
X559792Y466098D01*
X560367Y466539D01*
X560808Y467113D01*
X560938Y467428D01*
X580961Y487451D01*
X588968D01*
X589282Y487321D01*
X590000Y487226D01*
X590718Y487321D01*
X591387Y487598D01*
X591961Y488039D01*
X592402Y488613D01*
X592679Y489282D01*
X592774Y490000D01*
X592679Y490718D01*
X592402Y491387D01*
X591961Y491961D01*
X591387Y492402D01*
X590718Y492679D01*
X590000Y492774D01*
D02*
G37*
G36*
X422451Y489500D02*
X419626D01*
Y486675D01*
X420004Y486724D01*
X420822Y487063D01*
X421524Y487602D01*
X422063Y488304D01*
X422402Y489122D01*
X422451Y489500D01*
D02*
G37*
G36*
X418626D02*
X415801D01*
X415850Y489122D01*
X416189Y488304D01*
X416728Y487602D01*
X417430Y487063D01*
X418248Y486724D01*
X418626Y486675D01*
Y489500D01*
D02*
G37*
G36*
X427000Y493590D02*
X426071Y493467D01*
X425205Y493109D01*
X424462Y492538D01*
X423891Y491795D01*
X423533Y490929D01*
X423410Y490000D01*
X423533Y489071D01*
X423891Y488205D01*
X424462Y487462D01*
X425205Y486891D01*
X426071Y486533D01*
X427000Y486410D01*
X427929Y486533D01*
X428795Y486891D01*
X429538Y487462D01*
X430109Y488205D01*
X430467Y489071D01*
X430590Y490000D01*
X430467Y490929D01*
X430109Y491795D01*
X429538Y492538D01*
X428795Y493109D01*
X427929Y493467D01*
X427000Y493590D01*
D02*
G37*
G36*
X411252Y493987D02*
X410220Y493851D01*
X409259Y493453D01*
X408433Y492819D01*
X407799Y491993D01*
X407401Y491032D01*
X407265Y490000D01*
X407401Y488968D01*
X407799Y488007D01*
X408433Y487181D01*
X409259Y486547D01*
X410220Y486149D01*
X411252Y486013D01*
X412284Y486149D01*
X413245Y486547D01*
X414071Y487181D01*
X414705Y488007D01*
X415103Y488968D01*
X415239Y490000D01*
X415103Y491032D01*
X414705Y491993D01*
X414071Y492819D01*
X413245Y493453D01*
X412284Y493851D01*
X411252Y493987D01*
D02*
G37*
G36*
X282992Y486506D02*
X281619Y486371D01*
X280299Y485971D01*
X279082Y485320D01*
X278016Y484445D01*
X277140Y483379D01*
X276490Y482162D01*
X276090Y480841D01*
X275954Y479468D01*
X276090Y478095D01*
X276490Y476775D01*
X277140Y475559D01*
X278016Y474492D01*
X279082Y473617D01*
X280299Y472966D01*
X281619Y472566D01*
X282992Y472431D01*
X284365Y472566D01*
X285685Y472966D01*
X286902Y473617D01*
X287969Y474492D01*
X288844Y475559D01*
X289494Y476775D01*
X289895Y478095D01*
X290030Y479468D01*
X289895Y480841D01*
X289494Y482162D01*
X288844Y483379D01*
X287969Y484445D01*
X286902Y485320D01*
X285685Y485971D01*
X284365Y486371D01*
X282992Y486506D01*
D02*
G37*
G36*
X300000Y480317D02*
X298914Y480174D01*
X297902Y479755D01*
X297034Y479089D01*
X296367Y478220D01*
X295948Y477208D01*
X295805Y476122D01*
X295948Y475036D01*
X296367Y474024D01*
X297034Y473155D01*
X297902Y472489D01*
X298914Y472070D01*
X300000Y471927D01*
X301086Y472070D01*
X302098Y472489D01*
X302967Y473155D01*
X303633Y474024D01*
X304052Y475036D01*
X304195Y476122D01*
X304052Y477208D01*
X303633Y478220D01*
X302967Y479089D01*
X302098Y479755D01*
X301086Y480174D01*
X300000Y480317D01*
D02*
G37*
G36*
X620428Y461391D02*
X619551Y461276D01*
X618733Y460937D01*
X618031Y460398D01*
X617491Y459696D01*
X617153Y458878D01*
X617037Y458000D01*
X617153Y457122D01*
X617491Y456304D01*
X618031Y455602D01*
X618733Y455063D01*
X619551Y454724D01*
X620428Y454609D01*
X621306Y454724D01*
X622124Y455063D01*
X622826Y455602D01*
X623365Y456304D01*
X623704Y457122D01*
X623820Y458000D01*
X623704Y458878D01*
X623365Y459696D01*
X622826Y460398D01*
X622124Y460937D01*
X621306Y461276D01*
X620428Y461391D01*
D02*
G37*
G36*
X411500Y453949D02*
Y452000D01*
X413449D01*
X413355Y452476D01*
X412802Y453302D01*
X411975Y453855D01*
X411500Y453949D01*
D02*
G37*
G36*
X410500D02*
X410024Y453855D01*
X409198Y453302D01*
X408645Y452476D01*
X408551Y452000D01*
X410500D01*
Y453949D01*
D02*
G37*
G36*
X413449Y451000D02*
X411500D01*
Y449051D01*
X411975Y449145D01*
X412802Y449698D01*
X413355Y450525D01*
X413449Y451000D01*
D02*
G37*
G36*
X410500D02*
X408551D01*
X408645Y450525D01*
X409198Y449698D01*
X410024Y449145D01*
X410500Y449051D01*
Y451000D01*
D02*
G37*
G36*
X300000Y456695D02*
X298914Y456552D01*
X297902Y456133D01*
X297033Y455467D01*
X296367Y454598D01*
X295948Y453586D01*
X295805Y452500D01*
X295948Y451414D01*
X296367Y450402D01*
X297033Y449533D01*
X297902Y448867D01*
X298914Y448448D01*
X300000Y448305D01*
X301086Y448448D01*
X302098Y448867D01*
X302967Y449533D01*
X303633Y450402D01*
X304052Y451414D01*
X304195Y452500D01*
X304052Y453586D01*
X303633Y454598D01*
X302967Y455467D01*
X302098Y456133D01*
X301086Y456552D01*
X300000Y456695D01*
D02*
G37*
G36*
X620428Y441391D02*
X619551Y441276D01*
X618733Y440937D01*
X618031Y440398D01*
X617491Y439696D01*
X617153Y438878D01*
X617037Y438000D01*
X617153Y437122D01*
X617491Y436304D01*
X618031Y435602D01*
X618733Y435063D01*
X619551Y434724D01*
X620428Y434609D01*
X621306Y434724D01*
X622124Y435063D01*
X622826Y435602D01*
X623365Y436304D01*
X623704Y437122D01*
X623820Y438000D01*
X623704Y438878D01*
X623365Y439696D01*
X622826Y440398D01*
X622124Y440937D01*
X621306Y441276D01*
X620428Y441391D01*
D02*
G37*
G36*
X607000Y448039D02*
X606220Y447884D01*
X605558Y447442D01*
X605116Y446780D01*
X604961Y446000D01*
X605116Y445220D01*
X605558Y444558D01*
X605645Y444500D01*
Y444000D01*
X605558Y443942D01*
X605116Y443280D01*
X604961Y442500D01*
X605116Y441720D01*
X605558Y441058D01*
X605645Y441000D01*
Y440500D01*
X605558Y440442D01*
X605116Y439780D01*
X604961Y439000D01*
X605116Y438220D01*
X605558Y437558D01*
X605645Y437500D01*
Y437000D01*
X605558Y436942D01*
X605116Y436280D01*
X604961Y435500D01*
X605116Y434720D01*
X605558Y434058D01*
X606220Y433616D01*
X607000Y433461D01*
X607780Y433616D01*
X608442Y434058D01*
X608884Y434720D01*
X609039Y435500D01*
X608884Y436280D01*
X608442Y436942D01*
X608355Y437000D01*
Y437500D01*
X608442Y437558D01*
X608884Y438220D01*
X609039Y439000D01*
X608884Y439780D01*
X608442Y440442D01*
X608355Y440500D01*
Y441000D01*
X608442Y441058D01*
X608884Y441720D01*
X609039Y442500D01*
X608884Y443280D01*
X608442Y443942D01*
X608355Y444000D01*
Y444500D01*
X608442Y444558D01*
X608884Y445220D01*
X609039Y446000D01*
X608884Y446780D01*
X608442Y447442D01*
X607780Y447884D01*
X607000Y448039D01*
D02*
G37*
G36*
X448500Y428449D02*
Y426500D01*
X450450D01*
X450355Y426975D01*
X449802Y427802D01*
X448976Y428355D01*
X448500Y428449D01*
D02*
G37*
G36*
X447500D02*
X447024Y428355D01*
X446198Y427802D01*
X445645Y426975D01*
X445550Y426500D01*
X447500D01*
Y428449D01*
D02*
G37*
G36*
X300000Y433073D02*
X298914Y432930D01*
X297902Y432511D01*
X297033Y431845D01*
X296367Y430976D01*
X295948Y429964D01*
X295805Y428878D01*
X295948Y427792D01*
X296367Y426780D01*
X297033Y425911D01*
X297902Y425245D01*
X298914Y424826D01*
X300000Y424683D01*
X301086Y424826D01*
X302098Y425245D01*
X302967Y425911D01*
X303633Y426780D01*
X304052Y427792D01*
X304195Y428878D01*
X304052Y429964D01*
X303633Y430976D01*
X302967Y431845D01*
X302098Y432511D01*
X301086Y432930D01*
X300000Y433073D01*
D02*
G37*
G36*
X620428Y431391D02*
X619551Y431276D01*
X618733Y430937D01*
X618031Y430398D01*
X617491Y429696D01*
X617153Y428878D01*
X617037Y428000D01*
X617153Y427122D01*
X617491Y426304D01*
X618031Y425602D01*
X618733Y425063D01*
X619551Y424724D01*
X620428Y424609D01*
X621306Y424724D01*
X622124Y425063D01*
X622826Y425602D01*
X623365Y426304D01*
X623704Y427122D01*
X623820Y428000D01*
X623704Y428878D01*
X623365Y429696D01*
X622826Y430398D01*
X622124Y430937D01*
X621306Y431276D01*
X620428Y431391D01*
D02*
G37*
G36*
X588500Y420950D02*
Y419000D01*
X590449D01*
X590355Y419476D01*
X589802Y420302D01*
X588975Y420855D01*
X588500Y420950D01*
D02*
G37*
G36*
X587500D02*
X587024Y420855D01*
X586198Y420302D01*
X585645Y419476D01*
X585550Y419000D01*
X587500D01*
Y420950D01*
D02*
G37*
G36*
X579500Y418449D02*
Y416500D01*
X581450D01*
X581355Y416975D01*
X580802Y417802D01*
X579976Y418355D01*
X579500Y418449D01*
D02*
G37*
G36*
X578500D02*
X578024Y418355D01*
X577198Y417802D01*
X576645Y416975D01*
X576550Y416500D01*
X578500D01*
Y418449D01*
D02*
G37*
G36*
X620428Y421391D02*
X619551Y421276D01*
X618733Y420937D01*
X618031Y420398D01*
X617491Y419696D01*
X617153Y418878D01*
X617037Y418000D01*
X617153Y417122D01*
X617491Y416304D01*
X618031Y415602D01*
X618733Y415063D01*
X619551Y414724D01*
X620428Y414609D01*
X621306Y414724D01*
X622124Y415063D01*
X622826Y415602D01*
X623365Y416304D01*
X623704Y417122D01*
X623820Y418000D01*
X623704Y418878D01*
X623365Y419696D01*
X622826Y420398D01*
X622124Y420937D01*
X621306Y421276D01*
X620428Y421391D01*
D02*
G37*
G36*
X581450Y415500D02*
X579500D01*
Y413551D01*
X579976Y413645D01*
X580802Y414198D01*
X581355Y415025D01*
X581450Y415500D01*
D02*
G37*
G36*
X578500D02*
X576550D01*
X576645Y415025D01*
X577198Y414198D01*
X578024Y413645D01*
X578500Y413551D01*
Y415500D01*
D02*
G37*
G36*
X590449Y418000D02*
X585550D01*
X585645Y417524D01*
X586198Y416698D01*
X587024Y416145D01*
X587729Y416005D01*
Y415495D01*
X587024Y415355D01*
X586198Y414802D01*
X585645Y413975D01*
X585550Y413500D01*
X590449D01*
X590355Y413975D01*
X589802Y414802D01*
X588975Y415355D01*
X588271Y415495D01*
Y416005D01*
X588975Y416145D01*
X589802Y416698D01*
X590355Y417524D01*
X590449Y418000D01*
D02*
G37*
G36*
X447000Y413949D02*
Y412000D01*
X448949D01*
X448855Y412475D01*
X448302Y413302D01*
X447475Y413855D01*
X447000Y413949D01*
D02*
G37*
G36*
X446000D02*
X445525Y413855D01*
X444698Y413302D01*
X444145Y412475D01*
X444051Y412000D01*
X446000D01*
Y413949D01*
D02*
G37*
G36*
X448949Y411000D02*
X447000D01*
Y409051D01*
X447475Y409145D01*
X448302Y409698D01*
X448855Y410525D01*
X448949Y411000D01*
D02*
G37*
G36*
X446000D02*
X444051D01*
X444145Y410525D01*
X444698Y409698D01*
X445525Y409145D01*
X446000Y409051D01*
Y411000D01*
D02*
G37*
G36*
X590449Y412500D02*
X585550D01*
X585645Y412024D01*
X586198Y411198D01*
X586816Y410784D01*
Y410216D01*
X586198Y409802D01*
X585645Y408976D01*
X585550Y408500D01*
X590449D01*
X590355Y408976D01*
X589802Y409802D01*
X589184Y410216D01*
Y410784D01*
X589802Y411198D01*
X590355Y412024D01*
X590449Y412500D01*
D02*
G37*
G36*
X580500Y409949D02*
Y408000D01*
X582449D01*
X582355Y408475D01*
X581802Y409302D01*
X580975Y409855D01*
X580500Y409949D01*
D02*
G37*
G36*
X579500D02*
X579025Y409855D01*
X578198Y409302D01*
X577645Y408475D01*
X577551Y408000D01*
X579500D01*
Y409949D01*
D02*
G37*
G36*
X510000D02*
Y408000D01*
X511949D01*
X511855Y408475D01*
X511302Y409302D01*
X510475Y409855D01*
X510000Y409949D01*
D02*
G37*
G36*
X509000D02*
X508525Y409855D01*
X507698Y409302D01*
X507145Y408475D01*
X507051Y408000D01*
X509000D01*
Y409949D01*
D02*
G37*
G36*
X590449Y407500D02*
X588500D01*
Y405550D01*
X588975Y405645D01*
X589802Y406198D01*
X590355Y407024D01*
X590449Y407500D01*
D02*
G37*
G36*
X587500D02*
X585550D01*
X585645Y407024D01*
X586198Y406198D01*
X587024Y405645D01*
X587500Y405550D01*
Y407500D01*
D02*
G37*
G36*
X582449Y407000D02*
X580500D01*
Y405051D01*
X580975Y405145D01*
X581802Y405698D01*
X582355Y406525D01*
X582449Y407000D01*
D02*
G37*
G36*
X579500D02*
X577551D01*
X577645Y406525D01*
X578198Y405698D01*
X579025Y405145D01*
X579500Y405051D01*
Y407000D01*
D02*
G37*
G36*
X511949D02*
X510000D01*
Y405051D01*
X510475Y405145D01*
X511302Y405698D01*
X511855Y406525D01*
X511949Y407000D01*
D02*
G37*
G36*
X509000D02*
X507051D01*
X507145Y406525D01*
X507698Y405698D01*
X508525Y405145D01*
X509000Y405051D01*
Y407000D01*
D02*
G37*
G36*
X620428Y411391D02*
X619551Y411276D01*
X618733Y410937D01*
X618031Y410398D01*
X617491Y409696D01*
X617153Y408878D01*
X617037Y408000D01*
X617153Y407122D01*
X617491Y406304D01*
X618031Y405602D01*
X618733Y405063D01*
X619551Y404724D01*
X620428Y404609D01*
X621306Y404724D01*
X622124Y405063D01*
X622826Y405602D01*
X623365Y406304D01*
X623704Y407122D01*
X623820Y408000D01*
X623704Y408878D01*
X623365Y409696D01*
X622826Y410398D01*
X622124Y410937D01*
X621306Y411276D01*
X620428Y411391D01*
D02*
G37*
G36*
X320428D02*
X319551Y411276D01*
X318733Y410937D01*
X318031Y410398D01*
X317492Y409696D01*
X317153Y408878D01*
X317037Y408000D01*
X317153Y407122D01*
X317492Y406304D01*
X318031Y405602D01*
X318733Y405063D01*
X319551Y404724D01*
X320428Y404609D01*
X321306Y404724D01*
X322124Y405063D01*
X322826Y405602D01*
X323365Y406304D01*
X323704Y407122D01*
X323820Y408000D01*
X323704Y408878D01*
X323365Y409696D01*
X322826Y410398D01*
X322124Y410937D01*
X321306Y411276D01*
X320428Y411391D01*
D02*
G37*
G36*
X572500Y404039D02*
X571720Y403884D01*
X571058Y403442D01*
X571000Y403355D01*
X570500D01*
X570442Y403442D01*
X569780Y403884D01*
X569000Y404039D01*
X568220Y403884D01*
X567558Y403442D01*
X567500Y403355D01*
X567000D01*
X566942Y403442D01*
X566280Y403884D01*
X565500Y404039D01*
X564720Y403884D01*
X564058Y403442D01*
X563616Y402780D01*
X563461Y402000D01*
X563616Y401220D01*
X564058Y400558D01*
X564720Y400116D01*
X565500Y399961D01*
X566280Y400116D01*
X566942Y400558D01*
X567000Y400645D01*
X567500D01*
X567558Y400558D01*
X568220Y400116D01*
X569000Y399961D01*
X569780Y400116D01*
X570442Y400558D01*
X570500Y400645D01*
X571000D01*
X571058Y400558D01*
X571720Y400116D01*
X572500Y399961D01*
X573280Y400116D01*
X573942Y400558D01*
X574384Y401220D01*
X574539Y402000D01*
X574384Y402780D01*
X573942Y403442D01*
X573280Y403884D01*
X572500Y404039D01*
D02*
G37*
G36*
X300000Y409451D02*
X298914Y409308D01*
X297902Y408889D01*
X297034Y408222D01*
X296367Y407354D01*
X295948Y406342D01*
X295805Y405256D01*
X295948Y404170D01*
X296367Y403158D01*
X297034Y402289D01*
X297902Y401623D01*
X298914Y401203D01*
X300000Y401061D01*
X301086Y401203D01*
X302098Y401623D01*
X302967Y402289D01*
X303633Y403158D01*
X304052Y404170D01*
X304195Y405256D01*
X304052Y406342D01*
X303633Y407354D01*
X302967Y408222D01*
X302098Y408889D01*
X301086Y409308D01*
X300000Y409451D01*
D02*
G37*
G36*
X640500Y409450D02*
X639414Y409307D01*
X638402Y408888D01*
X637533Y408221D01*
X636867Y407352D01*
X636448Y406341D01*
X636305Y405255D01*
X636448Y404169D01*
X636867Y403157D01*
X637533Y402288D01*
X638402Y401621D01*
X639414Y401202D01*
X640500Y401059D01*
X641586Y401202D01*
X642598Y401621D01*
X643467Y402288D01*
X644133Y403157D01*
X644552Y404169D01*
X644695Y405255D01*
X644552Y406341D01*
X644133Y407352D01*
X643467Y408221D01*
X642598Y408888D01*
X641586Y409307D01*
X640500Y409450D01*
D02*
G37*
G36*
X482000Y425539D02*
X481220Y425384D01*
X480558Y424942D01*
X480116Y424280D01*
X479961Y423500D01*
X480116Y422720D01*
X480558Y422058D01*
X481220Y421616D01*
X481846Y421491D01*
X521048Y382289D01*
Y380387D01*
X521165Y379801D01*
X521496Y379305D01*
X584383Y316419D01*
X584879Y316087D01*
X585464Y315971D01*
X588689D01*
X589220Y315616D01*
X590000Y315461D01*
X590780Y315616D01*
X591442Y316058D01*
X591884Y316720D01*
X592039Y317500D01*
X591884Y318280D01*
X591442Y318942D01*
X590780Y319384D01*
X590000Y319539D01*
X589220Y319384D01*
X588689Y319029D01*
X586098D01*
X564949Y340178D01*
X565043Y340792D01*
X565442Y341058D01*
X565884Y341720D01*
X566039Y342500D01*
X565884Y343280D01*
X565442Y343942D01*
X564780Y344384D01*
X564000Y344539D01*
X563220Y344384D01*
X562558Y343942D01*
X562291Y343543D01*
X561679Y343449D01*
X524107Y381020D01*
Y382922D01*
X523991Y383507D01*
X523659Y384003D01*
X509940Y397723D01*
X510147Y398223D01*
X522500D01*
X522500Y398223D01*
X523476Y398417D01*
X524302Y398969D01*
X524855Y399796D01*
X525049Y400772D01*
X524855Y401747D01*
X524302Y402574D01*
X524302Y402574D01*
X523475Y403127D01*
X522500Y403321D01*
X509500D01*
X508525Y403127D01*
X507698Y402574D01*
X507145Y401747D01*
X507058Y401312D01*
X506516Y401147D01*
X484009Y423654D01*
X483884Y424280D01*
X483442Y424942D01*
X482780Y425384D01*
X482000Y425539D01*
D02*
G37*
G36*
X282992Y408947D02*
X281619Y408812D01*
X280299Y408412D01*
X279082Y407761D01*
X278016Y406886D01*
X277140Y405820D01*
X276490Y404603D01*
X276090Y403282D01*
X275954Y401909D01*
X276090Y400536D01*
X276490Y399216D01*
X277140Y397999D01*
X278016Y396933D01*
X279082Y396058D01*
X280299Y395407D01*
X281619Y395007D01*
X282992Y394872D01*
X284365Y395007D01*
X285685Y395407D01*
X286902Y396058D01*
X287969Y396933D01*
X288844Y397999D01*
X289494Y399216D01*
X289895Y400536D01*
X290030Y401909D01*
X289895Y403282D01*
X289494Y404603D01*
X288844Y405820D01*
X287969Y406886D01*
X286902Y407761D01*
X285685Y408412D01*
X284365Y408812D01*
X282992Y408947D01*
D02*
G37*
G36*
X657508Y408946D02*
X656135Y408811D01*
X654815Y408410D01*
X653598Y407760D01*
X652531Y406885D01*
X651656Y405818D01*
X651006Y404602D01*
X650605Y403281D01*
X650470Y401908D01*
X650605Y400535D01*
X651006Y399215D01*
X651656Y397998D01*
X652531Y396932D01*
X653598Y396057D01*
X654815Y395406D01*
X656135Y395006D01*
X657508Y394870D01*
X658881Y395006D01*
X660201Y395406D01*
X661418Y396057D01*
X662484Y396932D01*
X663360Y397998D01*
X664010Y399215D01*
X664410Y400535D01*
X664546Y401908D01*
X664410Y403281D01*
X664010Y404602D01*
X663360Y405818D01*
X662484Y406885D01*
X661418Y407760D01*
X660201Y408410D01*
X658881Y408811D01*
X657508Y408946D01*
D02*
G37*
G36*
X620428Y401391D02*
X619551Y401276D01*
X618733Y400937D01*
X618031Y400398D01*
X617491Y399696D01*
X617153Y398878D01*
X617037Y398000D01*
X617153Y397122D01*
X617491Y396304D01*
X618031Y395602D01*
X618733Y395063D01*
X619551Y394724D01*
X620428Y394609D01*
X621306Y394724D01*
X622124Y395063D01*
X622826Y395602D01*
X623365Y396304D01*
X623704Y397122D01*
X623820Y398000D01*
X623704Y398878D01*
X623365Y399696D01*
X622826Y400398D01*
X622124Y400937D01*
X621306Y401276D01*
X620428Y401391D01*
D02*
G37*
G36*
X640500Y397639D02*
X639414Y397496D01*
X638402Y397077D01*
X637533Y396410D01*
X636867Y395541D01*
X636448Y394530D01*
X636305Y393444D01*
X636448Y392358D01*
X636867Y391346D01*
X637533Y390477D01*
X638402Y389810D01*
X639414Y389391D01*
X640500Y389248D01*
X641586Y389391D01*
X642598Y389810D01*
X643467Y390477D01*
X644133Y391346D01*
X644552Y392358D01*
X644695Y393444D01*
X644552Y394530D01*
X644133Y395541D01*
X643467Y396410D01*
X642598Y397077D01*
X641586Y397496D01*
X640500Y397639D01*
D02*
G37*
G36*
X531000Y393539D02*
X530220Y393384D01*
X529558Y392942D01*
X529116Y392280D01*
X528961Y391500D01*
X529116Y390720D01*
X529558Y390058D01*
X530220Y389616D01*
X531000Y389461D01*
X531780Y389616D01*
X532311Y389971D01*
X532688D01*
X533054Y389471D01*
X532961Y389000D01*
X533054Y388529D01*
X532688Y388029D01*
X532311D01*
X531780Y388384D01*
X531000Y388539D01*
X530220Y388384D01*
X529558Y387942D01*
X529116Y387280D01*
X528961Y386500D01*
X529116Y385720D01*
X529558Y385058D01*
X530220Y384616D01*
X531000Y384461D01*
X531780Y384616D01*
X532311Y384971D01*
X532688D01*
X533054Y384471D01*
X532961Y384000D01*
X533054Y383529D01*
X532688Y383029D01*
X532311D01*
X531780Y383384D01*
X531000Y383539D01*
X530220Y383384D01*
X529558Y382942D01*
X529116Y382280D01*
X528961Y381500D01*
X529116Y380720D01*
X529558Y380058D01*
X530220Y379616D01*
X531000Y379461D01*
X531780Y379616D01*
X532311Y379971D01*
X532976D01*
X533243Y379471D01*
X533116Y379280D01*
X532961Y378500D01*
X533116Y377720D01*
X533558Y377058D01*
X534220Y376616D01*
X535000Y376461D01*
X535780Y376616D01*
X536311Y376971D01*
X572367D01*
X598919Y350419D01*
X599415Y350087D01*
X600000Y349971D01*
X617113D01*
X617398Y349471D01*
X617153Y348878D01*
X617037Y348000D01*
X617153Y347122D01*
X617491Y346304D01*
X618031Y345602D01*
X618733Y345063D01*
X619551Y344724D01*
X620428Y344609D01*
X621306Y344724D01*
X622124Y345063D01*
X622826Y345602D01*
X623365Y346304D01*
X623704Y347122D01*
X623820Y348000D01*
X623704Y348878D01*
X623458Y349471D01*
X623743Y349971D01*
X624367D01*
X626471Y347867D01*
Y276084D01*
X626587Y275499D01*
X626919Y275003D01*
X636683Y265239D01*
X636448Y264670D01*
X636305Y263584D01*
X636448Y262499D01*
X636867Y261487D01*
X637533Y260618D01*
X638402Y259951D01*
X639414Y259532D01*
X640500Y259389D01*
X641586Y259532D01*
X642598Y259951D01*
X643467Y260618D01*
X644133Y261487D01*
X644552Y262499D01*
X644695Y263584D01*
X644552Y264670D01*
X644133Y265682D01*
X643467Y266551D01*
X642598Y267218D01*
X641586Y267637D01*
X640500Y267780D01*
X639414Y267637D01*
X638846Y267402D01*
X629529Y276718D01*
Y300654D01*
X629991Y300846D01*
X638971Y291866D01*
Y291075D01*
X638402Y290840D01*
X637533Y290173D01*
X636867Y289304D01*
X636448Y288292D01*
X636305Y287207D01*
X636448Y286121D01*
X636867Y285109D01*
X637533Y284240D01*
X638402Y283573D01*
X639414Y283154D01*
X640500Y283011D01*
X641586Y283154D01*
X642598Y283573D01*
X643467Y284240D01*
X644133Y285109D01*
X644552Y286121D01*
X644695Y287207D01*
X644552Y288292D01*
X644133Y289304D01*
X643467Y290173D01*
X642598Y290840D01*
X642029Y291075D01*
Y292500D01*
X641913Y293085D01*
X641581Y293581D01*
X640805Y294358D01*
X640984Y294886D01*
X641586Y294965D01*
X642598Y295384D01*
X643467Y296051D01*
X644133Y296920D01*
X644552Y297932D01*
X644695Y299018D01*
X644552Y300103D01*
X644133Y301115D01*
X643467Y301984D01*
X642598Y302651D01*
X641586Y303070D01*
X640500Y303213D01*
X639414Y303070D01*
X638402Y302651D01*
X637533Y301984D01*
X636867Y301115D01*
X636448Y300103D01*
X636368Y299502D01*
X635841Y299322D01*
X632029Y303134D01*
Y321154D01*
X632491Y321346D01*
X638708Y315129D01*
X638590Y314540D01*
X638402Y314462D01*
X637533Y313795D01*
X636867Y312926D01*
X636448Y311914D01*
X636305Y310829D01*
X636448Y309743D01*
X636867Y308731D01*
X637533Y307862D01*
X638402Y307195D01*
X639414Y306776D01*
X640500Y306633D01*
X641586Y306776D01*
X642598Y307195D01*
X643467Y307862D01*
X644133Y308731D01*
X644552Y309743D01*
X644695Y310829D01*
X644552Y311914D01*
X644133Y312926D01*
X643467Y313795D01*
X642598Y314462D01*
X642029Y314697D01*
Y315500D01*
X641913Y316085D01*
X641581Y316581D01*
X640150Y318013D01*
X640371Y318461D01*
X640500Y318444D01*
X641586Y318587D01*
X642598Y319006D01*
X643467Y319673D01*
X644133Y320542D01*
X644552Y321554D01*
X644695Y322640D01*
X644552Y323725D01*
X644133Y324737D01*
X643467Y325606D01*
X642598Y326273D01*
X641586Y326692D01*
X640500Y326835D01*
X639414Y326692D01*
X638402Y326273D01*
X637533Y325606D01*
X636867Y324737D01*
X636448Y323725D01*
X636305Y322640D01*
X636322Y322511D01*
X635873Y322290D01*
X634029Y324133D01*
Y338105D01*
X634491Y338296D01*
X636683Y336105D01*
X636448Y335536D01*
X636305Y334451D01*
X636448Y333365D01*
X636867Y332353D01*
X637533Y331484D01*
X638402Y330817D01*
X639414Y330398D01*
X640500Y330255D01*
X641586Y330398D01*
X642598Y330817D01*
X643467Y331484D01*
X644133Y332353D01*
X644552Y333365D01*
X644695Y334451D01*
X644552Y335536D01*
X644133Y336548D01*
X643467Y337417D01*
X642598Y338084D01*
X641586Y338503D01*
X640500Y338646D01*
X639414Y338503D01*
X638846Y338268D01*
X636029Y341084D01*
Y344879D01*
X636529Y344978D01*
X636867Y344164D01*
X637533Y343295D01*
X638402Y342628D01*
X639414Y342209D01*
X640500Y342066D01*
X641586Y342209D01*
X642598Y342628D01*
X643467Y343295D01*
X644133Y344164D01*
X644552Y345176D01*
X644695Y346262D01*
X644552Y347347D01*
X644133Y348359D01*
X643467Y349228D01*
X642598Y349895D01*
X641586Y350314D01*
X640500Y350457D01*
X639414Y350314D01*
X638402Y349895D01*
X637533Y349228D01*
X636867Y348359D01*
X636529Y347545D01*
X636029Y347644D01*
Y353000D01*
X635913Y353585D01*
X635581Y354081D01*
X627654Y362009D01*
X627846Y362471D01*
X633939D01*
X636683Y359727D01*
X636448Y359158D01*
X636305Y358073D01*
X636448Y356987D01*
X636867Y355975D01*
X637533Y355106D01*
X638402Y354439D01*
X639414Y354020D01*
X640500Y353877D01*
X641586Y354020D01*
X642598Y354439D01*
X643467Y355106D01*
X644133Y355975D01*
X644552Y356987D01*
X644695Y358073D01*
X644552Y359158D01*
X644133Y360170D01*
X643467Y361039D01*
X642598Y361706D01*
X641586Y362125D01*
X640500Y362268D01*
X639414Y362125D01*
X638846Y361890D01*
X635654Y365081D01*
X635158Y365413D01*
X634573Y365529D01*
X623401D01*
X623154Y366029D01*
X623365Y366304D01*
X623704Y367122D01*
X623820Y368000D01*
X623704Y368878D01*
X623365Y369696D01*
X622826Y370398D01*
X622124Y370937D01*
X621306Y371276D01*
X620428Y371391D01*
X619551Y371276D01*
X618733Y370937D01*
X618031Y370398D01*
X617491Y369696D01*
X617423Y369529D01*
X604134D01*
X581081Y392581D01*
X580585Y392913D01*
X580000Y393029D01*
X532311D01*
X531780Y393384D01*
X531000Y393539D01*
D02*
G37*
G36*
X620428Y391391D02*
X619551Y391276D01*
X618733Y390937D01*
X618031Y390398D01*
X617491Y389696D01*
X617153Y388878D01*
X617037Y388000D01*
X617153Y387122D01*
X617491Y386304D01*
X618031Y385602D01*
X618733Y385063D01*
X619551Y384724D01*
X620428Y384609D01*
X621306Y384724D01*
X622124Y385063D01*
X622826Y385602D01*
X623365Y386304D01*
X623704Y387122D01*
X623820Y388000D01*
X623704Y388878D01*
X623365Y389696D01*
X622826Y390398D01*
X622124Y390937D01*
X621306Y391276D01*
X620428Y391391D01*
D02*
G37*
G36*
X320428D02*
X319551Y391276D01*
X318733Y390937D01*
X318031Y390398D01*
X317492Y389696D01*
X317153Y388878D01*
X317037Y388000D01*
X317153Y387122D01*
X317492Y386304D01*
X318031Y385602D01*
X318733Y385063D01*
X319551Y384724D01*
X320428Y384609D01*
X321306Y384724D01*
X322124Y385063D01*
X322826Y385602D01*
X323365Y386304D01*
X323704Y387122D01*
X323820Y388000D01*
X323704Y388878D01*
X323365Y389696D01*
X322826Y390398D01*
X322124Y390937D01*
X321306Y391276D01*
X320428Y391391D01*
D02*
G37*
G36*
X604500Y393039D02*
X603720Y392884D01*
X603058Y392442D01*
X602616Y391780D01*
X602461Y391000D01*
X602616Y390220D01*
X603058Y389558D01*
Y389442D01*
X602616Y388780D01*
X602461Y388000D01*
X602616Y387220D01*
X603058Y386558D01*
Y386442D01*
X602616Y385780D01*
X602461Y385000D01*
X602616Y384220D01*
X603058Y383558D01*
Y383442D01*
X602616Y382780D01*
X602461Y382000D01*
X602616Y381220D01*
X603058Y380558D01*
X603720Y380116D01*
X604500Y379961D01*
X605280Y380116D01*
X605942Y380558D01*
X606384Y381220D01*
X606539Y382000D01*
X606384Y382780D01*
X605942Y383442D01*
Y383558D01*
X606384Y384220D01*
X606539Y385000D01*
X606384Y385780D01*
X605942Y386442D01*
Y386558D01*
X606384Y387220D01*
X606539Y388000D01*
X606384Y388780D01*
X605942Y389442D01*
Y389558D01*
X606384Y390220D01*
X606539Y391000D01*
X606384Y391780D01*
X605942Y392442D01*
X605280Y392884D01*
X604500Y393039D01*
D02*
G37*
G36*
X620428Y381391D02*
X619551Y381276D01*
X618733Y380937D01*
X618031Y380398D01*
X617491Y379696D01*
X617153Y378878D01*
X617037Y378000D01*
X617153Y377122D01*
X617491Y376304D01*
X618031Y375602D01*
X618733Y375063D01*
X619551Y374724D01*
X620428Y374609D01*
X621306Y374724D01*
X622124Y375063D01*
X622826Y375602D01*
X623365Y376304D01*
X623704Y377122D01*
X623820Y378000D01*
X623704Y378878D01*
X623365Y379696D01*
X622826Y380398D01*
X622124Y380937D01*
X621306Y381276D01*
X620428Y381391D01*
D02*
G37*
G36*
X320428D02*
X319551Y381276D01*
X318733Y380937D01*
X318031Y380398D01*
X317492Y379696D01*
X317153Y378878D01*
X317037Y378000D01*
X317153Y377122D01*
X317492Y376304D01*
X318031Y375602D01*
X318733Y375063D01*
X319551Y374724D01*
X320428Y374609D01*
X321306Y374724D01*
X322124Y375063D01*
X322826Y375602D01*
X323365Y376304D01*
X323704Y377122D01*
X323820Y378000D01*
X323704Y378878D01*
X323365Y379696D01*
X322826Y380398D01*
X322124Y380937D01*
X321306Y381276D01*
X320428Y381391D01*
D02*
G37*
G36*
X633100Y383235D02*
X631669Y383094D01*
X630293Y382676D01*
X629025Y381998D01*
X627914Y381086D01*
X627002Y379975D01*
X626324Y378707D01*
X625906Y377331D01*
X625766Y375900D01*
X625906Y374469D01*
X626324Y373093D01*
X627002Y371825D01*
X627914Y370714D01*
X629025Y369802D01*
X630293Y369124D01*
X631669Y368706D01*
X633100Y368566D01*
X634531Y368706D01*
X635907Y369124D01*
X637175Y369802D01*
X638286Y370714D01*
X639198Y371825D01*
X639876Y373093D01*
X640294Y374469D01*
X640435Y375900D01*
X640294Y377331D01*
X639876Y378707D01*
X639198Y379975D01*
X638286Y381086D01*
X637175Y381998D01*
X635907Y382676D01*
X634531Y383094D01*
X633100Y383235D01*
D02*
G37*
G36*
X305700Y381934D02*
X304269Y381794D01*
X302893Y381376D01*
X301625Y380698D01*
X300514Y379786D01*
X299602Y378675D01*
X298924Y377407D01*
X298506Y376031D01*
X298365Y374600D01*
X298506Y373169D01*
X298924Y371793D01*
X299602Y370525D01*
X300514Y369414D01*
X301625Y368502D01*
X302893Y367824D01*
X304269Y367406D01*
X305700Y367266D01*
X307131Y367406D01*
X308507Y367824D01*
X309775Y368502D01*
X310886Y369414D01*
X311798Y370525D01*
X312476Y371793D01*
X312894Y373169D01*
X313035Y374600D01*
X312894Y376031D01*
X312476Y377407D01*
X311798Y378675D01*
X310886Y379786D01*
X309775Y380698D01*
X308507Y381376D01*
X307131Y381794D01*
X305700Y381934D01*
D02*
G37*
G36*
X320428Y371391D02*
X319551Y371276D01*
X318733Y370937D01*
X318031Y370398D01*
X317492Y369696D01*
X317153Y368878D01*
X317037Y368000D01*
X317153Y367122D01*
X317492Y366304D01*
X318031Y365602D01*
X318733Y365063D01*
X319551Y364724D01*
X320428Y364609D01*
X321306Y364724D01*
X322124Y365063D01*
X322826Y365602D01*
X323365Y366304D01*
X323704Y367122D01*
X323820Y368000D01*
X323704Y368878D01*
X323365Y369696D01*
X322826Y370398D01*
X322124Y370937D01*
X321306Y371276D01*
X320428Y371391D01*
D02*
G37*
G36*
X494000Y357450D02*
Y355500D01*
X495950D01*
X495855Y355976D01*
X495302Y356802D01*
X494476Y357355D01*
X494000Y357450D01*
D02*
G37*
G36*
X493000D02*
X492524Y357355D01*
X491698Y356802D01*
X491145Y355976D01*
X491050Y355500D01*
X493000D01*
Y357450D01*
D02*
G37*
G36*
X320428Y361391D02*
X319551Y361276D01*
X318733Y360937D01*
X318031Y360398D01*
X317492Y359696D01*
X317153Y358878D01*
X317037Y358000D01*
X317153Y357122D01*
X317492Y356304D01*
X318031Y355602D01*
X318733Y355063D01*
X319551Y354724D01*
X320428Y354609D01*
X321306Y354724D01*
X322124Y355063D01*
X322826Y355602D01*
X323365Y356304D01*
X323704Y357122D01*
X323820Y358000D01*
X323704Y358878D01*
X323365Y359696D01*
X322826Y360398D01*
X322124Y360937D01*
X321306Y361276D01*
X320428Y361391D01*
D02*
G37*
G36*
X495950Y354500D02*
X494000D01*
Y352551D01*
X494476Y352645D01*
X495302Y353198D01*
X495855Y354025D01*
X495950Y354500D01*
D02*
G37*
G36*
X493000D02*
X491050D01*
X491145Y354025D01*
X491698Y353198D01*
X492524Y352645D01*
X493000Y352551D01*
Y354500D01*
D02*
G37*
G36*
X419323Y354450D02*
Y352500D01*
X421272D01*
X421178Y352976D01*
X420625Y353802D01*
X419798Y354355D01*
X419323Y354450D01*
D02*
G37*
G36*
X418323D02*
X417847Y354355D01*
X417020Y353802D01*
X416468Y352976D01*
X416373Y352500D01*
X418323D01*
Y354450D01*
D02*
G37*
G36*
X301008Y360432D02*
X299966Y360295D01*
X298995Y359893D01*
X298161Y359253D01*
X297521Y358419D01*
X297118Y357448D01*
X296981Y356405D01*
X297118Y355363D01*
X297521Y354392D01*
X298161Y353558D01*
X298995Y352918D01*
X299966Y352516D01*
X301008Y352379D01*
X302050Y352516D01*
X303021Y352918D01*
X303855Y353558D01*
X304495Y354392D01*
X304897Y355363D01*
X305034Y356405D01*
X304897Y357448D01*
X304495Y358419D01*
X303855Y359253D01*
X303021Y359893D01*
X302050Y360295D01*
X301008Y360432D01*
D02*
G37*
G36*
X459449Y353000D02*
X457500D01*
Y351050D01*
X457975Y351145D01*
X458802Y351698D01*
X459355Y352524D01*
X459449Y353000D01*
D02*
G37*
G36*
X456500D02*
X454551D01*
X454645Y352524D01*
X455198Y351698D01*
X456025Y351145D01*
X456500Y351050D01*
Y353000D01*
D02*
G37*
G36*
X421272Y351500D02*
X419323D01*
Y349551D01*
X419798Y349645D01*
X420625Y350198D01*
X421178Y351025D01*
X421272Y351500D01*
D02*
G37*
G36*
X418323D02*
X416373D01*
X416468Y351025D01*
X417020Y350198D01*
X417847Y349645D01*
X418323Y349551D01*
Y351500D01*
D02*
G37*
G36*
X494000Y349449D02*
Y347500D01*
X495950D01*
X495855Y347975D01*
X495302Y348802D01*
X494476Y349355D01*
X494000Y349449D01*
D02*
G37*
G36*
X493000D02*
X492524Y349355D01*
X491698Y348802D01*
X491145Y347975D01*
X491050Y347500D01*
X493000D01*
Y349449D01*
D02*
G37*
G36*
X320428Y351391D02*
X319551Y351276D01*
X318733Y350937D01*
X318031Y350398D01*
X317492Y349696D01*
X317153Y348878D01*
X317037Y348000D01*
X317153Y347122D01*
X317492Y346304D01*
X318031Y345602D01*
X318733Y345063D01*
X319551Y344724D01*
X320428Y344609D01*
X321306Y344724D01*
X322124Y345063D01*
X322826Y345602D01*
X323365Y346304D01*
X323704Y347122D01*
X323820Y348000D01*
X323704Y348878D01*
X323365Y349696D01*
X322826Y350398D01*
X322124Y350937D01*
X321306Y351276D01*
X320428Y351391D01*
D02*
G37*
G36*
X495950Y346500D02*
X494000D01*
Y344550D01*
X494476Y344645D01*
X495302Y345198D01*
X495855Y346024D01*
X495950Y346500D01*
D02*
G37*
G36*
X493000D02*
X491050D01*
X491145Y346024D01*
X491698Y345198D01*
X492524Y344645D01*
X493000Y344550D01*
Y346500D01*
D02*
G37*
G36*
X284000Y357439D02*
X282646Y357306D01*
X281345Y356911D01*
X280145Y356270D01*
X279093Y355407D01*
X278231Y354355D01*
X277589Y353155D01*
X277194Y351854D01*
X277061Y350500D01*
X277194Y349146D01*
X277589Y347845D01*
X278231Y346645D01*
X279093Y345593D01*
X280145Y344730D01*
X281345Y344089D01*
X282646Y343694D01*
X284000Y343561D01*
X285354Y343694D01*
X286655Y344089D01*
X287855Y344730D01*
X288907Y345593D01*
X289770Y346645D01*
X290411Y347845D01*
X290806Y349146D01*
X290939Y350500D01*
X290806Y351854D01*
X290411Y353155D01*
X289770Y354355D01*
X288907Y355407D01*
X287855Y356270D01*
X286655Y356911D01*
X285354Y357306D01*
X284000Y357439D01*
D02*
G37*
G36*
X657508Y356646D02*
X656135Y356511D01*
X654815Y356110D01*
X653598Y355460D01*
X652531Y354585D01*
X651656Y353518D01*
X651006Y352301D01*
X650605Y350981D01*
X650470Y349608D01*
X650605Y348235D01*
X651006Y346915D01*
X651656Y345698D01*
X652531Y344632D01*
X653598Y343756D01*
X654815Y343106D01*
X656135Y342705D01*
X657508Y342570D01*
X658881Y342705D01*
X660201Y343106D01*
X661418Y343756D01*
X662484Y344632D01*
X663360Y345698D01*
X664010Y346915D01*
X664410Y348235D01*
X664546Y349608D01*
X664410Y350981D01*
X664010Y352301D01*
X663360Y353518D01*
X662484Y354585D01*
X661418Y355460D01*
X660201Y356110D01*
X658881Y356511D01*
X657508Y356646D01*
D02*
G37*
G36*
X305000Y348587D02*
X297016D01*
Y340602D01*
X305000D01*
Y348587D01*
D02*
G37*
G36*
X620428Y341391D02*
X619551Y341276D01*
X618733Y340937D01*
X618031Y340398D01*
X617491Y339696D01*
X617153Y338878D01*
X617037Y338000D01*
X617153Y337122D01*
X617491Y336304D01*
X618031Y335602D01*
X618733Y335063D01*
X619551Y334724D01*
X620428Y334609D01*
X621306Y334724D01*
X622124Y335063D01*
X622826Y335602D01*
X623365Y336304D01*
X623704Y337122D01*
X623820Y338000D01*
X623704Y338878D01*
X623365Y339696D01*
X622826Y340398D01*
X622124Y340937D01*
X621306Y341276D01*
X620428Y341391D01*
D02*
G37*
G36*
X320428D02*
X319551Y341276D01*
X318733Y340937D01*
X318031Y340398D01*
X317492Y339696D01*
X317153Y338878D01*
X317037Y338000D01*
X317153Y337122D01*
X317492Y336304D01*
X318031Y335602D01*
X318733Y335063D01*
X319551Y334724D01*
X320428Y334609D01*
X321306Y334724D01*
X322124Y335063D01*
X322826Y335602D01*
X323365Y336304D01*
X323704Y337122D01*
X323820Y338000D01*
X323704Y338878D01*
X323365Y339696D01*
X322826Y340398D01*
X322124Y340937D01*
X321306Y341276D01*
X320428Y341391D01*
D02*
G37*
G36*
X620428Y331391D02*
X619551Y331276D01*
X618733Y330937D01*
X618031Y330398D01*
X617491Y329696D01*
X617153Y328878D01*
X617037Y328000D01*
X617153Y327122D01*
X617491Y326304D01*
X618031Y325602D01*
X618733Y325063D01*
X619551Y324724D01*
X620428Y324609D01*
X621306Y324724D01*
X622124Y325063D01*
X622826Y325602D01*
X623365Y326304D01*
X623704Y327122D01*
X623820Y328000D01*
X623704Y328878D01*
X623365Y329696D01*
X622826Y330398D01*
X622124Y330937D01*
X621306Y331276D01*
X620428Y331391D01*
D02*
G37*
G36*
X320428D02*
X319551Y331276D01*
X318733Y330937D01*
X318031Y330398D01*
X317492Y329696D01*
X317153Y328878D01*
X317037Y328000D01*
X317153Y327122D01*
X317492Y326304D01*
X318031Y325602D01*
X318733Y325063D01*
X319551Y324724D01*
X320428Y324609D01*
X321306Y324724D01*
X322124Y325063D01*
X322826Y325602D01*
X323365Y326304D01*
X323704Y327122D01*
X323820Y328000D01*
X323704Y328878D01*
X323365Y329696D01*
X322826Y330398D01*
X322124Y330937D01*
X321306Y331276D01*
X320428Y331391D01*
D02*
G37*
G36*
X365838Y335095D02*
X365057Y334940D01*
X364396Y334498D01*
X357326Y327428D01*
X356884Y326767D01*
X356729Y325986D01*
Y321000D01*
X356884Y320220D01*
X357326Y319558D01*
X357987Y319116D01*
X358768Y318961D01*
X359548Y319116D01*
X360210Y319558D01*
X360652Y320220D01*
X360807Y321000D01*
Y325142D01*
X367280Y331614D01*
X367722Y332276D01*
X367877Y333056D01*
X367722Y333837D01*
X367280Y334498D01*
X366618Y334940D01*
X365838Y335095D01*
D02*
G37*
G36*
X302900Y331835D02*
X301469Y331694D01*
X300093Y331276D01*
X298825Y330598D01*
X297714Y329686D01*
X296802Y328575D01*
X296124Y327307D01*
X295706Y325931D01*
X295566Y324500D01*
X295706Y323069D01*
X296124Y321693D01*
X296802Y320425D01*
X297714Y319314D01*
X298825Y318402D01*
X300093Y317724D01*
X301469Y317306D01*
X302900Y317165D01*
X304331Y317306D01*
X305707Y317724D01*
X306975Y318402D01*
X308086Y319314D01*
X308998Y320425D01*
X309676Y321693D01*
X310094Y323069D01*
X310234Y324500D01*
X310094Y325931D01*
X309676Y327307D01*
X308998Y328575D01*
X308086Y329686D01*
X306975Y330598D01*
X305707Y331276D01*
X304331Y331694D01*
X302900Y331835D01*
D02*
G37*
G36*
X620428Y321391D02*
X619551Y321276D01*
X618733Y320937D01*
X618031Y320398D01*
X617491Y319696D01*
X617153Y318878D01*
X617037Y318000D01*
X617153Y317122D01*
X617491Y316304D01*
X618031Y315602D01*
X618733Y315063D01*
X619551Y314724D01*
X620428Y314609D01*
X621306Y314724D01*
X622124Y315063D01*
X622826Y315602D01*
X623365Y316304D01*
X623704Y317122D01*
X623820Y318000D01*
X623704Y318878D01*
X623365Y319696D01*
X622826Y320398D01*
X622124Y320937D01*
X621306Y321276D01*
X620428Y321391D01*
D02*
G37*
G36*
X295398Y319000D02*
X287413D01*
Y311016D01*
X295398D01*
Y319000D01*
D02*
G37*
G36*
X279594Y319035D02*
X278552Y318897D01*
X277581Y318495D01*
X276747Y317855D01*
X276107Y317021D01*
X275705Y316050D01*
X275568Y315008D01*
X275705Y313966D01*
X276107Y312995D01*
X276747Y312161D01*
X277581Y311521D01*
X278552Y311119D01*
X279594Y310981D01*
X280637Y311119D01*
X281608Y311521D01*
X282442Y312161D01*
X283082Y312995D01*
X283484Y313966D01*
X283621Y315008D01*
X283484Y316050D01*
X283082Y317021D01*
X282442Y317855D01*
X281608Y318495D01*
X280637Y318897D01*
X279594Y319035D01*
D02*
G37*
G36*
X620928Y311325D02*
Y308500D01*
X623754D01*
X623704Y308878D01*
X623365Y309696D01*
X622826Y310398D01*
X622124Y310937D01*
X621306Y311276D01*
X620928Y311325D01*
D02*
G37*
G36*
X320928D02*
Y308500D01*
X323754D01*
X323704Y308878D01*
X323365Y309696D01*
X322826Y310398D01*
X322124Y310937D01*
X321306Y311276D01*
X320928Y311325D01*
D02*
G37*
G36*
X319928D02*
X319551Y311276D01*
X318733Y310937D01*
X318031Y310398D01*
X317492Y309696D01*
X317153Y308878D01*
X317103Y308500D01*
X319928D01*
Y311325D01*
D02*
G37*
G36*
X619928D02*
X619551Y311276D01*
X618733Y310937D01*
X618031Y310398D01*
X617491Y309696D01*
X617153Y308878D01*
X617103Y308500D01*
X619928D01*
Y311325D01*
D02*
G37*
G36*
X623754Y307500D02*
X620928D01*
Y304675D01*
X621306Y304724D01*
X622124Y305063D01*
X622826Y305602D01*
X623365Y306304D01*
X623704Y307122D01*
X623754Y307500D01*
D02*
G37*
G36*
X323754D02*
X320928D01*
Y304675D01*
X321306Y304724D01*
X322124Y305063D01*
X322826Y305602D01*
X323365Y306304D01*
X323704Y307122D01*
X323754Y307500D01*
D02*
G37*
G36*
X319928D02*
X317103D01*
X317153Y307122D01*
X317492Y306304D01*
X318031Y305602D01*
X318733Y305063D01*
X319551Y304724D01*
X319928Y304675D01*
Y307500D01*
D02*
G37*
G36*
X619928D02*
X617103D01*
X617153Y307122D01*
X617491Y306304D01*
X618031Y305602D01*
X618733Y305063D01*
X619551Y304724D01*
X619928Y304675D01*
Y307500D01*
D02*
G37*
G36*
X623791Y301362D02*
X617066D01*
Y294638D01*
X623791D01*
Y301362D01*
D02*
G37*
G36*
X320428Y301391D02*
X319551Y301276D01*
X318733Y300937D01*
X318031Y300398D01*
X317492Y299696D01*
X317153Y298878D01*
X317037Y298000D01*
X317153Y297122D01*
X317492Y296304D01*
X318031Y295602D01*
X318733Y295063D01*
X319551Y294724D01*
X320428Y294609D01*
X321306Y294724D01*
X322124Y295063D01*
X322826Y295602D01*
X323365Y296304D01*
X323704Y297122D01*
X323820Y298000D01*
X323704Y298878D01*
X323365Y299696D01*
X322826Y300398D01*
X322124Y300937D01*
X321306Y301276D01*
X320428Y301391D01*
D02*
G37*
G36*
X285500Y304939D02*
X284146Y304806D01*
X282845Y304411D01*
X281645Y303769D01*
X280593Y302907D01*
X279731Y301855D01*
X279089Y300655D01*
X278694Y299354D01*
X278561Y298000D01*
X278694Y296646D01*
X279089Y295345D01*
X279731Y294145D01*
X280593Y293093D01*
X281645Y292231D01*
X282845Y291589D01*
X284146Y291194D01*
X285500Y291061D01*
X286854Y291194D01*
X288155Y291589D01*
X289355Y292231D01*
X290407Y293093D01*
X291269Y294145D01*
X291911Y295345D01*
X292306Y296646D01*
X292439Y298000D01*
X292306Y299354D01*
X291911Y300655D01*
X291269Y301855D01*
X290407Y302907D01*
X289355Y303769D01*
X288155Y304411D01*
X286854Y304806D01*
X285500Y304939D01*
D02*
G37*
G36*
X640500Y279591D02*
X639414Y279448D01*
X638402Y279029D01*
X637533Y278362D01*
X636867Y277493D01*
X636448Y276481D01*
X636305Y275395D01*
X636448Y274310D01*
X636867Y273298D01*
X637533Y272429D01*
X638402Y271762D01*
X639414Y271343D01*
X640500Y271200D01*
X641586Y271343D01*
X642598Y271762D01*
X643467Y272429D01*
X644133Y273298D01*
X644552Y274310D01*
X644695Y275395D01*
X644552Y276481D01*
X644133Y277493D01*
X643467Y278362D01*
X642598Y279029D01*
X641586Y279448D01*
X640500Y279591D01*
D02*
G37*
G36*
X657508Y279087D02*
X656135Y278952D01*
X654815Y278551D01*
X653598Y277901D01*
X652531Y277026D01*
X651656Y275959D01*
X651006Y274742D01*
X650605Y273422D01*
X650470Y272049D01*
X650605Y270676D01*
X651006Y269356D01*
X651656Y268139D01*
X652531Y267073D01*
X653598Y266197D01*
X654815Y265547D01*
X656135Y265146D01*
X657508Y265011D01*
X658881Y265146D01*
X660201Y265547D01*
X661418Y266197D01*
X662484Y267073D01*
X663360Y268139D01*
X664010Y269356D01*
X664410Y270676D01*
X664546Y272049D01*
X664410Y273422D01*
X664010Y274742D01*
X663360Y275959D01*
X662484Y277026D01*
X661418Y277901D01*
X660201Y278551D01*
X658881Y278952D01*
X657508Y279087D01*
D02*
G37*
G36*
X617500Y276835D02*
X616069Y276694D01*
X614693Y276276D01*
X613425Y275598D01*
X612314Y274686D01*
X611402Y273575D01*
X610724Y272307D01*
X610306Y270931D01*
X610166Y269500D01*
X610306Y268069D01*
X610724Y266693D01*
X611402Y265425D01*
X612314Y264314D01*
X613425Y263402D01*
X614693Y262724D01*
X616069Y262306D01*
X617500Y262165D01*
X618931Y262306D01*
X620307Y262724D01*
X621575Y263402D01*
X622686Y264314D01*
X623598Y265425D01*
X624276Y266693D01*
X624694Y268069D01*
X624834Y269500D01*
X624694Y270931D01*
X624276Y272307D01*
X623598Y273575D01*
X622686Y274686D01*
X621575Y275598D01*
X620307Y276276D01*
X618931Y276694D01*
X617500Y276835D01*
D02*
G37*
G36*
X630492Y241492D02*
X622508D01*
Y233508D01*
X630492D01*
Y241492D01*
D02*
G37*
G36*
X614689Y241527D02*
X613647Y241389D01*
X612676Y240987D01*
X611842Y240347D01*
X611202Y239513D01*
X610800Y238542D01*
X610662Y237500D01*
X610800Y236458D01*
X611202Y235487D01*
X611842Y234653D01*
X612676Y234013D01*
X613647Y233611D01*
X614689Y233473D01*
X615731Y233611D01*
X616702Y234013D01*
X617536Y234653D01*
X618176Y235487D01*
X618578Y236458D01*
X618715Y237500D01*
X618578Y238542D01*
X618176Y239513D01*
X617536Y240347D01*
X616702Y240987D01*
X615731Y241389D01*
X614689Y241527D01*
D02*
G37*
G36*
X620595Y227431D02*
X619241Y227298D01*
X617939Y226903D01*
X616739Y226262D01*
X615688Y225399D01*
X614825Y224347D01*
X614184Y223148D01*
X613789Y221846D01*
X613656Y220492D01*
X613789Y219138D01*
X614184Y217837D01*
X614825Y216637D01*
X615688Y215586D01*
X616739Y214723D01*
X617939Y214081D01*
X619241Y213686D01*
X620595Y213553D01*
X621948Y213686D01*
X623250Y214081D01*
X624449Y214723D01*
X625501Y215586D01*
X626364Y216637D01*
X627005Y217837D01*
X627400Y219138D01*
X627533Y220492D01*
X627400Y221846D01*
X627005Y223148D01*
X626364Y224347D01*
X625501Y225399D01*
X624449Y226262D01*
X623250Y226903D01*
X621948Y227298D01*
X620595Y227431D01*
D02*
G37*
%LPD*%
G36*
X617702Y359971D02*
X617491Y359696D01*
X617153Y358878D01*
X617037Y358000D01*
X617153Y357122D01*
X617398Y356529D01*
X617113Y356029D01*
X607012D01*
X603033Y360009D01*
X603224Y360471D01*
X617456D01*
X617702Y359971D01*
D02*
G37*
D11*
X640500Y287207D02*
Y292500D01*
X630500Y302500D02*
X640500Y292500D01*
X630500Y302500D02*
Y349500D01*
X640500Y310829D02*
Y315500D01*
X632500Y323500D02*
X640500Y315500D01*
X632500Y323500D02*
Y351000D01*
X419500Y441500D02*
X513500D01*
X360428Y358000D02*
X469000D01*
X428000Y360500D02*
X450229D01*
X585464Y317500D02*
X589500D01*
X522578Y380387D02*
X585464Y317500D01*
X522578Y380387D02*
Y382922D01*
X482000Y423500D02*
X522578Y382922D01*
X327000Y423000D02*
X380500Y369500D01*
X305933Y423000D02*
X327000D01*
X300000Y417067D02*
X305933Y423000D01*
X327000Y443000D02*
X397500Y372500D01*
X315875Y443000D02*
X327000D01*
X313564Y440689D02*
X315875Y443000D01*
X322500Y463000D02*
X410000Y375500D01*
X301311Y463000D02*
X322500D01*
X300000Y464311D02*
X301311Y463000D01*
X328000Y483000D02*
X432500Y378500D01*
X304933Y483000D02*
X328000D01*
X300000Y487933D02*
X304933Y483000D01*
X300055Y393500D02*
X328000D01*
X300000Y393445D02*
X300055Y393500D01*
X328000D02*
X355000Y366500D01*
X508500D01*
X380500Y369500D02*
X512000D01*
X300000Y440689D02*
X313564D01*
X397500Y372500D02*
X508500D01*
X410000Y375500D02*
X512000D01*
X432500Y378500D02*
X508500D01*
X320428Y318000D02*
X360428Y358000D01*
X450729Y361000D02*
X451000D01*
X450229Y360500D02*
X450729Y361000D01*
X640500Y428877D02*
X646500Y434877D01*
Y489500D01*
X636000Y500000D02*
X646500Y489500D01*
X621500Y500000D02*
X636000D01*
X613250Y491750D02*
X621500Y500000D01*
X583000Y461500D02*
X592250Y470750D01*
X595219Y473719D01*
X591353Y477585D02*
X595219Y473719D01*
X591353Y477585D02*
X593474Y479706D01*
X597340Y475840D01*
X601670Y471510D01*
X603792Y473631D01*
X599461Y477961D02*
X603792Y473631D01*
X595595Y481827D02*
X599461Y477961D01*
X595595Y481827D02*
X597717Y483949D01*
X601583Y480083D01*
X605913Y475752D01*
X608034Y477874D01*
X603704Y482204D02*
X608034Y477874D01*
X599838Y486070D02*
X603704Y482204D01*
X599838Y486070D02*
X601959Y488192D01*
X605825Y484325D01*
X610156Y479995D01*
X612277Y482116D01*
X607947Y486447D02*
X612277Y482116D01*
X604081Y490313D02*
X607947Y486447D01*
X604081Y490313D02*
X606202Y492434D01*
X610068Y488568D01*
X614398Y484238D01*
X616520Y486359D01*
X612189Y490689D02*
X616520Y486359D01*
X612189Y490689D02*
X613250Y491750D01*
X604500Y452500D02*
X640499D01*
X593500Y441500D02*
X604500Y452500D01*
X546000Y441500D02*
X593500D01*
X513500D02*
X541500D01*
Y440047D02*
Y441500D01*
Y440047D02*
X544500D01*
Y441500D01*
X546000D01*
X472036Y471500D02*
X513000D01*
X469535Y469000D02*
X472036Y471500D01*
X513000D02*
X519000Y465500D01*
X520500Y461500D02*
X583000D01*
X513000Y469000D02*
X520500Y461500D01*
X473500Y469000D02*
X513000D01*
X641566Y417066D02*
X648500Y424000D01*
Y492621D01*
X637621Y503500D02*
X648500Y492621D01*
X615000Y503500D02*
X637621D01*
X575000Y463500D02*
X615000Y503500D01*
X520964Y463500D02*
X575000D01*
X519000Y465464D02*
X520964Y463500D01*
X640500Y417066D02*
X641566D01*
X519000Y465464D02*
Y465500D01*
X466000Y469000D02*
X469535D01*
X615500Y478000D02*
X620428D01*
X590500Y453000D02*
X615500Y478000D01*
X545000Y453000D02*
X590500D01*
X606000Y464500D02*
X640310D01*
X588000Y446500D02*
X606000Y464500D01*
X640310D02*
X640500Y464310D01*
X589928Y457500D02*
X620428Y488000D01*
X542500Y457500D02*
X589928D01*
X488732Y434732D02*
X490232D01*
X486000Y432000D02*
X488732Y434732D01*
X490232D02*
X492000Y436500D01*
X485732Y437232D02*
X487732D01*
X483500Y435000D02*
X485732Y437232D01*
X487732D02*
X489500Y439000D01*
X640499Y452500D02*
X640500Y452499D01*
X419500Y446500D02*
X588000D01*
X629000Y354500D02*
X632500Y351000D01*
X606379Y354500D02*
X629000D01*
X627000Y353000D02*
X630500Y349500D01*
X602500Y353000D02*
X627000D01*
X625000Y351500D02*
X628000Y348500D01*
Y276084D02*
Y348500D01*
Y276084D02*
X640500Y263584D01*
X600000Y351500D02*
X625000D01*
X573000Y378500D02*
X600000Y351500D01*
X535000Y378500D02*
X573000D01*
X625500Y362000D02*
X634500Y353000D01*
Y340451D02*
Y353000D01*
Y340451D02*
X640500Y334451D01*
X574000Y381500D02*
X602500Y353000D01*
X531000Y381500D02*
X574000D01*
X594879Y366000D02*
X606379Y354500D01*
X593000Y366000D02*
X594879D01*
X601000Y362000D02*
X625500D01*
X603500Y364000D02*
X634573D01*
X640500Y358073D01*
X578500Y389000D02*
X603500Y364000D01*
X576500Y386500D02*
X601000Y362000D01*
X575000Y384000D02*
X593000Y366000D01*
X535000Y384000D02*
X575000D01*
X531000Y386500D02*
X576500D01*
X535000Y389000D02*
X578500D01*
X531000Y391500D02*
X580000D01*
X603500Y368000D01*
X620428D01*
D99*
X404800Y500500D02*
X501832D01*
X502332Y500000D01*
X599500D01*
X390800Y486500D02*
X404800Y500500D01*
X374300Y486500D02*
X390800D01*
X360800Y500000D02*
X374300Y486500D01*
X349000Y500000D02*
X360800D01*
X522500Y400772D02*
X522500Y400772D01*
X509500Y400772D02*
X522500D01*
X599000Y288500D02*
X600500D01*
X578000Y309500D02*
X599000Y288500D01*
X341000D02*
X343851D01*
X364851Y309500D01*
X433725D01*
X434225Y309000D01*
X495000D01*
X518000Y372500D02*
Y378500D01*
Y368500D02*
Y372500D01*
X430000Y421500D02*
X475000D01*
X518000Y378500D01*
X512500Y363000D02*
X518000Y368500D01*
X475500Y363000D02*
X512500D01*
X473000Y360500D02*
X475500Y363000D01*
X473000Y357050D02*
Y360500D01*
X442868Y326918D02*
X473000Y357050D01*
X401768Y326918D02*
X442868D01*
X495500Y309500D02*
X578000D01*
X495000Y309000D02*
X495500Y309500D01*
X558405Y468500D02*
X579906Y490000D01*
X590000D01*
D102*
X475000Y340500D02*
Y354000D01*
X472000Y342000D02*
Y351000D01*
X476500Y358000D02*
X479000Y355500D01*
X465000Y318000D02*
X470500Y312500D01*
X465000Y318000D02*
Y335000D01*
X472000Y342000D01*
X468000Y326500D02*
X471000Y323500D01*
X468000Y326500D02*
Y333743D01*
X469757Y335500D01*
X470000D01*
X475000Y340500D01*
X471000Y332500D02*
X479000Y340500D01*
Y355500D01*
X358768Y325986D02*
X365838Y333056D01*
X358768Y321000D02*
Y325986D01*
D104*
X302900Y324500D02*
D03*
X382800Y496600D02*
D03*
X305700Y374600D02*
D03*
X633100Y375900D02*
D03*
X617500Y269500D02*
D03*
D105*
X411252Y490000D02*
D03*
X442748D02*
D03*
D106*
X419126D02*
D03*
X320428Y478000D02*
D03*
Y468000D02*
D03*
Y458000D02*
D03*
Y448000D02*
D03*
Y438000D02*
D03*
Y428000D02*
D03*
Y418000D02*
D03*
Y408000D02*
D03*
Y398000D02*
D03*
Y388000D02*
D03*
Y378000D02*
D03*
Y368000D02*
D03*
Y358000D02*
D03*
Y348000D02*
D03*
Y338000D02*
D03*
Y328000D02*
D03*
Y318000D02*
D03*
Y308000D02*
D03*
Y298000D02*
D03*
X620428Y488000D02*
D03*
Y478000D02*
D03*
Y468000D02*
D03*
Y458000D02*
D03*
Y448000D02*
D03*
Y438000D02*
D03*
Y428000D02*
D03*
Y418000D02*
D03*
Y408000D02*
D03*
Y398000D02*
D03*
Y388000D02*
D03*
Y378000D02*
D03*
Y368000D02*
D03*
Y358000D02*
D03*
Y348000D02*
D03*
Y338000D02*
D03*
Y328000D02*
D03*
Y318000D02*
D03*
Y308000D02*
D03*
D107*
X427000Y490000D02*
D03*
X434874D02*
D03*
D108*
X640500Y487932D02*
D03*
Y476121D02*
D03*
Y464310D02*
D03*
Y452499D02*
D03*
Y440688D02*
D03*
Y428877D02*
D03*
Y417066D02*
D03*
Y405255D02*
D03*
Y393444D02*
D03*
X300000Y393445D02*
D03*
X300000Y405256D02*
D03*
X300000Y417067D02*
D03*
X300000Y428878D02*
D03*
X300000Y440689D02*
D03*
X300000Y452500D02*
D03*
X300000Y464311D02*
D03*
Y476122D02*
D03*
Y487933D02*
D03*
X640500Y358073D02*
D03*
Y346262D02*
D03*
Y334451D02*
D03*
Y322640D02*
D03*
Y310829D02*
D03*
Y299018D02*
D03*
Y287207D02*
D03*
Y275395D02*
D03*
Y263584D02*
D03*
D109*
X657508Y479467D02*
D03*
Y401908D02*
D03*
X282992Y401909D02*
D03*
X282992Y479468D02*
D03*
X657508Y349608D02*
D03*
Y272049D02*
D03*
D110*
X620595Y220492D02*
D03*
X284000Y350500D02*
D03*
X285500Y298000D02*
D03*
D111*
X614689Y237500D02*
D03*
X301008Y356405D02*
D03*
X279594Y315008D02*
D03*
D112*
X626500Y237500D02*
D03*
X291406Y315008D02*
D03*
D113*
X301008Y344595D02*
D03*
D114*
X320428Y488000D02*
D03*
X620428Y298000D02*
D03*
D115*
X522500Y400772D02*
D03*
X509500Y400772D02*
D03*
X418823Y352000D02*
D03*
X405500Y375500D02*
D03*
X493500Y347000D02*
D03*
Y355000D02*
D03*
X509500Y407500D02*
D03*
X579000Y416000D02*
D03*
X588000Y408000D02*
D03*
Y413000D02*
D03*
Y418500D02*
D03*
X580000Y407500D02*
D03*
X411000Y451500D02*
D03*
X446500Y411500D02*
D03*
X448000Y426000D02*
D03*
X457000Y353500D02*
D03*
D116*
X600500Y288500D02*
D03*
X341000D02*
D03*
X518000Y372500D02*
D03*
X430000Y421500D02*
D03*
X401768Y326918D02*
D03*
X349000Y500000D02*
D03*
X599500D02*
D03*
X590000Y490000D02*
D03*
X558405Y468500D02*
D03*
D117*
X475000Y354000D02*
D03*
X469000Y358000D02*
D03*
X428000Y360500D02*
D03*
X472000Y351000D02*
D03*
X476500Y358000D02*
D03*
X598500Y302500D02*
D03*
X595000D02*
D03*
X591500D02*
D03*
Y306000D02*
D03*
Y309500D02*
D03*
X590000Y317500D02*
D03*
X482000Y423500D02*
D03*
X508500Y366500D02*
D03*
X512000Y369500D02*
D03*
X508500Y372500D02*
D03*
X512000Y375500D02*
D03*
X508500Y378500D02*
D03*
X358768Y321000D02*
D03*
X365838Y333056D02*
D03*
X451000Y361000D02*
D03*
X470500Y312500D02*
D03*
X471000Y323500D02*
D03*
Y332500D02*
D03*
X521500Y466500D02*
D03*
X466000Y469000D02*
D03*
X473500D02*
D03*
X545000Y453000D02*
D03*
X542500Y457500D02*
D03*
X492000Y436500D02*
D03*
X489500Y439000D02*
D03*
X486000Y432000D02*
D03*
X483500Y435000D02*
D03*
X419500Y441500D02*
D03*
Y446500D02*
D03*
X456500Y439000D02*
D03*
X535000Y378500D02*
D03*
X531000Y381500D02*
D03*
X535000Y384000D02*
D03*
Y389000D02*
D03*
X531000Y391500D02*
D03*
Y386500D02*
D03*
X564000Y342500D02*
D03*
X604500Y385000D02*
D03*
Y388000D02*
D03*
Y382000D02*
D03*
Y391000D02*
D03*
X565500Y402000D02*
D03*
X569000D02*
D03*
X572500D02*
D03*
X607000Y435500D02*
D03*
Y439000D02*
D03*
Y442500D02*
D03*
Y446000D02*
D03*
X521500Y470000D02*
D03*
Y473500D02*
D03*
M02*
