G04*
G04 #@! TF.GenerationSoftware,Altium Limited,Altium Designer,19.1.5 (86)*
G04*
G04 Layer_Color=16711935*
%FSLAX25Y25*%
%MOIN*%
G70*
G01*
G75*
%ADD84C,0.10642*%
%ADD85C,0.06706*%
%ADD86C,0.05524*%
%ADD87C,0.05918*%
%ADD88C,0.07119*%
%ADD89C,0.06804*%
%ADD90C,0.12611*%
%ADD91C,0.06784*%
%ADD92R,0.06784X0.06784*%
%ADD93R,0.06784X0.06784*%
%ADD94R,0.05524X0.05524*%
%ADD95C,0.03800*%
%ADD96C,0.04300*%
%ADD97C,0.02800*%
D84*
X302900Y324500D02*
D03*
X382800Y496600D02*
D03*
X305700Y374600D02*
D03*
X633100Y375900D02*
D03*
X617500Y269500D02*
D03*
D85*
X411252Y490000D02*
D03*
X442748D02*
D03*
D86*
X419126D02*
D03*
X320428Y478000D02*
D03*
Y468000D02*
D03*
Y458000D02*
D03*
Y448000D02*
D03*
Y438000D02*
D03*
Y428000D02*
D03*
Y418000D02*
D03*
Y408000D02*
D03*
Y398000D02*
D03*
Y388000D02*
D03*
Y378000D02*
D03*
Y368000D02*
D03*
Y358000D02*
D03*
Y348000D02*
D03*
Y338000D02*
D03*
Y328000D02*
D03*
Y318000D02*
D03*
Y308000D02*
D03*
Y298000D02*
D03*
X620428Y488000D02*
D03*
Y478000D02*
D03*
Y468000D02*
D03*
Y458000D02*
D03*
Y448000D02*
D03*
Y438000D02*
D03*
Y428000D02*
D03*
Y418000D02*
D03*
Y408000D02*
D03*
Y398000D02*
D03*
Y388000D02*
D03*
Y378000D02*
D03*
Y368000D02*
D03*
Y358000D02*
D03*
Y348000D02*
D03*
Y338000D02*
D03*
Y328000D02*
D03*
Y318000D02*
D03*
Y308000D02*
D03*
D87*
X427000Y490000D02*
D03*
X434874D02*
D03*
D88*
X640500Y487932D02*
D03*
Y476121D02*
D03*
Y464310D02*
D03*
Y452499D02*
D03*
Y440688D02*
D03*
Y428877D02*
D03*
Y417066D02*
D03*
Y405255D02*
D03*
Y393444D02*
D03*
X300000Y393445D02*
D03*
X300000Y405256D02*
D03*
X300000Y417067D02*
D03*
X300000Y428878D02*
D03*
X300000Y440689D02*
D03*
X300000Y452500D02*
D03*
X300000Y464311D02*
D03*
Y476122D02*
D03*
Y487933D02*
D03*
X640500Y358073D02*
D03*
Y346262D02*
D03*
Y334451D02*
D03*
Y322640D02*
D03*
Y310829D02*
D03*
Y299018D02*
D03*
Y287207D02*
D03*
Y275395D02*
D03*
Y263584D02*
D03*
D89*
X657508Y479467D02*
D03*
Y401908D02*
D03*
X282992Y401909D02*
D03*
X282992Y479468D02*
D03*
X657508Y349608D02*
D03*
Y272049D02*
D03*
D90*
X620595Y220492D02*
D03*
X284000Y350500D02*
D03*
X285500Y298000D02*
D03*
D91*
X614689Y237500D02*
D03*
X301008Y356405D02*
D03*
X279594Y315008D02*
D03*
D92*
X626500Y237500D02*
D03*
X291406Y315008D02*
D03*
D93*
X301008Y344595D02*
D03*
D94*
X320428Y488000D02*
D03*
X620428Y298000D02*
D03*
D95*
X522500Y400772D02*
D03*
X509500Y400772D02*
D03*
X418823Y352000D02*
D03*
X405500Y375500D02*
D03*
X493500Y347000D02*
D03*
Y355000D02*
D03*
X509500Y407500D02*
D03*
X579000Y416000D02*
D03*
X588000Y408000D02*
D03*
Y413000D02*
D03*
Y418500D02*
D03*
X580000Y407500D02*
D03*
X411000Y451500D02*
D03*
X446500Y411500D02*
D03*
X448000Y426000D02*
D03*
X457000Y353500D02*
D03*
D96*
X600500Y288500D02*
D03*
X341000D02*
D03*
X518000Y372500D02*
D03*
X430000Y421500D02*
D03*
X401768Y326918D02*
D03*
X349000Y500000D02*
D03*
X599500D02*
D03*
X590000Y490000D02*
D03*
X558405Y468500D02*
D03*
D97*
X475000Y354000D02*
D03*
X469000Y358000D02*
D03*
X428000Y360500D02*
D03*
X472000Y351000D02*
D03*
X476500Y358000D02*
D03*
X598500Y302500D02*
D03*
X595000D02*
D03*
X591500D02*
D03*
Y306000D02*
D03*
Y309500D02*
D03*
X590000Y317500D02*
D03*
X482000Y423500D02*
D03*
X508500Y366500D02*
D03*
X512000Y369500D02*
D03*
X508500Y372500D02*
D03*
X512000Y375500D02*
D03*
X508500Y378500D02*
D03*
X358768Y321000D02*
D03*
X365838Y333056D02*
D03*
X451000Y361000D02*
D03*
X470500Y312500D02*
D03*
X471000Y323500D02*
D03*
Y332500D02*
D03*
X521500Y466500D02*
D03*
X466000Y469000D02*
D03*
X473500D02*
D03*
X545000Y453000D02*
D03*
X542500Y457500D02*
D03*
X492000Y436500D02*
D03*
X489500Y439000D02*
D03*
X486000Y432000D02*
D03*
X483500Y435000D02*
D03*
X419500Y441500D02*
D03*
Y446500D02*
D03*
X456500Y439000D02*
D03*
X535000Y378500D02*
D03*
X531000Y381500D02*
D03*
X535000Y384000D02*
D03*
Y389000D02*
D03*
X531000Y391500D02*
D03*
Y386500D02*
D03*
X564000Y342500D02*
D03*
X604500Y385000D02*
D03*
Y388000D02*
D03*
Y382000D02*
D03*
Y391000D02*
D03*
X565500Y402000D02*
D03*
X569000D02*
D03*
X572500D02*
D03*
X607000Y435500D02*
D03*
Y439000D02*
D03*
Y442500D02*
D03*
Y446000D02*
D03*
X521500Y470000D02*
D03*
Y473500D02*
D03*
M02*
